<svg width="147" height="52" viewBox="0 0 147 52" fill="none" xmlns="http://www.w3.org/2000/svg">
<path fill-rule="evenodd" clip-rule="evenodd" d="M146 23.5C146 15.2157 139.284 8.5 131 8.5H16C7.71573 8.5 1 15.2157 1 23.5V35.1666C1 43.4509 7.71573 50.1666 16 50.1666H131C139.284 50.1666 146 43.4509 146 35.1666V23.5Z" fill="#838383"/>
<path fill-rule="evenodd" clip-rule="evenodd" d="M16 1H131C139.284 1 146 7.71573 146 16V18.5C146 10.2157 139.284 3.5 131 3.5H16C7.71573 3.5 1 10.2157 1 18.5V16C1 7.71573 7.71573 1 16 1Z" fill="#C1C1C1"/>
<path fill-rule="evenodd" clip-rule="evenodd" d="M146 18.5C146 10.2157 139.284 3.5 131 3.5H16C7.71573 3.5 1 10.2157 1 18.5V30.1666C1 38.4509 7.71573 45.1666 16 45.1666H131C139.284 45.1666 146 38.4509 146 30.1666V18.5Z" fill="#9A9A9A"/>
<path d="M131 1H16C7.71573 1 1 7.71573 1 16V36C1 44.2843 7.71573 51 16 51H131C139.284 51 146 44.2843 146 36V16C146 7.71573 139.284 1 131 1Z" stroke="#382710" stroke-width="2"/>
</svg>
