<svg width="48" height="43" viewBox="0 0 48 43" fill="none" xmlns="http://www.w3.org/2000/svg">
<path d="M4.6416 0.999998C4.6416 0.447713 5.08932 0 5.6416 0H44.4255C46.0823 0 47.4255 1.34315 47.4255 3V39.7839C47.4255 41.4407 46.0823 42.7839 44.4255 42.7839H5.6416C5.08931 42.7839 4.6416 42.3362 4.6416 41.7839V0.999998Z" fill="#FFF5C0"/>
<path d="M9.30151 9.16455C9.30151 7.5077 10.6447 6.16455 12.3015 6.16455H39.7661C41.423 6.16455 42.7661 7.5077 42.7661 9.16455V33.6639C42.7661 35.3208 41.423 36.6639 39.7661 36.6639H12.3015C10.6447 36.6639 9.30151 35.3208 9.30151 33.6639V9.16455Z" fill="#F0691D"/>
<path d="M22.8564 15.1308C22.8564 13.4611 24.2861 12.095 26.0335 12.095C27.7808 12.095 29.2105 13.4611 29.2105 15.1308C29.2105 16.8005 26.0335 21.2024 26.0335 21.2024C26.0335 21.2024 22.8564 16.8005 22.8564 15.1308ZM29.2105 27.2741C29.2105 28.9438 27.7808 30.3099 26.0335 30.3099C24.2861 30.3099 22.8564 28.9438 22.8564 27.2741C22.8564 25.6044 26.0335 21.2024 26.0335 21.2024C26.0335 21.2024 29.2105 25.6044 29.2105 27.2741Z" fill="white"/>
<path d="M18.8999 20.9382C17.3617 19.987 16.9002 18.0845 17.8231 16.6577C18.746 15.0723 20.5919 14.5966 21.9762 15.5479C23.5144 16.4991 25.8217 21.4139 25.8217 21.4139C25.8217 21.4139 20.438 21.8895 18.8999 20.9382ZM32.7435 21.8895C34.2816 22.8407 34.7431 24.7432 33.8202 26.17C32.8973 27.7554 31.0515 28.2311 29.6671 27.2798C28.1289 26.4871 25.8217 21.4139 25.8217 21.4139C25.8217 21.4139 31.2053 20.9382 32.7435 21.8895Z" fill="white"/>
<path d="M32.7435 20.9382C34.2816 19.987 34.7431 18.0845 33.8202 16.6577C32.8973 15.0723 31.0515 14.5966 29.6671 15.5479C28.1289 16.3406 25.8217 21.4139 25.8217 21.4139C25.8217 21.4139 31.2053 21.8895 32.7435 20.9382ZM18.8999 21.8895C17.3617 22.8407 16.9002 24.7432 17.8231 26.17C18.746 27.7554 20.5919 28.2311 21.9762 27.2798C23.5144 26.3286 25.8217 21.4139 25.8217 21.4139C25.8217 21.4139 20.438 20.9382 18.8999 21.8895Z" fill="white"/>
<path d="M26.0335 24.3792C27.7881 24.3792 29.2105 23.0516 29.2105 21.4139C29.2105 19.7763 27.7881 18.4487 26.0335 18.4487C24.2788 18.4487 22.8564 19.7763 22.8564 21.4139C22.8564 23.0516 24.2788 24.3792 26.0335 24.3792Z" fill="#FFC107"/>
<path d="M1 10.0146H6.46258" stroke="#563A10" stroke-width="2" stroke-linecap="round"/>
<path d="M1 4.55225H3.73129H6.46258" stroke="#563A10" stroke-width="2" stroke-linecap="round"/>
<path d="M1 15.4773H6.46258" stroke="#563A10" stroke-width="2" stroke-linecap="round"/>
<path d="M1 20.9399H6.46258" stroke="#563A10" stroke-width="2" stroke-linecap="round"/>
<path d="M1 26.4023H6.46258" stroke="#563A10" stroke-width="2" stroke-linecap="round"/>
<path d="M1 31.865H6.46258" stroke="#563A10" stroke-width="2" stroke-linecap="round"/>
<path d="M1 37.3276H6.46258" stroke="#563A10" stroke-width="2" stroke-linecap="round"/>
</svg>
