<svg width="172" height="52" viewBox="0 0 172 52" fill="none" xmlns="http://www.w3.org/2000/svg">
<path fill-rule="evenodd" clip-rule="evenodd" d="M171 23.5C171 15.2157 164.284 8.5 156 8.5H16C7.71573 8.5 1 15.2157 1 23.5V35.1666C1 43.4509 7.71573 50.1666 16 50.1666H156C164.284 50.1666 171 43.4509 171 35.1666V23.5Z" fill="#F0DF99"/>
<path fill-rule="evenodd" clip-rule="evenodd" d="M16 1H156C164.284 1 171 7.71573 171 16V18.5C171 10.2157 164.284 3.5 156 3.5H16C7.71573 3.5 1 10.2157 1 18.5V16C1 7.71573 7.71573 1 16 1Z" fill="white"/>
<path fill-rule="evenodd" clip-rule="evenodd" d="M171 18.5C171 10.2157 164.284 3.5 156 3.5H16C7.71573 3.5 1 10.2157 1 18.5V30.1666C1 38.4509 7.71573 45.1666 16 45.1666H156C164.284 45.1666 171 38.4509 171 30.1666V18.5Z" fill="#FFF8DC"/>
<path d="M156 1H16C7.71573 1 1 7.71573 1 16V36C1 44.2843 7.71573 51 16 51H156C164.284 51 171 44.2843 171 36V16C171 7.71573 164.284 1 156 1Z" stroke="#382710" stroke-width="2"/>
</svg>
