<svg width="25" height="25" viewBox="0 0 25 25" fill="none" xmlns="http://www.w3.org/2000/svg">
<path d="M17.0559 20.3948C17.1967 20.2568 17.3084 20.0927 17.3846 19.9122C17.4608 19.7316 17.5 19.538 17.5 19.3425C17.5 19.147 17.4608 18.9535 17.3846 18.7729C17.3084 18.5923 17.1967 18.4283 17.0559 18.2902L11.1636 12.4987L17.0559 6.70719C17.3398 6.4281 17.4994 6.04957 17.4994 5.65487C17.4994 5.26017 17.3398 4.88164 17.0559 4.60255C16.7719 4.32345 16.3868 4.16666 15.9853 4.16666C15.5837 4.16666 15.1986 4.32345 14.9146 4.60255L7.94411 11.4538C7.80333 11.5919 7.69164 11.756 7.61543 11.9365C7.53922 12.1171 7.5 12.3107 7.5 12.5062C7.5 12.7016 7.53922 12.8952 7.61543 13.0758C7.69164 13.2564 7.80333 13.4204 7.94411 13.5585L14.9146 20.4098C15.4917 20.977 16.4636 20.977 17.0559 20.3948Z" fill="white"/>
</svg>
