<svg width="25" height="25" viewBox="0 0 25 25" fill="none" xmlns="http://www.w3.org/2000/svg">
<path d="M17.0559 20.395C17.1967 20.2569 17.3084 20.0929 17.3846 19.9123C17.4608 19.7318 17.5 19.5382 17.5 19.3427C17.5 19.1472 17.4608 18.9536 17.3846 18.7731C17.3084 18.5925 17.1967 18.4285 17.0559 18.2904L11.1636 12.4989L17.0559 6.70736C17.3398 6.42827 17.4994 6.04974 17.4994 5.65504C17.4994 5.26034 17.3398 4.88181 17.0559 4.60271C16.7719 4.32362 16.3868 4.16683 15.9853 4.16683C15.5837 4.16683 15.1986 4.32362 14.9146 4.60271L7.94411 11.454C7.80333 11.5921 7.69164 11.7561 7.61543 11.9367C7.53922 12.1173 7.5 12.3108 7.5 12.5063C7.5 12.7018 7.53922 12.8954 7.61543 13.076C7.69164 13.2565 7.80333 13.4206 7.94411 13.5586L14.9146 20.4099C15.4917 20.9771 16.4636 20.9771 17.0559 20.395Z" fill="white"/>
</svg>
