<svg width="40" height="40" viewBox="0 0 40 40" fill="none" xmlns="http://www.w3.org/2000/svg">
<g clip-path="url(#clip0_259_1751)">
<path fill-rule="evenodd" clip-rule="evenodd" d="M19.9999 23.5349L28.8382 32.3749C29.3072 32.8439 29.9433 33.1074 30.6066 33.1074C31.2698 33.1074 31.9059 32.8439 32.3749 32.3749C32.8439 31.9059 33.1074 31.2699 33.1074 30.6066C33.1074 29.9434 32.8439 29.3073 32.3749 28.8383L23.5332 19.9999L32.3732 11.1616C32.6054 10.9294 32.7895 10.6537 32.915 10.3504C33.0406 10.047 33.1052 9.72185 33.1051 9.39352C33.105 9.06518 33.0403 8.74008 32.9146 8.43677C32.7889 8.13346 32.6046 7.85788 32.3724 7.62577C32.1402 7.39366 31.8645 7.20956 31.5612 7.08399C31.2578 6.95841 30.9327 6.89382 30.6043 6.89389C30.276 6.89397 29.9509 6.95872 29.6476 7.08444C29.3443 7.21016 29.0687 7.39439 28.8366 7.62661L19.9999 16.4649L11.1616 7.62661C10.9311 7.38772 10.6553 7.19714 10.3504 7.06598C10.0454 6.93481 9.71739 6.86569 9.38544 6.86265C9.0535 6.85961 8.72427 6.92271 8.41697 7.04827C8.10967 7.17383 7.83046 7.35933 7.59562 7.59395C7.36077 7.82857 7.17501 8.10761 7.04916 8.41479C6.92332 8.72197 6.85991 9.05114 6.86263 9.38309C6.86536 9.71503 6.93417 10.0431 7.06505 10.3482C7.19592 10.6533 7.38625 10.9292 7.62491 11.1599L16.4666 19.9999L7.62658 28.8383C7.15759 29.3073 6.89411 29.9434 6.89411 30.6066C6.89411 31.2699 7.15759 31.9059 7.62658 32.3749C8.09557 32.8439 8.73166 33.1074 9.39491 33.1074C10.0582 33.1074 10.6943 32.8439 11.1632 32.3749L19.9999 23.5333V23.5349Z" fill="white"/>
</g>
<defs>
<clipPath id="clip0_259_1751">
<rect width="40" height="40" fill="white"/>
</clipPath>
</defs>
</svg>
