<svg width="315" height="240" viewBox="0 0 315 240" fill="none" xmlns="http://www.w3.org/2000/svg">
<path d="M39 239.466C39 239.466 45.9914 230.531 51.9741 230.062C57.9568 229.593 57.5699 231.938 61.0656 231.938C64.5613 231.938 64.9206 231.143 66.924 231.195C68.9275 231.247 68.6511 231.547 71.8843 231.547C74.4266 231.547 75.6287 230.531 77.1485 230.557C78.9585 230.583 80.5337 232.341 81.8601 233.501C84.7064 235.975 87 240 87 240L39 239.466Z" fill="url(#paint0_linear_583_3884)"/>
<path d="M227 239.466C227 239.466 233.991 230.531 239.974 230.062C245.957 229.593 245.57 231.938 249.066 231.938C252.561 231.938 252.921 231.143 254.924 231.195C256.927 231.247 256.651 231.547 259.884 231.547C262.427 231.547 263.629 230.531 265.149 230.557C266.959 230.583 268.534 232.341 269.86 233.501C272.706 235.975 275 240 275 240L227 239.466Z" fill="url(#paint1_linear_583_3884)"/>
<rect x="54" y="116" width="20" height="117" fill="#7A5538"/>
<rect x="241" y="116" width="20" height="117" fill="#7A5538"/>
<path d="M301.517 0H13.483C6.04214 0 0 5.99608 0 13.3802V16.1469C0 8.76278 6.04214 2.7667 13.483 2.7667H301.517C308.967 2.7667 315 8.76278 315 16.1469V13.3802C315 5.98664 308.958 0 301.517 0Z" fill="#CCA78B"/>
<path d="M301.517 2.7666H13.483C6.03655 2.7666 0 8.75714 0 16.1468V136C0 143.39 6.03655 149.38 13.483 149.38H301.517C308.963 149.38 315 143.39 315 136V16.1468C315 8.75714 308.963 2.7666 301.517 2.7666Z" fill="#B5865B"/>
<path d="M0.523438 32.6338C22.3703 32.5677 53.0187 31.7273 74.5325 32.6338V32.7282C53.1995 33.5403 21.9802 32.9737 0.523438 32.6338Z" fill="#A57853"/>
<path d="M0.523438 123.071C22.3703 123.004 53.0187 122.164 74.5325 123.071V123.165C53.1995 123.977 21.9802 123.411 0.523438 123.071Z" fill="#A57853"/>
<path d="M10.5427 65.041C32.3896 64.9749 63.038 64.1345 84.5518 65.041V65.1355C63.2188 65.9475 31.9995 65.381 10.5427 65.041Z" fill="#A57853"/>
<path d="M178.105 66.2024C199.952 66.1363 230.6 65.2959 252.114 66.2024V66.2968C230.781 67.1089 199.562 66.5423 178.105 66.2024Z" fill="#A57853"/>
<path d="M210 91.418C231.847 91.3519 262.495 90.5115 284.009 91.418V91.5124C262.676 92.3245 231.457 91.7579 210 91.418Z" fill="#A57853"/>
<path d="M210.086 49.1018C239.459 49.0357 281.126 48.2047 310.071 49.1018V49.1962C281.354 49.9988 239.031 49.4417 210.086 49.1018Z" fill="#A57853"/>
<path d="M235.758 26.9871C257.604 26.921 288.253 26.0806 309.767 26.9871V27.0815C288.434 27.8936 257.214 27.327 235.758 26.9871Z" fill="#A57853"/>
<path d="M235.758 117.424C257.604 117.358 288.253 116.517 309.767 117.424V117.518C288.434 118.33 257.214 117.764 235.758 117.424Z" fill="#A57853"/>
<path d="M74.4277 15.977C110.88 15.9109 162.595 15.08 198.515 15.977V16.0714C162.852 16.8741 110.414 16.317 74.4277 15.977Z" fill="#A57853"/>
<path d="M74.4277 106.414C110.88 106.348 162.595 105.517 198.515 106.414V106.508C162.852 107.311 110.414 106.754 74.4277 106.414Z" fill="#A57853"/>
<path d="M60.1836 87.418C85.2085 87.3519 120.32 86.5115 144.973 87.418V87.5124C120.519 88.3245 84.8089 87.7579 60.1836 87.418Z" fill="#A57853"/>
<path d="M301.517 145.38H13.483C6.03262 145.38 0 139.384 0 132V135.881C0 143.275 6.04214 149.261 13.483 149.261H301.517C308.967 149.261 315 143.265 315 135.881V132C315 139.394 308.958 145.38 301.517 145.38Z" fill="#996E4A"/>
<defs>
<linearGradient id="paint0_linear_583_3884" x1="63" y1="230" x2="63" y2="240" gradientUnits="userSpaceOnUse">
<stop stop-color="#83B94E"/>
<stop offset="1" stop-color="#9BCC6A"/>
</linearGradient>
<linearGradient id="paint1_linear_583_3884" x1="251" y1="230" x2="251" y2="240" gradientUnits="userSpaceOnUse">
<stop stop-color="#83B94E"/>
<stop offset="1" stop-color="#A5D179"/>
</linearGradient>
</defs>
</svg>
