<svg width="37" height="37" viewBox="0 0 37 37" fill="none" xmlns="http://www.w3.org/2000/svg">
<path d="M14.6459 12.4895H14.6461C14.687 12.4895 14.7262 12.4735 14.7554 12.445C14.7831 12.4179 14.7997 12.3815 14.8021 12.3429V12.2834L14.8114 12.2157C14.8594 11.866 14.9943 11.534 15.2036 11.2499L15.2054 11.2474C15.3785 11.014 15.6709 10.7209 16.1701 10.5004C16.6544 10.2865 17.2852 10.1621 18.1128 10.1772C19.2226 10.1973 20.1377 10.6569 20.6845 11.3294C20.9705 11.6731 21.1556 12.0895 21.2193 12.5322C21.2826 12.973 21.223 13.4226 21.0472 13.8315C20.6894 14.706 19.8803 15.0691 19.1161 15.4075L19.1078 15.4112L19.0993 15.4148L19.0494 15.4358C18.6898 15.5953 18.3313 15.7585 18.0665 15.9701C17.7694 16.2093 17.573 16.5188 17.573 16.9583V18.1138C17.573 18.1553 17.5895 18.195 17.6188 18.2243C17.6481 18.2536 17.6879 18.27 17.7293 18.27C17.7707 18.27 17.8105 18.2535 17.8398 18.2241C17.8691 18.1948 17.8855 18.1551 17.8855 18.1136V18.113V16.9968V16.5824L18.1786 16.2895L18.1801 16.2879L18.2192 16.2489L18.2623 16.2144C18.5074 16.0183 18.8516 15.866 19.2256 15.7006L19.2377 15.6952L19.313 15.6613L19.313 15.6612L19.3211 15.6577C20.0667 15.3292 20.9515 14.9106 21.3423 13.9325L21.3423 13.9324L21.3472 13.9205C21.5363 13.4645 21.5982 12.9657 21.5263 12.4774C21.4543 11.989 21.2513 11.5293 20.9388 11.1472L20.9388 11.1472L20.9343 11.1417C20.3245 10.3851 19.3158 9.88454 18.1178 9.86436L18.1172 9.86435C16.3434 9.83332 15.4244 10.4273 14.9533 11.0611C14.703 11.4007 14.5455 11.7997 14.4962 12.2186C14.493 12.2509 14.491 12.2834 14.4899 12.3159C14.4906 12.323 14.4919 12.3338 14.4942 12.3473C14.5014 12.3907 14.5139 12.4332 14.5291 12.4636C14.5322 12.4698 14.5348 12.4743 14.5367 12.4775C14.552 12.4823 14.5856 12.4895 14.6459 12.4895ZM14.4896 12.3279C14.4896 12.3287 14.4896 12.3294 14.4896 12.3302H14.4896V12.3292C14.4896 12.3295 14.4896 12.3299 14.1771 12.33L14.4896 12.3279ZM14.5412 12.4837C14.5412 12.4837 14.541 12.4834 14.5404 12.4829L14.5412 12.4837ZM14.5304 12.4753C14.5279 12.4738 14.5265 12.4732 14.5264 12.4733C14.5263 12.4734 14.5276 12.4741 14.5304 12.4753ZM31.8334 6.93742V30.0624C31.8334 31.3498 31.322 32.5845 30.4116 33.4948C29.5013 34.4052 28.2666 34.9166 26.9792 34.9166H6.55212C5.98026 34.9166 5.4318 34.6894 5.02743 34.285C4.62304 33.8807 4.39587 33.3322 4.39587 32.7603C4.39587 32.1885 4.62304 31.64 5.02742 31.2356C5.19204 31.071 5.38054 30.9358 5.58477 30.8332C5.38054 30.7307 5.19205 30.5955 5.02743 30.4309C4.62304 30.0265 4.39587 29.478 4.39587 28.9062V6.93742C4.39587 6.29996 4.52143 5.66874 4.76538 5.07981C5.00932 4.49088 5.36688 3.95576 5.81763 3.505C6.26838 3.05425 6.8035 2.6967 7.39243 2.45275C7.98137 2.20881 8.61258 2.08325 9.25004 2.08325H26.9792C28.2666 2.08325 29.5013 2.59467 30.4116 3.505C31.322 4.41534 31.8334 5.65001 31.8334 6.93742ZM18.2709 22.3541C18.2709 22.2104 18.2138 22.0727 18.1122 21.9711C18.0106 21.8695 17.8729 21.8124 17.7292 21.8124C17.5856 21.8124 17.4478 21.8695 17.3462 21.9711C17.2446 22.0727 17.1875 22.2104 17.1875 22.3541C17.1875 22.4977 17.2446 22.6355 17.3462 22.7371C17.4478 22.8387 17.5855 22.8958 17.7292 22.8958C17.8729 22.8958 18.0106 22.8387 18.1122 22.7371C18.2138 22.6355 18.2709 22.4977 18.2709 22.3541Z" fill="#B74C35" stroke="white" stroke-width="2"/>
</svg>
