<svg width="91" height="78" viewBox="0 0 91 78" fill="none" xmlns="http://www.w3.org/2000/svg">
<g clip-path="url(#clip0_613_3145)">
<path d="M74.1514 1.39941H16.4144C8.12185 1.39941 1.39941 8.12185 1.39941 16.4144V60.6757C1.39941 68.9683 8.12185 75.6907 16.4144 75.6907H74.1514C82.444 75.6907 89.1664 68.9683 89.1664 60.6757V16.4144C89.1664 8.12185 82.444 1.39941 74.1514 1.39941Z" fill="#E4BB0B" stroke="#382710" stroke-width="2" stroke-miterlimit="10"/>
<path d="M74.9491 2.57471H15.7147C8.61235 2.57471 2.85474 8.33232 2.85474 15.4347V50.0405C2.85474 57.1429 8.61235 62.9005 15.7147 62.9005H74.9491C82.0514 62.9005 87.8091 57.1429 87.8091 50.0405V15.4347C87.8091 8.33232 82.0514 2.57471 74.9491 2.57471Z" fill="#FCCC00"/>
<path d="M74.9351 2.57471H15.7147C8.62004 2.57471 2.85474 8.34002 2.85474 15.4487V16.904C2.85474 9.79534 8.62004 4.03003 15.7147 4.03003H74.9351C82.0438 4.03003 87.7951 9.79534 87.7951 16.89V15.4347C87.7951 8.32602 82.0298 2.57471 74.9351 2.57471Z" fill="#FFEC9D"/>
</g>
<defs>
<clipPath id="clip0_613_3145">
<rect width="90.5657" height="77.09" fill="white"/>
</clipPath>
</defs>
</svg>
