<svg width="38" height="38" viewBox="0 0 38 38" fill="none" xmlns="http://www.w3.org/2000/svg">
<circle cx="18.7117" cy="18.7117" r="17.7117" fill="#23A0BC" stroke="white" stroke-width="2"/>
<circle cx="18.7116" cy="18.7118" r="2.50675" fill="#2F676A" stroke="white" stroke-width="2"/>
<path d="M15.842 6.56275C15.593 5.7726 14.7507 5.33383 13.9606 5.58273C13.1704 5.83163 12.7317 6.67395 12.9806 7.46411L15.842 6.56275ZM12.9806 7.46411L15.9227 16.8041L18.7841 15.9028L15.842 6.56275L12.9806 7.46411Z" fill="white"/>
<path d="M27.2343 24.4366C27.9938 24.7674 28.8777 24.4199 29.2085 23.6604C29.5394 22.9009 29.1919 22.017 28.4324 21.6862L27.2343 24.4366ZM20.6891 21.5854L27.2343 24.4366L28.4324 21.6862L21.8872 18.835L20.6891 21.5854Z" fill="white"/>
</svg>
