<svg width="40" height="40" viewBox="0 0 40 40" fill="none" xmlns="http://www.w3.org/2000/svg">
<g clip-path="url(#clip0_772_7246)">
<circle cx="20.0004" cy="21.6" r="13.6" fill="white"/>
<path fill-rule="evenodd" clip-rule="evenodd" d="M1.84697e-05 20C1.84697e-05 8.954 8.95402 0 20 0C31.046 0 40 8.954 40 20C40 31.046 31.046 40 20 40C17.053 40.004 14.1418 39.3544 11.476 38.098L2.40202 39.958C2.07803 40.0242 1.74268 40.0091 1.42598 39.9139C1.10928 39.8187 0.821122 39.6465 0.587292 39.4127C0.353462 39.1789 0.18126 38.8907 0.0861014 38.574C-0.00905735 38.2573 -0.0242036 37.922 0.0420183 37.598L1.90202 28.524C0.645602 25.8582 -0.00399335 22.947 1.84697e-05 20ZM11 17C10.2044 17 9.4413 17.3161 8.87869 17.8787C8.31608 18.4413 8.00001 19.2043 8.00001 20V20.02C8.00001 20.8156 8.31608 21.5787 8.87869 22.1413C9.4413 22.7039 10.2044 23.02 11 23.02H11.02C11.8157 23.02 12.5787 22.7039 13.1413 22.1413C13.7039 21.5787 14.02 20.8156 14.02 20.02V20C14.02 19.2043 13.7039 18.4413 13.1413 17.8787C12.5787 17.3161 11.8157 17 11.02 17H11ZM20 17C19.2044 17 18.4413 17.3161 17.8787 17.8787C17.3161 18.4413 17 19.2043 17 20V20.02C17 20.8156 17.3161 21.5787 17.8787 22.1413C18.4413 22.7039 19.2044 23.02 20 23.02H20.02C20.8157 23.02 21.5787 22.7039 22.1413 22.1413C22.7039 21.5787 23.02 20.8156 23.02 20.02V20C23.02 19.2043 22.7039 18.4413 22.1413 17.8787C21.5787 17.3161 20.8157 17 20.02 17H20ZM26 20C26 19.2043 26.3161 18.4413 26.8787 17.8787C27.4413 17.3161 28.2044 17 29 17H29.02C29.8157 17 30.5787 17.3161 31.1413 17.8787C31.7039 18.4413 32.02 19.2043 32.02 20V20.02C32.02 20.8156 31.7039 21.5787 31.1413 22.1413C30.5787 22.7039 29.8157 23.02 29.02 23.02H29C28.2044 23.02 27.4413 22.7039 26.8787 22.1413C26.3161 21.5787 26 20.8156 26 20.02V20Z" fill="#B0B0B0"/>
</g>
<defs>
<clipPath id="clip0_772_7246">
<rect width="40" height="40" fill="white"/>
</clipPath>
</defs>
</svg>
