<svg width="25" height="25" viewBox="0 0 25 25" fill="none" xmlns="http://www.w3.org/2000/svg">
<g clip-path="url(#clip0_443_1994)">
<circle cx="12.5" cy="13.5" r="8.5" fill="white"/>
<path fill-rule="evenodd" clip-rule="evenodd" d="M1.15435e-05 12.5C1.15435e-05 5.59625 5.59626 0 12.5 0C19.4038 0 25 5.59625 25 12.5C25 19.4037 19.4038 25 12.5 25C10.6581 25.0025 8.83861 24.5965 7.17251 23.8112L1.50126 24.9737C1.29877 25.0151 1.08917 25.0057 0.891238 24.9462C0.693302 24.8867 0.513201 24.7791 0.367057 24.6329C0.220914 24.4868 0.113288 24.3067 0.0538134 24.1088C-0.00566084 23.9108 -0.0151273 23.7012 0.0262614 23.4987L1.18876 17.8275C0.403501 16.1614 -0.00249584 14.3419 1.15435e-05 12.5ZM6.87501 10.625C6.37773 10.625 5.90081 10.8225 5.54918 11.1742C5.19755 11.5258 5.00001 12.0027 5.00001 12.5V12.5125C5.00001 13.0098 5.19755 13.4867 5.54918 13.8383C5.90081 14.1899 6.37773 14.3875 6.87501 14.3875H6.88751C7.38479 14.3875 7.8617 14.1899 8.21333 13.8383C8.56496 13.4867 8.76251 13.0098 8.76251 12.5125V12.5C8.76251 12.0027 8.56496 11.5258 8.21333 11.1742C7.8617 10.8225 7.38479 10.625 6.88751 10.625H6.87501ZM12.5 10.625C12.0027 10.625 11.5258 10.8225 11.1742 11.1742C10.8226 11.5258 10.625 12.0027 10.625 12.5V12.5125C10.625 13.0098 10.8226 13.4867 11.1742 13.8383C11.5258 14.1899 12.0027 14.3875 12.5 14.3875H12.5125C13.0098 14.3875 13.4867 14.1899 13.8383 13.8383C14.19 13.4867 14.3875 13.0098 14.3875 12.5125V12.5C14.3875 12.0027 14.19 11.5258 13.8383 11.1742C13.4867 10.8225 13.0098 10.625 12.5125 10.625H12.5ZM16.25 12.5C16.25 12.0027 16.4475 11.5258 16.7992 11.1742C17.1508 10.8225 17.6277 10.625 18.125 10.625H18.1375C18.6348 10.625 19.1117 10.8225 19.4633 11.1742C19.815 11.5258 20.0125 12.0027 20.0125 12.5V12.5125C20.0125 13.0098 19.815 13.4867 19.4633 13.8383C19.1117 14.1899 18.6348 14.3875 18.1375 14.3875H18.125C17.6277 14.3875 17.1508 14.1899 16.7992 13.8383C16.4475 13.4867 16.25 13.0098 16.25 12.5125V12.5Z" fill="#B0B0B0"/>
</g>
<defs>
<clipPath id="clip0_443_1994">
<rect width="25" height="25" fill="white"/>
</clipPath>
</defs>
</svg>
