<svg width="96" height="96" viewBox="0 0 96 96" fill="none" xmlns="http://www.w3.org/2000/svg">
<path d="M76.5805 58.3703C77.5486 59.8724 77.1916 62.0018 75.8461 64.1228C75.385 64.845 75.2139 65.7148 75.3671 66.5578C75.5204 67.4008 75.9866 68.1548 76.6724 68.6685C78.6783 70.1804 79.7619 72.0479 79.3842 73.7945C78.7136 76.8967 73.6883 78.4429 68.1597 77.2478C65.1459 76.5964 62.6064 75.2644 61.0269 73.6853C60.6198 82.4187 54.3839 90.1181 45.4306 92.0066C36.1152 93.9715 26.95 88.9939 23.3143 80.5801C22.3928 82.6161 20.483 84.7595 17.8885 86.4318C13.1342 89.496 7.88618 89.8173 6.16675 87.1495C5.19865 85.6474 5.55568 83.518 6.90115 81.3971C7.36229 80.6749 7.53339 79.8051 7.38016 78.9621C7.22693 78.119 6.76068 77.3651 6.0749 76.8514C4.069 75.3395 2.98542 73.472 3.36307 71.7254C4.03365 68.6231 9.05902 67.077 14.5876 68.272C17.5967 68.9225 20.1331 70.2515 21.7131 71.8275C22.1196 63.0933 28.3558 55.3931 37.3095 53.5045C46.6296 51.5385 55.7993 56.5223 59.4312 64.9437C60.3522 62.9065 62.2627 60.7614 64.8589 59.0882C69.6131 56.0239 74.8611 55.7025 76.5805 58.3703Z" fill="#00B1FF"/>
<path d="M30.2791 70.0681C29.4466 70.7446 28.296 70.9917 27.2048 70.6226C25.5151 70.0512 24.6086 68.2181 25.1801 66.5282C26.2895 63.2485 28.4028 60.4831 31.1328 58.742C32.6365 57.7825 34.6334 58.2239 35.5928 59.7278C36.5521 61.2316 36.1101 63.2286 34.607 64.1877C33.1354 65.1268 31.9295 66.7341 31.2992 68.598C31.1052 69.1747 30.7514 69.6845 30.2791 70.0681Z" fill="#76DFFF"/>
<path d="M23.314 80.5797C22.9107 81.4701 22.3187 82.381 21.5627 83.2641C20.6388 81.4836 19.9611 79.5859 19.5483 77.6229C19.0052 75.0479 18.9349 72.4833 19.2771 70.0184C20.2319 70.5578 21.0548 71.1712 21.7128 71.8273C21.6355 73.5007 21.7719 75.1772 22.1187 76.8161C22.3905 78.1074 22.791 79.3682 23.314 80.5797ZM59.4311 64.9443C59.9515 66.1517 60.3501 67.4081 60.6209 68.6948C60.9678 70.3343 61.1042 72.0115 61.0267 73.6855C61.6859 74.3442 62.5114 74.9602 63.4698 75.5014C63.8118 73.0366 63.7416 70.4719 63.1985 67.8969C62.7857 65.9339 62.108 64.0362 61.1841 62.2557C60.4271 63.1403 59.8345 64.0527 59.4311 64.9443Z" fill="#0E91CC"/>
<g clip-path="url(#clip0_843_5140)">
<path d="M61.4029 67.8016C76.3196 70.0068 90.2182 59.5768 92.4463 44.5056C94.6743 29.4343 84.388 15.429 69.4712 13.2238C54.5545 11.0186 40.6559 21.4486 38.4278 36.5199C36.1998 51.5911 46.4861 65.5964 61.4029 67.8016Z" fill="#E5AA6E"/>
<path d="M56.8742 31.6063C56.8742 31.6063 57.0332 31.6114 57.2743 31.6575C57.5166 31.7022 57.8412 31.7876 58.1932 31.9279C58.5449 32.0682 58.9224 32.2648 59.2875 32.5148C59.6541 32.7632 60.0048 33.0687 60.3243 33.4053C60.6413 33.7444 60.9268 34.1148 61.1566 34.5001C61.3751 34.8619 61.5547 35.2458 61.6925 35.6454C61.8177 36.0122 61.8904 36.3495 61.9263 36.6006C61.9635 36.8504 61.9635 37.0144 61.9635 37.0144C61.9632 38.0379 61.1337 38.8674 60.1102 38.8671C60.1102 38.8671 59.9462 38.8671 59.6964 38.8298C59.4452 38.7938 59.1081 38.7209 58.7412 38.5957C58.3417 38.4578 57.9579 38.278 57.5962 38.0595C57.211 37.8295 56.8407 37.5439 56.5016 37.2267C56.1652 36.9072 55.8599 36.5564 55.6115 36.1896C55.3616 35.8244 55.1652 35.4469 55.0249 35.0952C54.8848 34.7432 54.7995 34.4185 54.7548 34.1763C54.7089 33.9352 54.7039 33.7762 54.7039 33.7762C54.6671 32.6146 55.5791 31.6431 56.7408 31.6064C56.7834 31.6049 56.8321 31.6052 56.8742 31.6063ZM51.4396 48.1491C51.8437 47.0593 51.2877 45.8483 50.198 45.4443C50.198 45.4443 50.0488 45.389 49.8083 45.3407C49.567 45.2907 49.2342 45.2473 48.8554 45.2444C48.4766 45.2416 48.0528 45.2812 47.6205 45.375C47.1872 45.4667 46.7472 45.6172 46.3243 45.8084C45.9028 46.0028 45.4986 46.2382 45.1403 46.5081C44.8015 46.7608 44.4903 47.0485 44.2119 47.3665C43.9576 47.6589 43.7629 47.9438 43.6349 48.1628C43.5062 48.3802 43.4443 48.5321 43.4443 48.5321C43.0582 49.48 43.5137 50.561 44.4615 50.9471C44.4615 50.9471 44.6134 51.009 44.8588 51.0688C45.105 51.1303 45.4447 51.19 45.8317 51.2124C46.2537 51.2354 46.677 51.2138 47.0944 51.1479C47.5378 51.0802 47.9887 50.9554 48.4223 50.7897C48.8545 50.6207 49.2695 50.411 49.6379 50.1651C50.0071 49.9213 50.3315 49.6457 50.5941 49.3729C50.8566 49.0999 51.0582 48.8313 51.191 48.6238C51.3246 48.418 51.3892 48.2726 51.3892 48.2726C51.4063 48.2342 51.4247 48.1892 51.4396 48.1491ZM88.4608 40.3457C88.8648 39.2558 88.3089 38.0449 87.2192 37.6409C87.2192 37.6409 87.07 37.5856 86.8294 37.5373C86.5881 37.4873 86.2553 37.4438 85.8765 37.441C85.4977 37.4382 85.074 37.4778 84.6416 37.5715C84.2084 37.6633 83.7683 37.8138 83.3454 38.005C82.924 38.1994 82.5197 38.4347 82.1615 38.7047C81.8226 38.9573 81.5114 39.2451 81.2331 39.5631C80.9787 39.8555 80.784 40.1404 80.6561 40.3594C80.5274 40.5767 80.4655 40.7287 80.4655 40.7287C80.0793 41.6766 80.5348 42.7576 81.4827 43.1437C81.4827 43.1437 81.6345 43.2056 81.88 43.2654C82.1261 43.3269 82.4659 43.3865 82.8528 43.409C83.2748 43.432 83.6981 43.4104 84.1156 43.3445C84.5589 43.2768 85.0099 43.152 85.4434 42.9863C85.8756 42.8173 86.2907 42.6076 86.659 42.3617C87.0282 42.1178 87.3527 41.8423 87.6154 41.5695C87.8778 41.2965 88.0794 41.0279 88.2122 40.8204C88.3458 40.6146 88.4104 40.4692 88.4104 40.4692C88.4274 40.4307 88.4459 40.3858 88.4608 40.3457ZM63.4845 60.9537C64.1063 60.4386 64.1929 59.5169 63.6779 58.8951C63.6779 58.8951 63.6603 58.8738 63.6266 58.8401C63.5925 58.8087 63.5436 58.755 63.4795 58.7015C63.3127 58.5581 63.1324 58.4312 62.9411 58.3227C62.7152 58.1924 62.448 58.0736 62.1574 57.9838C61.8668 57.8925 61.5525 57.8341 61.2347 57.8059C60.9166 57.7801 60.595 57.7847 60.2894 57.8255C60.1402 57.8449 59.9923 57.8721 59.846 57.9072C59.7042 57.9405 59.5689 57.9841 59.4435 58.0268C59.2305 58.1017 59.0249 58.196 58.8293 58.3087C58.7542 58.3506 58.6939 58.395 58.6534 58.4203C58.6127 58.4477 58.5905 58.4657 58.5905 58.4657C58.0488 58.9059 57.9544 59.7015 58.3848 60.2555C58.3848 60.2555 58.4022 60.278 58.4357 60.314C58.4695 60.3477 58.5181 60.4047 58.5816 60.4625C58.7466 60.6167 58.9255 60.7553 59.1159 60.8764C59.2283 60.9465 59.3503 61.0197 59.4808 61.0843C59.6112 61.1498 59.7497 61.2105 59.894 61.2644C60.1825 61.3735 60.4946 61.4508 60.8102 61.4979C61.1261 61.5425 61.4455 61.5571 61.7492 61.5341C62.0526 61.5124 62.3399 61.4575 62.5894 61.3818C62.8004 61.3195 63.0048 61.2368 63.1997 61.135C63.2743 61.0974 63.3342 61.0563 63.3744 61.0334C63.4149 61.0083 63.437 60.9915 63.437 60.9915C63.4514 60.9802 63.4703 60.9653 63.4845 60.9537ZM70.4001 24.7074C71.0489 25.1881 71.9645 25.052 72.4452 24.4032C72.4452 24.4032 72.4616 24.381 72.4863 24.3402C72.5088 24.2996 72.5492 24.2392 72.5858 24.1642C72.6853 23.968 72.7654 23.7626 72.825 23.5508C72.8976 23.3004 72.949 23.0125 72.9669 22.7088C72.986 22.405 72.9676 22.0858 72.919 21.7704C72.868 21.4554 72.7868 21.1443 72.6741 20.8572C72.6197 20.717 72.5579 20.5798 72.4888 20.4462C72.4227 20.3165 72.3479 20.1953 72.2765 20.0839C72.1529 19.8949 72.0121 19.7178 71.8559 19.5548C71.7973 19.4919 71.7398 19.4439 71.7055 19.4106C71.6692 19.3776 71.6465 19.3604 71.6465 19.3604C71.0895 18.9395 70.2944 19.0381 69.8593 19.5884C69.8593 19.5884 69.8416 19.6108 69.8147 19.6518C69.7899 19.6926 69.7463 19.7535 69.7054 19.829C69.5951 20.026 69.5033 20.2328 69.4312 20.4468C69.39 20.5726 69.348 20.7086 69.3165 20.8507C69.2832 20.9974 69.2578 21.1457 69.2404 21.2951C69.2034 21.6012 69.2028 21.9228 69.2326 22.2406C69.2648 22.558 69.327 22.8716 69.4219 23.161C69.5155 23.4505 69.6375 23.7162 69.7706 23.9405C69.8815 24.1304 70.0107 24.3091 70.1562 24.4741C70.2105 24.5374 70.2647 24.5858 70.2968 24.6194C70.3288 24.6514 70.3634 24.6808 70.4001 24.7074ZM69.4016 40.8553C69.8682 41.5143 70.7807 41.6703 71.4397 41.2037C71.4397 41.2037 71.4623 41.1877 71.4983 41.1566C71.5323 41.125 71.5895 41.0803 71.6477 41.0204C71.8033 40.865 71.9435 40.6948 72.0662 40.5122C72.2131 40.2969 72.3517 40.0394 72.4634 39.7563C72.5763 39.4735 72.6583 39.1645 72.7104 38.8498C72.7601 38.5345 72.7799 38.2135 72.7623 37.9056C72.7544 37.7554 72.7383 37.6058 72.7144 37.4573C72.692 37.3134 72.6586 37.1751 72.6255 37.0469C72.5669 36.8289 72.4884 36.6167 72.3908 36.4131C72.3548 36.3351 72.3151 36.2716 72.2929 36.2292C72.2686 36.1866 72.2524 36.1632 72.2524 36.1632C71.8544 35.5897 71.0682 35.4356 70.4831 35.8227C70.4831 35.8227 70.4594 35.8384 70.4211 35.8691C70.3848 35.9002 70.3244 35.9444 70.262 36.0035C70.0958 36.1563 69.9442 36.3242 69.8089 36.505C69.7306 36.6117 69.6484 36.7278 69.5741 36.8531C69.4967 36.982 69.4264 37.115 69.3633 37.2515C69.2326 37.5309 69.1319 37.8364 69.0612 38.1475C68.9927 38.4592 68.9542 38.7765 68.9542 39.081C68.9528 39.3852 68.9859 39.6758 69.0425 39.9303C69.0887 40.1454 69.1557 40.3554 69.2426 40.5575C69.2744 40.6347 69.3109 40.6975 69.3307 40.7394C69.3527 40.7817 69.3677 40.8049 69.3677 40.8049C69.3775 40.8203 69.3909 40.8402 69.4016 40.8553ZM49.0259 34.7827C49.6478 34.2677 49.7344 33.346 49.2194 32.7241C49.2194 32.7241 49.2017 32.7028 49.168 32.6692C49.134 32.6377 49.085 32.584 49.0209 32.5305C48.8542 32.3871 48.6739 32.2602 48.4826 32.1517C48.2567 32.0214 47.9894 31.9027 47.6988 31.8128C47.4083 31.7215 47.094 31.6632 46.7761 31.635C46.458 31.6092 46.1364 31.6137 45.8308 31.6546C45.6817 31.6739 45.5337 31.7012 45.3875 31.7363C45.2457 31.7695 45.1103 31.8132 44.985 31.8559C44.772 31.9307 44.5663 32.0251 44.3707 32.1378C44.2956 32.1797 44.2354 32.224 44.1949 32.2493C44.1542 32.2768 44.1319 32.2947 44.1319 32.2947C43.5903 32.7349 43.4959 33.5306 43.9262 34.0846C43.9262 34.0846 43.9437 34.107 43.9772 34.143C44.0109 34.1768 44.0595 34.2337 44.1231 34.2916C44.288 34.4457 44.4669 34.5843 44.6574 34.7055C44.7697 34.7755 44.8918 34.8487 45.0223 34.9133C45.1527 34.9788 45.2912 35.0395 45.4355 35.0934C45.7239 35.2025 46.0361 35.2799 46.3517 35.327C46.6676 35.3716 46.987 35.3861 47.2906 35.3631C47.5941 35.3414 47.8813 35.2865 48.1309 35.2109C48.3418 35.1485 48.5462 35.0659 48.7412 34.9641C48.8158 34.9264 48.8756 34.8854 48.9159 34.8624C48.9564 34.8373 48.9784 34.8206 48.9784 34.8206C48.9929 34.8093 49.0118 34.7944 49.0259 34.7827ZM59.6367 23.56C59.685 22.754 59.0708 22.0613 58.2649 22.013C58.2649 22.013 58.2374 22.0113 58.1897 22.013C58.1434 22.0162 58.0708 22.0155 57.988 22.0257C57.7693 22.0495 57.5535 22.0946 57.3436 22.1603C57.0942 22.2364 56.825 22.3506 56.5608 22.5014C56.2957 22.6514 56.0384 22.8411 55.8008 23.054C55.5647 23.2688 55.3485 23.5069 55.1696 23.758C55.0818 23.8801 55.0007 24.0069 54.9265 24.1377C54.854 24.264 54.7934 24.3927 54.7391 24.5134C54.6483 24.7202 54.5768 24.9348 54.5255 25.1547C54.5048 25.2381 54.4961 25.3125 54.4869 25.3593C54.4791 25.4079 54.4771 25.4362 54.4771 25.4362C54.4288 26.1326 54.9456 26.7448 55.6442 26.8088C55.6442 26.8088 55.6726 26.8114 55.7217 26.8114C55.7695 26.8098 55.8442 26.8132 55.9299 26.8062C56.1552 26.791 56.3786 26.7549 56.5972 26.6985C56.7251 26.6642 56.8619 26.6251 56.9983 26.5739C57.1393 26.5217 57.2774 26.462 57.4121 26.3951C57.6888 26.2588 57.9585 26.0837 58.2084 25.8852C58.4567 25.6849 58.6854 25.4614 58.876 25.2239C59.0674 24.9874 59.2234 24.74 59.3385 24.5061C59.437 24.3094 59.5162 24.1036 59.5749 23.8917C59.5983 23.8115 59.6092 23.7397 59.6199 23.6946C59.6292 23.6479 59.632 23.6204 59.632 23.6204C59.6335 23.6023 59.6355 23.5783 59.6367 23.56ZM84.8862 54.9608C85.0266 54.1657 84.4958 53.4072 83.7007 53.2669C83.7007 53.2669 83.6735 53.2621 83.6259 53.2583C83.5797 53.2564 83.5076 53.2472 83.424 53.2479C83.2041 53.2466 82.9845 53.2666 82.7684 53.3078C82.512 53.3547 82.2315 53.4373 81.9518 53.557C81.6713 53.6755 81.3939 53.8346 81.1335 54.0189C80.8744 54.2052 80.6323 54.417 80.4258 54.646C80.3246 54.7573 80.2295 54.8739 80.1408 54.9953C80.0542 55.1124 79.9793 55.2334 79.9114 55.3471C79.7976 55.542 79.702 55.7471 79.6258 55.9597C79.5957 56.0401 79.5786 56.1131 79.5641 56.1586C79.5508 56.2058 79.5455 56.2338 79.5455 56.2338C79.4178 56.92 79.861 57.5875 80.5477 57.7311C80.5477 57.7311 80.5757 57.7369 80.6244 57.7427C80.672 57.7466 80.7459 57.7585 80.8317 57.7613C81.0573 57.772 81.2833 57.7618 81.507 57.7308C81.638 57.7114 81.7783 57.6882 81.9196 57.6529C82.0614 57.6183 82.2063 57.5749 82.3512 57.5226C82.6416 57.4189 82.9297 57.2758 83.2006 57.1073C83.4703 56.9368 83.723 56.741 83.9396 56.5269C84.1569 56.3139 84.3401 56.0861 84.4813 55.8669C84.6017 55.6828 84.704 55.4875 84.7866 55.2836C84.819 55.2067 84.8381 55.1365 84.8538 55.093C84.8685 55.0476 84.8744 55.0207 84.8744 55.0207C84.8782 55.0025 84.8829 54.9789 84.8862 54.9608ZM83.9981 30.0603C84.1386 29.2651 83.6077 28.5067 82.8126 28.3664C82.8126 28.3664 82.7854 28.3616 82.7379 28.3578C82.6916 28.3558 82.6195 28.3467 82.536 28.3474C82.316 28.3461 82.0965 28.3661 81.8804 28.4072C81.624 28.4541 81.3434 28.5368 81.0637 28.6564C80.7833 28.775 80.5058 28.9341 80.2455 29.1184C79.9863 29.3047 79.7442 29.5165 79.5377 29.7455C79.4365 29.8567 79.3414 29.9733 79.2527 30.0947C79.1662 30.2119 79.0913 30.3329 79.0234 30.4465C78.9095 30.6415 78.8139 30.8466 78.7378 31.0592C78.7077 31.1396 78.6906 31.2125 78.676 31.258C78.6627 31.3053 78.6575 31.3333 78.6575 31.3333C78.5297 32.0195 78.973 32.6869 79.6597 32.8306C79.6597 32.8306 79.6876 32.8364 79.7363 32.8421C79.784 32.8461 79.8579 32.858 79.9437 32.8608C80.1692 32.8714 80.3953 32.8612 80.6189 32.8303C80.7499 32.8109 80.8902 32.7877 81.0316 32.7524C81.1734 32.7178 81.3182 32.6744 81.4631 32.622C81.7536 32.5184 82.0416 32.3753 82.3126 32.2068C82.5822 32.0362 82.835 31.8404 83.0515 31.6264C83.2688 31.4134 83.4521 31.1856 83.5933 30.9663C83.7137 30.7823 83.8159 30.5869 83.8985 30.3831C83.931 30.3062 83.95 30.236 83.9658 30.1924C83.9804 30.147 83.9864 30.1201 83.9864 30.1201C83.9902 30.102 83.9949 30.0784 83.9981 30.0603Z" fill="#E09F5E"/>
<path d="M74.1226 66.2709C73.9932 67.1462 73.3599 67.8668 72.505 68.0947C70.8924 68.5249 67.6548 68.8734 61.5073 67.9646C55.0151 67.0049 51.628 65.5816 50.009 64.6584C49.2129 64.2045 48.7802 63.3066 48.9142 62.4001L52.4531 38.4615C52.633 37.2442 53.7658 36.4032 54.9831 36.5832L75.8041 39.6612C77.0214 39.8412 77.8623 40.9739 77.6824 42.1912L74.1226 66.2709Z" fill="#2A442B"/>
</g>
<defs>
<clipPath id="clip0_843_5140">
<rect width="56.2821" height="56.2821" fill="white" transform="translate(41.6488 8.99951) rotate(8.40929)"/>
</clipPath>
</defs>
</svg>
