<svg width="84" height="84" viewBox="0 0 84 84" fill="none" xmlns="http://www.w3.org/2000/svg">
<path d="M74.6361 39.4765L6.9551 38.8685L6.66183 70.5107C6.65934 70.8074 6.71539 71.1018 6.82677 71.3769C6.93815 71.6519 7.10267 71.9023 7.31093 72.1138C7.51919 72.3252 7.76709 72.4935 8.04045 72.609C8.31382 72.7246 8.60728 72.7851 8.90404 72.7871L72.1901 73.3562C72.4859 73.3608 72.7796 73.3067 73.0544 73.1971C73.3292 73.0876 73.5796 72.9246 73.791 72.7178C74.0025 72.511 74.1709 72.2643 74.2865 71.992C74.4022 71.7197 74.4627 71.4272 74.4647 71.1314L74.6361 39.4765Z" fill="#BF8256"/>
<path d="M6.80734 52.4197L74.5293 53.0232L74.4291 64.3093L6.70697 63.7076L6.80734 52.4197Z" fill="#FFE3CF"/>
<path d="M36.1798 49.2899C36.1876 48.3923 36.5517 47.5347 37.1919 46.9056C37.8321 46.2764 38.6959 45.9274 39.5935 45.9352C40.491 45.9431 41.3487 46.3071 41.9778 46.9473C42.6069 47.5875 42.9559 48.4514 42.9481 49.3489L42.9357 50.4737C42.9332 50.7705 42.9892 51.0649 43.1006 51.3399C43.212 51.615 43.3765 51.8654 43.5848 52.0769C43.793 52.2883 44.0409 52.4566 44.3143 52.5721C44.5876 52.6876 44.8811 52.7481 45.1779 52.7501C45.4736 52.7547 45.7674 52.7006 46.0422 52.5911C46.317 52.4815 46.5673 52.3186 46.7788 52.1117C46.9903 51.9049 47.1587 51.6582 47.2743 51.3859C47.3899 51.1136 47.4505 50.8211 47.4524 50.5253L47.4649 49.4005C47.4659 49.1019 47.5854 48.816 47.7972 48.6056C48.0091 48.3951 48.2958 48.2775 48.5944 48.2785C48.8929 48.2795 49.1789 48.399 49.3893 48.6108C49.5997 48.8227 49.7174 49.1094 49.7164 49.408L49.6854 52.5544C49.6416 53.6632 49.9909 54.7518 50.6717 55.628C51.3524 56.5043 52.3208 57.112 53.406 57.3438C54.0521 57.458 54.7153 57.4301 55.3495 57.262C55.9837 57.0938 56.5736 56.7894 57.0782 56.3701C57.5828 55.9507 57.9899 55.4264 58.2712 54.8336C58.5526 54.2409 58.7013 53.5939 58.7071 52.9379L58.8637 47.2532C58.8598 47.6976 58.9435 48.1384 59.11 48.5505C59.2764 48.9625 59.5225 49.3378 59.834 49.6548C60.1455 49.9718 60.5164 50.2243 60.9255 50.3979C61.3346 50.5716 61.7739 50.663 62.2183 50.6668C62.6627 50.6707 63.1035 50.587 63.5156 50.4205C63.9276 50.254 64.3029 50.008 64.6199 49.6965C64.9369 49.385 65.1894 49.0141 65.363 48.605C65.5367 48.1959 65.6281 47.7566 65.6319 47.3122L65.6462 46.17C65.6482 45.8742 65.7087 45.5817 65.8243 45.3094C65.94 45.0371 66.1084 44.7904 66.3198 44.5836C66.5313 44.3767 66.7817 44.2138 67.0564 44.1042C67.3312 43.9947 67.625 43.9406 67.9208 43.9452C68.2175 43.9472 68.511 44.0077 68.7844 44.1232C69.0577 44.2387 69.3056 44.407 69.5139 44.6184C69.7221 44.8299 69.8867 45.0803 69.998 45.3554C70.1094 45.6304 70.1655 45.9248 70.163 46.2215L70.0438 48.5317C70.0311 49.7416 70.3437 50.9327 70.9487 51.9805C71.5538 53.0283 72.4293 53.8944 73.4835 54.4882C73.8261 54.6696 74.2098 54.7591 74.5973 54.7479C74.9848 54.7366 75.3627 54.625 75.6941 54.4239C76.0255 54.2228 76.2991 53.9392 76.4881 53.6007C76.677 53.2623 76.7749 52.8805 76.7722 52.4929L76.896 39.5728C76.9615 32.9108 64.4182 22.9903 47.1986 20.7438C45.9752 20.5982 44.7355 20.7973 43.6191 21.3184L7.27628 37.6529C6.50544 38.0094 5.84978 38.5746 5.38348 39.2845C4.91718 39.9943 4.65887 40.8205 4.63777 41.6695L4.48942 57.8423C4.48834 58.0097 4.5242 58.1752 4.59444 58.3271C4.66468 58.479 4.76757 58.6135 4.89577 58.721C5.02397 58.8286 5.17432 58.9066 5.33611 58.9493C5.49789 58.9921 5.66712 58.9987 5.83173 58.9685C7.32824 58.6833 8.68389 57.8992 9.67748 56.7444C10.6711 55.5895 11.2439 54.132 11.3026 52.6097C11.2963 51.8093 11.5645 51.031 12.0625 50.4045C12.5605 49.7779 13.2582 49.341 14.0393 49.1664C14.5323 49.0698 15.0406 49.0838 15.5276 49.2074C16.0145 49.331 16.468 49.5611 16.8552 49.8812C17.2424 50.2012 17.5538 50.6032 17.7669 51.0582C17.98 51.5131 18.0894 52.0097 18.0873 52.5121L18.0731 53.6543C18.0692 54.0988 18.1529 54.5396 18.3194 54.9516C18.4858 55.3637 18.7319 55.7389 19.0434 56.0559C19.3549 56.3729 19.7258 56.6255 20.1349 56.7991C20.544 56.9728 20.9833 57.0641 21.4277 57.068C21.8721 57.0719 22.3129 56.9882 22.725 56.8217C23.137 56.6552 23.5123 56.4092 23.8293 56.0977C24.1463 55.7862 24.3988 55.4153 24.5724 55.0062C24.7461 54.5971 24.8375 54.1578 24.8413 53.7134L24.868 51.4463C24.8713 51.148 24.993 50.8632 25.2063 50.6546C25.4196 50.446 25.707 50.3306 26.0053 50.3339C26.3037 50.3372 26.5885 50.4589 26.7971 50.6722C27.0057 50.8854 27.121 51.1729 27.1177 51.4712L27.0904 54.5828C27.0567 55.6825 27.4121 56.7588 28.094 57.6222C28.7759 58.4856 29.7407 59.0807 30.8183 59.3026C31.4644 59.4168 32.1276 59.3889 32.7618 59.2208C33.396 59.0526 33.9859 58.7482 34.4905 58.3289C34.9951 57.9095 35.4022 57.3852 35.6836 56.7924C35.9649 56.1997 36.1136 55.5527 36.1194 54.8967L36.1798 49.2899Z" fill="#FF6242"/>
<path d="M15.9381 38.9491L70.1366 39.427" stroke="#E04122" stroke-width="0.416667" stroke-linecap="round" stroke-linejoin="round"/>
<path d="M63.5167 20.6788C63.8052 15.0783 58.6285 5.71957 53.0207 5.50074C47.4129 5.2819 41.2604 13.9447 40.9894 19.547C40.7183 25.1493 46.1207 30.0095 51.7211 30.298C57.3216 30.5864 63.2109 26.2774 63.5167 20.6788Z" fill="#FF6242"/>
<path d="M65.7256 26.9632C65.6964 30.0923 59.6141 32.551 52.1158 32.5738C44.6175 32.5965 38.5986 29.9239 38.6433 26.814C38.6387 26.3675 38.7223 25.9244 38.8892 25.5102C39.0561 25.096 39.3031 24.7188 39.6161 24.4002C39.929 24.0816 40.3017 23.8279 40.7128 23.6536C41.124 23.4793 41.5655 23.3878 42.012 23.3843C43.8752 23.4038 45.4059 23.7404 45.3791 25.6732C45.42 21.9295 48.4677 20.0497 52.2114 20.0906C55.9551 20.1315 58.9565 22.0476 58.9331 25.7931C58.9352 23.9281 60.4712 23.5438 62.3343 23.5633C62.7802 23.5638 63.2217 23.6522 63.6335 23.8233C64.0453 23.9944 64.4193 24.245 64.7342 24.5608C65.0492 24.8765 65.2988 25.2512 65.4689 25.6634C65.639 26.0756 65.7262 26.5173 65.7256 26.9632Z" fill="#FFE3CF"/>
<path d="M45.5897 17.4605L45.476 19.7184M49.3412 10.886L49.2101 13.1422M52.36 17.8365L52.2481 20.077M56.0959 11.2428L55.9821 13.5007M59.132 18.195L59.0009 20.4512" stroke="#45413C" stroke-width="0.416667" stroke-linecap="round" stroke-linejoin="round"/>
</svg>
