<svg width="69" height="66" viewBox="0 0 69 66" fill="none" xmlns="http://www.w3.org/2000/svg">
<g clip-path="url(#clip0_843_5072)">
<path d="M33.888 8.87658C35.6399 8.16263 36.3167 5.74285 35.3998 3.47185C34.4828 1.20086 32.3193 -0.0613712 30.5674 0.652583C28.8156 1.36654 28.1387 3.78632 29.0557 6.05731C29.9727 8.32831 32.1362 9.59053 33.888 8.87658Z" fill="#D1CFC3"/>
<path d="M65.9564 36.5675C64.3484 10.3242 47.5643 6.76732 39.186 6.37904C39.5449 6.04623 39.8761 5.64409 40.1453 5.17955C41.2219 3.3075 40.9458 1.13038 39.538 0.312228C38.1301 -0.505925 36.1149 0.346896 35.0383 2.21894C34.1963 3.68884 34.1894 5.33902 34.9071 6.37904C21.3252 6.28197 14.9138 10.1231 10.98 14.1238C7.66739 17.4865 5.38993 21.7575 4.37543 26.3753C3.29191 31.2911 4.13388 33.5514 4.13388 33.5514L25.3142 40.7415C25.3142 40.7415 67.9578 69.2104 65.9564 36.5744V36.5675Z" fill="#BFBCAF"/>
<path d="M34.4999 8.44482C12.2636 8.96484 8.26083 22.9358 5.72802 30.5696C5.72802 30.5696 0.434665 36.1026 0.00677951 46.3156C-0.545331 60.7096 18.0263 65.0222 31.5323 65.9097C33.5061 66.0414 35.4868 66.0414 37.4606 65.9097C50.9666 65.0222 69.5313 60.7096 68.9792 46.3156C68.5582 36.1026 63.2579 30.5696 63.2579 30.5696C60.7251 22.9358 56.7223 8.97177 34.4861 8.44482H34.4999Z" fill="#FFD12C"/>
</g>
<defs>
<clipPath id="clip0_843_5072">
<rect width="69" height="66" fill="white"/>
</clipPath>
</defs>
</svg>
