<svg width="91" height="91" viewBox="0 0 91 91" fill="none" xmlns="http://www.w3.org/2000/svg">
<path d="M31.0156 16.7563C33.1498 16.7563 35.1965 15.9086 36.7056 14.3995C38.2147 12.8904 39.0625 10.8436 39.0625 8.70947C39.0625 6.57531 38.2147 4.52855 36.7056 3.01947C35.1965 1.51039 33.1498 0.662598 31.0156 0.662598C28.8814 0.662598 26.8347 1.51039 25.3256 3.01947C23.8165 4.52855 22.9687 6.57531 22.9687 8.70947C22.9687 10.8436 23.8165 12.8904 25.3256 14.3995C26.8347 15.9086 28.8814 16.7563 31.0156 16.7563ZM59.9843 16.7563C62.1185 16.7563 64.1653 15.9086 65.6743 14.3995C67.1834 12.8904 68.0312 10.8436 68.0312 8.70947C68.0312 6.57531 67.1834 4.52855 65.6743 3.01947C64.1653 1.51039 62.1185 0.662598 59.9843 0.662598C57.8502 0.662598 55.8034 1.51039 54.2943 3.01947C52.7853 4.52855 51.9375 6.57531 51.9375 8.70947C51.9375 10.8436 52.7853 12.8904 54.2943 14.3995C55.8034 15.9086 57.8502 16.7563 59.9843 16.7563ZM50.5309 44.0868C51.865 41.9012 54.0125 40.335 56.5012 39.7326C58.9898 39.1302 61.6159 39.5409 63.8018 40.8744L85.7859 54.2838C87.9721 55.618 89.5387 57.7661 90.1412 60.2555C90.7436 62.7449 90.3324 65.3716 88.9982 67.5579C87.6639 69.7441 85.5158 71.3108 83.0264 71.9132C80.537 72.5156 77.9103 72.1045 75.724 70.7702L53.7432 57.3577C51.5577 56.0236 49.9915 53.876 49.3891 51.3874C48.7867 48.8987 49.1974 46.2727 50.5309 44.0868ZM5.58103 54.126C3.41313 55.4313 1.8442 57.5353 1.21181 59.9855C0.579426 62.4357 0.934118 65.0362 2.19958 67.2276C3.46503 69.4189 5.54012 71.026 7.97839 71.703C10.4166 72.3799 13.0232 72.0727 15.2373 70.8474L37.5368 57.9724C39.7365 56.6828 41.3369 54.5755 41.9887 52.1103C42.6404 49.6451 42.2907 47.0222 41.0157 44.8139C39.7407 42.6057 37.644 40.9913 35.1832 40.3232C32.7224 39.6551 30.0972 39.9875 27.8805 41.2478L5.58103 54.126Z" fill="#D3883E"/>
<path d="M71.25 26.6765C71.25 40.897 59.7204 45.7251 45.5 45.7251C31.2796 45.7251 19.75 40.897 19.75 26.6765C19.75 12.4561 34.2344 2.27197 45.5 2.27197C56.7656 2.27197 71.25 12.4561 71.25 26.6765Z" fill="#E19747"/>
<path d="M71.25 26.6765C71.25 40.897 59.7204 45.7251 45.5 45.7251C31.2796 45.7251 19.75 40.897 19.75 26.6765C19.75 12.4561 34.2344 2.27197 45.5 2.27197C56.7656 2.27197 71.25 12.4561 71.25 26.6765Z" fill="#FF822D"/>
<path d="M62.3341 42.3358C67.7963 39.4324 71.25 34.4627 71.25 26.6765C71.25 12.4561 56.7656 2.27197 45.5 2.27197C34.2344 2.27197 19.75 12.4561 19.75 26.6765C19.75 34.4627 23.2037 39.4324 28.6659 42.3358C24.6915 45.77 21.8624 50.3375 20.5581 55.4256C19.2538 60.5137 19.5367 65.8789 21.3689 70.8016C23.2011 75.7243 26.4949 79.969 30.8085 82.9662C35.122 85.9633 40.249 87.5697 45.5016 87.5697C50.7542 87.5697 55.8812 85.9633 60.1947 82.9662C64.5083 79.969 67.8021 75.7243 69.6343 70.8016C71.4665 65.8789 71.7494 60.5137 70.4451 55.4256C69.1408 50.3375 66.3117 45.77 62.3373 42.3358H62.3341Z" fill="#E19747"/>
<path d="M18.2693 66.4861C19.4562 65.6025 20.8055 64.9614 22.2401 64.5993C23.6748 64.2372 25.1668 64.1614 26.6308 64.376C28.0948 64.5906 29.5022 65.0915 30.7725 65.8501C32.0429 66.6087 33.1514 67.6101 34.0348 68.7972L36.9188 72.6693C38.7029 75.0664 39.4618 78.0741 39.0284 81.0307C38.5949 83.9873 37.0048 86.6506 34.6077 88.4348C32.2106 90.2189 29.2029 90.9778 26.2463 90.5444C23.2897 90.111 20.6264 88.5208 18.8423 86.1237L15.9615 82.2516C14.1776 79.8552 13.4186 76.8484 13.8514 73.8926C14.2842 70.9367 15.8734 68.2705 18.2693 66.4861ZM72.766 66.4861C70.3692 64.7026 67.3622 63.9442 64.4063 64.3776C61.4504 64.811 58.7876 66.4007 57.0038 68.7972L54.1198 72.6693C52.3356 75.066 51.5766 78.0733 52.0097 81.0296C52.4428 83.9858 54.0325 86.649 56.4292 88.4332C58.8259 90.2173 61.8331 90.9763 64.7894 90.5432C67.7457 90.1101 70.4089 88.5204 72.193 86.1237L75.077 82.2516C76.8605 79.8548 77.619 76.8478 77.1856 73.8919C76.7522 70.9359 75.1624 68.27 72.766 66.4861Z" fill="#D3883E"/>
<path d="M64.349 10.7757C64.8302 9.76018 64.9422 8.60859 64.6655 7.51939C64.3889 6.43019 63.7409 5.47161 62.8334 4.80887C61.9258 4.14612 60.8155 3.82072 59.6937 3.88874C58.572 3.95676 57.5092 4.41395 56.6883 5.18151C59.5249 6.62415 62.1113 8.51292 64.349 10.7757ZM34.3116 5.18151C33.4908 4.41395 32.4279 3.95676 31.3062 3.88874C30.1844 3.82072 29.0741 4.14612 28.1666 4.80887C27.259 5.47161 26.6111 6.43019 26.3344 7.51939C26.0577 8.60859 26.1697 9.76018 26.651 10.7757C28.8885 8.51288 31.475 6.6241 34.3116 5.18151ZM56.7656 31.0152C56.7656 35.4571 51.7218 40.6714 45.5 40.6714C39.2781 40.6714 34.2343 35.4571 34.2343 31.0152C34.2343 26.5733 39.2781 22.9683 45.5 22.9683C51.7218 22.9683 56.7656 26.5733 56.7656 31.0152ZM61.5937 65.0374V65.1726C59.7701 65.9534 58.1862 67.2041 57.0038 68.7969L54.1198 72.669C52.5841 74.7256 51.8002 77.2467 51.8988 79.8114C49.9354 80.6612 47.7724 81.1311 45.5 81.1311C43.2404 81.1311 41.0903 80.6676 39.1397 79.8275C39.2418 77.2573 38.4577 74.7301 36.9188 72.669L34.0348 68.7969C32.8439 67.1927 31.2459 65.9358 29.4062 65.1565V65.0374C29.4062 60.7691 31.1018 56.6755 34.12 53.6574C37.1381 50.6392 41.2316 48.9436 45.5 48.9436C49.7683 48.9436 53.8618 50.6392 56.88 53.6574C59.8981 56.6755 61.5937 60.7691 61.5937 65.0374ZM30.256 71.7324C29.2358 70.3627 27.7134 69.4543 26.0235 69.2071C24.3336 68.9599 22.6148 69.3942 21.2451 70.4143C19.8754 71.4344 18.967 72.9569 18.7198 74.6468C18.4726 76.3366 18.9069 78.0555 19.927 79.4252L22.811 83.2973C23.3159 83.9756 23.9494 84.5477 24.6755 84.981C25.4015 85.4144 26.2057 85.7005 27.0423 85.8231C27.8789 85.9456 28.7314 85.9022 29.5512 85.6953C30.371 85.4883 31.1421 85.1219 31.8203 84.617C32.4985 84.1121 33.0706 83.4786 33.504 82.7526C33.9373 82.0266 34.2235 81.2223 34.346 80.3857C34.4685 79.5491 34.4251 78.6966 34.2182 77.8768C34.0112 77.057 33.6449 76.286 33.14 75.6078L30.256 71.7324ZM69.7886 70.4127C68.4193 69.3937 66.7012 68.9604 65.0124 69.2078C63.3235 69.4553 61.8021 70.3634 60.7826 71.7324L57.8986 75.6078C56.8789 76.9775 56.4451 78.6961 56.6925 80.3857C56.94 82.0753 57.8486 83.5973 59.2183 84.617C60.588 85.6367 62.3067 86.0706 63.9962 85.8231C65.6858 85.5756 67.2079 84.6671 68.2276 83.2973L71.1083 79.422C72.1273 78.0526 72.5607 76.3346 72.3132 74.6457C72.0657 72.9568 71.1576 71.4322 69.7886 70.4127Z" fill="#FFDEA7"/>
<path d="M39.0625 21.3594C39.0625 21.7862 38.8929 22.1956 38.5911 22.4974C38.2893 22.7992 37.88 22.9687 37.4531 22.9687C37.0263 22.9687 36.6169 22.7992 36.3151 22.4974C36.0133 22.1956 35.8438 21.7862 35.8438 21.3594C35.8438 20.9325 36.0133 20.5232 36.3151 20.2214C36.6169 19.9196 37.0263 19.75 37.4531 19.75C37.88 19.75 38.2893 19.9196 38.5911 20.2214C38.8929 20.5232 39.0625 20.9325 39.0625 21.3594ZM55.1562 21.3594C55.1562 21.7862 54.9867 22.1956 54.6849 22.4974C54.3831 22.7992 53.9737 22.9687 53.5469 22.9687C53.12 22.9687 52.7107 22.7992 52.4089 22.4974C52.1071 22.1956 51.9375 21.7862 51.9375 21.3594C51.9375 20.9325 52.1071 20.5232 52.4089 20.2214C52.7107 19.9196 53.12 19.75 53.5469 19.75C53.9737 19.75 54.3831 19.9196 54.6849 20.2214C54.9867 20.5232 55.1562 20.9325 55.1562 21.3594ZM42.4164 27.1499C42.5421 26.8636 42.7485 26.6202 43.0103 26.4493C43.2721 26.2783 43.578 26.1874 43.8906 26.1875H47.1094C47.422 26.1874 47.7279 26.2783 47.9897 26.4493C48.2515 26.6202 48.4579 26.8636 48.5836 27.1499C48.7542 27.5394 48.5514 27.9675 48.2488 28.2668L46.6394 29.8762C46.4899 30.0261 46.3123 30.145 46.1168 30.2261C45.9213 30.3072 45.7117 30.349 45.5 30.349C45.2883 30.349 45.0787 30.3072 44.8832 30.2261C44.6877 30.145 44.5101 30.0261 44.3606 29.8762L42.7512 28.2668C42.4518 27.9675 42.2458 27.5394 42.4164 27.1499Z" fill="black"/>
</svg>
