<svg width="120" height="188" viewBox="0 0 120 188" fill="none" xmlns="http://www.w3.org/2000/svg">
<path fill-rule="evenodd" clip-rule="evenodd" d="M59.0863 141.691C57.3007 141.691 55.561 141.817 53.8873 142.054C39.4002 144.112 18 155.624 18 170.257C18 178.685 28.6867 185.518 41.8695 185.518C46.391 185.518 50.9544 186.118 55.3745 187.07C57.769 187.586 60.3335 187.865 63.0002 187.865C64.2557 187.865 65.4887 187.803 66.6919 187.684C73.716 186.987 80.5988 184.861 87.4502 183.163C99.7345 180.119 108 174.427 108 167.908C108 165.357 106.734 162.933 104.457 160.744C92.8969 149.635 75.1191 141.691 59.0863 141.691Z" fill="#464646" fill-opacity="0.2"/>
<path d="M84.8012 97.3934C83.5078 98.0961 80.4563 99.5142 76.35 99.3636C72.319 99.213 69.4308 97.6193 68.175 96.8287C65.7389 98.5855 61.846 100.932 56.6221 102.463C50.8833 104.145 45.9356 104.12 42.8088 103.869C41.013 106.78 37.6099 108.236 34.3575 107.533C30.854 106.768 28.2671 103.618 28.1541 99.9283C25.7933 102.262 23.8845 102.225 23.3697 102.187C19.8661 101.924 16.3123 97.0043 16.3249 89.8012C14.3659 96.1887 12.7334 97.6945 11.5404 97.682C7.74805 97.6569 3.6794 80.9165 4.21938 66.987C4.35751 63.2724 6.41695 25.7758 37.4718 10.3906C40.9126 8.68397 61.62 -1.02901 81.7623 7.71769C112.227 20.957 114.638 63.034 114.952 68.6685C115.165 72.3329 115.077 75.4325 114.952 77.6788C114.952 77.6788 114.939 91.5079 111.511 90.5541C108.083 89.6004 108.46 81.0419 108.46 81.0419C108.648 90.1777 102.934 95.3102 99.3177 86.94" fill="#32B13E"/>
<mask id="mask0_1320_5845" style="mask-type:luminance" maskUnits="userSpaceOnUse" x="4" y="4" width="112" height="104">
<path d="M84.8012 97.3934C83.5078 98.0961 80.4563 99.5142 76.35 99.3636C72.319 99.213 69.4308 97.6193 68.175 96.8287C65.7388 98.5855 61.846 100.932 56.6221 102.463C50.8833 104.145 45.9356 104.12 42.8088 103.869C41.013 106.78 37.6099 108.236 34.3575 107.533C30.854 106.768 28.2671 103.618 28.1541 99.9283C25.7933 102.262 23.8845 102.225 23.3697 102.187C19.8661 101.924 16.3123 97.0044 16.3249 89.8012C14.3659 96.1887 12.7334 97.6946 11.5404 97.682C7.74805 97.6569 3.6794 80.9165 4.21938 66.987C4.35751 63.2725 6.41695 25.7758 37.4718 10.3906C40.9126 8.68397 61.62 -1.02902 81.7623 7.71769C112.227 20.957 114.638 63.034 114.952 68.6685C115.165 72.3329 115.077 75.4325 114.952 77.6788C114.952 77.6788 114.939 91.5079 111.511 90.5541C108.083 89.6004 108.46 81.0419 108.46 81.0419C108.648 90.1777 102.934 95.3102 99.3177 86.94" fill="white"/>
</mask>
<g mask="url(#mask0_1320_5845)">
<path opacity="0.05" d="M116.584 55.4177C114.901 55.7942 112.616 56.0954 109.954 55.8193C104.089 55.2295 100.033 52.2553 98.3002 50.7997C97.4589 53.1589 95.525 54.9032 93.2772 55.2169C90.1755 55.6561 86.8603 53.322 86.044 49.5949C85.6673 53.824 82.9047 57.3503 79.2127 58.4295C74.5539 59.7848 69.0913 57.0491 67.1575 51.8036C67.0445 52.0546 65.2111 55.8569 60.9289 56.4216C56.8226 56.9738 54.1227 54.0624 53.8967 53.8114C52.8293 57.162 49.9913 59.5966 46.6636 60.0358C42.7205 60.5503 38.7523 58.1785 37.2203 54.213C36.5924 57.9526 34.0558 61.0522 30.5899 62.2444C26.5338 63.6499 21.8749 62.2068 19.1374 58.6303C16.5254 62.5456 12.2433 64.6036 8.28766 63.8507C5.44965 63.3111 3.61625 61.504 2.86279 60.6381C3.30231 56.2209 3.75438 51.8036 4.19389 47.3863C22.6284 40.5596 54.9767 31.8631 92.9005 39.3549C103.047 41.3627 112.114 44.2239 120.037 47.3863C118.895 50.0593 117.764 52.7448 116.622 55.4177H116.584Z" fill="#043211"/>
<path d="M80.0532 103.457C63.8891 108.454 29.8369 115.632 20.5392 104.091C19.6257 102.962 18.4174 100.983 18.1816 97.762C20.1856 100.222 23.4567 101.021 25.2396 100.172C27.332 99.1825 28.3339 95.5045 25.608 92.4733C55.8733 76.2394 84.2231 72.2824 95.9226 82.3398C98.0739 84.1915 100.196 86.969 101.36 91.3192C100.461 91.9026 102.597 93.4752 101.492 94.8577C100.608 95.9737 96.7035 96.405 96.3646 97.2166C93.1082 98.7259 87.4353 101.174 80.0532 103.457Z" fill="#387B5E"/>
<path opacity="0.16" d="M86.3079 94.4317C85.5168 93.6411 84.7257 92.838 83.9471 92.0474C83.6834 92.2858 80.1045 95.285 75.7847 93.9925C73.2606 93.2395 71.8542 91.4325 71.377 90.7548C70.4603 94.005 67.4088 96.176 64.1438 95.9752C61.1049 95.787 58.4678 93.5909 57.7144 90.554C56.647 93.3274 54.1606 95.2725 51.2849 95.5737C47.4423 95.9878 44.9057 93.2395 44.6545 92.9635C43.9387 97.0043 40.8998 100.091 37.2079 100.669C33.089 101.309 30.0501 98.5227 29.6733 98.1588C31.6449 93.478 33.629 88.8097 35.6005 84.1289H92.9634C90.7407 87.5674 88.5181 90.9932 86.3079 94.4317Z" fill="#183B4B"/>
<path d="M115.642 44.9633C115.517 45.6535 114.525 50.7735 110.858 52.2794C106.676 53.9986 99.8325 50.7233 97.0447 42.9931C96.9945 47.2472 95.9773 51.1123 93.943 51.7273C91.4943 52.4676 87.2122 48.5649 84.3616 41.3115C86.082 47.6739 81.8626 53.5594 77.0405 54.2622C72.1054 54.9775 66.2662 50.3218 66.3289 43.5578C67.5596 47.4355 65.362 51.5014 61.8208 52.568C58.0535 53.71 53.7086 51.1751 52.9175 46.8959C52.9175 51.3759 50.7199 55.241 47.7312 56.2324C43.6751 57.5877 37.2959 53.9484 36.0652 46.6323C37.2833 52.3296 33.2272 57.6881 28.0033 58.2026C23.1435 58.6794 18.3716 54.852 17.8568 49.4684C18.3591 54.35 14.8053 58.7673 9.97062 59.3194C5.08574 59.8841 0.577573 56.2826 0.0375977 51.3508C3.06397 35.6142 6.1029 19.8652 9.12927 4.10352H115.642V44.9633Z" fill="#14BC43"/>
<path opacity="0.12" d="M110.695 44.2606C109.816 41.8386 99.5186 14.9083 73.1729 8.40785C48.5349 2.3341 20.2679 16.7279 8.01172 44.2606V9.93884C19.6777 5.28313 40.3349 -1.15454 66.442 0.175657C85.3035 1.14194 100.498 5.83529 110.695 9.92629V44.2606Z" fill="#F4FFFF"/>
<path opacity="0.12" d="M26.1447 97.3934C25.9689 98.6985 25.1526 99.8154 24.1857 100.317C22.4402 101.221 19.7152 100.393 18.1706 97.933C11.5026 101.535 7.9739 100.405 6.65535 99.7903C-0.26386 96.6028 -2.52422 81.7698 3.44062 62.8333C6.30374 84.9196 9.17942 95.9628 12.0802 95.9754C13.6122 95.9754 15.1568 92.9008 16.7014 86.7392C18.6353 95.4608 20.5063 99.8154 22.3272 99.7903C23.4448 99.7777 24.5373 98.1087 25.6173 94.7832C25.8056 95.1095 26.3205 96.0883 26.1447 97.3809V97.3934Z" fill="#F4FFFF"/>
</g>
<path d="M76.6528 115.265C77.1717 111.197 80.0424 110.181 81.949 106.68C84.902 101.234 87.6257 92.9763 86.4502 80.7786C84.0849 78.9966 81.734 77.2146 79.3687 75.4327C79.8847 79.4358 80.1571 85.6602 78.0785 92.8884C77.1897 96.0131 73.8497 107.659 68.7464 107.809C65.1052 107.922 62.1235 102.137 57.4933 92.8884C53.5082 84.9574 51.0138 78.0805 49.4513 73.1738L43.9896 80.2139C53.9812 100.719 54.956 106.052 53.6372 106.68C52.1463 107.395 47.1577 102.325 44.9501 99.6398C42.1978 96.3018 40.8359 93.0767 40.1192 90.9057C37.0085 91.9347 33.8977 92.9763 30.787 94.0053C36.5641 96.879 45.6095 102.589 49.7667 112.314C51.6589 116.732 51.7736 121.262 52.0173 130.335C52.3613 143.11 49.9961 147.866 49.1216 149.485C47.6451 152.195 45.8819 154.103 42.3698 157.93C34.2705 166.727 28.7801 169.676 29.4969 170.881C30.0416 171.797 34.0841 171.596 50.4118 166.1C49.609 173.817 50.1394 177.946 52.0173 178.486C54.3109 179.138 58.5971 174.445 64.8902 164.406C69.3341 171.584 74.0217 175.901 76.473 175.11C79.469 174.144 78.5229 165.748 78.4082 164.694C90.9658 165.786 94.2198 165.108 94.4922 164.13C94.9222 162.624 87.9984 161.431 82.9094 155.395C78.6519 150.338 76.9538 144.758 76.6528 141.935C76.0794 136.388 76.1339 133.798 76.1339 129.73L76.6528 120.238L76.6528 118.429L76.6528 116.169L76.6528 115.265Z" fill="#86644E"/>
<mask id="mask1_1320_5845" style="mask-type:luminance" maskUnits="userSpaceOnUse" x="29" y="73" width="66" height="106">
<path d="M76.388 114.361C74.4384 112.73 80.0424 110.181 81.949 106.68C84.902 101.234 87.6257 92.9763 86.4502 80.7786C84.0849 78.9966 81.734 77.2146 79.3687 75.4327C79.8847 79.4358 80.1571 85.6602 78.0785 92.8884C77.1897 96.0131 73.8497 107.659 68.7464 107.809C65.1052 107.922 62.1235 102.137 57.4933 92.8884C53.5082 84.9574 51.0138 78.0805 49.4513 73.1738L43.9896 80.2139C53.9812 100.719 54.956 106.052 53.6372 106.68C52.1463 107.395 47.1577 102.325 44.9501 99.6398C42.1978 96.3018 40.8359 93.0767 40.1192 90.9057C37.0085 91.9347 33.8977 92.9763 30.787 94.0053C36.5641 96.879 45.6095 102.589 49.7667 112.314C51.6589 116.732 51.7736 121.262 52.0173 130.335C52.3613 143.11 49.9961 147.866 49.1216 149.485C47.6451 152.195 45.8819 154.103 42.3698 157.93C34.2705 166.727 28.7801 169.676 29.4969 170.881C30.0416 171.797 34.0841 171.596 50.4118 166.1C49.609 173.817 50.1394 177.946 52.0173 178.486C54.3109 179.138 58.5971 174.445 64.8902 164.406C69.3341 171.584 74.0217 175.901 76.473 175.11C79.469 174.144 78.5229 165.748 78.4082 164.694C90.9658 165.786 94.2198 165.108 94.4922 164.13C94.9222 162.624 87.9984 161.431 82.9094 155.395C78.6519 150.338 77.4727 144.306 77.1717 141.483C76.5983 135.936 76.1339 133.798 76.1339 130.634L76.388 127.47L76.388 119.334L76.388 117.073L76.388 114.361Z" fill="white"/>
</mask>
<g mask="url(#mask1_1320_5845)">
<path opacity="0.17" d="M94.9075 161.494C91.1087 162.736 87.1522 163.351 83.0954 163.176C80.1137 163.038 77.6337 163 77.1463 166.1C76.874 167.806 76.8596 169.538 76.5873 171.245C76.4152 172.324 76.4726 173.064 74.7524 172.926C73.9639 172.864 73.0752 172.362 72.4158 172.01C69.5344 170.479 67.5275 167.932 65.6639 165.56C65.2625 165.045 64.4311 164.744 63.7717 165.121C61.22 166.602 59.7149 168.785 58.2383 171.069C56.6471 173.541 54.5542 176.628 50.8844 176.566C49.0926 176.54 49.0926 178.962 50.8844 178.988C54.2389 179.038 56.8622 177.206 58.7687 174.922C60.661 172.663 61.7648 169.789 64.1587 167.894C65.9076 170.053 67.7999 172.136 70.2798 173.679C72.5448 175.072 76.7449 176.704 78.5655 173.93C79.3539 172.738 79.3539 171.22 79.4973 169.889C79.5976 168.886 79.6836 167.869 79.8127 166.865C79.9847 165.485 80.9738 165.447 82.35 165.535C84.9876 165.698 87.611 165.56 90.1913 165.133C90.3633 165.447 90.65 165.711 91.0514 165.761C92.3989 165.936 93.7034 165.899 95.0222 165.573C96.04 165.309 96.1977 164.368 95.7819 163.753C97.2441 163.126 96.5274 160.942 94.9075 161.469V161.494Z" fill="#433743"/>
<path opacity="0.17" d="M47.9888 165.02C41.2513 167.091 34.3274 168.622 27.2745 169.613C25.9127 169.802 25.9987 171.697 27.2745 171.96C29.3388 172.362 31.3887 172.487 33.496 172.286C34.4278 172.198 34.8578 171.471 34.8148 170.831C39.531 169.927 44.1613 168.773 48.7342 167.38C50.4114 166.865 49.6803 164.518 48.0031 165.033L47.9888 165.02Z" fill="#433743"/>
<path opacity="0.17" d="M76.1875 116.33C74.5677 115.715 73.1485 117.798 74.7827 118.426L76.1875 116.33Z" fill="#433743"/>
<path opacity="0.17" d="M86.1631 91.1564C84.6723 91.5831 83.1814 91.7337 81.7192 91.6082C81.1888 91.4325 80.6728 91.169 80.214 90.8176C79.612 90.3533 78.8665 90.4537 78.3648 90.8051C77.9778 90.6419 77.5764 90.4662 77.2037 90.2655C75.6698 89.4498 74.2793 91.5455 75.7988 92.3611C77.5047 93.2772 79.3683 93.8294 81.2748 94.0176C83.2101 94.5196 85.3173 94.3313 87.2239 93.3902C88.5714 92.7251 87.6683 90.7423 86.1488 91.169L86.1631 91.1564Z" fill="#433743"/>
<path opacity="0.17" d="M70.5813 103.768C69.7355 104.91 68.4023 105.714 66.8255 105.839C64.4745 106.027 64.1018 104.572 63.4854 102.94C62.3816 99.9661 61.4211 96.9417 60.5754 93.9049C60.1597 92.3864 57.479 93.0264 57.8947 94.5449C58.5828 97.0421 59.3426 99.5268 60.217 101.986C60.8334 103.718 61.2921 106.153 62.998 107.357C66.2091 109.629 70.997 107.646 72.9466 105.011C73.9214 103.693 71.5131 102.476 70.5526 103.781L70.5813 103.768Z" fill="#433743"/>
<path opacity="0.17" d="M57.6936 90.6547C57.2062 90.7425 56.7188 90.8178 56.2314 90.8931C56.8908 90.4915 57.5503 90.0649 58.181 89.6131C59.5572 88.6092 57.5789 86.9025 56.2171 87.8939C54.2388 89.337 52.0169 90.4037 49.5943 91.1064C49.3076 91.0939 49.0495 91.1692 48.8345 91.3072C48.7198 91.3323 48.6195 91.37 48.5048 91.3951C46.9853 91.759 47.315 93.7543 48.8775 93.7794C49.1356 93.7794 49.3793 93.7794 49.6373 93.7794C52.7193 95.1723 56.4465 94.708 59.0698 92.6625C60.1736 91.8092 58.9838 90.4037 57.7223 90.6296L57.6936 90.6547Z" fill="#433743"/>
<path opacity="0.17" d="M43.4297 93.2902C43.1287 92.3239 41.2078 92.098 40.7204 93.3153C39.8459 95.5239 38.1257 97.3561 35.8464 98.5733C34.3269 99.389 35.6887 101.46 37.2513 100.669C40.0896 99.2259 43.229 97.3686 43.7594 94.3067C43.8311 93.8925 43.6877 93.5537 43.4297 93.2902Z" fill="#433743"/>
<path opacity="0.17" d="M51.8447 164.456C52.4755 163.828 54.4107 162.084 57.6361 161.456C60.5605 160.879 62.9258 161.532 63.8575 161.833C61.6069 159.662 58.1665 159.009 55.5002 160.139C52.6188 161.356 51.9307 164.117 51.8591 164.456H51.8447Z" fill="#433743"/>
</g>
<path d="M24.5 92.6999C26.6348 98.234 33.0266 100.468 37.5473 98.0834C41.5155 95.9878 43.4368 90.6669 41.4025 85.9485C42.9973 90.4536 47.5431 92.9258 51.549 91.9595C54.6256 91.2065 57.0617 88.4959 57.7398 85.0951C57.878 90.3532 61.1681 94.0928 63.9558 94.2058C67.0701 94.3313 71.2518 90.0144 70.7244 83.6897C70.0462 87.6803 72.8591 91.445 76.7394 91.9469C80.4565 92.4364 84.0354 89.776 84.6256 85.9359C84.5753 86.6261 84.5126 88.4959 85.693 90.303C85.9316 90.6669 89.9374 93.7164 91.1429 93.6034C99.883 93.8042 101.804 83.7273 98.6147 77.3775C93.1522 66.4849 58.2547 62.3939 39.9207 74.6794C31.2811 80.4645 26.7101 88.2324 24.5126 92.6999H24.5Z" fill="#32B13E"/>
<mask id="mask2_1320_5845" style="mask-type:luminance" maskUnits="userSpaceOnUse" x="24" y="67" width="77" height="33">
<path d="M24.5 92.6999C26.6348 98.234 33.0266 100.468 37.5473 98.0834C41.5155 95.9878 43.4368 90.6669 41.4025 85.9485C42.9973 90.4536 47.5431 92.9258 51.549 91.9595C54.6256 91.2065 57.0617 88.4959 57.7398 85.0951C57.878 90.3532 61.1681 94.0928 63.9558 94.2058C67.0701 94.3313 71.2518 90.0144 70.7244 83.6897C70.0462 87.6803 72.8591 91.445 76.7394 91.9469C80.4565 92.4364 84.0354 89.776 84.6256 85.9359C84.5753 86.6261 84.5126 88.4959 85.693 90.303C85.9316 90.6669 89.9374 93.7164 91.1429 93.6034C99.883 93.8042 101.804 83.7273 98.6147 77.3775C93.1522 66.4849 58.2547 62.3939 39.9207 74.6794C31.2811 80.4645 26.7101 88.2324 24.5126 92.6999H24.5Z" fill="white"/>
</mask>
<g mask="url(#mask2_1320_5845)">
<path opacity="0.12" d="M92.9639 102.212C67.698 114.774 43.1857 115.903 31.369 104.019C29.2594 101.898 27.1623 98.9618 25.6177 94.7955C28.5813 97.7445 33.1522 98.3845 36.7939 96.3767C40.4858 94.3437 42.382 90.0519 41.4025 85.9358C43.6001 88.91 47.2041 90.4535 50.7328 89.939C55.241 89.2739 57.4511 85.5719 57.7274 85.0825C57.9032 88.8598 61.256 91.7335 64.9228 91.357C68.6273 90.9806 71.3397 87.4417 70.6993 83.677C71.1765 87.4919 74.2782 90.3155 77.7567 90.4033C80.6072 90.4786 83.3322 88.7092 84.6005 85.9233C85.9191 88.1696 87.2251 90.4159 88.5436 92.6621C90.0128 95.8371 91.4821 99.012 92.9513 102.187L92.9639 102.212Z" fill="#F4FFFF"/>
</g>
</svg>
