<svg width="308" height="396" viewBox="0 0 308 396" fill="none" xmlns="http://www.w3.org/2000/svg">
<path fill-rule="evenodd" clip-rule="evenodd" d="M153.203 298C147.613 298 142.234 298.579 137.205 299.648C109.772 305.481 73.2027 326.372 66.5994 353.629C66.2048 355.258 66 356.927 66 358.627C66 376.516 88.6817 391.017 116.661 391.017C126.257 391.017 135.941 392.291 145.322 394.312C150.404 395.407 155.848 396 161.509 396C168.455 396 175.075 395.106 181.102 393.489C187.919 391.659 194.721 389.615 201.681 388.443C234.08 382.989 257.017 369.465 257.017 353.644C257.017 342.868 246.375 333.157 229.349 326.336C211.69 319.262 194.534 307.594 176.476 301.612C169.507 299.304 161.593 298 153.203 298Z" fill="#464646" fill-opacity="0.2"/>
<g clip-path="url(#clip0_1320_5848)">
<path d="M205.038 173.342C207.088 197.778 202.337 214.292 197.167 225.219C193.845 232.238 187.029 243.927 190.414 247.211C191.951 248.706 194.994 247.85 197.167 247.211C209.044 243.725 215.626 231.911 218.126 226.697C219.011 227.149 219.896 227.6 220.796 228.036C220.408 229.25 220.035 230.666 219.787 232.269C219.306 235.351 219.446 238.044 219.725 240.083C216.884 243.274 213.888 246.62 211.047 249.811C204.93 256.659 198.813 263.492 192.68 270.325C190.988 275.601 188.861 284.582 189.87 295.695C190.383 301.36 191.423 312.629 198.875 322.762C207.771 334.84 219.865 337.237 219.119 340.241C218.638 342.186 212.956 343.556 191.004 341.361C191.221 343.478 192.867 360.288 187.635 362.218C183.35 363.805 175.153 355.167 167.39 340.801C156.399 360.91 148.9 370.296 144.895 368.988C141.619 367.914 140.672 359.65 142.085 344.178C113.55 355.183 106.486 355.587 105.539 353.766C104.266 351.354 113.876 345.455 128.034 327.836C134.198 320.178 137.272 316.349 139.849 310.917C141.386 307.664 145.516 298.154 144.91 272.582C144.491 254.418 144.274 245.328 140.967 236.503C133.701 217.032 117.881 205.607 107.79 199.864C113.224 197.794 118.657 195.724 124.091 193.669C125.333 198.012 127.724 204.456 132.521 211.148C136.387 216.534 145.096 226.682 147.705 225.25C150.002 223.989 148.295 213.312 130.829 172.253L140.392 158.151C143.125 167.972 147.487 181.731 154.458 197.623C162.578 216.145 167.778 227.725 174.144 227.507C183.055 227.195 188.892 203.864 190.445 197.623C194.062 183.148 193.596 170.665 192.696 162.665C196.826 166.229 200.94 169.809 205.069 173.373L205.038 173.342Z" fill="#86644E"/>
<mask id="mask0_1320_5848" style="mask-type:luminance" maskUnits="userSpaceOnUse" x="105" y="158" width="116" height="212">
<path d="M205.038 173.342C207.088 197.778 202.337 214.292 197.167 225.219C193.845 232.238 187.029 243.927 190.414 247.211C191.951 248.706 194.994 247.85 197.167 247.211C209.044 243.725 215.626 231.911 218.126 226.697C219.011 227.149 219.896 227.6 220.796 228.036C220.408 229.25 220.035 230.666 219.787 232.269C219.306 235.351 219.446 238.044 219.725 240.083C216.884 243.274 213.888 246.62 211.047 249.811C204.93 256.659 198.813 263.492 192.68 270.325C190.988 275.601 188.861 284.582 189.87 295.695C190.383 301.36 191.423 312.629 198.875 322.762C207.771 334.84 219.865 337.237 219.119 340.241C218.638 342.186 212.956 343.556 191.004 341.361C191.221 343.478 192.867 360.288 187.635 362.218C183.35 363.805 175.153 355.167 167.39 340.801C156.399 360.91 148.9 370.296 144.895 368.988C141.619 367.914 140.672 359.65 142.085 344.178C113.55 355.183 106.486 355.587 105.539 353.766C104.266 351.354 113.876 345.455 128.034 327.836C134.198 320.178 137.272 316.349 139.849 310.917C141.386 307.664 145.516 298.154 144.91 272.582C144.491 254.418 144.274 245.328 140.967 236.503C133.701 217.032 117.881 205.607 107.79 199.864C113.224 197.794 118.657 195.724 124.091 193.669C125.333 198.012 127.724 204.456 132.521 211.148C136.387 216.534 145.096 226.682 147.705 225.25C150.002 223.989 148.295 213.312 130.829 172.253L140.392 158.151C143.125 167.972 147.487 181.731 154.458 197.623C162.578 216.145 167.778 227.725 174.144 227.507C183.055 227.195 188.892 203.864 190.445 197.623C194.062 183.148 193.596 170.665 192.696 162.665C196.826 166.229 200.94 169.809 205.069 173.373L205.038 173.342Z" fill="white"/>
</mask>
<g mask="url(#mask0_1320_5848)">
<path opacity="0.17" d="M219.818 334.964C213.189 337.455 206.249 338.684 199.17 338.326C193.953 338.062 189.622 337.968 188.768 344.194C188.302 347.618 188.271 351.089 187.806 354.513C187.511 356.677 187.604 358.171 184.592 357.875C183.21 357.735 181.673 356.755 180.493 356.039C175.463 352.972 171.955 347.883 168.679 343.12C167.965 342.093 166.521 341.47 165.356 342.248C160.901 345.206 158.277 349.579 155.7 354.155C152.905 359.105 149.273 365.284 142.83 365.175C139.709 365.128 139.709 369.984 142.83 370.031C148.698 370.14 153.278 366.467 156.616 361.906C159.923 357.377 161.848 351.618 166.055 347.821C169.113 352.147 172.42 356.319 176.767 359.401C180.742 362.202 188.069 365.455 191.268 359.914C192.649 357.533 192.649 354.482 192.882 351.836C193.068 349.813 193.208 347.789 193.441 345.782C193.752 343.011 195.475 342.949 197.881 343.12C202.477 343.447 207.072 343.167 211.574 342.326C211.869 342.964 212.382 343.478 213.08 343.571C215.44 343.914 217.722 343.852 220.02 343.182C221.805 342.669 222.069 340.77 221.339 339.525C223.886 338.264 222.644 333.89 219.802 334.964H219.818Z" fill="#433743"/>
<path opacity="0.17" d="M137.8 342.015C126.016 346.155 113.922 349.221 101.595 351.214C99.2044 351.603 99.3597 355.401 101.595 355.899C105.213 356.708 108.783 356.957 112.463 356.537C114.093 356.35 114.854 354.887 114.76 353.626C122.989 351.805 131.108 349.517 139.088 346.716C142.007 345.688 140.749 340.988 137.8 342.031V342.015Z" fill="#433743"/>
<path opacity="0.17" d="M224.941 226.137C224.786 226.044 224.615 225.981 224.445 225.888C224.025 224.363 222.302 223.258 220.951 224.3C220.237 223.911 219.554 223.507 218.856 223.055C216.341 221.405 214.012 225.203 216.123 227.024C215.766 227.834 215.751 228.767 216.154 229.686C213.686 232.301 211.046 234.744 208.221 236.986C204.278 240.114 196.608 246.869 191.252 244.519C188.427 243.274 185.943 247.46 188.799 248.721C195.537 251.678 201.995 247.429 207.429 243.585C210.565 241.375 213.53 238.947 216.309 236.332C216.309 236.456 216.278 236.581 216.278 236.721C216.201 239.834 217.132 242.791 218.747 245.421C220.377 248.083 224.569 245.639 222.939 242.962C220.951 239.725 220.936 236.83 221.836 233.234C222.085 232.223 222.271 231.32 222.1 230.324C222.131 230.293 222.162 230.246 222.193 230.215C222.473 230.339 222.768 230.448 223.063 230.557C225.655 231.522 227.286 227.444 224.926 226.121L224.941 226.137Z" fill="#433743"/>
<path opacity="0.17" d="M204.541 194.105C201.933 194.961 199.325 195.257 196.779 195.008C195.847 194.666 194.947 194.136 194.155 193.436C193.084 192.502 191.795 192.704 190.926 193.405C190.243 193.078 189.56 192.72 188.892 192.315C186.222 190.681 183.785 194.883 186.439 196.518C189.42 198.339 192.68 199.459 196.018 199.833C199.403 200.829 203.082 200.456 206.42 198.572C208.764 197.234 207.212 193.265 204.557 194.136L204.541 194.105Z" fill="#433743"/>
<path opacity="0.17" d="M177.295 219.366C175.82 221.654 173.476 223.258 170.744 223.507C166.645 223.88 165.978 220.97 164.906 217.685C162.966 211.724 161.289 205.685 159.83 199.584C159.1 196.549 154.427 197.825 155.157 200.876C156.352 205.888 157.703 210.853 159.224 215.771C160.295 219.242 161.118 224.098 164.099 226.526C169.704 231.071 178.087 227.102 181.487 221.81C183.179 219.18 178.987 216.736 177.295 219.351V219.366Z" fill="#433743"/>
<path opacity="0.17" d="M154.753 193.125C153.899 193.311 153.045 193.467 152.191 193.607C153.356 192.813 154.489 191.957 155.591 191.039C157.998 189.031 154.551 185.607 152.16 187.599C148.698 190.494 144.817 192.627 140.579 194.043C140.082 194.012 139.632 194.167 139.243 194.448C139.042 194.51 138.855 194.572 138.653 194.619C135.999 195.366 136.558 199.335 139.306 199.397C139.74 199.397 140.19 199.397 140.625 199.397C146.028 202.183 152.533 201.249 157.128 197.171C159.069 195.459 156.973 192.642 154.768 193.109L154.753 193.125Z" fill="#433743"/>
<path opacity="0.17" d="M129.82 198.401C129.292 196.471 125.923 196.004 125.085 198.448C123.548 202.884 120.551 206.526 116.577 208.969C113.922 210.604 116.313 214.744 119.03 213.172C123.998 210.292 129.494 206.572 130.394 200.424C130.518 199.6 130.27 198.915 129.835 198.401H129.82Z" fill="#433743"/>
<path opacity="0.15" d="M192.137 245.032C192.618 241.779 192.417 238.231 193.798 235.211C195.133 232.285 197.167 229.655 198.658 226.806C201.716 220.97 204.014 214.775 205.597 208.378C206.342 205.343 201.669 204.051 200.924 207.086C199.248 213.872 196.764 220.363 193.333 226.448C191.982 228.83 190.29 231.071 189.203 233.608C187.821 236.861 187.961 240.316 187.449 243.741C186.983 246.807 191.656 248.114 192.122 245.032H192.137Z" fill="#F4FFFF"/>
<path opacity="0.17" d="M144.553 340.879C145.67 339.618 149.024 336.131 154.675 334.871C159.798 333.719 163.928 335.011 165.542 335.618C161.615 331.275 155.591 329.968 150.918 332.24C145.872 334.684 144.677 340.194 144.537 340.879H144.553Z" fill="#433743"/>
</g>
<path d="M125.209 230.059C131.559 240.83 126.529 253.873 117.446 257.406C109.529 260.488 98.7855 256.223 94.454 246.418C100.447 261.687 95.0439 275.134 88.57 277.251C82.3911 279.274 71.0889 272.286 66.1054 258.216C59.8488 268.8 47.9412 273.578 38.5641 270.543C26.5788 266.667 18.9715 250.107 26.2683 235.149C5.44929 222.339 -4.39355 197.67 1.86302 175.397C7.20361 156.377 23.5048 141.886 43.6563 138.104C42.9887 136.61 40.4581 130.446 42.9887 123.489C44.4015 119.613 46.7768 117.123 48.2051 115.847C48.0188 105.963 49.0279 88.6868 57.8306 70.0093C58.9484 67.6435 78.4943 27.6427 117.602 16.9343C158.013 5.85235 207.274 29.3548 233.123 76.8577C253.709 76.0017 272.883 85.9163 282.787 102.788C293.748 121.435 288.734 140.672 287.678 144.423C298.468 157.98 300.703 170.214 301.247 176.658C301.743 182.588 302.597 192.502 296.9 195.895C292.692 198.401 287.026 196.098 284.868 195.086C294.571 206.059 292.366 220.129 285.675 224.441C280.583 227.725 271.734 226.09 264.825 220.02C269.483 237.437 261.084 251.305 253.197 252.597C246.273 253.733 236.368 245.764 232.347 232.487C230.313 245.468 227.705 247.974 225.935 248.177C221.557 248.643 216.558 235.694 213.096 224.845C212.723 225.826 206.358 242.48 201.064 241.733C197.028 241.172 194.171 230.589 194.249 215.6C194.683 229.312 183.008 239.694 171.38 238.527C160.979 237.468 152.176 227.336 152.937 215.195C153.899 221.686 151.26 228.114 146.121 231.678C139.973 235.943 131.295 235.367 125.271 230.075L125.209 230.059Z" fill="#149538"/>
<mask id="mask1_1320_5848" style="mask-type:luminance" maskUnits="userSpaceOnUse" x="0" y="14" width="302" height="264">
<path d="M125.209 230.059C131.559 240.83 126.529 253.873 117.446 257.406C109.529 260.488 98.7855 256.223 94.454 246.418C100.447 261.687 95.0439 275.134 88.57 277.251C82.3911 279.274 71.0889 272.286 66.1054 258.216C59.8488 268.8 47.9412 273.578 38.5641 270.543C26.5788 266.667 18.9715 250.107 26.2683 235.149C5.44929 222.339 -4.39355 197.67 1.86302 175.397C7.20361 156.377 23.5048 141.886 43.6563 138.104C42.9887 136.61 40.4581 130.446 42.9887 123.489C44.4015 119.613 46.7768 117.123 48.2051 115.847C48.0188 105.963 49.0279 88.6868 57.8306 70.0093C58.9484 67.6435 78.4943 27.6427 117.602 16.9343C158.013 5.85235 207.274 29.3548 233.123 76.8577C253.709 76.0017 272.883 85.9163 282.787 102.788C293.748 121.435 288.734 140.672 287.678 144.423C298.468 157.98 300.703 170.214 301.247 176.658C301.743 182.588 302.597 192.502 296.9 195.895C292.692 198.401 287.026 196.098 284.868 195.086C294.571 206.059 292.366 220.129 285.675 224.441C280.583 227.725 271.734 226.09 264.825 220.02C269.483 237.437 261.084 251.305 253.197 252.597C246.273 253.733 236.368 245.764 232.347 232.487C230.313 245.468 227.705 247.974 225.935 248.177C221.557 248.643 216.558 235.694 213.096 224.845C212.723 225.826 206.358 242.48 201.064 241.733C197.028 241.172 194.171 230.589 194.249 215.6C194.683 229.312 183.008 239.694 171.38 238.527C160.979 237.468 152.176 227.336 152.937 215.195C153.899 221.686 151.26 228.114 146.121 231.678C139.973 235.943 131.295 235.367 125.271 230.075L125.209 230.059Z" fill="white"/>
</mask>
<g mask="url(#mask1_1320_5848)">
<path opacity="0.05" d="M238.494 147.287C197.99 149.295 157.469 151.303 116.965 153.326C113.751 149.171 110.538 145.015 107.339 140.859C111.298 135.863 118.269 128.594 128.997 123.567C153.712 112.003 177.854 122.011 182.341 123.972C182.775 117.839 184.39 107.831 190.771 97.8388C205.768 74.3052 233.79 71.6126 237.703 71.3013C237.967 96.6403 238.23 121.964 238.51 147.303L238.494 147.287Z" fill="#083F0A"/>
<path opacity="0.05" d="M160.279 80.1418C163.214 91.5351 157.314 103.411 146.649 107.893C135.703 112.485 122.802 107.987 116.965 97.434C118.315 109.886 110.708 120.127 102.527 121.559C93.0408 123.224 80.419 113.465 80.4656 98.2278C78.6336 100.36 73.4483 105.792 64.8164 107.878C52.8466 110.757 43.3764 105.014 41.5444 103.862C43.6869 96.6247 45.8293 89.3872 47.9562 82.1497C104.25 68.0793 160.528 53.9934 216.821 39.9231C223.062 45.6508 226.944 53.1218 225.034 58.4916C222.426 65.8536 208.329 71.0522 192.354 64.0637C194.714 71.4257 193.192 79.2547 188.349 83.7684C181.502 90.1343 168.415 89.5273 160.264 80.1418H160.279Z" fill="#083F0A"/>
<path d="M304.786 174.836C266.098 172.688 227.41 170.541 188.737 168.408C177.621 141.622 183.614 111.162 203.315 92.4066C226.634 70.2116 264.98 68.3438 292.646 89.7917C296.698 118.15 300.734 146.493 304.786 174.852V174.836Z" fill="#13A63C"/>
<path d="M43.6559 138.104C43.9043 138.509 45.7673 141.451 49.1363 141.824C52.5052 142.198 56.0138 139.863 57.3334 136.034C57.3024 137.933 57.2403 147.77 61.8978 149.887C66.664 152.05 75.9168 145.902 83.1825 132.875C80.2949 139.816 83.9743 147.816 90.8984 150.104C97.8226 152.392 105.554 148.174 107.339 140.859C109.249 141.871 111.159 142.867 113.068 143.879C119.604 177.202 126.14 210.542 132.676 243.865C116.468 250.963 98.5678 245.422 91.0071 232.752C82.6081 218.682 90.9916 202.557 91.4108 201.794C88.8026 201.545 82.1889 200.549 77.7798 195.366C71.4301 187.911 71.9735 174.603 80.5899 164.004C77.1899 169.653 70.9644 172.953 64.5526 172.455C57.4111 171.895 51.2632 166.743 49.307 159.583C47.087 159.863 43.2212 160.003 39.1692 158.167C29.078 153.591 27.6186 141.264 27.541 140.47C32.9282 139.692 38.2998 138.898 43.687 138.12L43.6559 138.104Z" fill="#0C8C30"/>
<path d="M269.094 254.465C236.166 273.329 188.349 264.177 153.169 229.53C144.817 236.612 134.027 237.546 127.305 232.596C122.523 229.079 121.141 223.6 120.722 221.421C115.94 227.086 109.435 229.608 104.654 227.756C98.4436 225.343 97.5898 216.503 97.1395 211.755C95.9286 199.226 102.201 189.218 105.476 184.767C97.7916 184.377 94.4227 182.152 93.0099 179.661C86.0392 167.505 113.022 128.267 148.45 122.602C154.334 121.668 172.218 118.804 186.92 130.773C199.806 141.264 202.088 156.595 202.585 160.797C210.751 141.155 228.838 128.065 248.679 127.427C270.864 126.711 285.38 141.917 287.678 144.392C292.288 149.233 307.829 166.696 308.015 192.129C308.295 231.211 272.059 252.768 269.11 254.465H269.094Z" fill="#25B54D"/>
<path d="M154.411 72.6864C161.413 86.7256 154.008 102.243 143.295 105.636C132.909 108.936 118.44 101.154 115.444 86.3053C115.164 104.236 107.619 117.434 100.602 118.135C93.1031 118.882 81.7388 105.87 79.674 84.6244C80.7142 93.2938 75.6841 101.559 67.7043 104.5C60.1902 107.271 51.5738 104.749 46.5748 98.2433C43.0661 73.5113 39.5575 48.7637 36.0488 24.0317C61.1061 12.6229 115.614 -7.47095 176.426 9.57221C188.349 12.9186 199.046 17.2611 208.516 22.0394C224.274 34.0241 225.019 53.2307 217.334 60.6394C211.403 66.3672 198.968 66.4606 188.054 59.8301C191.33 67.4567 191.904 75.8148 187.976 80.1574C182.449 86.2898 166.831 85.7139 154.396 72.6864H154.411Z" fill="#13A63C"/>
<path opacity="0.12" d="M105.321 284.815C68.4184 304.411 12.2801 263.694 15.0746 245.811C15.8819 240.612 21.7193 237.172 26.2681 235.149C20.9896 248.067 27.7895 262.402 39.5419 266.325C49.7729 269.749 61.96 264.659 67.223 253.857C69.9709 266.527 78.0283 274.589 83.6639 273.967C89.7963 273.298 96.9067 261.967 94.4538 246.418C96.0528 248.363 100.509 253.219 107.728 254.667C116.779 256.488 126.497 252.239 132.661 243.881C131.077 251.04 125.022 274.372 105.321 284.831V284.815Z" fill="#F4FFFF"/>
<path opacity="0.12" d="M125.209 230.059C122.895 226.371 121.452 223.164 120.722 221.437C119.589 222.511 111.376 230.184 104.654 227.771C96.6427 224.908 96.2235 209.748 97.7605 201.358C99.1888 193.561 102.961 187.926 105.476 184.798C104.11 184.813 96.4564 184.829 93.0098 179.693C89.4701 174.432 92.6683 167.225 94.9039 162.198C97.5897 156.143 101.393 152.159 103.8 149.964C92.9011 160.377 91.6591 173.529 96.9066 179.086C100.85 183.272 107.96 182.588 110.149 182.307C108.783 184.035 94.8107 202.012 101.331 215.289C101.968 216.581 104.219 221.172 108.55 222.122C113.705 223.258 120.163 218.9 124.199 210.868C121.483 220.378 127.631 229.577 135.424 230.978C143.466 232.41 152.641 225.437 152.905 215.211C153.93 226.682 161.832 235.46 170.417 236.597C181.471 238.06 194.59 226.931 194 210.868C194.497 214.837 197.493 237.624 202.818 237.811C207.056 237.966 210.86 223.787 212.273 218.028C217.908 233.81 222.519 241.484 226.074 241.032C228.605 240.706 230.608 236.285 232.098 227.756C236.631 242.402 247.996 250.075 254.563 248.27C261.471 246.355 267.79 232.596 262.185 216.503C267.806 222.137 275.894 223.585 281.436 220.518C288.811 216.456 291.761 204.362 284.883 195.101C287.181 194.899 291.14 194.199 295.083 191.553C303.358 185.996 304.631 176.471 304.817 174.868C305.112 180.689 305.081 188.845 303.497 198.386C303.187 200.3 297.567 232.55 279.434 251.461C242.422 290.076 152.61 273.796 125.24 230.075L125.209 230.059Z" fill="#F4FFFF"/>
<path opacity="0.12" d="M299.927 168.688C294.074 149.093 277.974 134.478 258.553 131.209C236.15 127.427 213.173 139.38 202.585 160.797C200.334 153.155 194.124 136.454 178.739 128.392C155.296 116.096 118.191 127.847 94.9038 162.167C97.5741 158.431 126.668 118.695 162.329 121.761C166.878 122.15 177.31 123.053 186.92 130.773C199.915 141.217 202.119 156.673 202.585 160.797C210.379 141.139 228.667 127.956 248.679 127.427C272.292 126.804 294.167 143.91 299.942 168.688H299.927Z" fill="#F4FFFF"/>
<path opacity="0.12" d="M217.101 53.651C213.22 49.433 181.409 15.907 134.601 20.2184C93.6929 23.985 58.1873 55.0985 46.5591 98.259C46.8385 44.5458 86.8153 2.5371 131.791 0.109032C166.024 -1.72758 199.868 19.518 217.101 53.651Z" fill="#F4FFFF"/>
<path opacity="0.12" d="M292.941 121.248C291.186 128.968 289.416 136.672 287.662 144.392C290.503 123.038 281.933 102.212 265.57 91.3949C244.006 77.1378 211.807 82.1963 192.696 105.714C196.919 99.3017 205.007 89.0602 218.545 81.7293C247.546 66.0247 277.322 76.7954 282.415 78.7254C285.923 92.9047 289.432 107.068 292.941 121.248Z" fill="#F4FFFF"/>
</g>
<path fill-rule="evenodd" clip-rule="evenodd" d="M217.463 175.262C221.021 174.702 223.292 172.745 228.531 172.709C238.756 172.655 246.004 180.638 245.295 193.329C244.815 201.783 241.123 213.813 232.235 219.242C227.198 222.317 225.325 219.222 221.916 220.59C208.106 226.177 198.051 209.169 195.254 200.208C192.504 191.41 194.936 181.539 203.286 177.431C208.589 174.827 210.952 176.288 217.46 175.242L217.463 175.262Z" fill="#D4493B"/>
<mask id="mask2_1320_5848" style="mask-type:luminance" maskUnits="userSpaceOnUse" x="194" y="172" width="52" height="50">
<path d="M217.463 175.262C221.021 174.702 223.292 172.745 228.531 172.709C238.756 172.655 246.004 180.638 245.295 193.329C244.815 201.783 241.123 213.813 232.235 219.242C227.198 222.317 225.325 219.222 221.916 220.59C208.106 226.177 198.051 209.169 195.254 200.208C192.504 191.41 194.936 181.539 203.286 177.431C208.589 174.827 210.952 176.288 217.46 175.242L217.463 175.262Z" fill="white"/>
</mask>
<g mask="url(#mask2_1320_5848)">
<path fill-rule="evenodd" clip-rule="evenodd" d="M198.868 211.919C198.868 211.919 207.269 217.205 210.645 216.844C216.325 216.226 218.463 212.606 222.721 212.298C225.967 212.064 227.421 216.014 232.303 215.202C235.75 214.617 242.677 208.516 242.677 208.516L233.104 222.048L223.844 221.054L211.282 225.762L198.848 211.922L198.868 211.919Z" fill="#BF3224"/>
<path fill-rule="evenodd" clip-rule="evenodd" d="M228.988 220.543C236.428 222.164 253.429 179.043 225.724 168.824C225.724 168.824 248.267 169.281 247.15 193.591C245.903 220.736 228.97 220.567 228.97 220.567L228.988 220.543Z" fill="#E46457"/>
</g>
<path fill-rule="evenodd" clip-rule="evenodd" d="M218.136 171.276C217.367 170.587 215.738 171.078 215.401 171.643C215.815 172.921 216.102 174.198 216.305 175.487C216.56 177.11 216.65 178.759 216.59 180.41C217.755 181.719 218.625 181.283 219.325 180.043C218.498 177.231 218.04 174.319 218.136 171.276Z" fill="#D3884A"/>
<mask id="mask3_1320_5848" style="mask-type:luminance" maskUnits="userSpaceOnUse" x="215" y="170" width="5" height="12">
<path d="M218.136 171.276C217.367 170.587 215.738 171.078 215.401 171.643C215.815 172.921 216.102 174.198 216.305 175.487C216.56 177.11 216.65 178.759 216.59 180.41C217.755 181.719 218.625 181.283 219.325 180.043C218.498 177.231 218.04 174.319 218.136 171.276Z" fill="white"/>
</mask>
<g mask="url(#mask3_1320_5848)">
<path fill-rule="evenodd" clip-rule="evenodd" d="M216.044 169.9L213.451 170.223L214.99 181.621L217.62 182.209C217.721 178.654 217.275 173.927 216.044 169.9Z" fill="#DDAE30"/>
<path fill-rule="evenodd" clip-rule="evenodd" d="M216.368 168.57C217.598 168.397 218.704 169.055 218.837 170.036C218.97 171.017 218.072 171.947 216.838 172.099C215.604 172.25 214.502 171.614 214.369 170.633C214.235 169.652 215.137 168.742 216.368 168.57Z" fill="#DDAE30"/>
</g>
<path fill-rule="evenodd" clip-rule="evenodd" d="M213.474 179.579C213.474 179.579 213.301 179.564 213.245 179.615C213.192 179.687 213.209 179.791 213.281 179.844C216.434 183.078 220.451 182.595 222.736 178.419C222.788 178.347 222.751 178.246 222.696 178.169C222.624 178.117 222.517 178.112 222.464 178.185C220.104 180.39 216.325 180.9 213.512 179.552L213.474 179.579Z" fill="#CF3627"/>
<path fill-rule="evenodd" clip-rule="evenodd" d="M218.093 176.016C218.093 176.016 225.816 179.298 229.712 175.337C232.56 172.437 235.108 168.582 235.108 168.582C235.108 168.582 230.167 166.312 226.416 167.542C220.763 169.413 218.117 176.034 218.117 176.034L218.093 176.016Z" fill="#17AF1B"/>
<mask id="mask4_1320_5848" style="mask-type:luminance" maskUnits="userSpaceOnUse" x="218" y="167" width="17" height="11">
<path d="M218.093 176.016C218.093 176.016 225.584 179.313 229.335 175.376C232.078 172.492 234.522 168.653 234.522 168.653C234.522 168.653 229.706 166.363 226.101 167.57C220.635 169.412 218.093 176.016 218.093 176.016Z" fill="white"/>
</mask>
<g mask="url(#mask4_1320_5848)">
<path fill-rule="evenodd" clip-rule="evenodd" d="M240.742 167.801L243.622 175.663L223.086 184.163L218.094 176.016C227.493 170.314 234.773 167.803 240.742 167.801Z" fill="#3DA53D"/>
</g>
<path fill-rule="evenodd" clip-rule="evenodd" d="M208.158 181.291C210.015 181.851 207.524 185.121 206.572 188.277C205.64 191.43 205.436 194.873 203.599 194.31C201.741 193.75 200.683 190.143 201.611 186.969C202.543 183.816 206.3 180.73 208.158 181.291Z" fill="#FF7677"/>
<path fill-rule="evenodd" clip-rule="evenodd" d="M145.568 96.6212C149.135 96.1281 151.443 94.2145 156.682 94.277C166.906 94.4158 174.002 102.534 173.054 115.209C172.414 123.653 168.497 135.611 159.508 140.872C154.413 143.851 152.599 140.721 149.165 142.025C135.253 147.35 125.52 130.156 122.892 121.143C120.308 112.295 122.926 102.472 131.352 98.5223C136.704 96.0179 139.038 97.5237 145.565 96.6003L145.568 96.6212Z" fill="#D4493B"/>
<mask id="mask5_1320_5848" style="mask-type:luminance" maskUnits="userSpaceOnUse" x="121" y="94" width="53" height="50">
<path d="M145.568 96.6212C149.135 96.1281 151.443 94.2145 156.682 94.277C166.906 94.4158 174.002 102.534 173.054 115.209C172.414 123.653 168.497 135.611 159.508 140.872C154.413 143.851 152.599 140.721 149.165 142.025C135.253 147.35 125.52 130.156 122.892 121.143C120.308 112.295 122.926 102.472 131.352 98.5223C136.704 96.0179 139.038 97.5237 145.565 96.6003L145.568 96.6212Z" fill="white"/>
</mask>
<g mask="url(#mask5_1320_5848)">
<path fill-rule="evenodd" clip-rule="evenodd" d="M126.285 132.92C126.285 132.92 134.585 138.364 137.967 138.067C143.658 137.556 145.863 133.977 150.126 133.75C153.376 133.577 154.755 137.553 159.652 136.834C163.109 136.313 170.15 130.344 170.15 130.344L160.324 143.693L151.084 142.525L138.435 146.995L126.264 132.923L126.285 132.92Z" fill="#BF3224"/>
<path fill-rule="evenodd" clip-rule="evenodd" d="M156.236 142.111C163.644 143.872 181.456 101.079 153.949 90.3392C153.949 90.3392 176.479 91.222 174.903 115.506C173.145 142.623 156.218 142.135 156.218 142.135L156.236 142.111Z" fill="#E46457"/>
</g>
<path fill-rule="evenodd" clip-rule="evenodd" d="M146.316 92.6481C145.559 91.9447 143.922 92.4049 143.574 92.9632C143.964 94.2487 144.227 95.5306 144.405 96.824C144.63 98.4512 144.688 100.102 144.597 101.751C145.738 103.082 146.616 102.663 147.339 101.436C146.565 98.609 146.162 95.6883 146.316 92.6481Z" fill="#D3884A"/>
<mask id="mask6_1320_5848" style="mask-type:luminance" maskUnits="userSpaceOnUse" x="143" y="92" width="5" height="11">
<path d="M146.316 92.6481C145.559 91.9447 143.922 92.4049 143.574 92.9632C143.964 94.2487 144.227 95.5306 144.405 96.824C144.63 98.4512 144.688 100.102 144.597 101.751C145.738 103.082 146.616 102.663 147.339 101.436C146.565 98.609 146.162 95.6883 146.316 92.6481Z" fill="white"/>
</mask>
<g mask="url(#mask6_1320_5848)">
<path fill-rule="evenodd" clip-rule="evenodd" d="M144.25 91.2328L141.651 91.5069L142.975 102.932L145.593 103.569C145.761 100.017 145.405 95.2827 144.25 91.2328Z" fill="#DDAE30"/>
<path fill-rule="evenodd" clip-rule="evenodd" d="M144.599 89.9087C145.832 89.7595 146.925 90.4375 147.04 91.4209C147.155 92.4043 146.239 93.3175 145.002 93.4459C143.766 93.5743 142.676 92.9171 142.561 91.9337C142.446 90.9503 143.365 90.058 144.599 89.9087Z" fill="#DDAE30"/>
</g>
<path fill-rule="evenodd" clip-rule="evenodd" d="M141.498 100.862C141.498 100.862 141.325 100.843 141.268 100.894C141.214 100.965 141.229 101.069 141.3 101.123C144.391 104.416 148.417 104.009 150.78 99.8765C150.834 99.8052 150.798 99.7038 150.745 99.6261C150.674 99.5722 150.567 99.5657 150.513 99.637C148.111 101.797 144.324 102.236 141.536 100.835L141.498 100.862Z" fill="#CF3627"/>
<path fill-rule="evenodd" clip-rule="evenodd" d="M146.183 97.3864C146.183 97.3864 153.843 100.814 157.813 96.927C160.715 94.0809 163.336 90.2745 163.336 90.2745C163.336 90.2745 158.438 87.9113 154.665 89.0706C148.977 90.8347 146.207 97.4044 146.207 97.4044L146.183 97.3864Z" fill="#17AF1B"/>
<mask id="mask7_1320_5848" style="mask-type:luminance" maskUnits="userSpaceOnUse" x="146" y="88" width="17" height="11">
<path d="M146.183 97.3863C146.183 97.3863 153.611 100.824 157.435 96.9579C160.232 94.1262 162.748 90.3343 162.748 90.3343C162.748 90.3343 157.976 87.9537 154.349 89.0928C148.849 90.831 146.183 97.3863 146.183 97.3863Z" fill="white"/>
</mask>
<g mask="url(#mask7_1320_5848)">
<path fill-rule="evenodd" clip-rule="evenodd" d="M168.983 89.6001L171.713 97.5141L151.022 105.626L146.183 97.3862C155.689 91.8628 163.014 89.4895 168.983 89.6001Z" fill="#3DA53D"/>
</g>
<path fill-rule="evenodd" clip-rule="evenodd" d="M136.15 102.473C137.997 103.068 135.445 106.291 134.433 109.428C133.442 112.563 133.173 116.002 131.347 115.404C129.5 114.809 128.51 111.182 129.498 108.027C130.489 104.892 134.303 101.877 136.15 102.473Z" fill="#FF7677"/>
<path fill-rule="evenodd" clip-rule="evenodd" d="M96.7061 173.377C100.276 174.056 103.102 172.961 108.096 174.735C117.843 178.173 122.004 188.269 116.988 200.095C113.637 207.957 106.015 218.162 95.6985 220.264C89.8504 221.469 89.1276 217.877 85.426 218.009C70.3786 218.578 66.6332 198.978 67.0274 189.517C67.4217 180.21 73.1165 171.647 82.4472 170.596C88.3829 169.917 90.1133 172.129 96.6842 173.356L96.7061 173.377Z" fill="#A1C831"/>
<mask id="mask8_1320_5848" style="mask-type:luminance" maskUnits="userSpaceOnUse" x="67" y="170" width="53" height="51">
<path d="M96.7061 173.377C100.276 174.056 103.102 172.961 108.096 174.735C117.843 178.173 122.004 188.269 116.988 200.095C113.637 207.957 106.015 218.162 95.6985 220.264C89.8504 221.469 89.1276 217.877 85.426 218.009C70.3786 218.578 66.6332 198.978 67.0274 189.517C67.4217 180.21 73.1165 171.647 82.4472 170.596C88.3829 169.917 90.1133 172.129 96.6842 173.356L96.7061 173.377Z" fill="white"/>
</mask>
<g mask="url(#mask8_1320_5848)">
<path fill-rule="evenodd" clip-rule="evenodd" d="M66.4799 201.891C66.4799 201.891 72.6785 209.796 76.0077 210.607C81.6149 211.964 84.9004 209.249 89.0401 210.41C92.216 211.307 92.2379 215.556 97.1661 216.454C100.649 217.089 109.322 213.629 109.322 213.629L95.5891 223.221L87.1126 219.104L73.5546 219.301L66.458 201.891H66.4799Z" fill="#7EA21A"/>
</g>
<path fill-rule="evenodd" clip-rule="evenodd" d="M98.6992 169.83C98.1954 168.91 96.487 168.822 95.9613 169.238C95.9175 170.596 95.7642 171.91 95.5013 173.202C95.1947 174.845 94.7128 176.443 94.0776 177.976C94.7566 179.619 95.7204 179.509 96.8155 178.568C96.9907 175.611 97.5602 172.677 98.6773 169.83H98.6992Z" fill="#D3884A"/>
<mask id="mask9_1320_5848" style="mask-type:luminance" maskUnits="userSpaceOnUse" x="94" y="169" width="5" height="11">
<path d="M98.6992 169.83C98.1954 168.91 96.487 168.822 95.9613 169.238C95.9175 170.596 95.7642 171.91 95.5013 173.202C95.1947 174.845 94.7128 176.443 94.0776 177.976C94.7566 179.619 95.7204 179.509 96.8155 178.568C96.9907 175.611 97.5602 172.677 98.6773 169.83H98.6992Z" fill="white"/>
</mask>
<g mask="url(#mask9_1320_5848)">
<path fill-rule="evenodd" clip-rule="evenodd" d="M97.1882 167.793L94.6256 167.224L92.1943 178.589L94.4942 180.057C95.8083 176.706 96.9911 172.063 97.2101 167.793H97.1882Z" fill="#DDAE30"/>
<path fill-rule="evenodd" clip-rule="evenodd" d="M97.9549 166.654C99.1815 166.917 100.014 167.924 99.7948 168.888C99.5758 169.851 98.4149 170.443 97.1883 170.18C95.9618 169.917 95.1295 168.91 95.3485 167.946C95.5675 166.983 96.7284 166.391 97.9549 166.654Z" fill="#DDAE30"/>
</g>
<path fill-rule="evenodd" clip-rule="evenodd" d="M91.4273 176.115C91.4273 176.115 91.274 176.049 91.1864 176.093C91.1207 176.137 91.0769 176.246 91.1207 176.312C93.0043 180.451 97.0126 181.393 100.605 178.195C100.67 178.13 100.692 178.02 100.648 177.954C100.605 177.867 100.495 177.845 100.408 177.889C97.4068 179.181 93.6395 178.37 91.4273 176.115Z" fill="#7EA11A"/>
<path fill-rule="evenodd" clip-rule="evenodd" d="M97.0566 174.319C97.0566 174.319 103.277 180.079 108.337 177.648C112.038 175.874 115.784 173.071 115.784 173.071C115.784 173.071 111.841 169.216 107.877 169.107C101.875 168.954 97.0785 174.341 97.0785 174.341L97.0566 174.319Z" fill="#17AF1B"/>
<mask id="mask10_1320_5848" style="mask-type:luminance" maskUnits="userSpaceOnUse" x="97" y="169" width="19" height="10">
<path d="M97.0566 174.319C97.0566 174.319 103.058 180.035 107.986 177.56C111.578 175.764 115.236 172.939 115.236 172.939C115.236 172.939 111.447 169.107 107.592 169.019C101.766 168.91 97.0785 174.319 97.0785 174.319H97.0566Z" fill="white"/>
</mask>
<g mask="url(#mask10_1320_5848)">
<path fill-rule="evenodd" clip-rule="evenodd" d="M121.413 174.253L121.457 182.706L99.006 183.779L97.0566 174.319C107.942 172.129 115.74 172.216 121.413 174.253Z" fill="#1B9A1B"/>
</g>
<path fill-rule="evenodd" clip-rule="evenodd" d="M85.7981 175.94C87.3751 177.1 83.8706 179.356 81.8993 182.05C79.928 184.743 78.57 187.919 76.993 186.78C75.416 185.619 75.635 181.809 77.6282 179.115C79.5995 176.422 84.221 174.779 85.7981 175.94Z" fill="#BCD86E"/>
</g>
<defs>
<clipPath id="clip0_1320_5848">
<rect width="308" height="370" fill="white"/>
</clipPath>
</defs>
</svg>
