<svg width="189" height="264" viewBox="0 0 189 264" fill="none" xmlns="http://www.w3.org/2000/svg">
<path fill-rule="evenodd" clip-rule="evenodd" d="M78.5 205C76.2189 205 73.9962 205.16 71.8581 205.464C53.3461 208.092 26 222.802 26 241.5C26 252.27 39.6553 261 56.5 261C62.277 261 68.1074 261.767 73.7548 262.983C76.8149 263.643 80.0922 264 83.5 264C86.1425 264 88.7066 263.785 91.1517 263.381C98.1155 262.231 104.95 260.129 111.853 258.657C129.129 254.974 141 247.331 141 238.5C141 234.64 138.732 231.007 134.736 227.833C119.841 215.999 99.8072 205.963 80.8052 205.055C80.0443 205.019 79.2755 205 78.5 205Z" fill="#464646" fill-opacity="0.2"/>
<path d="M161.036 108.926C161.222 105.776 161.33 101.438 161.036 96.2927C160.589 88.39 157.211 29.387 114.535 10.8239C86.2993 -1.46073 57.3004 12.1755 52.4836 14.5626C8.97968 36.1233 6.10267 88.7061 5.90651 93.9164C5.15456 113.439 10.8541 136.929 16.1722 136.951C17.8505 136.951 20.1281 134.858 22.8852 125.898C22.8634 136.002 27.8328 142.902 32.7586 143.273C33.4779 143.327 36.1587 143.393 39.4716 140.112C39.6133 145.289 43.2532 149.693 48.1572 150.772C52.7124 151.775 57.4965 149.715 60.003 145.638C64.373 145.987 71.304 146.02 79.3466 143.665C86.6699 141.518 92.1079 138.226 95.5298 135.773C97.2734 136.874 101.327 139.109 106.972 139.327C112.726 139.545 116.998 137.55 118.818 136.558C116.889 141.256 117.271 146.161 120.006 149.192C120.649 149.9 121.75 150.881 123.559 151.557C120.551 159.394 123.973 168.158 131.056 171.69C137.475 174.894 145.583 173.161 150.4 167.351C155.141 175.319 158.857 176.944 161.45 176.824C171.542 176.388 184.325 148.876 176.053 127.467C172.305 117.755 165.199 111.826 161.058 108.915L161.036 108.926Z" fill="#1E9E2B"/>
<mask id="mask0_1320_5846" style="mask-type:luminance" maskUnits="userSpaceOnUse" x="5" y="5" width="174" height="172">
<path d="M161.036 108.926C161.222 105.776 161.331 101.438 161.036 96.2927C160.589 88.39 157.211 29.387 114.535 10.8239C86.2994 -1.46073 57.3004 12.1755 52.4836 14.5626C8.97968 36.1233 6.10267 88.7061 5.90651 93.9164C5.15456 113.439 10.8541 136.929 16.1722 136.951C17.8505 136.951 20.1281 134.858 22.8852 125.898C22.8634 136.002 27.8328 142.902 32.7586 143.273C33.4779 143.327 36.1587 143.393 39.4716 140.112C39.6133 145.289 43.2532 149.693 48.1572 150.772C52.7124 151.775 57.4966 149.715 60.003 145.638C64.373 145.987 71.304 146.02 79.3466 143.665C86.6699 141.518 92.1079 138.226 95.5298 135.773C97.2734 136.874 101.327 139.109 106.972 139.327C112.726 139.545 116.998 137.55 118.818 136.558C116.889 141.256 117.271 146.161 120.006 149.192C120.649 149.9 121.75 150.881 123.559 151.557C120.551 159.394 123.973 168.158 131.056 171.69C137.475 174.894 145.583 173.161 150.4 167.351C155.141 175.319 158.857 176.944 161.45 176.824C171.542 176.388 184.325 148.875 176.053 127.467C172.305 117.755 165.199 111.826 161.058 108.915L161.036 108.926Z" fill="white"/>
</mask>
<g mask="url(#mask0_1320_5846)">
<path opacity="0.05" d="M163.335 75.1681C160.97 75.6913 157.777 76.1055 154.04 75.7349C145.833 74.9065 140.145 70.7426 137.704 68.6933C136.516 72.007 133.813 74.4487 130.664 74.8847C126.326 75.4951 121.673 72.225 120.529 67.0038C120.006 72.9335 116.137 77.8823 110.961 79.3974C104.433 81.3049 96.7826 77.4571 94.0691 70.0995C93.9165 70.4483 91.3446 75.7785 85.34 76.5742C79.5859 77.3372 75.8044 73.2606 75.4884 72.9117C73.9845 77.6098 70.0177 81.0324 65.3534 81.6428C59.8283 82.3732 54.2813 79.0268 52.1236 73.4786C51.2517 78.7107 47.6882 83.0599 42.8278 84.7385C37.15 86.7006 30.6223 84.684 26.7753 79.6699C23.1137 85.1527 17.1199 88.0413 11.573 86.9949C7.59527 86.2427 5.03429 83.6921 3.96631 82.4931C4.58748 76.3017 5.20865 70.0995 5.82983 63.9081C31.6575 54.3377 76.9814 42.1512 130.097 52.6482C144.319 55.4604 157.015 59.4826 168.109 63.9081C166.517 67.6578 164.915 71.4184 163.324 75.1681H163.335Z" fill="#215150"/>
<path d="M161.995 67.3026C161.821 68.2727 160.426 75.456 155.282 77.5706C149.43 79.9796 139.829 75.3797 135.938 64.5448C135.862 70.5073 134.435 75.9247 131.601 76.7858C128.168 77.8322 122.175 72.3385 118.175 62.1795C120.584 71.1068 114.677 79.3583 107.909 80.3393C100.989 81.3421 92.816 74.8129 92.9141 65.3406C94.6468 70.7798 91.5519 76.4697 86.5934 77.9739C81.308 79.5763 75.227 76.0119 74.1154 70.0168C74.1154 76.3062 71.0314 81.7127 66.8575 83.108C61.1798 85.0046 52.2327 79.9033 50.5218 69.6353C52.2327 77.6251 46.5441 85.1463 39.2317 85.8657C32.4206 86.5415 25.7402 81.1786 25.021 73.6247C25.7293 80.4592 20.7382 86.6723 13.9706 87.4463C7.12685 88.2311 0.806145 83.1952 0.0541992 76.2844C4.29343 54.1787 8.54356 32.0948 12.7828 10H161.995V67.3026Z" fill="#139035"/>
<path d="M99.3218 145.224C80.0327 152.157 39.3731 162.108 28.2683 146.096C27.1785 144.526 25.74 141.79 25.4458 137.321C27.8433 140.744 31.7338 141.845 33.8807 140.657C36.3872 139.272 37.5859 134.182 34.3275 129.975C70.4645 107.455 104.302 101.972 118.273 115.913C120.845 118.475 123.373 122.333 124.768 128.372C123.689 129.19 122.229 130.487 120.91 132.405C119.853 133.953 119.199 135.414 118.807 136.547C114.916 138.64 108.138 142.041 99.3327 145.213L99.3218 145.224Z" fill="#387B5E"/>
<path opacity="0.16" d="M120.9 132.416C119.799 131.304 118.687 130.192 117.587 129.07C117.205 129.397 112.192 133.615 106.144 131.806C102.613 130.748 100.641 128.22 99.9758 127.26C98.6899 131.817 94.418 134.858 89.8409 134.585C85.5799 134.324 81.8964 131.25 80.8284 126.977C79.3246 130.857 75.8373 133.582 71.816 134.018C66.4216 134.596 62.8689 130.748 62.5202 130.356C61.5067 136.013 57.2566 140.352 52.091 141.158C46.3152 142.063 42.0651 138.139 41.542 137.637C44.31 131.075 47.0781 124.524 49.8461 117.962H130.228C127.122 122.78 124.005 127.587 120.9 132.405V132.416Z" fill="#183B4B"/>
<path d="M161.995 63.058C161.821 64.0281 160.426 71.2113 155.282 73.326C149.43 75.735 139.829 71.1351 135.938 60.3002C135.862 66.2626 134.435 71.6801 131.601 72.5412C128.168 73.5876 122.175 68.0939 118.175 57.9349C120.584 66.8622 114.677 75.1136 107.909 76.0947C100.989 77.0975 92.816 70.5682 92.9141 61.0959C94.6468 66.5351 91.5519 72.2251 86.5934 73.7293C81.308 75.3316 75.227 71.7673 74.1154 65.7721C74.1154 72.0616 71.0314 77.4681 66.8575 78.8633C61.1798 80.76 52.2327 75.6587 50.5218 65.3906C52.2327 73.3805 46.5441 80.9017 39.2317 81.6211C32.4206 82.2969 25.7402 76.934 25.021 69.3801C25.7293 76.2146 20.7382 82.4277 13.9706 83.2016C7.12685 83.9865 0.806145 78.9505 0.0541992 72.0398C4.29343 49.9341 8.54356 27.8502 12.7828 5.75537H161.995V63.058Z" fill="#13A63C"/>
<path d="M182.875 156.876C180.336 161.204 175.41 163.471 170.691 162.555C166.594 161.759 163.237 158.675 161.951 154.576C161.199 155.099 157.668 157.432 154.9 156.233C151.577 154.794 149.702 148.407 152.928 141.234C147.032 146.804 139.524 146.314 137.224 143.349C135.067 140.559 136.211 133.92 141.867 129.397C134.042 126.737 132.124 124.219 131.993 122.29C131.612 116.513 146.869 109.057 161.036 108.926C167.793 108.861 173.329 110.474 177.001 111.891C180.892 121.134 184.586 133.986 183.714 149.126C183.562 151.84 183.267 154.424 182.875 156.876Z" fill="#13A63C"/>
<path opacity="0.14" d="M164.458 109.526C160.992 109.046 154.944 108.664 147.85 110.648C141.028 112.556 136.189 115.815 133.476 117.951C135.121 115.39 139.437 109.406 147.566 105.58C155.326 101.928 162.366 102.222 165.406 102.539C165.09 104.871 164.774 107.193 164.458 109.526Z" fill="#215150"/>
<path opacity="0.12" d="M181.349 182.459H117.151C114.437 174.884 109.806 158.217 116.584 140.918C117.826 137.746 119.319 134.912 120.889 132.416C117.804 136.547 117.151 141.769 119.254 145.856C120.899 149.05 123.711 150.532 124.888 151.066C122.741 157.116 124.016 163.667 128.125 167.537C133.661 172.769 143.785 172.594 150.367 165.847C155.533 174.011 159.456 175.45 162.049 175.287C171.16 174.687 180.488 153.094 176.827 134.596C174.157 121.123 165.242 112.512 161.014 108.937C164.817 110.943 179.202 119.096 185.828 136.853C194.405 159.819 182.897 179.843 181.328 182.47L181.349 182.459Z" fill="#F4FFFF"/>
<path opacity="0.12" d="M155.086 62.0659C153.854 58.676 139.426 20.9066 102.515 11.8049C67.9908 3.28091 28.3883 23.4573 11.2134 62.0659V13.9305C27.5709 7.40121 56.5045 -1.6242 93.0883 0.250644C119.515 1.61318 140.799 8.19692 155.086 13.9305V62.0659Z" fill="#F4FFFF"/>
<path opacity="0.12" d="M36.6271 136.558C36.3764 138.389 35.2322 139.959 33.8808 140.668C31.4397 141.943 27.6255 140.777 25.446 137.332C16.1066 142.39 11.159 140.787 9.31727 139.948C-0.381746 135.457 -3.5312 114.67 4.81649 88.1174C8.81597 119.085 12.859 134.574 16.9239 134.585C19.0708 134.585 21.2285 130.269 23.3972 121.636C26.0998 133.877 28.7371 139.97 31.2763 139.937C32.8456 139.915 34.3821 137.583 35.886 132.928C36.1476 133.375 36.8668 134.76 36.6271 136.558Z" fill="#F4FFFF"/>
</g>
<path d="M112.487 113.264C113.925 130.378 110.59 141.943 106.961 149.595C104.629 154.511 99.8452 162.697 102.221 164.997C103.3 166.043 105.436 165.444 106.961 164.997C115.298 162.555 119.919 154.282 121.673 150.63C122.295 150.947 122.916 151.263 123.548 151.568C123.275 152.418 123.014 153.41 122.839 154.533C122.502 156.691 122.6 158.577 122.796 160.005C120.802 162.239 118.698 164.583 116.704 166.817C112.41 171.613 108.117 176.399 103.812 181.184C102.624 184.879 101.131 191.168 101.839 198.951C102.199 202.919 102.929 210.811 108.16 217.907C114.405 226.365 122.894 228.044 122.371 230.148C122.033 231.51 118.044 232.469 102.635 230.933C102.788 232.415 103.943 244.187 100.27 245.539C97.2624 246.651 91.5084 240.601 86.0595 230.54C78.3439 244.623 73.0803 251.196 70.2686 250.28C67.9692 249.528 67.3044 243.74 68.2961 232.906C48.266 240.612 43.3076 240.895 42.6428 239.62C41.7492 237.931 48.4949 233.799 58.4337 221.46C62.7601 216.097 64.9178 213.416 66.7269 209.612C67.8057 207.334 70.7045 200.673 70.2795 182.764C69.9853 170.044 69.8327 163.678 67.5115 157.498C62.4113 143.861 51.3065 135.861 44.223 131.838C48.0372 130.389 51.8514 128.939 55.6656 127.5C56.5374 130.541 58.2157 135.054 61.5831 139.741C64.2967 143.513 70.4103 150.62 72.2411 149.617C73.854 148.734 72.6552 141.256 60.3953 112.501L67.1083 102.626C69.0263 109.504 72.0886 119.14 76.9817 130.269C82.6812 143.24 86.3319 151.35 90.8 151.197C97.0553 150.979 101.153 134.64 102.243 130.269C104.782 120.132 104.455 111.39 103.823 105.787C106.722 108.283 109.61 110.79 112.508 113.286L112.487 113.264Z" fill="#86644E"/>
<mask id="mask1_1320_5846" style="mask-type:luminance" maskUnits="userSpaceOnUse" x="42" y="102" width="82" height="149">
<path d="M112.487 113.264C113.925 130.378 110.59 141.943 106.961 149.595C104.629 154.511 99.8452 162.697 102.221 164.997C103.3 166.043 105.436 165.444 106.961 164.997C115.298 162.555 119.919 154.282 121.673 150.63C122.295 150.947 122.916 151.263 123.548 151.568C123.275 152.418 123.014 153.41 122.839 154.533C122.502 156.691 122.6 158.577 122.796 160.005C120.802 162.239 118.698 164.583 116.704 166.817C112.41 171.613 108.117 176.399 103.812 181.184C102.624 184.879 101.131 191.168 101.839 198.951C102.199 202.919 102.929 210.811 108.16 217.907C114.405 226.365 122.894 228.044 122.371 230.148C122.033 231.51 118.044 232.469 102.635 230.933C102.788 232.415 103.943 244.187 100.27 245.539C97.2624 246.651 91.5084 240.601 86.0595 230.54C78.3439 244.623 73.0803 251.196 70.2686 250.28C67.9692 249.528 67.3044 243.74 68.2961 232.906C48.266 240.612 43.3076 240.895 42.6428 239.62C41.7492 237.931 48.4949 233.799 58.4337 221.46C62.7601 216.097 64.9178 213.416 66.7269 209.612C67.8057 207.334 70.7045 200.673 70.2795 182.764C69.9853 170.044 69.8327 163.678 67.5115 157.498C62.4113 143.861 51.3065 135.861 44.223 131.838C48.0372 130.389 51.8514 128.939 55.6656 127.5C56.5374 130.541 58.2157 135.054 61.5831 139.741C64.2967 143.513 70.4103 150.62 72.2411 149.617C73.854 148.734 72.6552 141.256 60.3953 112.501L67.1083 102.626C69.0263 109.504 72.0886 119.14 76.9817 130.269C82.6812 143.24 86.3319 151.35 90.8 151.197C97.0553 150.979 101.153 134.64 102.243 130.269C104.782 120.132 104.455 111.39 103.823 105.787C106.722 108.283 109.61 110.79 112.508 113.286L112.487 113.264Z" fill="white"/>
</mask>
<g mask="url(#mask1_1320_5846)">
<path opacity="0.17" d="M122.85 226.452C118.197 228.196 113.326 229.058 108.356 228.807C104.695 228.622 101.654 228.556 101.055 232.916C100.728 235.314 100.706 237.745 100.379 240.143C100.172 241.658 100.238 242.705 98.1234 242.498C97.1535 242.4 96.0746 241.713 95.2464 241.211C91.7155 239.064 89.2526 235.5 86.9532 232.164C86.4519 231.445 85.4384 231.009 84.621 231.554C81.4934 233.625 79.6516 236.688 77.8426 239.892C75.881 243.359 73.3309 247.686 68.8084 247.61C66.6179 247.577 66.6179 250.978 68.8084 251.011C72.9277 251.087 76.1426 248.515 78.4856 245.321C80.8068 242.149 82.1581 238.116 85.1114 235.456C87.2583 238.486 89.5795 241.408 92.6309 243.566C95.4207 245.528 100.564 247.806 102.809 243.926C103.779 242.258 103.779 240.121 103.943 238.268C104.074 236.851 104.172 235.434 104.335 234.028C104.553 232.088 105.763 232.044 107.452 232.164C110.678 232.393 113.903 232.197 117.064 231.608C117.271 232.055 117.63 232.415 118.121 232.48C119.777 232.72 121.379 232.676 122.992 232.208C124.245 231.848 124.431 230.518 123.918 229.646C125.706 228.763 124.834 225.7 122.84 226.452H122.85Z" fill="#433743"/>
<path opacity="0.17" d="M65.2885 231.39C57.0171 234.29 48.5277 236.437 39.8749 237.832C38.1967 238.105 38.3056 240.764 39.8749 241.113C42.4141 241.68 44.9206 241.855 47.5033 241.56C48.6476 241.429 49.1816 240.405 49.1162 239.522C54.892 238.247 60.5916 236.644 66.193 234.682C68.2418 233.963 67.3591 230.671 65.2885 231.401V231.39Z" fill="#433743"/>
<path opacity="0.17" d="M126.458 150.238C126.349 150.173 126.229 150.129 126.109 150.064C125.815 148.995 124.605 148.221 123.657 148.952C123.156 148.679 122.676 148.396 122.186 148.08C120.421 146.924 118.786 149.584 120.268 150.859C120.017 151.426 120.006 152.08 120.29 152.723C118.557 154.554 116.704 156.266 114.721 157.835C111.953 160.026 106.569 164.757 102.81 163.111C100.826 162.239 99.0827 165.171 101.088 166.054C105.818 168.125 110.351 165.149 114.165 162.457C116.367 160.909 118.448 159.209 120.399 157.378C120.399 157.465 120.377 157.552 120.377 157.65C120.322 159.83 120.976 161.901 122.11 163.743C123.254 165.607 126.196 163.896 125.052 162.021C123.657 159.754 123.646 157.726 124.278 155.208C124.453 154.5 124.583 153.868 124.464 153.17C124.485 153.148 124.507 153.116 124.529 153.094C124.725 153.181 124.932 153.257 125.139 153.334C126.959 154.009 128.103 151.154 126.447 150.227L126.458 150.238Z" fill="#433743"/>
<path opacity="0.17" d="M112.138 127.816C110.307 128.416 108.476 128.623 106.689 128.448C106.035 128.209 105.403 127.838 104.847 127.347C104.096 126.693 103.191 126.835 102.581 127.326C102.101 127.097 101.622 126.846 101.153 126.563C99.2787 125.418 97.5678 128.361 99.4313 129.506C101.524 130.781 103.812 131.566 106.155 131.827C108.531 132.525 111.114 132.263 113.457 130.944C115.102 130.007 114.013 127.227 112.149 127.838L112.138 127.816Z" fill="#433743"/>
<path opacity="0.17" d="M93.0123 145.507C91.977 147.11 90.3314 148.232 88.4134 148.407C85.5364 148.668 85.0678 146.63 84.3159 144.33C82.9537 140.155 81.7767 135.926 80.7523 131.653C80.2401 129.528 76.9599 130.421 77.4721 132.558C78.3112 136.068 79.2593 139.545 80.3273 142.989C81.0792 145.42 81.6568 148.821 83.7492 150.521C87.6833 153.704 93.5681 150.925 95.9547 147.219C97.1426 145.376 94.2001 143.665 93.0123 145.496V145.507Z" fill="#433743"/>
<path opacity="0.17" d="M77.1888 127.118C76.5894 127.249 75.99 127.358 75.3907 127.456C76.208 126.9 77.0035 126.301 77.7773 125.658C79.4664 124.252 77.0471 121.854 75.3689 123.249C72.9387 125.276 70.2142 126.77 67.2391 127.762C66.8904 127.74 66.5744 127.849 66.3019 128.045C66.1602 128.089 66.0295 128.132 65.8878 128.165C64.0243 128.688 64.4166 131.468 66.3455 131.511C66.6506 131.511 66.9667 131.511 67.2718 131.511C71.0642 133.462 75.6304 132.808 78.8561 129.953C80.2184 128.754 78.7472 126.781 77.1997 127.108L77.1888 127.118Z" fill="#433743"/>
<path opacity="0.17" d="M59.6871 130.814C59.3166 129.462 56.9518 129.135 56.3633 130.846C55.2844 133.953 53.1811 136.504 50.3913 138.215C48.5278 139.359 50.206 142.259 52.1131 141.158C55.6004 139.141 59.4582 136.536 60.0903 132.231C60.1775 131.653 60.0031 131.173 59.698 130.814H59.6871Z" fill="#433743"/>
<path opacity="0.15" d="M103.431 163.471C103.769 161.193 103.627 158.707 104.597 156.593C105.534 154.544 106.962 152.701 108.008 150.707C110.155 146.619 111.767 142.281 112.879 137.801C113.402 135.675 110.122 134.77 109.599 136.896C108.422 141.649 106.678 146.194 104.27 150.456C103.322 152.124 102.134 153.693 101.371 155.47C100.401 157.748 100.499 160.168 100.14 162.566C99.8126 164.713 103.093 165.629 103.42 163.471H103.431Z" fill="#F4FFFF"/>
<path opacity="0.17" d="M70.029 230.595C70.8136 229.712 73.1675 227.27 77.1343 226.387C80.7306 225.581 83.6294 226.485 84.7627 226.91C82.0056 223.869 77.7773 222.954 74.497 224.545C70.9553 226.256 70.1161 230.115 70.0181 230.595H70.029Z" fill="#433743"/>
</g>
<path d="M34.3278 129.975C37.3247 137.736 46.2717 140.864 52.6034 137.518C58.1503 134.585 60.8639 127.119 58.0086 120.502C60.2427 126.824 66.607 130.291 72.2193 128.928C76.5349 127.882 79.9459 124.078 80.8831 119.303C81.0792 126.683 85.6781 131.926 89.5795 132.089C93.9386 132.264 99.8016 126.214 99.0496 117.352C98.1015 122.944 102.036 128.22 107.474 128.939C112.694 129.626 117.696 125.898 118.524 120.513C118.448 121.472 118.36 124.099 120.017 126.639C120.344 127.141 122.371 130.138 124.049 129.975C127.624 129.615 132.985 114.692 128.528 105.776C120.878 90.4939 81.5805 87.4963 55.8945 104.719C43.7871 112.839 37.3792 123.729 34.3169 129.985L34.3278 129.975Z" fill="#1E9E2B"/>
<mask id="mask2_1320_5846" style="mask-type:luminance" maskUnits="userSpaceOnUse" x="34" y="93" width="97" height="46">
<path d="M34.3278 129.975C37.3247 137.736 46.2717 140.864 52.6034 137.518C58.1503 134.585 60.8639 127.119 58.0086 120.502C60.2427 126.824 66.607 130.291 72.2193 128.928C76.5349 127.882 79.9459 124.078 80.8831 119.303C81.0792 126.683 85.6781 131.926 89.5795 132.089C93.9386 132.264 99.8016 126.214 99.0496 117.352C98.1015 122.944 102.036 128.22 107.474 128.939C112.694 129.626 117.696 125.898 118.524 120.513C118.448 121.472 118.36 124.099 120.017 126.639C120.344 127.141 122.371 130.138 124.049 129.975C127.624 129.615 132.985 114.692 128.528 105.776C120.878 90.4939 81.5805 87.4963 55.8945 104.719C43.7871 112.839 37.3792 123.729 34.3169 129.985L34.3278 129.975Z" fill="white"/>
</mask>
<g mask="url(#mask2_1320_5846)">
<path opacity="0.12" d="M130.228 143.316C94.8323 160.92 60.5043 162.512 43.9506 145.856C40.9973 142.891 38.044 138.771 35.8862 132.928C40.0383 137.06 46.4462 137.964 51.5463 135.152C56.7228 132.307 59.3818 126.279 57.9978 120.502C61.0819 124.677 66.1166 126.846 71.0751 126.105C77.3849 125.168 80.4908 119.979 80.8722 119.303C81.112 124.601 85.8198 128.623 90.9527 128.111C96.14 127.587 99.9433 122.617 99.0497 117.352C99.7254 122.693 104.063 126.65 108.945 126.781C112.944 126.89 116.748 124.405 118.524 120.502C120.366 123.652 122.207 126.803 124.049 129.953C126.109 134.4 128.169 138.858 130.217 143.306L130.228 143.316Z" fill="#F4FFFF"/>
</g>
</svg>
