<svg width="130" height="99" viewBox="0 0 130 99" fill="none" xmlns="http://www.w3.org/2000/svg">
<path fill-rule="evenodd" clip-rule="evenodd" d="M70.127 79C69.4697 79 68.8292 79.0461 68.2131 79.1336C62.8792 79.8911 55 84.1296 55 89.517V89.517C55 92.6201 58.9346 95.1357 63.7881 95.1357V95.1357C65.4527 95.1357 67.1327 95.3566 68.76 95.7071C69.6416 95.8971 70.5859 96 71.5678 96V96C75.068 96 78.5379 94.943 81.8804 93.9041C85.6706 92.726 88.1357 90.8126 88.1357 88.6525C88.1357 87.7133 87.6697 86.8207 86.8313 86.0149C82.5754 81.9245 76.0299 79 70.127 79V79Z" fill="#464646" fill-opacity="0.2"/>
<path d="M69.2376 88C68.8727 88 68.5355 87.8009 68.3643 87.4787C57.9045 67.7918 63.428 41.1426 63.6872 40.0001L67.0961 40C67.0321 40.2635 64.3789 68.1343 73.8614 86.7915C74.1403 87.3403 73.747 88 73.1314 88V88C73.0444 88 72.9579 88.014 72.8754 88.0415L71.8162 88.3946C71.611 88.463 71.389 88.463 71.1838 88.3946L70.154 88.0513C70.052 88.0173 69.9452 88 69.8377 88H69.2376Z" fill="#0C8E31"/>
<path d="M65.923 39.9867C66.1999 41.1651 65.7252 42.5422 64.8023 43.1645C54.6502 50.0099 35.6116 50.6587 20.0011 44.1708C3.55992 37.3386 -5.24738 27.9378 9.96763 16.2993C8.37229 -1.0724 16.6786 -2.03896 33.1066 4.80643C48.8358 11.3473 62.3764 24.8527 65.9098 40L65.923 39.9867Z" fill="#13A63C"/>
<mask id="mask0_934_6750" style="mask-type:luminance" maskUnits="userSpaceOnUse" x="2" y="0" width="65" height="49">
<path d="M65.923 39.9867C66.1999 41.1651 65.7252 42.5422 64.8023 43.1645C54.6502 50.0099 35.6116 50.6587 20.0011 44.1708C3.55992 37.3386 -5.24738 27.9378 9.96763 16.2993C8.37229 -1.0724 16.6786 -2.03896 33.1066 4.80643C48.8358 11.3473 62.3764 24.8527 65.9098 40L65.923 39.9867Z" fill="white"/>
</mask>
<g mask="url(#mask0_934_6750)">
<g opacity="0.12">
<path d="M34.0428 3.25731C30.7862 2.09214 27.4241 1.33742 23.9961 1.01965C20.8846 0.728355 17.3643 0.569467 14.3714 1.69492C7.97687 4.10471 8.25375 11.3473 9.12393 16.9613C9.34807 18.4443 11.7477 18.0735 11.7081 16.6038V16.1934C11.6686 15.2665 10.5611 14.4456 9.71724 15.0547C6.05192 17.6631 2.16247 20.6687 1.35821 25.3956C0.461659 30.6918 3.24361 35.4982 5.93326 39.8014C6.82981 41.2446 9.11075 39.9205 8.21419 38.4641C5.95963 34.8494 3.37545 30.7978 3.88965 26.3224C4.3643 22.1914 7.93732 19.5697 11.0621 17.3453L9.08438 16.2066V16.6171C9.95456 16.4979 10.8247 16.3787 11.6817 16.2596C10.8907 11.1222 10.7193 4.74026 17.1402 3.70749C22.4799 2.84685 28.3339 4.02527 33.3572 5.82599C34.9525 6.39533 35.6513 3.8399 34.056 3.27055L34.0428 3.25731Z" fill="#F4FFFF"/>
</g>
<g opacity="0.12">
<path d="M34.5833 6.07754L41.3602 8.7389C42.0062 8.99048 42.8368 8.46085 42.9819 7.81206C43.1533 7.05735 42.7445 6.44828 42.0589 6.18347L35.2821 3.52211C34.636 3.27053 33.8054 3.80016 33.6604 4.44895C33.489 5.20366 33.8977 5.81273 34.5833 6.07754Z" fill="#F4FFFF"/>
</g>
<g opacity="0.12">
<path d="M39.4616 5.24332C35.3216 3.81333 31.1289 2.51575 26.8835 1.41678C23.2182 0.463459 19.2101 -0.423662 15.5184 0.887158C8.95245 3.2175 6.30235 10.8706 9.50621 16.9348L9.98085 15.1208C6.65834 17.2658 3.07213 19.6888 1.25266 23.3565C-0.909616 27.7126 0.158335 32.5057 1.37132 36.981C1.81959 38.6229 4.36422 37.9211 3.91594 36.2793C2.86118 32.3866 1.68775 28.0304 3.75773 24.2701C5.43217 21.238 8.47781 19.2519 11.3125 17.4247C11.9322 17.0275 12.1299 16.2727 11.7871 15.6107C8.72831 9.82457 12.7892 3.13806 19.2232 2.88649C22.5194 2.75408 25.8419 3.85305 28.9798 4.72693C32.1178 5.60081 35.5326 6.6733 38.776 7.79875C40.3845 8.35486 41.0701 5.79942 39.4748 5.24332H39.4616Z" fill="#F4FFFF"/>
</g>
<g opacity="0.12">
<path d="M4.04777 37.9345C10.3368 41.8802 16.6127 45.8126 22.9017 49.7583C24.3389 50.6587 25.6705 48.3681 24.2334 47.4677C17.9443 43.522 11.6685 39.5896 5.37942 35.6439C3.9423 34.7435 2.61065 37.0341 4.04777 37.9345Z" fill="#F4FFFF"/>
</g>
<g opacity="0.12">
<path d="M3.48075 35.7629C14.0416 44.793 27.3185 50.1025 41.1755 50.8175C42.8763 50.9102 42.8631 48.262 41.1755 48.1694C28.0568 47.4941 15.3601 42.4362 5.35296 33.8827C4.07406 32.7838 2.18866 34.6507 3.49394 35.7497L3.48075 35.7629Z" fill="#F4FFFF"/>
</g>
</g>
<path d="M64.0902 39.7482C63.8134 40.9266 64.288 42.3036 65.2109 42.9259C75.3631 49.7713 94.4016 50.4201 110.012 43.9322C126.453 37.1001 135.247 27.686 120.032 16.0608C121.628 -1.31092 113.321 -2.27749 96.8803 4.56791C81.1511 11.1088 67.6105 24.6142 64.077 39.7614L64.0902 39.7482Z" fill="#13A63C"/>
<mask id="mask1_934_6750" style="mask-type:luminance" maskUnits="userSpaceOnUse" x="64" y="0" width="64" height="49">
<path d="M64.0902 39.7482C63.8134 40.9266 64.288 42.3036 65.2109 42.9259C75.3631 49.7713 94.4016 50.4201 110.012 43.9322C126.453 37.1001 135.247 27.686 120.032 16.0608C121.628 -1.31092 113.321 -2.27749 96.8803 4.56791C81.1511 11.1088 67.6105 24.6142 64.077 39.7614L64.0902 39.7482Z" fill="white"/>
</mask>
<g mask="url(#mask1_934_6750)">
<g opacity="0.12">
<path d="M96.6561 5.57435C101.666 3.77362 107.533 2.58197 112.873 3.45585C119.294 4.50186 119.136 10.8706 118.332 16.0079L120.916 16.3654V15.955C120.27 16.339 119.611 16.7229 118.938 17.0937C122.076 19.3313 125.623 21.9397 126.111 26.0708C126.638 30.5329 124.041 34.611 121.786 38.2124C120.876 39.6557 123.157 40.993 124.067 39.5497C126.757 35.2465 129.539 30.4402 128.642 25.144C127.838 20.4038 123.948 17.4114 120.283 14.803C119.426 14.194 118.318 15.0149 118.305 15.9417V16.3522C118.253 17.8087 120.652 18.2059 120.889 16.7097C121.76 11.0957 122.036 3.83983 115.642 1.44328C112.741 0.357547 109.353 0.489953 106.32 0.741524C102.774 1.04606 99.3063 1.81401 95.9706 3.00567C94.3884 3.57501 95.074 6.13045 96.6693 5.5611L96.6561 5.57435Z" fill="#F4FFFF"/>
</g>
<g opacity="0.12">
<path d="M94.7179 3.28363L87.9411 5.94499C87.295 6.19656 86.7808 6.84535 87.0182 7.57358C87.2159 8.19589 87.9543 8.76524 88.6399 8.50043L95.4167 5.83906C96.0628 5.58749 96.577 4.9387 96.3397 4.21047C96.1419 3.58816 95.4035 3.01881 94.7179 3.28363Z" fill="#F4FFFF"/>
</g>
<g opacity="0.12">
<path d="M91.2371 7.56037C94.4674 6.43492 97.7371 5.41539 101.033 4.48855C104.329 3.56171 107.494 2.52894 110.79 2.6481C117.211 2.89967 121.285 9.57294 118.226 15.3723C117.883 16.0211 118.081 16.7891 118.701 17.1863C121.535 19.0135 124.581 20.9996 126.255 24.0317C128.339 27.792 127.152 32.1614 126.097 36.0409C125.649 37.6827 128.194 38.3845 128.642 36.7427C129.855 32.2806 130.936 27.4742 128.76 23.1181C126.928 19.4637 123.368 17.0406 120.032 14.8824L120.507 16.6964C123.711 10.6322 121.047 2.99236 114.495 0.648772C110.909 -0.635567 107.006 0.185351 103.433 1.09895C99.082 2.21116 94.7838 3.53522 90.5384 5.00493C88.943 5.56104 89.6286 8.11647 91.2371 7.56037Z" fill="#F4FFFF"/>
</g>
<g opacity="0.12">
<path d="M124.621 35.4053C118.332 39.351 112.056 43.2835 105.767 47.2292C104.33 48.1296 105.648 50.4202 107.098 49.5198C113.387 45.5741 119.663 41.6417 125.952 37.696C127.389 36.7956 126.071 34.505 124.621 35.4053Z" fill="#F4FFFF"/>
</g>
<g opacity="0.12">
<path d="M124.66 33.6576C114.653 42.211 101.943 47.2557 88.8376 47.9442C87.1499 48.0369 87.1368 50.685 88.8376 50.5923C102.695 49.8773 115.971 44.5546 126.532 35.5377C127.824 34.4255 125.952 32.5718 124.673 33.6708L124.66 33.6576Z" fill="#F4FFFF"/>
</g>
</g>
<path d="M65.2769 40.9002C65.1582 41.4033 65.356 41.9992 65.7515 42.264C70.1024 45.2034 78.2637 45.4814 84.9483 42.6877C91.9888 39.7615 95.7596 35.7231 89.2465 30.7446C89.9321 23.3034 86.3722 22.893 79.3316 25.8191C72.5943 28.6261 66.7931 34.4123 65.2769 40.9002Z" fill="#149547"/>
<mask id="mask2_934_6750" style="mask-type:luminance" maskUnits="userSpaceOnUse" x="65" y="24" width="28" height="21">
<path d="M65.2769 40.9002C65.1582 41.4033 65.356 41.9992 65.7515 42.264C70.1024 45.2034 78.2637 45.4814 84.9483 42.6877C91.9888 39.7615 95.7596 35.7231 89.2465 30.7446C89.9321 23.3034 86.3722 22.893 79.3316 25.8191C72.5943 28.6261 66.7931 34.4123 65.2769 40.9002Z" fill="white"/>
</mask>
<g mask="url(#mask2_934_6750)">
<g opacity="0.1">
<path d="M66.4239 41.8669C69.4696 43.4822 73.1349 44.6474 76.6156 44.4753C78.2241 44.3958 79.859 43.8927 80.8874 42.5819C81.8235 41.3902 82.1927 39.6822 81.4016 38.3051C81.0324 37.6696 80.4787 37.2062 79.8722 36.7957C79.3975 36.4779 78.8174 36.2396 78.3955 35.8424C77.5253 34.995 77.8813 33.287 77.4858 32.2012C76.9188 30.6786 75.5345 29.7385 73.9128 29.7649C72.2911 29.7914 70.9067 30.7315 69.8387 31.8967C67.2677 34.6905 65.4219 38.1992 64.3144 41.8271C64.1562 42.3435 64.4067 43.085 64.9209 43.3233C68.7708 45.1505 73.6095 47.0439 77.433 44.0648C78.9361 42.8864 80.1359 40.609 78.9493 38.795C78.3428 37.8682 77.3276 37.5372 76.286 37.4577C75.9036 37.4313 74.7961 37.6166 74.6643 37.1929C74.572 36.9281 74.7698 36.4647 74.8489 36.2131C74.9939 35.7497 75.1785 35.2995 75.2708 34.8229C75.4685 33.7769 75.4026 32.6117 74.6115 31.804C73.8205 30.9963 72.6075 30.7977 71.5659 31.142C70.5243 31.4862 69.7464 32.3204 69.0213 33.1281C67.5842 34.7302 66.2789 36.8222 67.1359 39.0334C67.5842 40.1985 68.5071 40.8341 69.6146 41.2843C70.7221 41.7345 71.7505 42.1317 72.8184 42.5421C74.0842 43.032 75.4949 43.3366 76.6551 42.423C77.6967 41.6153 77.9604 40.1588 77.143 39.0863C76.4178 38.133 75.2312 37.8682 74.1237 37.6034C72.6866 37.2724 71.2627 36.9281 69.8255 36.5971L70.4057 38.8083C71.2099 37.7888 72.0142 36.7692 72.8184 35.7497L70.7485 35.4849C71.1572 36.3985 71.5791 37.3121 71.9878 38.2125C72.502 39.3379 74.0578 38.8612 74.4006 37.8947C74.9675 36.2661 75.5345 34.6243 76.0882 32.9957H73.5436L75.1389 39.4041L77.5517 38.3846L77.0507 37.6961C76.6288 37.1267 75.9036 36.8354 75.2444 37.2194C74.6775 37.5504 74.3478 38.4508 74.7698 39.0334L75.2708 39.7219C76.1278 40.8738 78.0659 40.2515 77.6835 38.7024L76.0882 32.2939C75.7586 30.9566 73.9523 31.1155 73.5436 32.2939C72.9766 33.9225 72.4097 35.5643 71.856 37.1929L74.2687 36.8752C73.86 35.9616 73.4381 35.048 73.0294 34.1476C72.6998 33.4194 71.4604 33.2472 70.9594 33.8828C70.1551 34.9023 69.3509 35.9218 68.5466 36.9414C67.9797 37.6696 68.072 38.901 69.1268 39.1525C70.8935 39.563 72.7525 39.8543 74.4797 40.4236C74.5588 40.4501 75.0598 40.6752 75.0466 40.6884C75.0466 40.6884 75.073 40.6885 74.9939 40.5296C75.0466 40.331 75.0598 40.3972 74.9939 40.3574C74.9939 40.3574 74.7566 40.3839 74.717 40.3707C74.5192 40.3707 74.3083 40.278 74.1237 40.2118C73.7018 40.0661 73.2799 39.894 72.8712 39.7219C72.0801 39.4174 71.289 39.1261 70.5111 38.795C69.9178 38.5435 69.5355 38.3051 69.4959 37.6299C69.4168 36.3058 70.7353 35.0612 71.5923 34.2006C71.8032 33.9887 72.4888 33.3929 72.713 33.5915C72.8448 33.7107 72.6207 34.5183 72.5284 34.7699C72.0537 36.2131 71.5923 37.8947 72.8053 39.1393C73.2535 39.6027 73.86 39.8543 74.4929 39.9602C75.1257 40.0661 75.8377 39.9337 76.4574 40.0926C77.3671 40.3177 76.1278 41.6815 75.7718 41.9595C72.9107 44.1442 69.0081 42.317 66.2261 40.993L66.8326 42.4892C67.6105 39.947 68.7971 37.5504 70.3397 35.3922C71.0253 34.4389 71.8032 33.3399 72.8184 32.7308C73.504 32.3204 74.6115 32.1218 74.9675 33.0486C75.3631 34.0549 75.1653 35.2201 75.5608 36.2396C76.0091 37.4048 76.8925 38.0933 77.9341 38.7156C78.5933 39.1128 79.4239 39.51 79.0811 40.4236C78.7251 41.4034 77.6572 41.7477 76.6947 41.8007C73.6359 41.9993 70.3925 40.9797 67.716 39.563C66.213 38.7686 64.8813 41.0459 66.3844 41.8536L66.4239 41.8669Z" fill="#F4FFFF"/>
</g>
</g>
<path d="M64.9868 41.0723C64.8682 41.5754 65.0659 42.1713 65.4615 42.4361C69.8124 45.3755 77.9736 45.6535 84.6582 42.8598C91.6988 39.9336 95.4696 35.8952 88.9564 30.9168C89.642 23.4755 86.0822 23.0651 79.0416 25.9912C72.3043 28.7983 66.5031 34.5844 64.9868 41.0723Z" stroke="#38B55C" stroke-width="2.5" stroke-miterlimit="10"/>
<path d="M64.7231 41.1385C64.8417 41.6416 64.644 42.2374 64.2484 42.5022C59.8975 45.4417 51.7363 45.7197 45.0517 42.9259C38.0111 39.9998 34.2403 35.9614 40.7535 30.9829C40.0679 23.5417 43.6277 23.1312 50.6683 26.0574C57.4056 28.8644 63.2068 34.6506 64.7231 41.1385Z" fill="#149547"/>
<mask id="mask3_934_6750" style="mask-type:luminance" maskUnits="userSpaceOnUse" x="37" y="24" width="28" height="21">
<path d="M64.7231 41.1385C64.8417 41.6416 64.644 42.2374 64.2484 42.5022C59.8975 45.4417 51.7363 45.7197 45.0517 42.9259C38.0111 39.9998 34.2403 35.9614 40.7535 30.9829C40.0679 23.5417 43.6277 23.1312 50.6683 26.0574C57.4056 28.8644 63.2068 34.6506 64.7231 41.1385Z" fill="white"/>
</mask>
<g mask="url(#mask3_934_6750)">
<g opacity="0.1">
<path d="M62.2443 39.8145C59.8183 41.0988 57.0891 41.933 54.3467 42.0654C53.3051 42.1183 51.9471 42.1051 51.2088 41.2445C50.6287 40.5692 50.6814 39.8939 51.3802 39.3908C52.3031 38.7287 53.3051 38.3183 53.9775 37.3517C54.65 36.3851 54.6631 35.1538 54.8477 33.9754C54.9796 33.0882 55.3751 32.5189 56.3508 32.6778C57.4846 32.8764 58.3285 33.9886 59.0009 34.836C60.8863 37.1663 62.2706 39.9071 63.1408 42.7671L63.7473 41.2709C61.15 42.5023 57.9725 44.025 55.1114 42.7671C54.5577 42.5155 54.0039 42.1581 53.6216 41.6681C53.4502 41.4431 53.0678 40.8208 53.2392 40.5162C53.3842 40.2646 53.938 40.3308 54.2017 40.3308C54.8741 40.3176 55.5465 40.3044 56.1794 40.066C57.8538 39.4172 58.2098 37.6562 57.8011 36.0674C57.6429 35.4848 57.3396 34.9154 57.2737 34.3064C57.2605 34.1872 57.2341 33.9621 57.3132 33.8562C57.366 33.8032 57.1682 33.9224 57.3001 33.8562C57.4055 33.8165 57.656 33.8827 57.7483 33.9224C58.2625 34.1342 58.6844 34.7301 59.0404 35.1273C59.5546 35.6966 60.1216 36.3189 60.3852 37.0604C60.5435 37.5238 60.6226 38.1859 60.2666 38.5963C59.8579 39.073 58.9218 39.2584 58.3812 39.4835C57.4715 39.8409 56.5617 40.3044 55.6124 40.5427C55.5333 40.5559 54.9005 40.5824 54.9268 40.5427C55.0059 40.4633 55.0323 40.9664 54.9532 40.9267C54.9268 40.9267 55.296 40.7281 55.296 40.7281C56.0343 40.4103 56.9177 40.3176 57.6956 40.1322C58.7635 39.8807 59.8183 39.6291 60.8863 39.3908C61.9542 39.1524 62.0465 37.9078 61.4664 37.1796C60.6621 36.1601 59.8579 35.1405 59.0536 34.121C58.5526 33.4855 57.3132 33.6708 56.9836 34.3858C56.5749 35.2994 56.153 36.213 55.7443 37.1134L58.1571 37.4312C57.5901 35.8026 57.0232 34.1607 56.4694 32.5321C56.0607 31.3537 54.2544 31.1948 53.9248 32.5321L52.3295 38.9406C51.9471 40.4765 53.8853 41.1253 54.7422 39.9601L55.2433 39.2716C55.6652 38.7023 55.3356 37.7887 54.7686 37.4576C54.0962 37.0604 53.3842 37.3517 52.9623 37.9343L52.4613 38.6228L54.8741 39.6423L56.4694 33.2339H53.9248C54.4917 34.8625 55.0587 36.5043 55.6124 38.1329C55.942 39.0995 57.511 39.5629 58.0252 38.4507C58.4339 37.5371 58.8558 36.6235 59.2646 35.7231L57.1946 35.9879C57.9988 37.0075 58.8031 38.027 59.6074 39.0465L60.1875 36.8353C58.9349 37.1266 57.6956 37.4179 56.4431 37.7092C55.441 37.9475 54.3467 38.1064 53.4897 38.7287C52.6327 39.351 52.1449 40.4235 52.5009 41.496C52.8832 42.6612 54.1489 43.3232 55.3092 43.2438C56.4694 43.1643 57.6956 42.5553 58.8163 42.1183C59.8579 41.7079 61.0181 41.3901 61.8883 40.6619C63.7078 39.1127 63.299 36.3984 62.0465 34.6506C60.8863 33.022 59.1591 30.8771 56.9177 31.2346C55.8102 31.4067 54.9268 32.2276 54.7027 33.3398C54.4917 34.3726 54.8082 35.3391 55.1246 36.3057C55.2828 36.7956 55.6388 37.5238 54.9664 37.6165C54.0962 37.7357 53.2524 37.5768 52.4086 37.9211C50.2331 38.7817 50.2331 41.4695 51.4725 43.1379C52.8569 44.9915 55.2169 45.8257 57.4583 45.8389C60.1743 45.8389 62.6926 44.6605 65.0921 43.5218C65.6063 43.2835 65.8569 42.5553 65.6986 42.0256C64.6966 38.742 63.1013 35.7099 60.9522 33.022C59.9765 31.7907 58.8163 30.5725 57.2605 30.1356C55.7047 29.6986 54.0039 30.1091 53.0546 31.4067C52.1053 32.7043 52.4613 34.1078 51.9867 35.4715C51.6175 36.5308 50.0617 36.928 49.2838 37.6562C48.1368 38.742 47.9126 40.3573 48.5323 41.7873C49.152 43.2173 50.5496 44.2103 52.1053 44.5281C53.9775 44.8989 55.9816 44.6076 57.8143 44.2236C59.8315 43.7866 61.7696 43.0452 63.5891 42.0786C65.0921 41.2842 63.7605 38.9935 62.2575 39.788L62.2443 39.8145Z" fill="#F4FFFF"/>
</g>
</g>
<path d="M64.7231 41.1385C64.8417 41.6416 64.644 42.2374 64.2484 42.5022C59.8975 45.4417 51.7363 45.7197 45.0517 42.9259C38.0111 39.9998 34.2403 35.9614 40.7535 30.9829C40.0679 23.5417 43.6277 23.1312 50.6683 26.0574C57.4056 28.8644 63.2068 34.6506 64.7231 41.1385Z" stroke="#38B55C" stroke-width="2.5" stroke-miterlimit="10"/>
</svg>
