<svg width="90" height="77" viewBox="0 0 90 77" fill="none" xmlns="http://www.w3.org/2000/svg">
<g clip-path="url(#clip0_1323_9082)">
<path d="M73.6882 1.39771H16.3118C8.07107 1.39771 1.39062 8.1123 1.39062 16.3952V60.6048C1.39062 68.8877 8.07107 75.6023 16.3118 75.6023H73.6882C81.929 75.6023 88.6094 68.8877 88.6094 60.6048V16.3952C88.6094 8.1123 81.929 1.39771 73.6882 1.39771Z" fill="#E4BB0B" stroke="#382710" stroke-width="2" stroke-miterlimit="10"/>
<path d="M74.4809 2.57178H15.6166C8.55856 2.57178 2.83691 8.32267 2.83691 15.4168V49.9822C2.83691 57.0763 8.55856 62.8272 15.6166 62.8272H74.4809C81.5389 62.8272 87.2606 57.0763 87.2606 49.9822V15.4168C87.2606 8.32267 81.5389 2.57178 74.4809 2.57178Z" fill="#FCCC00"/>
<path d="M74.467 2.57178H15.6166C8.56621 2.57178 2.83691 8.33035 2.83691 15.4307V16.8844C2.83691 9.78398 8.56621 4.0254 15.6166 4.0254H74.467C81.5313 4.0254 87.2467 9.78398 87.2467 16.8704V15.4168C87.2467 8.31638 81.5174 2.57178 74.467 2.57178Z" fill="#FFEC9D"/>
</g>
<defs>
<clipPath id="clip0_1323_9082">
<rect width="90" height="77" fill="white"/>
</clipPath>
</defs>
</svg>
