<svg width="71" height="51" viewBox="0 0 71 51" fill="none" xmlns="http://www.w3.org/2000/svg">
<path d="M29.1501 34.7869C29.1501 33.9584 28.4785 33.2869 27.6501 33.2869H22.3945C21.5661 33.2869 20.8945 33.9584 20.8945 34.7869V45.7811C20.8945 46.6096 21.5661 47.2811 22.3945 47.2811H27.6501C28.4785 47.2811 29.1501 46.6096 29.1501 45.7811V34.7869Z" fill="#6D4534" stroke="#3E360E" stroke-width="2"/>
<path d="M44.7891 29.7851C44.7891 27.1273 43.5823 24.7678 41.7358 23.142C42.188 22.0289 42.4433 20.8101 42.4433 19.533C42.4433 14.8152 39.0556 10.9094 34.5875 9.99555C34.1796 5.55 30.3891 2.08325 25.8043 2.08325C21.2195 2.08325 17.4291 5.55007 17.0212 9.99568C15.7601 10.2536 14.559 10.7537 13.4878 11.4711C12.1786 12.3478 11.1015 13.5235 10.3488 14.8997C9.596 16.2759 9.19014 17.8115 9.16636 19.3766C9.14673 20.6686 9.38802 21.9484 9.87269 23.1421C8.0263 24.7679 6.81958 27.1274 6.81958 29.7851C6.81958 34.7292 10.9091 38.7402 15.8893 38.7402H35.7194C40.6996 38.7402 44.7891 34.7292 44.7891 29.7851Z" fill="#44911B" stroke="#3E360E" stroke-width="2"/>
<path d="M50.4421 37.8022C50.4421 36.9738 49.7705 36.3022 48.9421 36.3022H45.0461C44.2177 36.3022 43.5461 36.9738 43.5461 37.8022V46.1897C43.5461 47.0181 44.2177 47.6897 45.0461 47.6897H48.9421C49.7705 47.6897 50.4421 47.0181 50.4421 46.1897V37.8022Z" fill="#6D4534" stroke="#3E360E" stroke-width="2"/>
<path d="M62.6821 33.7791C62.6821 31.6863 61.7563 29.8251 60.3327 28.5191C60.6616 27.6619 60.8461 26.7297 60.8461 25.7551C60.8461 22.0105 58.1969 18.9044 54.6804 18.1113C54.2764 14.5958 51.2503 11.8806 47.6062 11.8806C43.9621 11.8806 40.9359 14.5959 40.532 18.1114C39.5746 18.3271 38.6632 18.7173 37.8456 19.2648C36.7921 19.9703 35.9251 20.9166 35.3191 22.0245L36.1964 22.5044L35.3191 22.0245C34.713 23.1325 34.3862 24.3691 34.367 25.6294C34.352 26.6187 34.5269 27.599 34.8796 28.5192C33.4561 29.8252 32.5303 31.6863 32.5303 33.7791C32.5303 37.7716 35.8312 41.0052 39.8461 41.0052H55.3663C59.3812 41.0052 62.6821 37.7716 62.6821 33.7791Z" fill="#44911B" stroke="#3E360E" stroke-width="2"/>
</svg>
