<svg width="30" height="30" viewBox="0 0 30 30" fill="none" xmlns="http://www.w3.org/2000/svg">
<g clip-path="url(#clip0_34_464)">
<path fill-rule="evenodd" clip-rule="evenodd" d="M13.465 3.35999C13.9039 3.0186 14.444 2.83325 15 2.83325C15.556 2.83325 16.0961 3.0186 16.535 3.35999L27.015 11.51C27.9562 12.2437 27.4362 13.75 26.2462 13.75H25V23.75C25 24.413 24.7366 25.0489 24.2678 25.5178C23.7989 25.9866 23.163 26.25 22.5 26.25H7.5C6.83696 26.25 6.20107 25.9866 5.73223 25.5178C5.26339 25.0489 5 24.413 5 23.75V13.75H3.75375C2.5625 13.75 2.045 12.2425 2.985 11.5112L13.465 3.35999Z" fill="#B6B6B6"/>
</g>
<defs>
<clipPath id="clip0_34_464">
<rect width="30" height="30" fill="white"/>
</clipPath>
</defs>
</svg>
