<svg width="48" height="62" viewBox="0 0 48 62" fill="none" xmlns="http://www.w3.org/2000/svg">
<path fill-rule="evenodd" clip-rule="evenodd" d="M38.0766 15.3906C38.0766 15.3906 39.3932 0.333496 23.9956 0.333496C8.62498 0.333496 9.84259 15.3388 9.84683 15.391L9.84684 15.3912C7.59425 15.1506 5.89086 16.0762 5.89086 19.3862C5.89086 22.678 7.2785 23.3698 9.04391 23.5568C9.13913 23.5649 9.22817 23.6073 9.29454 23.6761C9.3609 23.745 9.40007 23.8356 9.40477 23.9312C9.9269 29.0737 13.4408 32.8541 16.9006 35.3762C17.3872 35.7355 17.8979 36.0557 18.428 36.3351V40.5053H15.642H13.9561C11.2229 40.5047 8.56232 41.3867 6.36918 43.0204C4.17605 44.6541 2.56723 46.9525 1.78142 49.5744L0.666687 53.2854C7.30308 58.5617 15.5269 61.4335 24 61.4335C32.4731 61.4335 40.6969 58.5617 47.3333 53.2854L46.2191 49.5744C45.4332 46.9524 43.8243 44.6541 41.631 43.0204C39.4378 41.3867 36.7772 40.5047 34.0439 40.5053H32.3585H29.5719V36.3356C30.1023 36.056 30.6133 35.7357 31.1001 35.3762C34.5593 32.8535 38.0732 29.0737 38.5959 23.9306C38.6006 23.8351 38.6397 23.7446 38.706 23.6757C38.7722 23.6069 38.8611 23.5644 38.9562 23.5562C40.7222 23.3693 42.1098 22.6775 42.1098 19.3856C42.1098 16.0756 40.3292 15.1472 38.0766 15.3906Z" fill="#959595"/>
</svg>
