<svg width="33" height="33" viewBox="0 0 33 33" fill="none" xmlns="http://www.w3.org/2000/svg">
<circle cx="16.5" cy="16.5" r="15.5" fill="black" fill-opacity="0.6" stroke="white"/>
<path d="M19.299 20.417L16.5 17.6181L13.701 20.417C13.5526 20.5655 13.3512 20.6489 13.1412 20.6489C12.9313 20.6489 12.7299 20.5655 12.5815 20.417C12.433 20.2686 12.3496 20.0672 12.3496 19.8572C12.3496 19.6473 12.433 19.4459 12.5815 19.2974L15.3804 16.4985L12.5815 13.6995C12.433 13.551 12.3496 13.3497 12.3496 13.1397C12.3496 12.9298 12.433 12.7284 12.5815 12.5799C12.7299 12.4315 12.9313 12.3481 13.1412 12.3481C13.3512 12.3481 13.5526 12.4315 13.701 12.5799L16.5 15.3789L19.299 12.5799C19.4474 12.4315 19.6488 12.3481 19.8588 12.3481C20.0687 12.3481 20.2701 12.4315 20.4185 12.5799C20.567 12.7284 20.6504 12.9298 20.6504 13.1397C20.6504 13.3497 20.567 13.551 20.4185 13.6995L17.6196 16.4985L20.4185 19.2974C20.567 19.4459 20.6504 19.6473 20.6504 19.8572C20.6504 20.0672 20.567 20.2686 20.4185 20.417C20.2701 20.5655 20.0687 20.6489 19.8588 20.6489C19.6488 20.6489 19.4474 20.5655 19.299 20.417Z" fill="white"/>
</svg>
