<svg width="50" height="50" viewBox="0 0 50 50" fill="none" xmlns="http://www.w3.org/2000/svg">
<rect x="3.33331" y="6.66667" width="44.7222" height="36.9444" fill="white"/>
<path d="M4.98106 9.82955V39.7159H44.8295V9.82955H4.98106ZM4.98106 4.84848H44.8295C46.1506 4.84848 47.4175 5.37327 48.3517 6.3074C49.2858 7.24153 49.8106 8.50849 49.8106 9.82955V39.7159C49.8106 41.037 49.2858 42.3039 48.3517 43.238C47.4175 44.1722 46.1506 44.697 44.8295 44.697H4.98106C3.66 44.697 2.39305 44.1722 1.45892 43.238C0.524789 42.3039 0 41.037 0 39.7159V9.82955C0 8.50849 0.524789 7.24153 1.45892 6.3074C2.39305 5.37327 3.66 4.84848 4.98106 4.84848ZM13.6979 22.2822C14.6887 22.2822 15.6389 21.8886 16.3395 21.188C17.0401 20.4874 17.4337 19.5372 17.4337 18.5464C17.4337 17.5556 17.0401 16.6054 16.3395 15.9048C15.6389 15.2042 14.6887 14.8106 13.6979 14.8106C12.7071 14.8106 11.7569 15.2042 11.0563 15.9048C10.3557 16.6054 9.96212 17.5556 9.96212 18.5464C9.96212 19.5372 10.3557 20.4874 11.0563 21.188C11.7569 21.8886 12.7071 22.2822 13.6979 22.2822ZM12.4527 29.7538L17.4337 24.7727L22.4148 29.7538L32.3769 19.7917L39.8485 27.2633V34.7348H12.4527V29.7538Z" fill="#3373EF"/>
</svg>
