<svg width="70" height="70" viewBox="0 0 70 70" fill="none" xmlns="http://www.w3.org/2000/svg">
<g filter="url(#filter0_d_443_2675)">
<rect x="10" y="10" width="50" height="50" rx="10" fill="#B5E9FF" fill-opacity="0.8" shape-rendering="crispEdges"/>
</g>
<rect x="20.3333" y="22.6666" width="31.3056" height="25.8611" fill="white"/>
<path d="M21.4867 24.8807V45.8011H49.3807V24.8807H21.4867ZM21.4867 21.3939H49.3807C50.3054 21.3939 51.1923 21.7613 51.8462 22.4152C52.5001 23.0691 52.8674 23.9559 52.8674 24.8807V45.8011C52.8674 46.7259 52.5001 47.6127 51.8462 48.2666C51.1923 48.9205 50.3054 49.2879 49.3807 49.2879H21.4867C20.562 49.2879 19.6751 48.9205 19.0212 48.2666C18.3674 47.6127 18 46.7259 18 45.8011V24.8807C18 23.9559 18.3674 23.0691 19.0212 22.4152C19.6751 21.7613 20.562 21.3939 21.4867 21.3939ZM27.5885 33.5975C28.2821 33.5975 28.9472 33.322 29.4377 32.8316C29.9281 32.3412 30.2036 31.676 30.2036 30.9825C30.2036 30.2889 29.9281 29.6238 29.4377 29.1333C28.9472 28.6429 28.2821 28.3674 27.5885 28.3674C26.895 28.3674 26.2298 28.6429 25.7394 29.1333C25.249 29.6238 24.9735 30.2889 24.9735 30.9825C24.9735 31.676 25.249 32.3412 25.7394 32.8316C26.2298 33.322 26.895 33.5975 27.5885 33.5975ZM26.7169 38.8276L30.2036 35.3409L33.6903 38.8276L40.6638 31.8541L45.8939 37.0843V42.3144H26.7169V38.8276Z" fill="#3373EF"/>
<path d="M49.125 49.5625V46.5H52.1875C52.6682 46.5 53.1292 46.309 53.4691 45.9691C53.809 45.6292 54 45.1682 54 44.6875C54 44.2068 53.809 43.7458 53.4691 43.4059C53.1292 43.066 52.6682 42.875 52.1875 42.875H49.125V39.8125C49.125 39.3318 48.934 38.8708 48.5941 38.5309C48.2542 38.191 47.7932 38 47.3125 38C46.8318 38 46.3708 38.191 46.0309 38.5309C45.691 38.8708 45.5 39.3318 45.5 39.8125V42.875H42.4375C41.9568 42.875 41.4958 43.066 41.1559 43.4059C40.816 43.7458 40.625 44.2068 40.625 44.6875C40.625 45.1682 40.816 45.6292 41.1559 45.9691C41.4958 46.309 41.9568 46.5 42.4375 46.5H45.5V49.5625C45.5 50.0432 45.691 50.5042 46.0309 50.8441C46.3708 51.184 46.8318 51.375 47.3125 51.375C47.7932 51.375 48.2542 51.184 48.5941 50.8441C48.934 50.5042 49.125 50.0432 49.125 49.5625Z" fill="#33B7EF" stroke="white" stroke-width="2"/>
<defs>
<filter id="filter0_d_443_2675" x="0" y="0" width="70" height="70" filterUnits="userSpaceOnUse" color-interpolation-filters="sRGB">
<feFlood flood-opacity="0" result="BackgroundImageFix"/>
<feColorMatrix in="SourceAlpha" type="matrix" values="0 0 0 0 0 0 0 0 0 0 0 0 0 0 0 0 0 0 127 0" result="hardAlpha"/>
<feOffset/>
<feGaussianBlur stdDeviation="5"/>
<feComposite in2="hardAlpha" operator="out"/>
<feColorMatrix type="matrix" values="0 0 0 0 0 0 0 0 0 0 0 0 0 0 0 0 0 0 0.2 0"/>
<feBlend mode="normal" in2="BackgroundImageFix" result="effect1_dropShadow_443_2675"/>
<feBlend mode="normal" in="SourceGraphic" in2="effect1_dropShadow_443_2675" result="shape"/>
</filter>
</defs>
</svg>
