<svg width="45" height="45" viewBox="0 0 45 45" fill="none" xmlns="http://www.w3.org/2000/svg">
<path d="M29.1291 31.777L22.5 25.1478L15.8709 31.777C15.5192 32.1286 15.0423 32.3261 14.545 32.3261C14.0478 32.3261 13.5709 32.1286 13.2192 31.777C12.8676 31.4253 12.67 30.9484 12.67 30.4511C12.67 29.9539 12.8676 29.4769 13.2192 29.1253L19.8483 22.4962L13.2192 15.8671C12.8676 15.5154 12.67 15.0385 12.67 14.5412C12.67 14.044 12.8676 13.567 13.2192 13.2154C13.5709 12.8638 14.0478 12.6662 14.545 12.6662C15.0423 12.6662 15.5192 12.8638 15.8709 13.2154L22.5 19.8445L29.1291 13.2154C29.4808 12.8638 29.9577 12.6662 30.455 12.6662C30.9522 12.6662 31.4291 12.8638 31.7808 13.2154C32.1324 13.567 32.33 14.044 32.33 14.5412C32.33 15.0385 32.1324 15.5154 31.7808 15.8671L25.1516 22.4962L31.7808 29.1253C32.1324 29.4769 32.33 29.9539 32.33 30.4511C32.33 30.9484 32.1324 31.4253 31.7808 31.777C31.4291 32.1286 30.9522 32.3261 30.455 32.3261C29.9577 32.3261 29.4808 32.1286 29.1291 31.777Z" fill="white"/>
</svg>
