<svg width="20" height="20" viewBox="0 0 20 20" fill="none" xmlns="http://www.w3.org/2000/svg">
<circle cx="10" cy="10" r="10" fill="white"/>
<path d="M10 5C9.20435 5 8.44129 5.30538 7.87868 5.84897C7.31607 6.39255 7 7.12981 7 7.89855C7 8.0523 7.06321 8.19975 7.17574 8.30847C7.28826 8.41718 7.44087 8.47826 7.6 8.47826C7.75913 8.47826 7.91174 8.41718 8.02426 8.30847C8.13679 8.19975 8.2 8.0523 8.2 7.89855C8.2 6.93739 9.0052 6.15942 10 6.15942C10.9948 6.15942 11.8 6.93739 11.8 7.89855C11.8 8.37159 11.6806 8.6487 11.5372 8.8429C11.38 9.05449 11.1622 9.21275 10.8604 9.41391L10.7908 9.45913C10.5226 9.63652 10.177 9.86435 9.9094 10.182C9.5932 10.5577 9.4 11.0325 9.4 11.6667V11.9565C9.4 12.1103 9.46321 12.2577 9.57574 12.3664C9.68826 12.4752 9.84087 12.5362 10 12.5362C10.1591 12.5362 10.3117 12.4752 10.4243 12.3664C10.5368 12.2577 10.6 12.1103 10.6 11.9565V11.6667C10.6 11.2864 10.7068 11.073 10.84 10.9136C10.9942 10.7316 11.2018 10.5936 11.5084 10.3901L11.5402 10.3687C11.8378 10.1716 12.22 9.91304 12.5122 9.51768C12.82 9.10493 13 8.58435 13 7.89855C13 7.12981 12.6839 6.39255 12.1213 5.84897C11.5587 5.30538 10.7956 5 10 5ZM10 15C10.1989 15 10.3897 14.9237 10.5303 14.7878C10.671 14.6519 10.75 14.4675 10.75 14.2754C10.75 14.0832 10.671 13.8989 10.5303 13.763C10.3897 13.6271 10.1989 13.5507 10 13.5507C9.80109 13.5507 9.61032 13.6271 9.46967 13.763C9.32902 13.8989 9.25 14.0832 9.25 14.2754C9.25 14.4675 9.32902 14.6519 9.46967 14.7878C9.61032 14.9237 9.80109 15 10 15Z" fill="#9C331C"/>
</svg>
