<svg width="69" height="61" viewBox="0 0 69 61" fill="none" xmlns="http://www.w3.org/2000/svg">
<g clip-path="url(#clip0_259_1727)">
<path d="M63.0956 9.25595C60.5373 6.76747 56.6257 6.25324 53.3629 7.72246C46.7447 10.6976 43.7971 18.8059 43.7971 18.8059L44.9928 21.074C48.2371 16.4276 52.4916 13.8748 56.2457 14.9216C61.8999 16.501 64.2635 25.5918 61.5198 35.2427C60.5373 38.7229 59.0172 41.7807 57.2189 44.2141L58.3312 46.3169C71.7438 41.7991 71.5399 17.4652 63.0956 9.24677V9.25595Z" fill="#647353"/>
<path d="M63.7072 48.8698L44.6312 6.67572C41.8782 0.578472 33.1281 0.578472 30.3752 6.67572L17.9359 34.196L8.02709 29.2925L3.01245 42.3868L13.7555 43.452L11.2991 48.8789C9.67701 54.5171 11.8645 58.4656 18.4271 59.7787C28.1969 61.4224 47.0134 61.4224 56.5699 59.7787C62.3447 58.4656 65.3293 53.6355 63.698 48.8789L63.7072 48.8698Z" fill="#768765"/>
<path d="M63.5127 48.4658C59.3879 50.036 46.7632 52.3776 37.0213 52.4052C24.341 52.4419 15.6187 49.9718 11.2158 49.2555C9.80691 54.6824 12.0315 58.484 18.4458 59.7696C28.2156 61.4133 47.0321 61.4133 56.5886 59.7696C62.1872 58.4932 65.7281 53.6815 63.522 48.4658H63.5127Z" fill="#E1B735"/>
<path d="M37.9018 12.3597C41.0626 12.3597 43.9639 11.5609 46.2348 10.2386L44.622 6.67572C41.869 0.578472 33.1189 0.578472 30.3659 6.67572L28.9385 9.84371C31.2929 11.4048 34.4351 12.3689 37.9018 12.3689V12.3597Z" fill="#E4E1D9"/>
<path d="M45.8641 9.40295L44.6313 6.67572C41.8784 0.578472 33.1282 0.578472 30.3753 6.67572L29.3093 9.02646C31.4134 10.4314 34.4723 11.3221 37.8833 11.3221C40.9885 11.3221 43.7971 10.5875 45.8641 9.40295Z" fill="#E1B735"/>
<path d="M37.6051 3.04862C38.4549 3.04862 39.1438 2.36617 39.1438 1.52431C39.1438 0.682457 38.4549 0 37.6051 0C36.7553 0 36.0664 0.682457 36.0664 1.52431C36.0664 2.36617 36.7553 3.04862 37.6051 3.04862Z" fill="#E1B735"/>
<path d="M13.7555 43.4428L3.01245 42.3776L8.02709 29.2832L17.8895 34.1683C17.8895 34.1683 13.635 43.4428 13.7462 43.4428H13.7555Z" fill="#647353"/>
<path d="M9.12647 37.3408C11.0976 33.2997 10.9654 29.1955 8.83132 28.1739C6.69719 27.1524 3.36924 29.6002 1.39812 33.6413C-0.572993 37.6825 -0.440848 41.7867 1.69328 42.8082C3.8274 43.8298 7.15535 41.382 9.12647 37.3408Z" fill="#E1B735"/>
<path d="M2.90136 43.0296C4.94059 42.9194 7.48962 40.6696 9.11173 37.3363C10.8451 33.7735 10.947 30.1739 9.49177 28.668C10.2797 31.9737 6.87785 41.3583 2.89209 43.0296H2.90136Z" fill="#C79E2A"/>
<path d="M3.42236 34.8798C3.69741 34.2906 3.59269 33.6628 3.18846 33.4776C2.78422 33.2924 2.23355 33.6199 1.95849 34.2091C1.68343 34.7983 1.78815 35.426 2.19238 35.6112C2.59662 35.7964 3.1473 35.4689 3.42236 34.8798Z" fill="#8A6C27"/>
<path d="M6.50194 32.2033C6.777 31.6141 6.67228 30.9863 6.26805 30.8011C5.86381 30.6159 5.31314 30.9434 5.03808 31.5326C4.76302 32.1217 4.86774 32.7495 5.27197 32.9347C5.67621 33.1199 6.22689 32.7924 6.50194 32.2033Z" fill="#8A6C27"/>
<path d="M3.47265 38.7653C3.74771 38.1761 3.64299 37.5483 3.23875 37.3631C2.83452 37.1779 2.28384 37.5054 2.00878 38.0946C1.73372 38.6838 1.83844 39.3115 2.24267 39.4967C2.64691 39.6819 3.19759 39.3544 3.47265 38.7653Z" fill="#8A6C27"/>
<path d="M6.47338 36.0104C6.74844 35.4212 6.64372 34.7934 6.23948 34.6082C5.83525 34.423 5.28457 34.7505 5.00951 35.3397C4.73445 35.9289 4.83917 36.5566 5.24341 36.7418C5.64764 36.927 6.19832 36.5996 6.47338 36.0104Z" fill="#8A6C27"/>
</g>
<defs>
<clipPath id="clip0_259_1727">
<rect width="69" height="61" fill="white"/>
</clipPath>
</defs>
</svg>
