<svg width="7" height="8" viewBox="0 0 7 8" fill="none" xmlns="http://www.w3.org/2000/svg">
<path d="M6.32 5.42L5.85 6.24L4.16 5.25C4.04 5.17667 3.93 5.10333 3.83 5.03C3.73 4.95 3.64333 4.85667 3.57 4.75C3.67 4.98333 3.72 5.23333 3.72 5.5V7.44H2.77V5.51C2.77 5.37667 2.77667 5.25333 2.79 5.14C2.81 5.02 2.84667 4.90333 2.9 4.79C2.82667 4.88333 2.74333 4.96667 2.65 5.04C2.55667 5.11333 2.45333 5.18333 2.34 5.25L0.66 6.23L0.19 5.41L1.87 4.43C1.99 4.36333 2.10667 4.31 2.22 4.27C2.33333 4.22333 2.45333 4.19333 2.58 4.18C2.32667 4.14667 2.09 4.06 1.87 3.92L0.18 2.93L0.65 2.11L2.34 3.1C2.46 3.17333 2.56667 3.25 2.66 3.33C2.76 3.41 2.84667 3.50333 2.92 3.61C2.86667 3.49667 2.82667 3.37667 2.8 3.25C2.78 3.12333 2.77 2.99333 2.77 2.86V0.909999H3.72V2.84C3.72 2.97333 3.71 3.10333 3.69 3.23C3.67667 3.35 3.64667 3.46667 3.6 3.58C3.67333 3.48 3.75667 3.39333 3.85 3.32C3.94333 3.24667 4.04667 3.17333 4.16 3.1L5.84 2.13L6.31 2.95L4.63 3.92C4.51667 3.98667 4.40333 4.04333 4.29 4.09C4.18333 4.13667 4.07 4.16667 3.95 4.18C4.17667 4.20667 4.40333 4.29 4.63 4.43L6.32 5.42Z" fill="#EB6100"/>
</svg>
