<svg width="92" height="88" viewBox="0 0 92 88" fill="none" xmlns="http://www.w3.org/2000/svg">
<g clip-path="url(#clip0_847_6226)">
<path d="M42.9775 10.6909C45.1317 10.3666 46.5456 7.84191 46.1354 5.05183C45.7251 2.26176 43.6462 0.262843 41.492 0.587135C39.3377 0.911426 37.9239 3.43612 38.3341 6.22619C38.7443 9.01627 40.8232 11.0152 42.9775 10.6909Z" fill="#D1CFC3"/>
<path d="M87.9419 48.7564C85.7979 13.7654 63.419 9.02285 52.248 8.50514C52.7265 8.0614 53.1682 7.52521 53.527 6.90582C54.9625 4.40976 54.5945 1.50693 52.7173 0.41606C50.8401 -0.67481 48.1532 0.462284 46.7177 2.95834C45.5951 4.91821 45.5859 7.11844 46.5428 8.50514C28.4336 8.37572 19.8851 13.4973 14.6401 18.8314C10.2232 23.3151 7.18657 29.0098 5.8339 35.1668C4.38921 41.7212 5.51184 44.735 5.51184 44.735L33.7523 54.3217C33.7523 54.3217 90.6105 92.2803 87.9419 48.7657V48.7564Z" fill="#BFBCAF"/>
<path d="M46 11.26C16.3517 11.9534 11.0146 30.5814 7.63753 40.7597C7.63753 40.7597 0.579716 48.137 0.0092021 61.7544C-0.726945 80.9463 24.0352 86.6965 42.0432 87.8798C44.6749 88.0555 47.3159 88.0555 49.9476 87.8798C67.9556 86.6965 92.7085 80.9463 91.9724 61.7544C91.4111 48.137 84.3441 40.7597 84.3441 40.7597C80.967 30.5814 75.6299 11.9626 45.9816 11.26H46Z" fill="#FFD12C"/>
</g>
<defs>
<clipPath id="clip0_847_6226">
<rect width="92" height="88" fill="white"/>
</clipPath>
</defs>
</svg>
