<svg width="212" height="62" viewBox="0 0 212 62" fill="none" xmlns="http://www.w3.org/2000/svg">
<path fill-rule="evenodd" clip-rule="evenodd" d="M211 25C211 16.7157 204.284 10 196 10H16C7.71573 10 1 16.7157 1 25V44.9997C1 53.284 7.71573 59.9997 16 59.9997H196C204.284 59.9997 211 53.284 211 44.9997V25Z" fill="#E4BB0B"/>
<path fill-rule="evenodd" clip-rule="evenodd" d="M16 1H196C204.284 1 211 7.71573 211 16V19C211 10.7157 204.284 4 196 4H16C7.71573 4 1 10.7157 1 19V16C1 7.71573 7.71573 1 16 1Z" fill="#FFEC9D"/>
<path fill-rule="evenodd" clip-rule="evenodd" d="M211 19C211 10.7157 204.284 4 196 4H16C7.71573 4 1 10.7157 1 19V38.9997C1 47.284 7.71573 53.9997 16 53.9997H196C204.284 53.9997 211 47.284 211 38.9997V19Z" fill="#FCCC00"/>
<path d="M196 1H16C7.71573 1 1 7.71573 1 16V46C1 54.2843 7.71573 61 16 61H196C204.284 61 211 54.2843 211 46V16C211 7.71573 204.284 1 196 1Z" stroke="#382710" stroke-width="2"/>
</svg>
