<svg width="327" height="63" viewBox="0 0 327 63" fill="none" xmlns="http://www.w3.org/2000/svg">
<g filter="url(#filter0_d_1172_9177)">
<rect x="7" y="34" width="307" height="14" rx="7" fill="white"/>
<rect x="5.5" y="32.5" width="310" height="17" rx="8.5" stroke="white" stroke-width="3"/>
</g>
<rect x="110" y="35" width="98" height="12" fill="#FCCC00"/>
<path d="M315.854 29.9251C315.444 30.141 314.478 30.5768 313.178 30.5305C311.901 30.4842 310.986 29.9945 310.589 29.7516C309.817 30.2914 308.585 31.0125 306.93 31.4829C305.113 31.9996 303.546 31.9919 302.556 31.9147C301.987 32.8093 300.91 33.2566 299.88 33.0407C298.77 32.8054 297.951 31.8376 297.915 30.704C297.168 31.4212 296.563 31.4096 296.4 31.3981C295.291 31.3171 294.166 29.8056 294.17 27.5923C293.549 29.555 293.032 30.0177 292.654 30.0138C291.454 30.0061 290.165 24.8624 290.336 20.5824C290.38 19.441 291.032 7.91972 300.866 3.19243C301.956 2.66804 308.513 -0.3164 314.891 2.37114C324.539 6.43907 325.302 19.3678 325.401 21.0991C325.469 22.225 325.441 23.1774 325.401 23.8676C325.401 23.8676 325.397 28.1167 324.312 27.8237C323.226 27.5306 323.346 24.9009 323.346 24.9009C323.405 27.708 321.596 29.285 320.451 26.7132" fill="#32B13E"/>
<mask id="mask0_1172_9177" style="mask-type:luminance" maskUnits="userSpaceOnUse" x="290" y="1" width="36" height="33">
<path d="M315.854 29.9251C315.444 30.141 314.478 30.5768 313.178 30.5305C311.901 30.4842 310.986 29.9945 310.589 29.7516C309.817 30.2914 308.585 31.0125 306.93 31.4829C305.113 31.9996 303.546 31.9919 302.556 31.9147C301.987 32.8093 300.91 33.2566 299.88 33.0407C298.77 32.8054 297.951 31.8376 297.915 30.704C297.168 31.4212 296.563 31.4096 296.4 31.3981C295.291 31.3171 294.166 29.8056 294.17 27.5923C293.549 29.555 293.032 30.0177 292.654 30.0138C291.454 30.0061 290.165 24.8624 290.336 20.5824C290.38 19.441 291.032 7.91972 300.866 3.19243C301.956 2.66804 308.513 -0.3164 314.891 2.37113C324.539 6.43907 325.302 19.3678 325.401 21.0991C325.469 22.225 325.441 23.1774 325.401 23.8676C325.401 23.8676 325.397 28.1167 324.312 27.8237C323.226 27.5306 323.346 24.9009 323.346 24.9009C323.405 27.708 321.596 29.285 320.451 26.7132" fill="white"/>
</mask>
<g mask="url(#mask0_1172_9177)">
<path opacity="0.05" d="M325.918 17.0271C325.385 17.1428 324.662 17.2353 323.819 17.1505C321.962 16.9693 320.677 16.0554 320.128 15.6082C319.862 16.3331 319.25 16.869 318.538 16.9654C317.556 17.1004 316.506 16.3832 316.247 15.238C316.128 16.5374 315.253 17.6209 314.084 17.9525C312.609 18.369 310.879 17.5284 310.267 15.9166C310.231 15.9938 309.65 17.1621 308.294 17.3356C306.994 17.5053 306.139 16.6107 306.067 16.5336C305.729 17.5631 304.831 18.3111 303.777 18.4461C302.528 18.6042 301.272 17.8754 300.786 16.657C300.588 17.806 299.784 18.7584 298.687 19.1247C297.402 19.5566 295.927 19.1131 295.06 18.0142C294.233 19.2173 292.877 19.8496 291.624 19.6183C290.726 19.4525 290.145 18.8972 289.907 18.6312C290.046 17.2739 290.189 15.9166 290.328 14.5594C296.166 12.4618 306.409 9.78967 318.419 12.0916C321.632 12.7086 324.503 13.5877 327.012 14.5594C326.65 15.3807 326.292 16.2058 325.93 17.0271H325.918Z" fill="#043211"/>
<path d="M314.35 31.788C309.232 33.3234 298.448 35.5291 295.504 31.9829C295.215 31.636 294.832 31.0281 294.758 30.0383C295.392 30.7943 296.428 31.0398 296.993 30.7787C297.655 30.4748 297.972 29.3447 297.109 28.4133C306.693 23.4252 315.671 22.2094 319.376 25.2997C320.057 25.8686 320.729 26.722 321.097 28.0587C320.813 28.2379 321.489 28.7212 321.139 29.1459C320.859 29.4888 319.623 29.6213 319.516 29.8707C318.484 30.3345 316.688 31.0866 314.35 31.788Z" fill="#387B5E"/>
<path opacity="0.16" d="M316.331 29.0148C316.08 28.7719 315.83 28.5251 315.583 28.2822C315.5 28.3554 314.366 29.277 312.999 28.8798C312.199 28.6485 311.754 28.0932 311.603 27.885C311.312 28.8837 310.346 29.5507 309.312 29.4891C308.35 29.4312 307.515 28.7564 307.276 27.8233C306.938 28.6755 306.151 29.2731 305.24 29.3657C304.023 29.4929 303.22 28.6485 303.141 28.5636C302.914 29.8052 301.952 30.7538 300.783 30.9311C299.478 31.1278 298.516 30.2718 298.397 30.16C299.021 28.7217 299.649 27.2874 300.274 25.8491H318.438C317.735 26.9056 317.031 27.9583 316.331 29.0148Z" fill="#183B4B"/>
<path d="M325.62 13.8149C325.58 14.027 325.266 15.6002 324.105 16.0629C322.781 16.5912 320.614 15.5848 319.731 13.2096C319.715 14.5167 319.393 15.7043 318.749 15.8932C317.973 16.1207 316.617 14.9216 315.715 12.6929C316.259 14.6478 314.923 16.4562 313.396 16.6721C311.833 16.8919 309.984 15.4614 310.004 13.3831C310.394 14.5745 309.698 15.8238 308.577 16.1516C307.384 16.5025 306.008 15.7236 305.757 14.4087C305.757 15.7853 305.061 16.9729 304.115 17.2775C302.831 17.6939 300.81 16.5757 300.421 14.3278C300.806 16.0783 299.522 17.7248 297.868 17.8829C296.329 18.0294 294.818 16.8534 294.655 15.1992C294.814 16.6991 293.688 18.0564 292.157 18.226C290.611 18.3996 289.183 17.2929 289.012 15.7776C289.97 10.9423 290.933 6.10322 291.891 1.26025H325.62V13.8149Z" fill="#14BC43"/>
<path opacity="0.12" d="M324.053 13.5992C323.775 12.855 320.514 4.5803 312.171 2.58297C304.369 0.716729 295.418 5.1394 291.537 13.5992V3.05338C295.231 1.62286 301.773 -0.3552 310.04 0.0535215C316.013 0.350423 320.824 1.79251 324.053 3.04953V13.5992Z" fill="#F4FFFF"/>
<path opacity="0.12" d="M297.279 29.9247C297.224 30.3257 296.965 30.6689 296.659 30.8231C296.106 31.1007 295.243 30.8463 294.754 30.0905C292.643 31.1971 291.525 30.8501 291.108 30.6612C288.917 29.6818 288.201 25.1242 290.09 19.3057C290.996 26.092 291.907 29.4851 292.825 29.489C293.311 29.489 293.8 28.5443 294.289 26.6511C294.901 29.3309 295.494 30.6689 296.07 30.6612C296.424 30.6573 296.77 30.1445 297.112 29.1227C297.172 29.2229 297.335 29.5237 297.279 29.9208V29.9247Z" fill="#F4FFFF"/>
</g>
<path d="M313.273 35.4165C313.438 34.1665 314.347 33.8543 314.951 32.7785C315.886 31.1051 316.748 28.5679 316.376 24.8201C315.627 24.2725 314.882 23.725 314.133 23.1775C314.297 24.4075 314.383 26.32 313.725 28.541C313.443 29.5011 312.386 33.0793 310.77 33.1256C309.617 33.1603 308.672 31.3827 307.206 28.541C305.944 26.104 305.154 23.991 304.66 22.4834L302.93 24.6465C306.094 30.947 306.403 32.5858 305.985 32.7785C305.513 32.9983 303.933 31.4406 303.234 30.6154C302.363 29.5897 301.931 28.5988 301.704 27.9317C300.719 28.2479 299.734 28.5679 298.749 28.8841C300.579 29.7671 303.443 31.5215 304.759 34.5098C305.359 35.8671 305.395 37.2591 305.472 40.0468C305.581 43.9721 304.832 45.4335 304.555 45.9309C304.088 46.7638 303.529 47.3498 302.417 48.5259C299.852 51.2288 298.114 52.135 298.341 52.5051C298.513 52.7866 299.793 52.7249 304.964 51.036C304.71 53.4074 304.877 54.676 305.472 54.8418C306.198 55.0423 307.556 53.6002 309.549 50.5155C310.956 52.7211 312.44 54.0475 313.216 53.8046C314.165 53.5077 313.866 50.9281 313.829 50.6042C317.806 50.9397 318.836 50.7314 318.923 50.4307C319.059 49.968 316.866 49.6017 315.255 47.747C313.906 46.1931 313.369 44.4786 313.273 43.611C313.092 41.9067 313.109 41.111 313.109 39.861L313.273 36.9443L313.273 36.3888L313.273 35.6943L313.273 35.4165Z" fill="#86644E"/>
<mask id="mask1_1172_9177" style="mask-type:luminance" maskUnits="userSpaceOnUse" x="298" y="22" width="21" height="33">
<path d="M313.19 35.1388C312.572 34.6375 314.347 33.8543 314.951 32.7785C315.886 31.1051 316.748 28.5679 316.376 24.8201C315.627 24.2725 314.882 23.725 314.133 23.1775C314.297 24.4075 314.383 26.32 313.725 28.541C313.443 29.5011 312.386 33.0793 310.77 33.1256C309.617 33.1603 308.672 31.3827 307.206 28.541C305.944 26.104 305.154 23.991 304.66 22.4834L302.93 24.6465C306.094 30.947 306.403 32.5858 305.985 32.7785C305.513 32.9983 303.933 31.4406 303.234 30.6154C302.363 29.5897 301.931 28.5988 301.704 27.9317C300.719 28.2479 299.734 28.5679 298.749 28.8841C300.579 29.7671 303.443 31.5215 304.759 34.5098C305.359 35.8671 305.395 37.2591 305.472 40.0468C305.581 43.9721 304.832 45.4335 304.555 45.9309C304.088 46.7638 303.529 47.3498 302.417 48.5259C299.852 51.2288 298.114 52.135 298.341 52.5051C298.513 52.7866 299.793 52.7249 304.964 51.036C304.71 53.4074 304.877 54.676 305.472 54.8418C306.198 55.0423 307.556 53.6002 309.549 50.5155C310.956 52.7211 312.44 54.0475 313.216 53.8046C314.165 53.5077 313.866 50.9281 313.829 50.6042C317.806 50.9397 318.836 50.7314 318.923 50.4307C319.059 49.968 316.866 49.6017 315.255 47.747C313.906 46.1931 313.533 44.3397 313.438 43.4721C313.256 41.7678 313.109 41.111 313.109 40.1388L313.19 39.1665L313.19 36.6665L313.19 35.9721L313.19 35.1388Z" fill="white"/>
</mask>
<g mask="url(#mask1_1172_9177)">
<path opacity="0.17" d="M319.054 49.6211C317.851 50.0028 316.598 50.1917 315.314 50.1378C314.369 50.0953 313.584 50.0838 313.43 51.0362C313.343 51.5606 313.339 52.0927 313.253 52.6171C313.198 52.9487 313.216 53.1762 312.672 53.1338C312.422 53.1145 312.141 52.9603 311.932 52.8523C311.019 52.3819 310.384 51.5991 309.794 50.8704C309.667 50.7123 309.403 50.6197 309.194 50.7354C308.386 51.1904 307.91 51.8613 307.442 52.5631C306.938 53.3227 306.276 54.2712 305.113 54.252C304.546 54.2443 304.546 54.9884 305.113 54.9962C306.176 55.0116 307.006 54.4486 307.61 53.7468C308.209 53.0528 308.559 52.1698 309.317 51.5876C309.871 52.2508 310.47 52.8908 311.255 53.3651C311.973 53.7931 313.303 54.2944 313.879 53.4422C314.129 53.0759 314.129 52.6094 314.174 52.2007C314.206 51.8922 314.233 51.5799 314.274 51.2714C314.329 50.8472 314.642 50.8357 315.078 50.8627C315.913 50.9128 316.744 50.8704 317.561 50.7393C317.615 50.8357 317.706 50.9166 317.833 50.9321C318.26 50.9861 318.673 50.9745 319.09 50.8742C319.413 50.7933 319.463 50.5041 319.331 50.3151C319.794 50.1223 319.567 49.4514 319.054 49.6134V49.6211Z" fill="#433743"/>
<path opacity="0.17" d="M304.197 50.7047C302.063 51.3409 299.87 51.8113 297.637 52.1159C297.206 52.1738 297.233 52.756 297.637 52.837C298.291 52.9604 298.94 52.9989 299.607 52.9372C299.902 52.9102 300.038 52.6866 300.025 52.49C301.518 52.2123 302.985 51.8576 304.433 51.4296C304.964 51.2715 304.732 50.5505 304.201 50.7085L304.197 50.7047Z" fill="#433743"/>
<path opacity="0.17" d="M313.126 35.744C312.613 35.555 312.164 36.1951 312.681 36.3879L313.126 35.744Z" fill="#433743"/>
<path opacity="0.17" d="M316.285 28.0089C315.813 28.14 315.341 28.1862 314.878 28.1477C314.71 28.0937 314.546 28.0127 314.401 27.9048C314.211 27.7621 313.974 27.7929 313.816 27.9009C313.693 27.8508 313.566 27.7968 313.448 27.7351C312.962 27.4845 312.522 28.1284 313.003 28.379C313.543 28.6605 314.133 28.8302 314.737 28.888C315.35 29.0422 316.017 28.9844 316.621 28.6952C317.048 28.4909 316.762 27.8816 316.28 28.0127L316.285 28.0089Z" fill="#433743"/>
<path opacity="0.17" d="M311.351 31.8843C311.083 32.2352 310.661 32.482 310.162 32.5205C309.417 32.5784 309.299 32.1311 309.104 31.6298C308.754 30.716 308.45 29.7867 308.182 28.8536C308.051 28.3871 307.202 28.5837 307.334 29.0503C307.551 29.8176 307.792 30.581 308.069 31.3368C308.264 31.8689 308.409 32.6169 308.95 32.9871C309.966 33.685 311.483 33.0758 312.1 32.2661C312.409 31.8612 311.646 31.4872 311.342 31.8882L311.351 31.8843Z" fill="#433743"/>
<path opacity="0.17" d="M307.27 27.8548C307.115 27.8817 306.961 27.9049 306.807 27.928C307.016 27.8046 307.224 27.6735 307.424 27.5347C307.86 27.2262 307.234 26.7019 306.802 27.0065C306.176 27.4499 305.472 27.7776 304.705 27.9936C304.614 27.9897 304.533 28.0128 304.464 28.0553C304.428 28.063 304.396 28.0745 304.36 28.0822C303.879 28.1941 303.983 28.8072 304.478 28.8149C304.56 28.8149 304.637 28.8149 304.719 28.8149C305.695 29.2429 306.875 29.1002 307.706 28.4717C308.055 28.2095 307.678 27.7776 307.279 27.847L307.27 27.8548Z" fill="#433743"/>
<path opacity="0.17" d="M302.753 28.6643C302.658 28.3674 302.049 28.298 301.895 28.672C301.618 29.3506 301.073 29.9136 300.351 30.2876C299.87 30.5382 300.302 31.1744 300.796 30.9315C301.695 30.4881 302.689 29.9174 302.857 28.9766C302.88 28.8494 302.835 28.7453 302.753 28.6643Z" fill="#433743"/>
<path opacity="0.17" d="M305.418 50.5312C305.617 50.3384 306.23 49.8024 307.252 49.6096C308.178 49.4322 308.927 49.6327 309.222 49.7253C308.509 49.0582 307.419 48.8577 306.575 49.2047C305.663 49.5788 305.445 50.427 305.422 50.5312H305.418Z" fill="#433743"/>
</g>
<path d="M296.758 28.4831C297.434 30.1836 299.458 30.8699 300.89 30.1373C302.147 29.4934 302.755 27.8585 302.111 26.4087C302.616 27.7929 304.055 28.5525 305.324 28.2556C306.298 28.0243 307.07 27.1914 307.284 26.1465C307.328 27.7621 308.37 28.9111 309.253 28.9458C310.239 28.9844 311.563 27.658 311.396 25.7146C311.181 26.9408 312.072 28.0976 313.301 28.2518C314.478 28.4022 315.611 27.5847 315.798 26.4048C315.782 26.6169 315.762 27.1914 316.136 27.7467C316.212 27.8585 317.48 28.7955 317.862 28.7608C320.63 28.8225 321.238 25.7262 320.228 23.7751C318.498 20.4282 307.447 19.1712 301.642 22.9461C298.906 24.7237 297.458 27.1105 296.762 28.4831H296.758Z" fill="#32B13E"/>
<mask id="mask2_1172_9177" style="mask-type:luminance" maskUnits="userSpaceOnUse" x="296" y="20" width="25" height="11">
<path d="M296.758 28.4831C297.434 30.1836 299.458 30.8699 300.89 30.1373C302.147 29.4934 302.755 27.8585 302.111 26.4087C302.616 27.7929 304.055 28.5525 305.324 28.2556C306.298 28.0243 307.07 27.1914 307.284 26.1465C307.328 27.7621 308.37 28.9111 309.253 28.9458C310.239 28.9844 311.563 27.658 311.396 25.7146C311.181 26.9408 312.072 28.0976 313.301 28.2518C314.478 28.4022 315.611 27.5847 315.798 26.4048C315.782 26.6169 315.762 27.1914 316.136 27.7467C316.212 27.8585 317.48 28.7955 317.862 28.7608C320.63 28.8225 321.238 25.7262 320.228 23.7751C318.498 20.4282 307.447 19.1712 301.642 22.9461C298.906 24.7237 297.458 27.1105 296.762 28.4831H296.758Z" fill="white"/>
</mask>
<g mask="url(#mask2_1172_9177)">
<path opacity="0.12" d="M318.438 31.406C310.438 35.2658 302.675 35.6128 298.933 31.9613C298.265 31.3096 297.601 30.4074 297.112 29.1272C298.051 30.0334 299.498 30.23 300.651 29.6131C301.82 28.9884 302.421 27.6697 302.111 26.405C302.807 27.3188 303.948 27.7931 305.065 27.635C306.493 27.4307 307.193 26.2932 307.28 26.1428C307.336 27.3034 308.398 28.1864 309.559 28.0707C310.732 27.955 311.591 26.8677 311.388 25.7109C311.539 26.8831 312.521 27.7507 313.623 27.7777C314.526 27.8008 315.388 27.2571 315.79 26.4011C316.208 27.0913 316.621 27.7815 317.039 28.4717C317.504 29.4473 317.969 30.4228 318.434 31.3983L318.438 31.406Z" fill="#F4FFFF"/>
</g>
<path d="M9 41C9 37.6863 11.6863 35 15 35H110V47H15C11.6863 47 9 44.3137 9 41Z" fill="#00C831"/>
<circle cx="208" cy="41" r="7" fill="white" stroke="#7D432A" stroke-width="2"/>
<circle cx="110" cy="41" r="7" fill="white" stroke="#7D432A" stroke-width="2"/>
<g filter="url(#filter1_d_1172_9177)">
<path d="M106.868 31.7488C108.262 29.2496 108.958 28 110 28C111.042 28 111.738 29.2496 113.132 31.7488L113.492 32.3956C113.888 33.1062 114.086 33.4615 114.394 33.6958C114.702 33.9301 115.087 34.017 115.857 34.1908L116.557 34.3492C119.263 34.9619 120.615 35.2677 120.937 36.3028C121.258 37.3368 120.336 38.4159 118.492 40.573L118.014 41.1307C117.491 41.7434 117.228 42.0503 117.11 42.4287C116.993 42.8082 117.032 43.2174 117.111 44.0347L117.184 44.7795C117.462 47.6582 117.602 49.097 116.759 49.7361C115.917 50.3763 114.65 49.7922 112.117 48.6262L111.461 48.3248C110.741 47.9926 110.382 47.8276 110 47.8276C109.618 47.8276 109.259 47.9926 108.538 48.3248L107.884 48.6262C105.35 49.7922 104.083 50.3752 103.242 49.7372C102.398 49.097 102.538 47.6582 102.816 44.7795L102.889 44.0359C102.968 43.2174 103.007 42.8082 102.889 42.4298C102.772 42.0503 102.509 41.7434 101.986 41.1318L101.508 40.573C99.6635 38.417 98.7418 37.3379 99.063 36.3028C99.3852 35.2677 100.738 34.9608 103.444 34.3492L104.144 34.1908C104.913 34.017 105.297 33.9301 105.606 33.6958C105.914 33.4615 106.112 33.1062 106.508 32.3956L106.868 31.7488Z" fill="#FCCC00"/>
<path d="M114.802 31.6649L114.803 31.6654C115.012 32.0407 115.128 32.2473 115.226 32.3942C115.264 32.452 115.289 32.4836 115.302 32.499C115.319 32.5062 115.35 32.5185 115.403 32.5353C115.561 32.585 115.779 32.6354 116.188 32.7276L116.189 32.7279L116.888 32.8863L116.557 34.3492L116.888 32.8863C116.927 32.895 116.965 32.9037 117.004 32.9124C118.258 33.1963 119.367 33.4472 120.191 33.7721C121.069 34.1183 122.007 34.6944 122.369 35.8569L122.37 35.8579C122.726 37.0041 122.299 38.016 121.796 38.8158C121.316 39.5793 120.563 40.4595 119.701 41.4666L119.632 41.5479L119.631 41.5485L119.155 42.1052C118.878 42.4293 118.727 42.6078 118.623 42.7498C118.569 42.8239 118.549 42.8612 118.543 42.8745C118.54 42.8892 118.535 42.9347 118.537 43.0373C118.54 43.2187 118.563 43.4594 118.604 43.8901L118.677 44.6339L118.677 44.6351L118.688 44.75C118.818 46.0926 118.931 47.2589 118.89 48.1644C118.849 49.0976 118.632 50.1974 117.667 50.9304L114.802 31.6649ZM114.802 31.6649L114.442 31.0183C114.442 31.0182 114.442 31.0181 114.442 31.0181C114.423 30.9838 114.403 30.9497 114.385 30.9157C113.736 29.7528 113.17 28.7369 112.625 28.0252C112.063 27.2915 111.24 26.5 110 26.5C108.76 26.5 107.937 27.2915 107.375 28.0252C106.83 28.7369 106.264 29.7528 105.615 30.9157C105.597 30.9497 105.577 30.9838 105.558 31.0181C105.558 31.0181 105.558 31.0182 105.558 31.0183L105.198 31.6649L105.197 31.6654C104.988 32.0407 104.872 32.2473 104.774 32.3942C104.736 32.4516 104.711 32.4832 104.698 32.4987C104.682 32.506 104.65 32.5185 104.596 32.5354C104.438 32.5851 104.221 32.6356 103.813 32.7277L103.812 32.7279L103.113 32.8861C103.113 32.8861 103.113 32.8861 103.113 32.8862C103.113 32.8862 103.113 32.8862 103.113 32.8863C103.077 32.8943 103.042 32.9023 103.007 32.9102C101.748 33.1946 100.636 33.4458 99.8096 33.7717C98.9312 34.118 97.9927 34.6944 97.6308 35.8569L97.6303 35.8583C97.2747 37.0045 97.7002 38.0164 98.2039 38.8166C98.6849 39.5807 99.4385 40.4614 100.3 41.4688L100.368 41.5474L100.368 41.5482L100.845 42.1062L100.846 42.1073C101.123 42.4307 101.274 42.6084 101.376 42.7495C101.43 42.823 101.449 42.8596 101.455 42.8721L101.457 42.8782C101.46 42.8916 101.465 42.9361 101.463 43.0384C101.46 43.2192 101.437 43.4595 101.396 43.8901C101.396 43.8902 101.396 43.8904 101.396 43.8905C101.396 43.8908 101.396 43.8911 101.396 43.8914L101.323 44.6337L101.323 44.6351C101.319 44.6736 101.316 44.7119 101.312 44.75C101.182 46.0926 101.069 47.259 101.11 48.1647C101.151 49.0992 101.369 50.1989 102.335 50.9321L102.336 50.9325C103.326 51.6833 104.448 51.5564 105.342 51.3001C106.192 51.0563 107.23 50.5784 108.406 50.0372L108.511 49.9888L108.511 49.9886L109.166 49.6872L109.166 49.6869C109.548 49.5111 109.753 49.4179 109.909 49.3613C109.952 49.3455 109.982 49.3365 110 49.3315C110.018 49.3365 110.048 49.3454 110.091 49.3612C110.246 49.4177 110.451 49.5108 110.832 49.6866L110.835 49.688M114.802 31.6649L110.835 49.688M110.835 49.688L111.49 49.9887M110.835 49.688L111.49 49.9887M101.456 42.8749C101.456 42.8742 101.456 42.8734 101.455 42.8724M101.456 42.8749L101.455 42.8724M101.456 42.8749C101.456 42.8745 101.456 42.8742 101.456 42.874M101.456 42.8749L101.456 42.874M101.455 42.8724C101.456 42.873 101.456 42.8735 101.456 42.874M101.455 42.8724L101.456 42.874M101.456 42.874C101.457 42.8762 101.458 42.8772 101.457 42.8772C101.457 42.8771 101.457 42.8767 101.457 42.876L101.456 42.874ZM111.49 49.9887C111.527 50.0056 111.563 50.0225 111.6 50.0393M111.49 49.9887L111.6 50.0393M111.6 50.0393C112.773 50.5795 113.809 51.0569 114.659 51.3004M111.6 50.0393L114.659 51.3004M114.659 51.3004C115.553 51.5569 116.675 51.683 117.666 50.9312L114.659 51.3004ZM118.54 42.8803C118.54 42.8804 118.541 42.8789 118.542 42.8756C118.541 42.8786 118.54 42.8802 118.54 42.8803ZM115.287 32.4916C115.287 32.4915 115.288 32.4923 115.29 32.4937C115.288 32.4923 115.286 32.4916 115.287 32.4916ZM115.31 32.5084C115.312 32.5102 115.313 32.5113 115.313 32.5114C115.313 32.5115 115.312 32.5106 115.31 32.5084ZM104.687 32.5114C104.687 32.5113 104.688 32.5102 104.69 32.5083C104.688 32.5106 104.687 32.5115 104.687 32.5114ZM104.71 32.4934C104.712 32.4919 104.714 32.4911 104.714 32.4911C104.714 32.4911 104.713 32.4919 104.71 32.4934ZM110.025 49.3258C110.024 49.3258 110.023 49.3261 110.021 49.3264C110.023 49.3259 110.025 49.3257 110.025 49.3258ZM109.979 49.3264C109.977 49.3261 109.976 49.3258 109.975 49.3258C109.975 49.3257 109.977 49.3259 109.979 49.3264Z" stroke="white" stroke-width="3"/>
</g>
<g filter="url(#filter2_d_1172_9177)">
<path d="M204.868 31.7488C206.262 29.2496 206.958 28 208 28C209.042 28 209.738 29.2496 211.132 31.7488L211.492 32.3956C211.888 33.1062 212.086 33.4615 212.394 33.6958C212.702 33.9301 213.087 34.017 213.857 34.1908L214.557 34.3492C217.263 34.9619 218.615 35.2677 218.937 36.3028C219.258 37.3368 218.336 38.4159 216.492 40.573L216.014 41.1307C215.491 41.7434 215.228 42.0503 215.11 42.4287C214.993 42.8082 215.032 43.2174 215.111 44.0347L215.184 44.7795C215.462 47.6582 215.602 49.097 214.759 49.7361C213.917 50.3763 212.65 49.7922 210.117 48.6262L209.461 48.3248C208.741 47.9926 208.382 47.8276 208 47.8276C207.618 47.8276 207.259 47.9926 206.538 48.3248L205.884 48.6262C203.35 49.7922 202.083 50.3752 201.242 49.7372C200.398 49.097 200.538 47.6582 200.816 44.7795L200.889 44.0359C200.968 43.2174 201.007 42.8082 200.889 42.4298C200.772 42.0503 200.509 41.7434 199.986 41.1318L199.508 40.573C197.664 38.417 196.742 37.3379 197.063 36.3028C197.385 35.2677 198.738 34.9608 201.444 34.3492L202.144 34.1908C202.913 34.017 203.297 33.9301 203.606 33.6958C203.914 33.4615 204.112 33.1062 204.508 32.3956L204.868 31.7488Z" fill="#FCCC00"/>
<path d="M212.802 31.6649L212.803 31.6654C213.012 32.0407 213.128 32.2473 213.226 32.3942C213.264 32.452 213.289 32.4836 213.302 32.499C213.319 32.5062 213.35 32.5185 213.403 32.5353C213.561 32.585 213.779 32.6354 214.188 32.7276L214.189 32.7279L214.888 32.8863L214.557 34.3492L214.888 32.8863C214.927 32.895 214.965 32.9037 215.004 32.9124C216.258 33.1963 217.367 33.4472 218.191 33.7721C219.069 34.1183 220.007 34.6944 220.369 35.8569L220.37 35.8579C220.726 37.0041 220.299 38.016 219.796 38.8158C219.316 39.5793 218.563 40.4595 217.701 41.4666L217.632 41.5479L217.631 41.5485L217.155 42.1052C216.878 42.4293 216.727 42.6078 216.623 42.7498C216.569 42.8239 216.549 42.8612 216.543 42.8745C216.54 42.8892 216.535 42.9347 216.537 43.0373C216.54 43.2187 216.563 43.4594 216.604 43.8901L216.677 44.6339L216.677 44.6351L216.688 44.75C216.818 46.0926 216.931 47.2589 216.89 48.1644C216.849 49.0976 216.632 50.1974 215.667 50.9304L212.802 31.6649ZM212.802 31.6649L212.442 31.0183C212.442 31.0182 212.442 31.0181 212.442 31.0181C212.423 30.9838 212.403 30.9497 212.385 30.9157C211.736 29.7528 211.17 28.7369 210.625 28.0252C210.063 27.2915 209.24 26.5 208 26.5C206.76 26.5 205.937 27.2915 205.375 28.0252C204.83 28.7369 204.264 29.7528 203.615 30.9157C203.597 30.9497 203.577 30.9838 203.558 31.0181C203.558 31.0181 203.558 31.0182 203.558 31.0183L203.198 31.6649L203.197 31.6654C202.988 32.0407 202.872 32.2473 202.774 32.3942C202.736 32.4516 202.711 32.4832 202.698 32.4987C202.682 32.506 202.65 32.5185 202.596 32.5354C202.438 32.5851 202.221 32.6356 201.813 32.7277L201.812 32.7279L201.113 32.8861C201.113 32.8861 201.113 32.8861 201.113 32.8862C201.113 32.8862 201.113 32.8862 201.113 32.8863C201.077 32.8943 201.042 32.9023 201.007 32.9102C199.748 33.1946 198.636 33.4458 197.81 33.7717C196.931 34.118 195.993 34.6944 195.631 35.8569L195.63 35.8583C195.275 37.0045 195.7 38.0164 196.204 38.8166C196.685 39.5807 197.438 40.4614 198.3 41.4688L198.368 41.5474L198.368 41.5482L198.845 42.1062L198.846 42.1073C199.123 42.4307 199.274 42.6084 199.376 42.7495C199.43 42.823 199.449 42.8596 199.455 42.8721L199.457 42.8782C199.46 42.8916 199.465 42.9361 199.463 43.0384C199.46 43.2192 199.437 43.4595 199.396 43.8901C199.396 43.8902 199.396 43.8904 199.396 43.8905C199.396 43.8908 199.396 43.8911 199.396 43.8914L199.323 44.6337L199.323 44.6351C199.319 44.6736 199.316 44.7119 199.312 44.75C199.182 46.0926 199.069 47.259 199.11 48.1647C199.151 49.0992 199.369 50.1989 200.335 50.9321L200.336 50.9325C201.326 51.6833 202.448 51.5564 203.342 51.3001C204.192 51.0563 205.23 50.5784 206.406 50.0372L206.511 49.9888L206.511 49.9886L207.166 49.6872L207.166 49.6869C207.548 49.5111 207.753 49.4179 207.909 49.3613C207.952 49.3455 207.982 49.3365 208 49.3315C208.018 49.3365 208.048 49.3454 208.091 49.3612C208.246 49.4177 208.451 49.5108 208.832 49.6866L208.835 49.688M212.802 31.6649L208.835 49.688M208.835 49.688L209.49 49.9887M208.835 49.688L209.49 49.9887M199.456 42.8749C199.456 42.8742 199.456 42.8734 199.455 42.8724M199.456 42.8749L199.455 42.8724M199.456 42.8749C199.456 42.8745 199.456 42.8742 199.456 42.874M199.456 42.8749L199.456 42.874M199.455 42.8724C199.456 42.873 199.456 42.8735 199.456 42.874M199.455 42.8724L199.456 42.874M199.456 42.874C199.457 42.8762 199.458 42.8772 199.457 42.8772C199.457 42.8771 199.457 42.8767 199.457 42.876L199.456 42.874ZM209.49 49.9887C209.527 50.0056 209.563 50.0225 209.6 50.0393M209.49 49.9887L209.6 50.0393M209.6 50.0393C210.773 50.5795 211.809 51.0569 212.659 51.3004M209.6 50.0393L212.659 51.3004M212.659 51.3004C213.553 51.5569 214.675 51.683 215.666 50.9312L212.659 51.3004ZM216.54 42.8803C216.54 42.8804 216.541 42.8789 216.542 42.8756C216.541 42.8786 216.54 42.8802 216.54 42.8803ZM213.287 32.4916C213.287 32.4915 213.288 32.4923 213.29 32.4937C213.288 32.4923 213.286 32.4916 213.287 32.4916ZM213.31 32.5084C213.312 32.5102 213.313 32.5113 213.313 32.5114C213.313 32.5115 213.312 32.5106 213.31 32.5084ZM202.687 32.5114C202.687 32.5113 202.688 32.5102 202.69 32.5083C202.688 32.5106 202.687 32.5115 202.687 32.5114ZM202.71 32.4934C202.712 32.4919 202.714 32.4911 202.714 32.4911C202.714 32.4911 202.713 32.4919 202.71 32.4934ZM208.025 49.3258C208.024 49.3258 208.023 49.3261 208.021 49.3264C208.023 49.3259 208.025 49.3257 208.025 49.3258ZM207.979 49.3264C207.977 49.3261 207.976 49.3258 207.975 49.3258C207.975 49.3257 207.977 49.3259 207.979 49.3264Z" stroke="white" stroke-width="3"/>
</g>
<defs>
<filter id="filter0_d_1172_9177" x="0" y="28" width="321" height="28" filterUnits="userSpaceOnUse" color-interpolation-filters="sRGB">
<feFlood flood-opacity="0" result="BackgroundImageFix"/>
<feColorMatrix in="SourceAlpha" type="matrix" values="0 0 0 0 0 0 0 0 0 0 0 0 0 0 0 0 0 0 127 0" result="hardAlpha"/>
<feOffset dy="1"/>
<feGaussianBlur stdDeviation="2"/>
<feComposite in2="hardAlpha" operator="out"/>
<feColorMatrix type="matrix" values="0 0 0 0 0 0 0 0 0 0 0 0 0 0 0 0 0 0 0.25 0"/>
<feBlend mode="normal" in2="BackgroundImageFix" result="effect1_dropShadow_1172_9177"/>
<feBlend mode="normal" in="SourceGraphic" in2="effect1_dropShadow_1172_9177" result="shape"/>
</filter>
<filter id="filter1_d_1172_9177" x="85.9979" y="15" width="48.0042" height="47.999" filterUnits="userSpaceOnUse" color-interpolation-filters="sRGB">
<feFlood flood-opacity="0" result="BackgroundImageFix"/>
<feColorMatrix in="SourceAlpha" type="matrix" values="0 0 0 0 0 0 0 0 0 0 0 0 0 0 0 0 0 0 127 0" result="hardAlpha"/>
<feOffset/>
<feGaussianBlur stdDeviation="5"/>
<feComposite in2="hardAlpha" operator="out"/>
<feColorMatrix type="matrix" values="0 0 0 0 0 0 0 0 0 0 0 0 0 0 0 0 0 0 0.25 0"/>
<feBlend mode="normal" in2="BackgroundImageFix" result="effect1_dropShadow_1172_9177"/>
<feBlend mode="normal" in="SourceGraphic" in2="effect1_dropShadow_1172_9177" result="shape"/>
</filter>
<filter id="filter2_d_1172_9177" x="183.998" y="15" width="48.0042" height="47.999" filterUnits="userSpaceOnUse" color-interpolation-filters="sRGB">
<feFlood flood-opacity="0" result="BackgroundImageFix"/>
<feColorMatrix in="SourceAlpha" type="matrix" values="0 0 0 0 0 0 0 0 0 0 0 0 0 0 0 0 0 0 127 0" result="hardAlpha"/>
<feOffset/>
<feGaussianBlur stdDeviation="5"/>
<feComposite in2="hardAlpha" operator="out"/>
<feColorMatrix type="matrix" values="0 0 0 0 0 0 0 0 0 0 0 0 0 0 0 0 0 0 0.25 0"/>
<feBlend mode="normal" in2="BackgroundImageFix" result="effect1_dropShadow_1172_9177"/>
<feBlend mode="normal" in="SourceGraphic" in2="effect1_dropShadow_1172_9177" result="shape"/>
</filter>
</defs>
</svg>
