<svg width="327" height="56" viewBox="0 0 327 56" fill="none" xmlns="http://www.w3.org/2000/svg">
<g filter="url(#filter0_d_1172_9562)">
<rect x="7" y="34" width="307" height="14" rx="7" fill="white"/>
<rect x="5.5" y="32.5" width="310" height="17" rx="8.5" stroke="white" stroke-width="3"/>
</g>
<circle cx="110" cy="41" r="7" fill="white" stroke="#7D432A" stroke-width="2"/>
<circle cx="208" cy="41" r="7" fill="white" stroke="#7D432A" stroke-width="2"/>
<path d="M315.854 29.9254C315.444 30.1413 314.478 30.577 313.178 30.5307C311.901 30.4845 310.986 29.9948 310.589 29.7519C309.817 30.2917 308.585 31.0127 306.93 31.4831C305.113 31.9998 303.546 31.9921 302.556 31.915C301.987 32.8095 300.91 33.2568 299.88 33.0409C298.77 32.8057 297.951 31.8379 297.915 30.7042C297.168 31.4214 296.563 31.4099 296.4 31.3983C295.291 31.3173 294.166 29.8058 294.17 27.5926C293.549 29.5552 293.032 30.0179 292.654 30.014C291.454 30.0063 290.165 24.8626 290.336 20.5826C290.38 19.4413 291.032 7.91996 300.866 3.19268C301.956 2.66828 308.513 -0.316156 314.891 2.37138C324.539 6.43931 325.302 19.368 325.401 21.0993C325.469 22.2252 325.441 23.1776 325.401 23.8678C325.401 23.8678 325.397 28.117 324.312 27.8239C323.226 27.5309 323.346 24.9012 323.346 24.9012C323.405 27.7082 321.596 29.2853 320.451 26.7134" fill="#32B13E"/>
<mask id="mask0_1172_9562" style="mask-type:luminance" maskUnits="userSpaceOnUse" x="290" y="1" width="36" height="33">
<path d="M315.854 29.9254C315.444 30.1413 314.478 30.577 313.178 30.5307C311.901 30.4845 310.986 29.9948 310.589 29.7518C309.817 30.2917 308.585 31.0127 306.93 31.4831C305.113 31.9998 303.546 31.9921 302.556 31.915C301.987 32.8095 300.91 33.2568 299.88 33.0409C298.77 32.8057 297.951 31.8379 297.915 30.7042C297.168 31.4214 296.563 31.4099 296.4 31.3983C295.291 31.3173 294.166 29.8058 294.17 27.5926C293.549 29.5552 293.032 30.0179 292.654 30.014C291.454 30.0063 290.165 24.8626 290.336 20.5826C290.38 19.4413 291.032 7.91996 300.866 3.19268C301.956 2.66828 308.513 -0.316156 314.891 2.37138C324.539 6.43931 325.302 19.368 325.401 21.0993C325.469 22.2252 325.441 23.1776 325.401 23.8678C325.401 23.8678 325.397 28.117 324.312 27.8239C323.226 27.5309 323.346 24.9012 323.346 24.9012C323.405 27.7082 321.596 29.2853 320.451 26.7134" fill="white"/>
</mask>
<g mask="url(#mask0_1172_9562)">
<path opacity="0.05" d="M325.918 17.0279C325.385 17.1435 324.662 17.2361 323.819 17.1512C321.962 16.97 320.677 16.0562 320.128 15.6089C319.862 16.3338 319.25 16.8698 318.538 16.9662C317.556 17.1011 316.506 16.3839 316.247 15.2387C316.128 16.5382 315.253 17.6217 314.084 17.9533C312.609 18.3697 310.879 17.5291 310.266 15.9174C310.231 15.9945 309.65 17.1628 308.294 17.3363C306.994 17.506 306.139 16.6114 306.067 16.5343C305.729 17.5638 304.831 18.3119 303.777 18.4468C302.528 18.6049 301.272 17.8761 300.786 16.6577C300.588 17.8067 299.784 18.7591 298.687 19.1254C297.402 19.5573 295.927 19.1139 295.06 18.015C294.233 19.218 292.877 19.8503 291.624 19.619C290.726 19.4532 290.145 18.8979 289.906 18.6319C290.046 17.2746 290.189 15.9174 290.328 14.5601C296.166 12.4625 306.409 9.7904 318.418 12.0924C321.631 12.7093 324.503 13.5884 327.012 14.5601C326.65 15.3814 326.292 16.2066 325.93 17.0279H325.918Z" fill="#043211"/>
<path d="M314.35 31.7883C309.232 33.3237 298.448 35.5293 295.504 31.9831C295.215 31.6363 294.832 31.0284 294.758 30.0386C295.392 30.7946 296.428 31.0401 296.993 30.779C297.655 30.475 297.972 29.3449 297.109 28.4135C306.693 23.4255 315.671 22.2096 319.376 25.2999C320.057 25.8688 320.729 26.7223 321.097 28.0589C320.813 28.2382 321.489 28.7214 321.139 29.1462C320.859 29.4891 319.623 29.6216 319.516 29.871C318.484 30.3347 316.688 31.0868 314.35 31.7883Z" fill="#387B5E"/>
<path opacity="0.16" d="M316.331 29.0153C316.08 28.7724 315.83 28.5256 315.583 28.2827C315.5 28.3559 314.366 29.2775 312.998 28.8803C312.199 28.649 311.754 28.0937 311.603 27.8855C311.312 28.8842 310.346 29.5512 309.312 29.4895C308.35 29.4317 307.515 28.7569 307.276 27.8238C306.938 28.676 306.151 29.2736 305.24 29.3662C304.023 29.4934 303.22 28.649 303.141 28.5641C302.914 29.8057 301.952 30.7543 300.782 30.9316C299.478 31.1283 298.516 30.2723 298.396 30.1605C299.021 28.7222 299.649 27.2878 300.273 25.8496H318.438C317.734 26.9061 317.031 27.9588 316.331 29.0153Z" fill="#183B4B"/>
<path d="M325.62 13.8157C325.58 14.0277 325.266 15.6009 324.105 16.0636C322.781 16.5919 320.614 15.5855 319.731 13.2103C319.715 14.5174 319.393 15.705 318.749 15.894C317.973 16.1215 316.617 14.9223 315.715 12.6936C316.259 14.6485 314.923 16.4569 313.396 16.6729C311.833 16.8926 309.984 15.4621 310.004 13.3838C310.394 14.5753 309.698 15.8246 308.577 16.1523C307.384 16.5032 306.008 15.7243 305.757 14.4095C305.757 15.786 305.061 16.9736 304.115 17.2782C302.831 17.6947 300.81 16.5765 300.421 14.3285C300.806 16.0791 299.522 17.7255 297.868 17.8836C296.329 18.0301 294.818 16.8541 294.655 15.1999C294.814 16.6999 293.688 18.0571 292.157 18.2268C290.611 18.4003 289.183 17.2937 289.012 15.7783C289.97 10.9431 290.933 6.10395 291.891 1.26099H325.62V13.8157Z" fill="#14BC43"/>
<path opacity="0.12" d="M324.053 13.5996C323.775 12.8555 320.514 4.58079 312.171 2.58345C304.369 0.717218 295.418 5.13989 291.537 13.5996V3.05387C295.231 1.62334 301.773 -0.354711 310.04 0.0540098C316.013 0.350911 320.824 1.793 324.053 3.05001V13.5996Z" fill="#F4FFFF"/>
<path opacity="0.12" d="M297.279 29.9254C297.223 30.3264 296.965 30.6696 296.659 30.8239C296.106 31.1015 295.243 30.847 294.754 30.0912C292.642 31.1979 291.525 30.8508 291.107 30.6619C288.916 29.6825 288.201 25.1249 290.089 19.3064C290.996 26.0927 291.907 29.4859 292.825 29.4897C293.311 29.4897 293.8 28.545 294.289 26.6518C294.901 29.3316 295.494 30.6696 296.07 30.6619C296.424 30.6581 296.77 30.1452 297.112 29.1234C297.172 29.2237 297.335 29.5244 297.279 29.9216V29.9254Z" fill="#F4FFFF"/>
</g>
<path d="M313.273 35.4168C313.438 34.1668 314.347 33.8546 314.951 32.7788C315.886 31.1053 316.748 28.5682 316.376 24.8203C315.627 24.2728 314.882 23.7252 314.133 23.1777C314.297 24.4077 314.383 26.3202 313.725 28.5412C313.443 29.5013 312.386 33.0795 310.77 33.1258C309.617 33.1605 308.672 31.383 307.206 28.5412C305.944 26.1043 305.154 23.9913 304.66 22.4836L302.93 24.6468C306.094 30.9473 306.403 32.586 305.985 32.7788C305.513 32.9986 303.933 31.4408 303.234 30.6157C302.363 29.59 301.931 28.599 301.704 27.932C300.719 28.2482 299.734 28.5682 298.749 28.8844C300.579 29.7674 303.443 31.5218 304.759 34.5101C305.359 35.8673 305.395 37.2593 305.472 40.0471C305.581 43.9724 304.832 45.4337 304.555 45.9311C304.088 46.764 303.529 47.3501 302.417 48.5261C299.852 51.2291 298.114 52.1352 298.341 52.5054C298.513 52.7869 299.793 52.7252 304.964 51.0363C304.71 53.4076 304.877 54.6762 305.472 54.842C306.198 55.0425 307.556 53.6004 309.549 50.5157C310.956 52.7213 312.44 54.0477 313.216 53.8048C314.165 53.5079 313.866 50.9283 313.829 50.6044C317.806 50.9399 318.836 50.7317 318.923 50.4309C319.059 49.9682 316.866 49.6019 315.255 47.7472C313.906 46.1933 313.369 44.4788 313.273 43.6112C313.092 41.9069 313.109 41.1112 313.109 39.8612L313.273 36.9446L313.273 36.389L313.273 35.6946L313.273 35.4168Z" fill="#86644E"/>
<mask id="mask1_1172_9562" style="mask-type:luminance" maskUnits="userSpaceOnUse" x="298" y="22" width="21" height="33">
<path d="M313.19 35.139C312.572 34.6377 314.347 33.8546 314.951 32.7788C315.886 31.1053 316.748 28.5682 316.376 24.8203C315.627 24.2728 314.882 23.7252 314.133 23.1777C314.297 24.4077 314.383 26.3202 313.725 28.5412C313.443 29.5013 312.386 33.0795 310.77 33.1258C309.617 33.1605 308.672 31.383 307.206 28.5412C305.944 26.1043 305.154 23.9913 304.66 22.4836L302.93 24.6468C306.094 30.9473 306.403 32.586 305.985 32.7788C305.513 32.9986 303.933 31.4408 303.234 30.6157C302.363 29.59 301.931 28.599 301.704 27.932C300.719 28.2482 299.734 28.5682 298.749 28.8844C300.579 29.7674 303.443 31.5218 304.759 34.5101C305.359 35.8673 305.395 37.2593 305.472 40.0471C305.581 43.9724 304.832 45.4337 304.555 45.9311C304.088 46.764 303.529 47.3501 302.417 48.5261C299.852 51.2291 298.114 52.1352 298.341 52.5054C298.513 52.7869 299.793 52.7252 304.964 51.0363C304.71 53.4076 304.877 54.6762 305.472 54.842C306.198 55.0425 307.556 53.6004 309.549 50.5157C310.956 52.7213 312.44 54.0477 313.216 53.8048C314.165 53.5079 313.866 50.9283 313.829 50.6044C317.806 50.9399 318.836 50.7317 318.923 50.4309C319.059 49.9682 316.866 49.6019 315.255 47.7472C313.906 46.1933 313.533 44.3399 313.438 43.4723C313.256 41.7681 313.109 41.1112 313.109 40.139L313.19 39.1668L313.19 36.6668L313.19 35.9723L313.19 35.139Z" fill="white"/>
</mask>
<g mask="url(#mask1_1172_9562)">
<path opacity="0.17" d="M319.054 49.6211C317.851 50.0028 316.598 50.1917 315.314 50.1378C314.369 50.0953 313.584 50.0838 313.43 51.0362C313.344 51.5606 313.339 52.0927 313.253 52.6171C313.198 52.9487 313.216 53.1762 312.672 53.1338C312.422 53.1145 312.141 52.9603 311.932 52.8523C311.019 52.3819 310.384 51.5991 309.794 50.8704C309.667 50.7123 309.403 50.6197 309.195 50.7354C308.387 51.1904 307.91 51.8613 307.442 52.5631C306.938 53.3227 306.276 54.2712 305.114 54.252C304.546 54.2443 304.546 54.9884 305.114 54.9962C306.176 55.0116 307.007 54.4486 307.61 53.7468C308.209 53.0528 308.559 52.1698 309.317 51.5876C309.871 52.2508 310.47 52.8908 311.255 53.3651C311.973 53.7931 313.303 54.2944 313.879 53.4422C314.129 53.0759 314.129 52.6094 314.174 52.2007C314.206 51.8922 314.233 51.5799 314.274 51.2714C314.329 50.8472 314.642 50.8357 315.078 50.8627C315.913 50.9128 316.744 50.8704 317.561 50.7393C317.615 50.8357 317.706 50.9166 317.833 50.9321C318.26 50.9861 318.673 50.9745 319.091 50.8742C319.413 50.7933 319.463 50.5041 319.331 50.3151C319.794 50.1223 319.567 49.4514 319.054 49.6134V49.6211Z" fill="#433743"/>
<path opacity="0.17" d="M304.197 50.7047C302.063 51.3409 299.87 51.8113 297.637 52.1159C297.206 52.1738 297.233 52.756 297.637 52.837C298.291 52.9604 298.94 52.9989 299.607 52.9372C299.902 52.9102 300.038 52.6866 300.025 52.49C301.518 52.2123 302.985 51.8576 304.433 51.4296C304.964 51.2715 304.732 50.5505 304.201 50.7085L304.197 50.7047Z" fill="#433743"/>
<path opacity="0.17" d="M313.126 35.744C312.613 35.555 312.164 36.1951 312.681 36.3879L313.126 35.744Z" fill="#433743"/>
<path opacity="0.17" d="M316.285 28.0089C315.813 28.14 315.341 28.1862 314.878 28.1477C314.71 28.0937 314.547 28.0127 314.401 27.9048C314.211 27.7621 313.975 27.7929 313.816 27.9009C313.693 27.8508 313.566 27.7968 313.448 27.7351C312.962 27.4845 312.522 28.1284 313.003 28.379C313.543 28.6605 314.133 28.8302 314.737 28.888C315.35 29.0422 316.017 28.9844 316.621 28.6952C317.048 28.4909 316.762 27.8816 316.281 28.0127L316.285 28.0089Z" fill="#433743"/>
<path opacity="0.17" d="M311.351 31.8841C311.083 32.235 310.661 32.4817 310.161 32.5203C309.417 32.5781 309.299 32.1309 309.104 31.6296C308.754 30.7158 308.45 29.7865 308.182 28.8534C308.051 28.3868 307.202 28.5835 307.333 29.05C307.551 29.8173 307.792 30.5808 308.069 31.3365C308.264 31.8687 308.409 32.6167 308.949 32.9869C309.966 33.6848 311.482 33.0755 312.1 32.2658C312.409 31.8609 311.646 31.4869 311.342 31.8879L311.351 31.8841Z" fill="#433743"/>
<path opacity="0.17" d="M307.27 27.8548C307.115 27.8817 306.961 27.9049 306.807 27.928C307.016 27.8046 307.224 27.6735 307.424 27.5347C307.86 27.2262 307.234 26.7019 306.802 27.0065C306.176 27.4499 305.472 27.7776 304.705 27.9936C304.614 27.9897 304.533 28.0128 304.464 28.0553C304.428 28.063 304.396 28.0745 304.36 28.0822C303.879 28.1941 303.983 28.8072 304.478 28.8149C304.56 28.8149 304.637 28.8149 304.719 28.8149C305.695 29.2429 306.875 29.1002 307.706 28.4717C308.055 28.2095 307.678 27.7776 307.279 27.847L307.27 27.8548Z" fill="#433743"/>
<path opacity="0.17" d="M302.753 28.6645C302.658 28.3676 302.049 28.2982 301.895 28.6722C301.618 29.3509 301.073 29.9138 300.352 30.2878C299.87 30.5385 300.302 31.1747 300.796 30.9318C301.695 30.4884 302.689 29.9177 302.857 28.9769C302.88 28.8496 302.835 28.7455 302.753 28.6645Z" fill="#433743"/>
<path opacity="0.17" d="M305.418 50.5312C305.617 50.3384 306.23 49.8024 307.252 49.6096C308.178 49.4322 308.927 49.6327 309.222 49.7253C308.509 49.0582 307.42 48.8577 306.575 49.2047C305.663 49.5788 305.445 50.427 305.422 50.5312H305.418Z" fill="#433743"/>
</g>
<path d="M296.758 28.4831C297.434 30.1836 299.458 30.8699 300.89 30.1373C302.147 29.4934 302.755 27.8585 302.111 26.4087C302.616 27.7929 304.055 28.5525 305.324 28.2556C306.298 28.0243 307.07 27.1914 307.284 26.1465C307.328 27.7621 308.37 28.9111 309.253 28.9458C310.239 28.9844 311.563 27.658 311.396 25.7146C311.181 26.9408 312.072 28.0976 313.301 28.2518C314.478 28.4022 315.611 27.5847 315.798 26.4048C315.782 26.6169 315.762 27.1914 316.136 27.7467C316.212 27.8585 317.48 28.7955 317.862 28.7608C320.63 28.8225 321.238 25.7262 320.228 23.7751C318.498 20.4282 307.447 19.1712 301.642 22.9461C298.906 24.7237 297.458 27.1105 296.762 28.4831H296.758Z" fill="#32B13E"/>
<mask id="mask2_1172_9562" style="mask-type:luminance" maskUnits="userSpaceOnUse" x="296" y="20" width="25" height="11">
<path d="M296.758 28.4831C297.434 30.1836 299.458 30.8699 300.89 30.1373C302.147 29.4934 302.755 27.8585 302.111 26.4087C302.616 27.7929 304.055 28.5525 305.324 28.2556C306.298 28.0243 307.07 27.1914 307.284 26.1465C307.328 27.7621 308.37 28.9111 309.253 28.9458C310.239 28.9844 311.563 27.658 311.396 25.7146C311.181 26.9408 312.072 28.0976 313.301 28.2518C314.478 28.4022 315.611 27.5847 315.798 26.4048C315.782 26.6169 315.762 27.1914 316.136 27.7467C316.212 27.8585 317.48 28.7955 317.862 28.7608C320.63 28.8225 321.238 25.7262 320.228 23.7751C318.498 20.4282 307.447 19.1712 301.642 22.9461C298.906 24.7237 297.458 27.1105 296.762 28.4831H296.758Z" fill="white"/>
</mask>
<g mask="url(#mask2_1172_9562)">
<path opacity="0.12" d="M318.439 31.4058C310.438 35.2655 302.676 35.6125 298.934 31.961C298.266 31.3094 297.601 30.4071 297.112 29.127C298.051 30.0331 299.498 30.2298 300.651 29.6128C301.821 28.9882 302.421 27.6695 302.111 26.4047C302.807 27.3186 303.948 27.7929 305.065 27.6348C306.493 27.4304 307.193 26.2929 307.28 26.1426C307.336 27.3032 308.398 28.1862 309.559 28.0705C310.732 27.9548 311.591 26.8675 311.388 25.7107C311.539 26.8829 312.521 27.7504 313.623 27.7774C314.526 27.8006 315.389 27.2569 315.79 26.4009C316.208 27.0911 316.621 27.7813 317.039 28.4715C317.504 29.447 317.969 30.4226 318.435 31.3981L318.439 31.4058Z" fill="#F4FFFF"/>
</g>
<defs>
<filter id="filter0_d_1172_9562" x="0" y="28" width="321" height="28" filterUnits="userSpaceOnUse" color-interpolation-filters="sRGB">
<feFlood flood-opacity="0" result="BackgroundImageFix"/>
<feColorMatrix in="SourceAlpha" type="matrix" values="0 0 0 0 0 0 0 0 0 0 0 0 0 0 0 0 0 0 127 0" result="hardAlpha"/>
<feOffset dy="1"/>
<feGaussianBlur stdDeviation="2"/>
<feComposite in2="hardAlpha" operator="out"/>
<feColorMatrix type="matrix" values="0 0 0 0 0 0 0 0 0 0 0 0 0 0 0 0 0 0 0.25 0"/>
<feBlend mode="normal" in2="BackgroundImageFix" result="effect1_dropShadow_1172_9562"/>
<feBlend mode="normal" in="SourceGraphic" in2="effect1_dropShadow_1172_9562" result="shape"/>
</filter>
</defs>
</svg>
