<svg width="67" height="66" viewBox="0 0 67 66" fill="none" xmlns="http://www.w3.org/2000/svg">
<circle cx="33.5" cy="33" r="33" fill="#FF7A00"/>
<circle cx="33.5003" cy="32.9998" r="20.8421" fill="white"/>
<circle cx="33.5005" cy="15.6321" r="1.73684" fill="#F4CC3C"/>
<circle cx="33.5005" cy="50.3687" r="1.73684" fill="#F4CC3C"/>
<circle cx="16.1309" cy="33.0003" r="1.73684" fill="#F4CC3C"/>
<circle cx="50.8697" cy="33.0003" r="1.73684" fill="#F4CC3C"/>
<circle cx="33.5005" cy="33.0003" r="1.73684" fill="#00B3FF" stroke="#511C0B"/>
<path d="M34.15 20.4292C34.15 20.0702 33.859 19.7792 33.5 19.7792C33.141 19.7792 32.85 20.0702 32.85 20.4292H34.15ZM32.85 20.4292V30.8503H34.15V20.4292H32.85Z" fill="#511C0B"/>
<path d="M42.0187 33.65C42.3776 33.65 42.6687 33.359 42.6687 33C42.6687 32.641 42.3776 32.35 42.0187 32.35V33.65ZM35.0713 33.65H42.0187V32.35H35.0713V33.65Z" fill="#511C0B"/>
</svg>
