<svg width="40" height="31" viewBox="0 0 40 31" fill="none" xmlns="http://www.w3.org/2000/svg">
<path d="M39.1993 28.2428L39.0499 3.49817C39.0442 2.78359 38.6073 2.21118 38.0717 2.21118L19.6997 2.24485V2.25608L1.7703 2.43566C1.23186 2.4394 0.800537 3.02303 0.800537 3.73387L0.817452 28.4822C0.817452 29.208 1.26569 29.7917 1.81259 29.7805L18.541 29.3876C18.6679 29.6981 18.9103 29.9114 19.1951 29.9151L20.7427 29.9451C21.05 29.9526 21.3178 29.7094 21.4362 29.3614L38.2154 29.556C38.7623 29.5635 39.2077 28.9723 39.2021 28.2465L39.1993 28.2428Z" fill="#F4E4C3"/>
<path d="M1.80972 29.7767L18.5382 29.3839C18.665 29.6944 18.9075 29.9077 19.1922 29.9114L20.7399 29.9413C21.0471 29.9488 21.315 29.7056 21.4334 29.3577L38.2126 29.5522C38.7595 29.5597 39.2049 28.9686 39.1992 28.2428L39.1485 19.7427C29.9696 20.6069 7.70724 27.7976 1.71387 29.773C1.74488 29.773 1.77871 29.7767 1.80972 29.7767Z" fill="#EFE492"/>
<path d="M39.1993 28.2428L39.0499 3.49817C39.0442 2.78359 38.6073 2.21118 38.0717 2.21118L19.6997 2.24485V2.25608L1.7703 2.43566C1.23186 2.4394 0.800537 3.02303 0.800537 3.73387L0.817452 28.4822C0.817452 29.208 1.26569 29.7917 1.81259 29.7805L18.541 29.3876C18.6679 29.6981 18.9103 29.9114 19.1951 29.9151L20.7427 29.9451C21.05 29.9526 21.3178 29.7094 21.4362 29.3614L38.2154 29.556C38.7623 29.5635 39.2077 28.9723 39.2021 28.2465L39.1993 28.2428Z" fill="#ED5F32"/>
<path d="M1.80972 29.7767L18.5382 29.3839C18.665 29.6944 18.9075 29.9077 19.1922 29.9114L20.7399 29.9413C21.0471 29.9488 21.315 29.7056 21.4334 29.3577L38.2126 29.5522C38.7595 29.5597 39.2049 28.9686 39.1992 28.2428L39.1485 19.7427C29.9696 20.6069 7.70724 27.7976 1.71387 29.773C1.74488 29.773 1.77871 29.7767 1.80972 29.7767Z" fill="#BF8F80"/>
<path d="M36.8031 1.20483L38.3282 3.35231L38.4128 28.7517L20.8978 29.0248L20.6046 29.4101L19.3755 29.4475L18.8737 28.9649L1.64066 28.9537L1.24316 3.27L2.76547 1.66501L4.96154 1.51162L19.6405 3.75637L24.5795 4.25769L29.465 3.03056L34.576 2.3085L36.8031 1.20483Z" fill="#DECCA3"/>
<path d="M36.8145 1.17037C36.8145 1.11358 36.7671 1.0682 36.7103 1.07044C31.3757 1.28121 26.3849 1.41282 22.8896 1.20874C22.8868 1.20857 22.8854 1.20848 22.8825 1.20809C22.7931 1.19564 20.616 0.9067 20.0133 2.20246C20.0129 2.20324 20.0127 2.20392 20.0127 2.20478C20.0127 2.21101 20.0041 2.21298 20.0012 2.20746C19.3579 0.984066 17.2566 1.25236 17.1683 1.26422C17.1655 1.2646 17.1641 1.26468 17.1612 1.26484C13.6659 1.45405 8.67513 1.29651 3.34042 1.06339C3.2837 1.06092 3.23613 1.10607 3.23586 1.16284L3.11277 27.8468C3.11251 27.9022 3.15729 27.9472 3.21266 27.9473L17.2021 27.9622C18.9527 27.8799 19.6491 28.7778 19.8887 29.2417C19.9225 29.309 20.0014 29.2753 20.0014 29.1968C20.0014 29.1968 20.0031 29.1947 20.0041 29.1956C20.0295 29.2189 20.0671 29.2141 20.0888 29.1743C20.3313 28.7104 21.0276 27.8163 22.7782 27.9098L36.7674 27.9618C36.8229 27.962 36.8679 27.917 36.8678 27.8616L36.8145 2.26172V1.17037Z" fill="#FAEAC6"/>
<path d="M20.238 1.95679H20.1619C20.1055 2.03161 20.0548 2.11392 20.0125 2.20371C20.0125 2.21119 20.0125 2.21867 20.0125 2.2299C19.9646 2.13263 19.9054 2.04658 19.8377 1.96427L19.7334 28.9873C19.7982 29.0809 19.849 29.1669 19.8884 29.2417C19.9223 29.3091 20.0012 29.2754 20.0012 29.1968C20.0012 29.1968 20.0012 29.1968 20.0012 29.1931C20.0266 29.2193 20.0661 29.2155 20.0886 29.1744C20.1027 29.1482 20.1168 29.122 20.1337 29.0921L20.238 1.95679Z" fill="#DFCEA6"/>
<path d="M14.4704 12.2686L14.7967 11.908L14.4704 12.2686C14.7741 12.5434 15.1761 12.6903 15.5861 12.6903C15.9961 12.6903 16.3982 12.5434 16.7018 12.2686C17.0071 11.9924 17.1896 11.6064 17.1896 11.1919C17.1896 9.8586 18.3983 8.69673 19.9999 8.69673C21.6015 8.69673 22.8103 9.8586 22.8103 11.1919C22.8103 11.9018 22.6239 12.268 22.4348 12.5081C22.2067 12.7954 21.8787 13.0272 21.3199 13.376L21.1944 13.4524L21.1944 13.4524L21.191 13.4545C21.1824 13.4598 21.1739 13.4651 21.1652 13.4705C20.6817 13.7698 19.9992 14.1924 19.4615 14.7902L19.4614 14.7903C18.7972 15.5293 18.3965 16.4661 18.3965 17.6814L18.3965 18.1806C18.3965 18.5951 18.5789 18.9811 18.8842 19.2574C19.1878 19.5321 19.5899 19.679 19.9999 19.679C20.4099 19.679 20.812 19.5321 21.1156 19.2574C21.4209 18.9811 21.6034 18.5951 21.6034 18.1806L21.6034 17.6814C21.6034 17.1517 21.7531 16.9024 21.9167 16.7187C22.143 16.469 22.4557 16.2695 23.0379 15.9076L23.0379 15.9077L23.041 15.9057L23.0978 15.8699C23.6422 15.5321 24.4146 15.0474 25.0118 14.2911C25.6542 13.484 26.0171 12.4752 26.0171 11.1919C26.0171 9.71828 25.3697 8.31648 24.2366 7.2913C23.1052 6.26761 21.5805 5.69995 19.9999 5.69995C18.4193 5.69995 16.8946 6.26761 15.7632 7.2913C14.6301 8.31648 13.9827 9.71828 13.9827 11.1919C13.9827 11.6064 14.1651 11.9924 14.4704 12.2686ZM19.9999 23.9222C20.4831 23.9222 20.9553 23.749 21.3107 23.4274C21.6677 23.1044 21.8792 22.6548 21.8792 22.1742C21.8792 21.6935 21.6677 21.244 21.3107 20.921C20.9553 20.5994 20.4831 20.4262 19.9999 20.4262C19.5167 20.4262 19.0445 20.5994 18.6891 20.921C18.3321 21.244 18.1206 21.6935 18.1206 22.1742C18.1206 22.6548 18.3321 23.1044 18.6891 23.4274C19.0445 23.749 19.5167 23.9222 19.9999 23.9222Z" fill="#F0691D" stroke="white"/>
</svg>
