<svg width="64" height="59" viewBox="0 0 64 59" fill="none" xmlns="http://www.w3.org/2000/svg">
<path d="M5.94141 1C5.94141 0.447716 6.38912 0 6.94141 0H60.9997C62.6566 0 63.9997 1.34315 63.9997 3V55.0583C63.9997 56.7152 62.6566 58.0583 60.9997 58.0583H6.94141C6.38912 58.0583 5.94141 57.6106 5.94141 57.0583V1Z" fill="#FFF5C0"/>
<path d="M12.2656 11.3655C12.2656 9.70863 13.6088 8.36548 15.2656 8.36548H54.6776C56.3344 8.36548 57.6776 9.70862 57.6776 11.3655V46.7536C57.6776 48.4104 56.3344 49.7536 54.6776 49.7536H15.2656C13.6088 49.7536 12.2656 48.4104 12.2656 46.7536V11.3655Z" fill="#F0691D"/>
<path d="M30.6602 20.5327C30.6602 18.2669 32.6002 16.4131 34.9714 16.4131C37.3426 16.4131 39.2827 18.2669 39.2827 20.5327C39.2827 22.7985 34.9714 28.772 34.9714 28.772C34.9714 28.772 30.6602 22.7985 30.6602 20.5327ZM39.2827 37.0113C39.2827 39.2771 37.3426 41.131 34.9714 41.131C32.6002 41.131 30.6602 39.2771 30.6602 37.0113C30.6602 34.7455 34.9714 28.772 34.9714 28.772C34.9714 28.772 39.2827 34.7455 39.2827 37.0113Z" fill="white"/>
<path d="M25.2902 28.4136C23.2029 27.1228 22.5767 24.5411 23.8291 22.6048C25.0815 20.4534 27.5863 19.808 29.4649 21.0988C31.5522 22.3897 34.6832 29.059 34.6832 29.059C34.6832 29.059 27.3776 29.7045 25.2902 28.4136ZM44.0762 29.7045C46.1635 30.9953 46.7897 33.577 45.5373 35.5133C44.2849 37.6647 41.7801 38.3101 39.9015 37.0193C37.8142 35.9435 34.6832 29.059 34.6832 29.059C34.6832 29.059 41.9889 28.4136 44.0762 29.7045Z" fill="white"/>
<path d="M44.0762 28.4136C46.1635 27.1228 46.7897 24.5411 45.5373 22.6048C44.2849 20.4534 41.7801 19.808 39.9015 21.0988C37.8142 22.1745 34.6832 29.059 34.6832 29.059C34.6832 29.059 41.9889 29.7045 44.0762 28.4136ZM25.2902 29.7045C23.2029 30.9953 22.5767 33.577 23.8291 35.5133C25.0815 37.6647 27.5863 38.3101 29.4649 37.0193C31.5522 35.7284 34.6832 29.059 34.6832 29.059C34.6832 29.059 27.3776 28.4136 25.2902 29.7045Z" fill="white"/>
<path d="M34.9714 33.0828C37.3525 33.0828 39.2827 31.2813 39.2827 29.059C39.2827 26.8367 37.3525 25.0352 34.9714 25.0352C32.5904 25.0352 30.6602 26.8367 30.6602 29.059C30.6602 31.2813 32.5904 33.0828 34.9714 33.0828Z" fill="#FFC107"/>
<path d="M1 13.5898H8.41279" stroke="#563A10" stroke-width="2" stroke-linecap="round"/>
<path d="M1 6.17749H4.7064H8.41279" stroke="#563A10" stroke-width="2" stroke-linecap="round"/>
<path d="M1 21.0029H8.41279" stroke="#563A10" stroke-width="2" stroke-linecap="round"/>
<path d="M1 28.4158H8.41279" stroke="#563A10" stroke-width="2" stroke-linecap="round"/>
<path d="M1 35.8284H8.41279" stroke="#563A10" stroke-width="2" stroke-linecap="round"/>
<path d="M1 43.2412H8.41279" stroke="#563A10" stroke-width="2" stroke-linecap="round"/>
<path d="M1 50.6543H8.41279" stroke="#563A10" stroke-width="2" stroke-linecap="round"/>
</svg>
