<svg width="60" height="60" viewBox="0 0 60 60" fill="none" xmlns="http://www.w3.org/2000/svg">
<mask id="mask0_772_5592" style="mask-type:alpha" maskUnits="userSpaceOnUse" x="0" y="0" width="60" height="60">
<circle cx="30" cy="30" r="29" fill="#E8D000" stroke="#F27D3C" stroke-width="2"/>
</mask>
<g mask="url(#mask0_772_5592)">
<circle cx="30" cy="30" r="29" fill="#2A86BA" stroke="#2A86BA" stroke-width="2"/>
<path fill-rule="evenodd" clip-rule="evenodd" d="M41.2607 21.2576C41.2607 21.2576 42.3139 9.21191 29.9958 9.21191C17.6993 9.21191 18.6734 21.2161 18.6768 21.258L18.6768 21.2581C16.8748 21.0656 15.512 21.8061 15.512 24.454C15.512 27.0875 16.6222 27.641 18.0345 27.7905C18.1107 27.797 18.1819 27.8309 18.235 27.886C18.2881 27.9411 18.3194 28.0136 18.3232 28.0901C18.7409 32.2041 21.552 35.2284 24.3199 37.2461C24.7091 37.5336 25.1177 37.7897 25.5417 38.0132V41.349H23.3142H21.9645C19.778 41.3486 17.6495 42.0542 15.895 43.3612C14.1405 44.6681 12.8534 46.5068 12.2248 48.6044L11.333 51.5731C16.6421 55.7942 23.2211 58.0916 29.9996 58.0916C36.7781 58.0916 43.3572 55.7942 48.6663 51.5731L47.7749 48.6044C47.1462 46.5068 45.8591 44.6681 44.1045 43.3611C42.3499 42.0541 40.2214 41.3486 38.0348 41.349H36.6874H34.4581H34.4569V38.0136C34.8812 37.7899 35.29 37.5337 35.6794 37.2461C38.4468 35.2279 41.258 32.2041 41.6761 28.0896C41.6799 28.0132 41.7111 27.9408 41.7641 27.8857C41.8171 27.8306 41.8883 27.7967 41.9643 27.7901C43.3771 27.6405 44.4872 27.0871 44.4872 24.4536C44.4872 21.8056 43.0627 21.0629 41.2607 21.2576Z" fill="white"/>
</g>
</svg>
