<svg width="91" height="77" viewBox="0 0 91 77" fill="none" xmlns="http://www.w3.org/2000/svg">
<path d="M74.1514 1.39941H16.4144C8.12185 1.39941 1.39941 8.12185 1.39941 16.4144V60.6757C1.39941 68.9683 8.12185 75.6907 16.4144 75.6907H74.1514C82.444 75.6907 89.1664 68.9683 89.1664 60.6757V16.4144C89.1664 8.12185 82.444 1.39941 74.1514 1.39941Z" fill="#CE6C11" stroke="#382710" stroke-width="2" stroke-miterlimit="10"/>
<path d="M75.0943 2.57471H15.86C8.75761 2.57471 3 8.33232 3 15.4347V50.0405C3 57.1429 8.75761 62.9005 15.86 62.9005H75.0943C82.1967 62.9005 87.9543 57.1429 87.9543 50.0405V15.4347C87.9543 8.33232 82.1967 2.57471 75.0943 2.57471Z" fill="#FF7A00"/>
<path d="M74.9348 2.57471H15.7145C8.6198 2.57471 2.85449 8.34002 2.85449 15.4487V16.904C2.85449 9.79534 8.6198 4.03003 15.7145 4.03003H74.9348C82.0435 4.03003 87.7948 9.79534 87.7948 16.89V15.4347C87.7948 8.32602 82.0295 2.57471 74.9348 2.57471Z" fill="#FFA149"/>
<path fill-rule="evenodd" clip-rule="evenodd" d="M45.9238 11.6667H47.9998C48.2651 11.6667 48.5194 11.7721 48.7069 11.9596C48.8945 12.1472 48.9998 12.4015 48.9998 12.6667C48.9998 12.932 48.8945 13.1863 48.7069 13.3739C48.5194 13.5614 48.2651 13.6667 47.9998 13.6667H45.9998C42.8292 13.6667 40.5518 13.6694 38.8185 13.9014C37.1132 14.1307 36.0852 14.5681 35.3252 15.3267C34.5665 16.0867 34.1305 17.1134 33.9012 18.8187C33.6692 20.5521 33.6665 22.8294 33.6665 26.0001C33.6665 29.1707 33.6692 31.4481 33.9012 33.1814C34.1305 34.8867 34.5678 35.9147 35.3265 36.6747C36.0865 37.4334 37.1132 37.8694 38.8185 38.0987C40.5518 38.3307 42.8292 38.3334 45.9998 38.3334C49.1705 38.3334 51.4478 38.3307 53.1812 38.0987C54.8865 37.8694 55.9145 37.4321 56.6745 36.6734C57.4332 35.9134 57.8692 34.8867 58.0985 33.1814C58.3305 31.4481 58.3332 29.1707 58.3332 26.0001V24.0001C58.3332 23.7349 58.4385 23.4805 58.6261 23.293C58.8136 23.1054 59.068 23.0001 59.3332 23.0001C59.5984 23.0001 59.8527 23.1054 60.0403 23.293C60.2278 23.4805 60.3332 23.7349 60.3332 24.0001V26.0761C60.3332 29.1547 60.3332 31.5667 60.0798 33.4494C59.8212 35.3747 59.2798 36.8947 58.0878 38.0881C56.8945 39.2814 55.3745 39.8214 53.4478 40.0801C51.5665 40.3334 49.1545 40.3334 46.0758 40.3334H45.9238C42.8452 40.3334 40.4332 40.3334 38.5505 40.0801C36.6252 39.8214 35.1052 39.2801 33.9118 38.0881C32.7185 36.8947 32.1785 35.3747 31.9198 33.4481C31.6665 31.5667 31.6665 29.1547 31.6665 26.0761V25.9241C31.6665 22.8454 31.6665 20.4334 31.9198 18.5507C32.1785 16.6254 32.7198 15.1054 33.9118 13.9121C35.1052 12.7187 36.6252 12.1787 38.5518 11.9201C40.4332 11.6667 42.8452 11.6667 45.9238 11.6667ZM52.3598 13.0347C53.2397 12.1791 54.4211 11.7041 55.6484 11.7127C56.8758 11.7212 58.0504 12.2124 58.9184 13.0802C59.7863 13.948 60.2778 15.1226 60.2866 16.3499C60.2954 17.5772 59.8207 18.7587 58.9652 19.6387L50.1012 28.5041C49.6065 28.9974 49.2958 29.3094 48.9505 29.5787C48.5427 29.8969 48.1014 30.1696 47.6345 30.3921C47.2385 30.5801 46.8212 30.7187 46.1585 30.9401L42.2852 32.2307C41.9347 32.3475 41.5587 32.3643 41.1993 32.2794C40.8398 32.1945 40.5111 32.0112 40.2499 31.75C39.9887 31.4888 39.8054 31.1601 39.7205 30.8006C39.6356 30.4412 39.6525 30.0652 39.7692 29.7147L41.0598 25.8414C41.2812 25.1774 41.4198 24.7614 41.6078 24.3654C41.8305 23.8987 42.1038 23.4587 42.4212 23.0494C42.6905 22.7027 43.0012 22.3934 43.4958 21.8987L52.3598 13.0347ZM57.5505 14.4481C57.0497 13.9475 56.3706 13.6663 55.6625 13.6663C54.9544 13.6663 54.2753 13.9475 53.7745 14.4481L53.2732 14.9507C53.3025 15.0787 53.3452 15.2307 53.4038 15.4014C53.5945 15.9521 53.9572 16.6774 54.6398 17.3601C55.3036 18.0264 56.1366 18.499 57.0492 18.7267L57.5505 18.2254C58.0511 17.7246 58.3323 17.0455 58.3323 16.3374C58.3323 15.6293 58.0511 14.9489 57.5505 14.4481ZM55.4732 20.3027C54.6336 19.9408 53.8706 19.4223 53.2252 18.7747C52.5776 18.1293 52.059 17.3664 51.6972 16.5267L44.9558 23.2667C44.4012 23.8227 44.1825 24.0427 43.9985 24.2801C43.7696 24.5734 43.5733 24.8909 43.4132 25.2267C43.2838 25.4974 43.1852 25.7907 42.9358 26.5361L42.3612 28.2627L43.7372 29.6401L45.4638 29.0641C46.2105 28.8147 46.5025 28.7161 46.7745 28.5867C47.1092 28.4267 47.4278 28.2307 47.7212 28.0014C47.9572 27.8161 48.1772 27.5987 48.7332 27.0441L55.4732 20.3027Z" fill="white" stroke="white"/>
</svg>
