<svg width="296" height="82" viewBox="0 0 296 82" fill="none" xmlns="http://www.w3.org/2000/svg">
<path fill-rule="evenodd" clip-rule="evenodd" d="M295 29C295 20.7157 288.284 14 280 14H16C7.71573 14 1 20.7157 1 29V65.6668C1 73.951 7.71572 80.6668 16 80.6668H280C288.284 80.6668 295 73.951 295 65.6668V29Z" fill="#E4BB0B"/>
<path fill-rule="evenodd" clip-rule="evenodd" d="M16 1H280C288.284 1 295 7.71573 295 16V20C295 11.7157 288.284 4.99995 280 4.99995H16C7.71573 4.99995 1 11.7157 1 20V16C1 7.71573 7.71573 1 16 1Z" fill="#FFEC9D"/>
<path fill-rule="evenodd" clip-rule="evenodd" d="M295 20C295 11.7157 288.284 5 280 5H16C7.71573 5 1 11.7157 1 20V56.6666C1 64.9509 7.71572 71.6666 16 71.6666H280C288.284 71.6666 295 64.9509 295 56.6666V20Z" fill="#FCCC00"/>
<path d="M280 1H16C7.71573 1 1 7.71573 1 16V66C1 74.2843 7.71572 81 16 81H280C288.284 81 295 74.2843 295 66V16C295 7.71573 288.284 1 280 1Z" stroke="#382710" stroke-width="2"/>
</svg>
