<svg width="91" height="78" viewBox="0 0 91 78" fill="none" xmlns="http://www.w3.org/2000/svg">
<g clip-path="url(#clip0_772_7305)">
<path d="M74.1514 1.39929H16.4144C8.12185 1.39929 1.39941 8.12173 1.39941 16.4143V60.6756C1.39941 68.9682 8.12185 75.6906 16.4144 75.6906H74.1514C82.444 75.6906 89.1664 68.9682 89.1664 60.6756V16.4143C89.1664 8.12173 82.444 1.39929 74.1514 1.39929Z" fill="#E4BB0B" stroke="#382710" stroke-width="2" stroke-miterlimit="10"/>
<path d="M74.9488 2.57483H15.7145C8.61211 2.57483 2.85449 8.33244 2.85449 15.4348V50.0407C2.85449 57.143 8.61211 62.9007 15.7145 62.9007H74.9488C82.0512 62.9007 87.8088 57.143 87.8088 50.0407V15.4348C87.8088 8.33244 82.0512 2.57483 74.9488 2.57483Z" fill="#FCCC00"/>
<path d="M74.9348 2.57483H15.7145C8.6198 2.57483 2.85449 8.34014 2.85449 15.4488V16.9041C2.85449 9.79546 8.6198 4.03015 15.7145 4.03015H74.9348C82.0435 4.03015 87.7948 9.79546 87.7948 16.8901V15.4348C87.7948 8.32614 82.0295 2.57483 74.9348 2.57483Z" fill="#FFEC9D"/>
</g>
<rect x="46" y="12" width="13" height="13" rx="2" fill="#FF9900"/>
<rect x="46" y="27" width="13" height="13" rx="2" fill="#FF9900"/>
<rect x="31" y="12" width="13" height="13" rx="2" fill="#FF9900"/>
<rect x="31" y="27" width="13" height="13" rx="2" fill="#FF9900"/>
<defs>
<clipPath id="clip0_772_7305">
<rect width="90.5657" height="77.09" fill="white"/>
</clipPath>
</defs>
</svg>
