<svg width="91" height="77" viewBox="0 0 91 77" fill="none" xmlns="http://www.w3.org/2000/svg">
<g clip-path="url(#clip0_2173_3580)">
<path d="M74.5071 1.39771H16.4932C8.16092 1.39771 1.40625 8.1123 1.40625 16.3952V60.6048C1.40625 68.8877 8.16092 75.6023 16.4932 75.6023H74.5071C82.8395 75.6023 89.5941 68.8877 89.5941 60.6048V16.3952C89.5941 8.1123 82.8395 1.39771 74.5071 1.39771Z" fill="#E4BB0B" stroke="#382710" stroke-width="2" stroke-miterlimit="10"/>
<path d="M75.4547 2.57178H15.9363C8.79987 2.57178 3.01465 8.32267 3.01465 15.4168V49.9822C3.01465 57.0763 8.79987 62.8272 15.9363 62.8272H75.4547C82.5911 62.8272 88.3764 57.0763 88.3764 49.9822V15.4168C88.3764 8.32267 82.5911 2.57178 75.4547 2.57178Z" fill="#FCCC00"/>
<path d="M75.2941 2.57178H15.7898C8.66112 2.57178 2.86816 8.33035 2.86816 15.4307V16.8844C2.86816 9.78398 8.66112 4.0254 15.7898 4.0254H75.2941C82.4369 4.0254 88.2158 9.78398 88.2158 16.8704V15.4168C88.2158 8.31638 82.4229 2.57178 75.2941 2.57178Z" fill="#FFEC9D"/>
</g>
<defs>
<clipPath id="clip0_2173_3580">
<rect width="91" height="77" fill="white"/>
</clipPath>
</defs>
</svg>
