<svg width="35" height="35" viewBox="0 0 35 35" fill="none" xmlns="http://www.w3.org/2000/svg">
<path fill-rule="evenodd" clip-rule="evenodd" d="M17.5001 20.593L25.2336 28.328C25.644 28.7383 26.2006 28.9689 26.7809 28.9689C27.3613 28.9689 27.9178 28.7383 28.3282 28.328C28.7386 27.9176 28.9691 27.361 28.9691 26.7807C28.9691 26.2003 28.7386 25.6438 28.3282 25.2334L20.5917 17.4999L28.3267 9.76631C28.5298 9.56312 28.6909 9.32191 28.8008 9.05647C28.9107 8.79102 28.9672 8.50653 28.9671 8.21924C28.9671 7.93194 28.9104 7.64748 28.8004 7.38208C28.6904 7.11669 28.5292 6.87556 28.326 6.67246C28.1228 6.46936 27.8816 6.30828 27.6162 6.1984C27.3507 6.08852 27.0662 6.032 26.7789 6.03207C26.4916 6.03213 26.2072 6.08879 25.9418 6.19879C25.6764 6.30879 25.4353 6.47 25.2322 6.67319L17.5001 14.4067L9.76653 6.67319C9.56484 6.46417 9.32354 6.29741 9.05671 6.18264C8.78988 6.06787 8.50287 6.00739 8.21241 6.00473C7.92196 6.00207 7.63389 6.05728 7.365 6.16715C7.09612 6.27701 6.8518 6.43932 6.64632 6.64461C6.44083 6.84991 6.27829 7.09407 6.16817 7.36285C6.05805 7.63163 6.00257 7.91965 6.00496 8.21011C6.00734 8.50056 6.06755 8.78763 6.18207 9.05457C6.29658 9.32151 6.46312 9.56297 6.67195 9.76486L14.4084 17.4999L6.67341 25.2334C6.26304 25.6438 6.0325 26.2003 6.0325 26.7807C6.0325 27.361 6.26304 27.9176 6.67341 28.328C7.08377 28.7383 7.64035 28.9689 8.2207 28.9689C8.80105 28.9689 9.35762 28.7383 9.76799 28.328L17.5001 20.5915V20.593Z" fill="white"/>
</svg>
