<svg width="91" height="78" viewBox="0 0 91 78" fill="none" xmlns="http://www.w3.org/2000/svg">
<g clip-path="url(#clip0_675_3807)">
<path d="M74.1514 1.39941H16.4144C8.12185 1.39941 1.39941 8.12185 1.39941 16.4144V60.6757C1.39941 68.9683 8.12185 75.6907 16.4144 75.6907H74.1514C82.444 75.6907 89.1664 68.9683 89.1664 60.6757V16.4144C89.1664 8.12185 82.444 1.39941 74.1514 1.39941Z" fill="#E4BB0B" stroke="#382710" stroke-width="2" stroke-miterlimit="10"/>
<path d="M74.9488 2.57471H15.7145C8.61211 2.57471 2.85449 8.33232 2.85449 15.4347V50.0405C2.85449 57.1429 8.61211 62.9005 15.7145 62.9005H74.9488C82.0512 62.9005 87.8088 57.1429 87.8088 50.0405V15.4347C87.8088 8.33232 82.0512 2.57471 74.9488 2.57471Z" fill="#FCCC00"/>
<path d="M74.9348 2.57471H15.7145C8.6198 2.57471 2.85449 8.34002 2.85449 15.4487V16.904C2.85449 9.79534 8.6198 4.03003 15.7145 4.03003H74.9348C82.0435 4.03003 87.7948 9.79534 87.7948 16.89V15.4347C87.7948 8.32602 82.0295 2.57471 74.9348 2.57471Z" fill="#FFEC9D"/>
</g>
<path fill-rule="evenodd" clip-rule="evenodd" d="M45.5001 29.593L53.2336 37.328C53.644 37.7383 54.2006 37.9689 54.7809 37.9689C55.3613 37.9689 55.9178 37.7383 56.3282 37.328C56.7386 36.9176 56.9691 36.361 56.9691 35.7807C56.9691 35.2003 56.7386 34.6438 56.3282 34.2334L48.5917 26.4999L56.3267 18.7663C56.5298 18.5631 56.6909 18.3219 56.8008 18.0565C56.9107 17.791 56.9672 17.5065 56.9671 17.2192C56.9671 16.9319 56.9104 16.6475 56.8004 16.3821C56.6904 16.1167 56.5292 15.8756 56.326 15.6725C56.1228 15.4694 55.8816 15.3083 55.6162 15.1984C55.3507 15.0885 55.0662 15.032 54.7789 15.0321C54.4916 15.0321 54.2072 15.0888 53.9418 15.1988C53.6764 15.3088 53.4353 15.47 53.2322 15.6732L45.5001 23.4067L37.7665 15.6732C37.5648 15.4642 37.3235 15.2974 37.0567 15.1826C36.7899 15.0679 36.5029 15.0074 36.2124 15.0047C35.922 15.0021 35.6339 15.0573 35.365 15.1671C35.0961 15.277 34.8518 15.4393 34.6463 15.6446C34.4408 15.8499 34.2783 16.0941 34.1682 16.3629C34.0581 16.6316 34.0026 16.9197 34.005 17.2101C34.0073 17.5006 34.0676 17.7876 34.1821 18.0546C34.2966 18.3215 34.4631 18.563 34.6719 18.7649L42.4084 26.4999L34.6734 34.2334C34.263 34.6438 34.0325 35.2003 34.0325 35.7807C34.0325 36.361 34.263 36.9176 34.6734 37.328C35.0838 37.7383 35.6404 37.9689 36.2207 37.9689C36.801 37.9689 37.3576 37.7383 37.768 37.328L45.5001 29.5915V29.593Z" fill="white"/>
<defs>
<clipPath id="clip0_675_3807">
<rect width="90.5657" height="77.09" fill="white"/>
</clipPath>
</defs>
</svg>
