<svg width="91" height="78" viewBox="0 0 91 78" fill="none" xmlns="http://www.w3.org/2000/svg">
<g clip-path="url(#clip0_2173_7721)">
<path d="M74.1514 1.39941H16.4144C8.12185 1.39941 1.39941 8.12185 1.39941 16.4144V60.6757C1.39941 68.9683 8.12185 75.6907 16.4144 75.6907H74.1514C82.444 75.6907 89.1664 68.9683 89.1664 60.6757V16.4144C89.1664 8.12185 82.444 1.39941 74.1514 1.39941Z" fill="#007ABE" stroke="#382710" stroke-width="2" stroke-miterlimit="10"/>
<path d="M75.0943 2.57471H15.86C8.75761 2.57471 3 8.33232 3 15.4347V50.0405C3 57.1429 8.75761 62.9005 15.86 62.9005H75.0943C82.1967 62.9005 87.9543 57.1429 87.9543 50.0405V15.4347C87.9543 8.33232 82.1967 2.57471 75.0943 2.57471Z" fill="#00A3FF"/>
<path d="M74.9348 2.57471H15.7145C8.6198 2.57471 2.85449 8.34002 2.85449 15.4487V16.904C2.85449 9.79534 8.6198 4.03003 15.7145 4.03003H74.9348C82.0435 4.03003 87.7948 9.79534 87.7948 16.89V15.4347C87.7948 8.32602 82.0295 2.57471 74.9348 2.57471Z" fill="#91D7FF"/>
</g>
<path d="M49.1808 12.9517C48.0763 12.9517 47.1808 13.8471 47.1808 14.9517V23.4933C47.1808 24.5979 48.0763 25.4933 49.1808 25.4933H57.7225C58.8271 25.4933 59.7225 24.5979 59.7225 23.4933V14.9517C59.7225 13.8471 58.8271 12.9517 57.7225 12.9517H49.1808ZM57.035 20.8058C57.035 21.9104 56.1396 22.8058 55.035 22.8058H51.8683C50.7638 22.8058 49.8683 21.9104 49.8683 20.8058V17.6392C49.8683 16.5346 50.7638 15.6392 51.8683 15.6392H55.035C56.1396 15.6392 57.035 16.5346 57.035 17.6392V20.8058ZM31.9517 23.4933C31.9517 24.5979 32.8471 25.4933 33.9517 25.4933H42.4933C43.5979 25.4933 44.4933 24.5979 44.4933 23.4933V14.9517C44.4933 13.8471 43.5979 12.9517 42.4933 12.9517H33.9517C32.8471 12.9517 31.9517 13.8471 31.9517 14.9517V23.4933ZM34.6392 17.6392C34.6392 16.5346 35.5346 15.6392 36.6392 15.6392H39.8058C40.9104 15.6392 41.8058 16.5346 41.8058 17.6392V20.8058C41.8058 21.9104 40.9104 22.8058 39.8058 22.8058H36.6392C35.5346 22.8058 34.6392 21.9104 34.6392 20.8058V17.6392ZM31.9517 38.7225C31.9517 39.8271 32.8471 40.7225 33.9517 40.7225H42.4933C43.5979 40.7225 44.4933 39.8271 44.4933 38.7225V30.1808C44.4933 29.0763 43.5979 28.1808 42.4933 28.1808H33.9517C32.8471 28.1808 31.9517 29.0763 31.9517 30.1808V38.7225ZM34.6392 32.8683C34.6392 31.7638 35.5346 30.8683 36.6392 30.8683H39.8058C40.9104 30.8683 41.8058 31.7638 41.8058 32.8683V36.035C41.8058 37.1396 40.9104 38.035 39.8058 38.035H36.6392C35.5346 38.035 34.6392 37.1396 34.6392 36.035V32.8683ZM47.1808 29.7485C47.1808 28.8827 47.8827 28.1808 48.7485 28.1808C49.6144 28.1808 50.3162 28.8827 50.3162 29.7485V31.3162H48.7485C47.8827 31.3162 47.1808 30.6144 47.1808 29.7485ZM53.4517 29.7485C53.4517 28.8827 54.1535 28.1808 55.0194 28.1808C55.8852 28.1808 56.5871 28.8827 56.5871 29.7485V31.3162H53.4517V29.7485ZM50.3162 31.3162H53.4517V34.4517H50.3162V31.3162ZM56.5871 31.3162H58.1548C59.0206 31.3162 59.7225 32.0181 59.7225 32.884C59.7225 33.7498 59.0206 34.4517 58.1548 34.4517H56.5871V31.3162ZM47.1808 36.0194C47.1808 35.1535 47.8827 34.4517 48.7485 34.4517H50.3162V37.5871H48.7485C47.8827 37.5871 47.1808 36.8852 47.1808 36.0194ZM53.4517 34.4517H56.5871V37.5871H53.4517V34.4517ZM50.3162 37.5871H53.4517V39.1548C53.4517 40.0206 52.7498 40.7225 51.884 40.7225C51.0181 40.7225 50.3162 40.0206 50.3162 39.1548V37.5871ZM56.5871 37.5871H58.1548C59.0206 37.5871 59.7225 38.289 59.7225 39.1548C59.7225 40.0206 59.0206 40.7225 58.1548 40.7225C57.289 40.7225 56.5871 40.0206 56.5871 39.1548V37.5871Z" fill="white"/>
<defs>
<clipPath id="clip0_2173_7721">
<rect width="90.5657" height="77.09" fill="white"/>
</clipPath>
</defs>
</svg>
