<svg width="30" height="30" viewBox="0 0 30 30" fill="none" xmlns="http://www.w3.org/2000/svg">
<path fill-rule="evenodd" clip-rule="evenodd" d="M17.809 0.228C17.2248 -6.70552e-08 16.4827 0 15.0001 0C13.5175 0 12.7754 -6.70552e-08 12.1912 0.228C11.4135 0.531316 10.7945 1.11565 10.4702 1.8525C10.3218 2.187 10.265 2.5785 10.2413 3.147C10.2307 3.55891 10.1098 3.96145 9.88988 4.31658C9.66996 4.67171 9.35833 4.96767 8.98446 5.1765C8.60354 5.37766 8.17534 5.48422 7.73954 5.48632C7.30373 5.48841 6.87442 5.38598 6.49137 5.1885C5.9577 4.9215 5.57087 4.7745 5.18878 4.7265C4.35283 4.62223 3.50736 4.8357 2.83621 5.3205C2.33412 5.6835 1.96308 6.2895 1.22257 7.5C0.480485 8.7105 0.111021 9.315 0.0273395 9.9075C-0.0831838 10.6965 0.144179 11.4945 0.658901 12.126C0.892579 12.414 1.22257 12.6555 1.73256 12.9585C2.48569 13.404 2.96884 14.163 2.96884 15C2.96884 15.837 2.48569 16.596 1.73414 17.04C1.22257 17.3445 0.892579 17.586 0.657322 17.874C0.403249 18.1859 0.21676 18.5426 0.108628 18.9234C0.000497183 19.3041 -0.0271314 19.7015 0.0273395 20.0925C0.111021 20.6835 0.480485 21.2895 1.22257 22.5C1.96465 23.7105 2.33412 24.315 2.83621 24.6795C3.50567 25.164 4.35196 25.377 5.18878 25.2735C5.57087 25.2255 5.9577 25.0785 6.49137 24.8115C6.87461 24.6138 7.30422 24.5112 7.74033 24.5133C8.17644 24.5154 8.60493 24.6221 8.98604 24.8235C9.75339 25.2435 10.2081 26.016 10.2413 26.853C10.265 27.423 10.3218 27.813 10.4702 28.1475C10.7923 28.8825 11.4112 29.4675 12.1912 29.772C12.7754 30 13.5175 30 15.0001 30C16.4827 30 17.2248 30 17.809 29.772C18.5866 29.4687 19.2057 28.8844 19.53 28.1475C19.6784 27.813 19.7352 27.423 19.7589 26.853C19.7905 26.016 20.2468 25.242 21.0157 24.8235C21.3966 24.6223 21.8248 24.5158 22.2606 24.5137C22.6964 24.5116 23.1258 24.614 23.5088 24.8115C24.0425 25.0785 24.4293 25.2255 24.8114 25.2735C25.6482 25.3785 26.4945 25.164 27.164 24.6795C27.6661 24.3165 28.0371 23.7105 28.7776 22.5C29.5197 21.2895 29.8892 20.685 29.9728 20.0925C30.0271 19.7014 29.9992 19.304 29.8908 18.9232C29.7824 18.5424 29.5956 18.1858 29.3413 17.874C29.1076 17.586 28.7776 17.3445 28.2676 17.0415C27.5145 16.596 27.0313 15.837 27.0313 15C27.0313 14.163 27.5145 13.404 28.266 12.96C28.7776 12.6555 29.1076 12.414 29.3429 12.126C29.5969 11.8141 29.7834 11.4574 29.8915 11.0766C29.9997 10.6959 30.0273 10.2985 29.9728 9.9075C29.8892 9.3165 29.5197 8.7105 28.7776 7.5C28.0355 6.2895 27.6661 5.685 27.164 5.3205C26.4928 4.8357 25.6473 4.62223 24.8114 4.7265C24.4293 4.7745 24.0425 4.9215 23.5088 5.1885C23.1256 5.38624 22.696 5.48883 22.2598 5.48673C21.8237 5.48463 21.3952 5.37792 21.0141 5.1765C20.6406 4.96749 20.3292 4.67144 20.1096 4.31633C19.89 3.96121 19.7693 3.55876 19.7589 3.147C19.7352 2.577 19.6784 2.187 19.53 1.8525C19.3695 1.4876 19.1349 1.15632 18.8396 0.877587C18.5443 0.598849 18.1941 0.378117 17.809 0.228ZM15.0001 19.5C17.6369 19.5 19.7731 17.4855 19.7731 15C19.7731 12.5145 17.6353 10.5 15.0001 10.5C12.3633 10.5 10.2271 12.5145 10.2271 15C10.2271 17.4855 12.3649 19.5 15.0001 19.5Z" fill="#868686"/>
<ellipse cx="14.9999" cy="15" rx="5.86956" ry="5.625" fill="#525252"/>
<ellipse cx="15.0001" cy="15" rx="2.6087" ry="2.5" fill="#9DBABC"/>
</svg>
