<svg width="47" height="58" viewBox="0 0 47 58" fill="none" xmlns="http://www.w3.org/2000/svg">
<mask id="mask0_772_5741" style="mask-type:alpha" maskUnits="userSpaceOnUse" x="0" y="0" width="47" height="58">
<path fill-rule="evenodd" clip-rule="evenodd" d="M0 8.7L23.2 0L46.4 8.7V26.361C46.4 41.006 36.511 54.665 23.2 58C9.889 54.665 0 41.006 0 26.361V8.7Z" fill="#30C1FF"/>
</mask>
<g mask="url(#mask0_772_5741)">
<path fill-rule="evenodd" clip-rule="evenodd" d="M-0.151367 8.94658L23.0486 0.246582L46.2486 8.94658V26.6076C46.2486 41.2526 36.3596 54.9116 23.0486 58.2466C9.73763 54.9116 -0.151367 41.2526 -0.151367 26.6076V8.94658Z" fill="#30C1FF"/>
<path d="M23.21 59.139V-0.726807L47.5456 8.52075V18.255C47.5456 21.1753 47.0589 32.3697 46.5722 34.8033C46.0855 37.2369 41.7051 46.4844 36.8379 51.3515C32.9442 55.2453 26.1302 58.1655 23.21 59.139Z" fill="#00B3FF"/>
</g>
<circle cx="22.7229" cy="28.9629" r="11.6546" fill="#2486B1" stroke="white" stroke-width="2"/>
<path d="M20.804 33.7458L20.8041 33.7459L24.3258 33.3594L24.6436 33.7454C24.6436 33.7454 24.6437 33.7454 24.6437 33.7453C24.7851 33.6289 24.9347 33.509 25.0897 33.3849C26.5541 32.2118 28.4966 30.6558 28.4966 27.9719C28.4966 26.4566 27.6765 25.1251 26.4657 24.5464C25.3316 24.0044 23.9504 24.1639 22.7239 25.2646C21.4975 24.1637 20.1163 24.0039 18.9822 24.5459C17.7713 25.1245 16.9512 26.456 16.9512 27.9714C16.9512 30.6538 18.8915 32.2093 20.355 33.3826C20.511 33.5077 20.6617 33.6284 20.804 33.7458Z" fill="#FF3E3E" stroke="white"/>
</svg>
