<svg width="35" height="31" viewBox="0 0 35 31" fill="none" xmlns="http://www.w3.org/2000/svg">
<path d="M3.64185 1C3.64185 0.447716 4.08956 0 4.64185 0H31.0533C32.7102 0 34.0533 1.34315 34.0533 3V27.5C34.0533 29.1569 32.7102 30.5 31.0533 30.5H4.64184C4.08956 30.5 3.64185 30.0523 3.64185 29.5V1Z" fill="#FFF5C0"/>
<path d="M6.9541 7.39453C6.9541 5.73768 8.29725 4.39453 9.9541 4.39453H27.7413C29.3982 4.39453 30.7413 5.73768 30.7413 7.39453V23.1371C30.7413 24.794 29.3982 26.1371 27.7413 26.1371H9.9541C8.29724 26.1371 6.9541 24.794 6.9541 23.1371V7.39453Z" fill="#F0691D"/>
<path d="M16.5891 10.7865C16.5891 9.5962 17.6053 8.62231 18.8474 8.62231C20.0894 8.62231 21.1057 9.5962 21.1057 10.7865C21.1057 11.9768 18.8474 15.1149 18.8474 15.1149C18.8474 15.1149 16.5891 11.9768 16.5891 10.7865ZM21.1057 19.4433C21.1057 20.6336 20.0894 21.6075 18.8474 21.6075C17.6053 21.6075 16.5891 20.6336 16.5891 19.4433C16.5891 18.253 18.8474 15.1149 18.8474 15.1149C18.8474 15.1149 21.1057 18.253 21.1057 19.4433Z" fill="white"/>
<path d="M13.7768 14.9267C12.6834 14.2486 12.3554 12.8924 13.0114 11.8752C13.6674 10.745 14.9795 10.4059 15.9635 11.084C17.0568 11.7621 18.6969 15.2658 18.6969 15.2658C18.6969 15.2658 14.8701 15.6049 13.7768 14.9267ZM23.617 15.6048C24.7104 16.283 25.0384 17.6392 24.3824 18.6564C23.7263 19.7866 22.4143 20.1257 21.4303 19.4476C20.3369 18.8825 18.6969 15.2658 18.6969 15.2658C18.6969 15.2658 22.5237 14.9267 23.617 15.6048Z" fill="white"/>
<path d="M23.617 14.9267C24.7104 14.2486 25.0384 12.8924 24.3824 11.8752C23.7263 10.745 22.4143 10.4059 21.4303 11.084C20.3369 11.6491 18.6969 15.2658 18.6969 15.2658C18.6969 15.2658 22.5237 15.6049 23.617 14.9267ZM13.7768 15.6048C12.6834 16.283 12.3554 17.6392 13.0114 18.6564C13.6674 19.7866 14.9795 20.1257 15.9635 19.4476C17.0568 18.7694 18.6969 15.2658 18.6969 15.2658C18.6969 15.2658 14.8701 14.9267 13.7768 15.6048Z" fill="white"/>
<path d="M18.8474 17.3796C20.0946 17.3796 21.1057 16.4332 21.1057 15.2657C21.1057 14.0983 20.0946 13.1519 18.8474 13.1519C17.6002 13.1519 16.5891 14.0983 16.5891 15.2657C16.5891 16.4332 17.6002 17.3796 18.8474 17.3796Z" fill="#FFC107"/>
<path d="M1.05322 7.1394H4.93611" stroke="#563A10" stroke-width="2" stroke-linecap="round"/>
<path d="M1.05322 3.24536H2.99467H4.93611" stroke="#563A10" stroke-width="2" stroke-linecap="round"/>
<path d="M1.05322 11.0334H4.93611" stroke="#563A10" stroke-width="2" stroke-linecap="round"/>
<path d="M1.05322 14.9277H4.93611" stroke="#563A10" stroke-width="2" stroke-linecap="round"/>
<path d="M1.05322 18.8218H4.93611" stroke="#563A10" stroke-width="2" stroke-linecap="round"/>
<path d="M1.05322 22.7161H4.93611" stroke="#563A10" stroke-width="2" stroke-linecap="round"/>
<path d="M1.05322 26.6104H4.93611" stroke="#563A10" stroke-width="2" stroke-linecap="round"/>
</svg>
