<svg width="282" height="82" viewBox="0 0 282 82" fill="none" xmlns="http://www.w3.org/2000/svg">
<path fill-rule="evenodd" clip-rule="evenodd" d="M281 28C281 19.7157 274.284 13 266 13H16C7.71573 13 1 19.7157 1 28V64.6664C1 72.9507 7.71572 79.6664 16 79.6664H266C274.284 79.6664 281 72.9507 281 64.6664V28Z" fill="#E4BB0B"/>
<path fill-rule="evenodd" clip-rule="evenodd" d="M16 1H266C274.284 1 281 7.71573 281 16V20C281 11.7158 274.284 5.00005 266 5.00005H16C7.71573 5.00005 1 11.7158 1 20.0001V16C1 7.71573 7.71573 1 16 1Z" fill="#FFEC9D"/>
<path fill-rule="evenodd" clip-rule="evenodd" d="M281 20C281 11.7157 274.284 5 266 5H16C7.71573 5 1 11.7157 1 20V56.6664C1 64.9507 7.71572 71.6664 16 71.6664H266C274.284 71.6664 281 64.9507 281 56.6664V20Z" fill="#FCCC00"/>
<path d="M266 1H16C7.71573 1 1 7.71573 1 16V66C1 74.2843 7.71572 81 16 81H266C274.284 81 281 74.2843 281 66V16C281 7.71573 274.284 1 266 1Z" stroke="#382710" stroke-width="2"/>
</svg>
