<svg width="70" height="70" viewBox="0 0 70 70" fill="none" xmlns="http://www.w3.org/2000/svg">
<rect width="70" height="70" rx="35" fill="#FCCC00"/>
<path d="M43.25 35.9554H35.9583V43.247C35.9583 43.6338 35.8047 44.0047 35.5312 44.2782C35.2577 44.5517 34.8868 44.7054 34.5 44.7054C34.1132 44.7054 33.7423 44.5517 33.4688 44.2782C33.1953 44.0047 33.0417 43.6338 33.0417 43.247V35.9554H25.75C25.3632 35.9554 24.9923 35.8017 24.7188 35.5282C24.4453 35.2547 24.2917 34.8838 24.2917 34.497C24.2917 34.1103 24.4453 33.7393 24.7188 33.4658C24.9923 33.1923 25.3632 33.0387 25.75 33.0387H33.0417V25.747C33.0417 25.3603 33.1953 24.9893 33.4688 24.7158C33.7423 24.4423 34.1132 24.2887 34.5 24.2887C34.8868 24.2887 35.2577 24.4423 35.5312 24.7158C35.8047 24.9893 35.9583 25.3603 35.9583 25.747V33.0387H43.25C43.6368 33.0387 44.0077 33.1923 44.2812 33.4658C44.5547 33.7393 44.7083 34.1103 44.7083 34.497C44.7083 34.8838 44.5547 35.2547 44.2812 35.5282C44.0077 35.8017 43.6368 35.9554 43.25 35.9554Z" fill="white"/>
<rect width="70" height="70" rx="35" fill="#C39F05"/>
<path d="M43.25 35.9554H35.9583V43.247C35.9583 43.6338 35.8047 44.0047 35.5312 44.2782C35.2577 44.5517 34.8868 44.7054 34.5 44.7054C34.1132 44.7054 33.7423 44.5517 33.4688 44.2782C33.1953 44.0047 33.0417 43.6338 33.0417 43.247V35.9554H25.75C25.3632 35.9554 24.9923 35.8017 24.7188 35.5282C24.4453 35.2547 24.2917 34.8838 24.2917 34.497C24.2917 34.1103 24.4453 33.7393 24.7188 33.4658C24.9923 33.1923 25.3632 33.0387 25.75 33.0387H33.0417V25.747C33.0417 25.3603 33.1953 24.9893 33.4688 24.7158C33.7423 24.4423 34.1132 24.2887 34.5 24.2887C34.8868 24.2887 35.2577 24.4423 35.5312 24.7158C35.8047 24.9893 35.9583 25.3603 35.9583 25.747V33.0387H43.25C43.6368 33.0387 44.0077 33.1923 44.2812 33.4658C44.5547 33.7393 44.7083 34.1103 44.7083 34.497C44.7083 34.8838 44.5547 35.2547 44.2812 35.5282C44.0077 35.8017 43.6368 35.9554 43.25 35.9554Z" fill="white"/>
<path fill-rule="evenodd" clip-rule="evenodd" d="M69.9438 33C68.9073 51.3994 53.6587 66 35 66C16.3413 66 1.09272 51.3994 0.0561829 33C1.09272 14.6006 16.3413 0 35 0C53.6587 0 68.9073 14.6006 69.9438 33Z" fill="#FCCC00"/>
</svg>
