<svg width="147" height="62" viewBox="0 0 147 62" fill="none" xmlns="http://www.w3.org/2000/svg">
<path fill-rule="evenodd" clip-rule="evenodd" d="M146 25C146 16.7157 139.284 10 131 10H16C7.71573 10 1 16.7157 1 25V45C1 53.2843 7.71573 60 16 60H131C139.284 60 146 53.2843 146 45V25Z" fill="#E4BB0B"/>
<path fill-rule="evenodd" clip-rule="evenodd" d="M16 1H131C139.284 1 146 7.71573 146 16V19C146 10.7157 139.284 4 131 4H16C7.71573 4 1 10.7157 1 19V16C1 7.71573 7.71573 1 16 1Z" fill="#FFEC9D"/>
<path fill-rule="evenodd" clip-rule="evenodd" d="M146 19C146 10.7157 139.284 4 131 4H16C7.71573 4 1 10.7157 1 19V39C1 47.2843 7.71573 54 16 54H131C139.284 54 146 47.2843 146 39V19Z" fill="#FCCC00"/>
<path d="M131 1H16C7.71573 1 1 7.71573 1 16V46C1 54.2843 7.71573 61 16 61H131C139.284 61 146 54.2843 146 46V16C146 7.71573 139.284 1 131 1Z" stroke="#382710" stroke-width="2"/>
</svg>
