<svg width="43" height="43" viewBox="0 0 43 43" fill="none" xmlns="http://www.w3.org/2000/svg">
<g clip-path="url(#clip0_1075_9307)">
<path fill-rule="evenodd" clip-rule="evenodd" d="M21.5 21.3L31.0012 30.803C31.5054 31.3072 32.1892 31.5904 32.9021 31.5904C33.6151 31.5904 34.2989 31.3072 34.8031 30.803C35.3073 30.2988 35.5905 29.6151 35.5905 28.9021C35.5905 28.1891 35.3073 27.5053 34.8031 27.0011L25.2983 17.4999L34.8013 7.99868C35.0508 7.74905 35.2487 7.45271 35.3837 7.12658C35.5187 6.80046 35.5882 6.45095 35.5881 6.09799C35.588 5.74503 35.5184 5.39555 35.3833 5.06949C35.2481 4.74343 35.0501 4.44718 34.8004 4.19766C34.5508 3.94814 34.2544 3.75024 33.9283 3.61524C33.6022 3.48025 33.2527 3.41081 32.8997 3.41089C32.5468 3.41098 32.1973 3.48058 31.8712 3.61573C31.5452 3.75087 31.2489 3.94892 30.9994 4.19856L21.5 13.6998L11.9988 4.19856C11.751 3.94176 11.4545 3.73688 11.1267 3.59588C10.7989 3.45488 10.4463 3.38058 10.0894 3.37731C9.73259 3.37404 9.37867 3.44187 9.04832 3.57685C8.71798 3.71182 8.41782 3.91124 8.16537 4.16345C7.91291 4.41567 7.71322 4.71564 7.57793 5.04586C7.44264 5.37608 7.37448 5.72993 7.37741 6.08677C7.38034 6.44362 7.45431 6.79631 7.595 7.12426C7.7357 7.45221 7.94029 7.74886 8.19686 7.99689L17.7016 17.4999L8.19865 27.0011C7.69448 27.5053 7.41125 28.1891 7.41125 28.9021C7.41125 29.6151 7.69448 30.2988 8.19865 30.803C8.70282 31.3072 9.38661 31.5904 10.0996 31.5904C10.8126 31.5904 11.4964 31.3072 12.0006 30.803L21.5 21.2982V21.3Z" fill="white"/>
</g>
<defs>
<clipPath id="clip0_1075_9307">
<rect width="43" height="43" fill="white"/>
</clipPath>
</defs>
</svg>
