<svg width="90" height="84" viewBox="0 0 90 84" fill="none" xmlns="http://www.w3.org/2000/svg">
<g clip-path="url(#clip0_1075_6458)">
<path d="M73.6882 1.52466H16.3118C8.07107 1.52466 1.39062 8.84967 1.39062 17.8855V66.1142C1.39062 75.1501 8.07107 82.4751 16.3118 82.4751H73.6882C81.929 82.4751 88.6094 75.1501 88.6094 66.1142V17.8855C88.6094 8.84967 81.929 1.52466 73.6882 1.52466Z" fill="#E4BB0B" stroke="#382710" stroke-width="2" stroke-miterlimit="10"/>
<path d="M74.4808 2.80566H15.6165C8.55844 2.80566 2.83679 9.07937 2.83679 16.8184V54.5261C2.83679 62.2651 8.55844 68.5388 15.6165 68.5388H74.4808C81.5388 68.5388 87.2605 62.2651 87.2605 54.5261V16.8184C87.2605 9.07937 81.5388 2.80566 74.4808 2.80566Z" fill="#FCCC00"/>
<path d="M74.4669 2.80566H15.6165C8.56609 2.80566 2.83679 9.08775 2.83679 16.8336V18.4194C2.83679 10.6735 8.56609 4.39143 15.6165 4.39143H74.4669C81.5312 4.39143 87.2466 10.6735 87.2466 18.4041V16.8184C87.2466 9.0725 81.5173 2.80566 74.4669 2.80566Z" fill="#FFEC9D"/>
</g>
<defs>
<clipPath id="clip0_1075_6458">
<rect width="90" height="84" fill="white"/>
</clipPath>
</defs>
</svg>
