<svg width="12" height="12" viewBox="0 0 12 12" fill="none" xmlns="http://www.w3.org/2000/svg">
<path d="M9.78953 3.81327C9.72324 3.7457 9.64451 3.69209 9.55784 3.65551C9.47116 3.61893 9.37825 3.6001 9.28441 3.6001C9.19058 3.6001 9.09766 3.61893 9.01099 3.65551C8.92431 3.69209 8.84558 3.7457 8.7793 3.81327L5.99938 6.64157L3.21945 3.81327C3.08549 3.67698 2.9038 3.60041 2.71434 3.60041C2.52489 3.60041 2.34319 3.67698 2.20923 3.81327C2.07526 3.94957 2 4.13443 2 4.32718C2 4.51993 2.07526 4.70478 2.20923 4.84108L5.49784 8.18692C5.56413 8.2545 5.64286 8.30811 5.72953 8.34469C5.81621 8.38127 5.90912 8.4001 6.00296 8.4001C6.09679 8.4001 6.18971 8.38127 6.27638 8.34469C6.36306 8.30811 6.44179 8.2545 6.50807 8.18692L9.79669 4.84108C10.069 4.56408 10.069 4.09756 9.78953 3.81327Z" fill="#747474"/>
</svg>
