<svg width="50" height="50" viewBox="0 0 50 50" fill="none" xmlns="http://www.w3.org/2000/svg">
<path d="M31.25 8.25C31.25 7.14543 32.1454 6.25 33.25 6.25H41.75C42.8546 6.25 43.75 7.14543 43.75 8.25V14.6667C43.75 15.7712 42.8546 16.6667 41.75 16.6667H41.5833C40.4788 16.6667 39.5833 15.7712 39.5833 14.6667V12.4167C39.5833 11.3121 38.6879 10.4167 37.5833 10.4167H33.25C32.1454 10.4167 31.25 9.52124 31.25 8.41667V8.25ZM16.75 6.25C17.8546 6.25 18.75 7.14543 18.75 8.25V8.41667C18.75 9.52124 17.8546 10.4167 16.75 10.4167H12.4167C11.3121 10.4167 10.4167 11.3121 10.4167 12.4167V14.6667C10.4167 15.7712 9.52124 16.6667 8.41667 16.6667H8.25C7.14543 16.6667 6.25 15.7712 6.25 14.6667V8.25C6.25 7.14543 7.14543 6.25 8.25 6.25H16.75ZM33.25 43.75C32.1454 43.75 31.25 42.8546 31.25 41.75V41.5833C31.25 40.4788 32.1454 39.5833 33.25 39.5833H37.5833C38.6879 39.5833 39.5833 38.6879 39.5833 37.5833V35.3333C39.5833 34.2288 40.4788 33.3333 41.5833 33.3333H41.75C42.8546 33.3333 43.75 34.2288 43.75 35.3333V41.75C43.75 42.8546 42.8546 43.75 41.75 43.75H33.25ZM18.75 41.75C18.75 42.8546 17.8546 43.75 16.75 43.75H8.25C7.14543 43.75 6.25 42.8546 6.25 41.75V35.3333C6.25 34.2288 7.14543 33.3333 8.25 33.3333H8.41667C9.52124 33.3333 10.4167 34.2288 10.4167 35.3333V37.5833C10.4167 38.6879 11.3121 39.5833 12.4167 39.5833H16.75C17.8546 39.5833 18.75 40.4788 18.75 41.5833V41.75ZM6.25 24.9167C6.25 23.8121 7.14543 22.9167 8.25 22.9167H41.75C42.8546 22.9167 43.75 23.8121 43.75 24.9167V25.0833C43.75 26.1879 42.8546 27.0833 41.75 27.0833H8.25C7.14543 27.0833 6.25 26.1879 6.25 25.0833V24.9167Z" fill="white"/>
</svg>
