<svg width="55" height="55" viewBox="0 0 55 55" fill="none" xmlns="http://www.w3.org/2000/svg">
<path d="M28.3709 8.8916V24.9333H44.4126V8.8916H28.3709ZM40.9751 21.4958H31.8084V12.3291H40.9751V21.4958ZM8.89172 24.9333H24.9334V8.8916H8.89172V24.9333ZM12.3292 12.3291H21.4959V21.4958H12.3292V12.3291ZM8.89172 44.4124H24.9334V28.3708H8.89172V44.4124ZM12.3292 31.8083H21.4959V40.9749H12.3292V31.8083ZM28.3709 28.3708H32.3813V32.3812H28.3709V28.3708ZM36.3917 28.3708H40.4021V32.3812H36.3917V28.3708ZM32.3813 32.3812H36.3917V36.3916H32.3813V32.3812ZM40.4021 32.3812H44.4126V36.3916H40.4021V32.3812ZM28.3709 36.3916H32.3813V40.402H28.3709V36.3916ZM36.3917 36.3916H40.4021V40.402H36.3917V36.3916ZM32.3813 40.402H36.3917V44.4124H32.3813V40.402ZM40.4021 40.402H44.4126V44.4124H40.4021V40.402Z" fill="#2F1A09"/>
</svg>
