<svg width="250" height="407" viewBox="0 0 250 407" fill="none" xmlns="http://www.w3.org/2000/svg">
<g clip-path="url(#clip0_1075_11064)">
<path d="M241.471 122.492C250.147 81.0377 228.804 41.5151 193.801 34.216C158.797 26.9169 123.387 54.6054 114.71 96.06C106.034 137.515 127.376 177.037 162.38 184.336C197.384 191.635 232.794 163.947 241.471 122.492Z" fill="#FF9900"/>
<path d="M129.9 90.6728C129.453 92.789 127.385 94.1428 125.265 93.6959C123.145 93.249 121.789 91.1854 122.236 89.0693C122.684 86.9531 124.752 85.5993 126.872 86.0462C128.992 86.4931 130.348 88.5567 129.9 90.6728Z" fill="white"/>
<path d="M167.838 44.5513C167.838 44.5513 145.321 51.6226 130.612 79.6451" stroke="white" stroke-width="4.9" stroke-miterlimit="10" stroke-linecap="round"/>
<path d="M163.717 189.33C163.717 189.33 155.052 244.849 138.117 267.903" stroke="white" stroke-width="1.32" stroke-miterlimit="10"/>
<path d="M166.627 177.303L173.883 200.449L150.18 195.152L166.627 177.303Z" fill="#FF9900"/>
<path d="M130.155 103.875C141.954 145.291 123.163 186.917 88.2012 196.841C53.2394 206.764 15.3279 181.239 3.52907 139.823C-8.26972 98.4073 10.5083 56.7811 45.4832 46.8575C80.4582 36.934 118.37 62.4592 130.169 103.875H130.155Z" fill="#FF6588"/>
<path d="M14.6826 127.81C15.2884 129.926 14.0506 132.121 11.9436 132.712C9.83671 133.304 7.62444 132.095 7.03186 129.979C6.43929 127.862 7.65077 125.667 9.77087 125.076C11.891 124.484 14.0901 125.694 14.6826 127.81Z" fill="white"/>
<path d="M27.0213 68.4001C27.0213 68.4001 10.0869 85.3819 10.1 117.531" stroke="white" stroke-width="4.98" stroke-miterlimit="10" stroke-linecap="round"/>
<path d="M86.6078 203.978C86.6078 203.978 90.4793 252.583 131.959 269.604" stroke="white" stroke-width="1.32" stroke-miterlimit="10"/>
<path d="M81.3932 186.076L75.5728 210.037L99.2757 203.084L81.3932 186.076Z" fill="#FF6588"/>
<path d="M124.681 170.911C164.497 168.376 194.332 128.089 191.318 80.9282C188.304 33.7674 153.583 -2.40882 113.766 0.12639C73.949 2.6616 44.1145 42.9482 47.1286 90.109C50.1426 137.27 84.8639 173.446 124.681 170.911Z" fill="#27FFF8"/>
<path d="M61.891 79.8087C62.049 82.214 60.2186 84.2775 57.8088 84.4353C55.399 84.593 53.3316 82.766 53.1736 80.3607C53.0156 77.9554 54.8459 75.8918 57.2557 75.7341C59.6655 75.5764 61.733 77.4034 61.891 79.8087Z" fill="white"/>
<path d="M88.9518 18.9531C88.9518 18.9531 66.829 33.2404 59.3758 67.7295" stroke="white" stroke-width="5.47" stroke-miterlimit="10" stroke-linecap="round"/>
<path d="M126.06 175.981C126.06 175.981 121.978 238.546 134.804 267.764" stroke="white" stroke-width="1.44" stroke-miterlimit="10"/>
<path d="M125.823 162.18L112.273 185.629L139.386 185.616L125.823 162.18Z" fill="#27FFF8"/>
</g>
<circle cx="138.5" cy="337" r="62.5" fill="#DAF8FF" fill-opacity="0.85" stroke="url(#paint0_linear_1075_11064)" stroke-width="15"/>
<path d="M137.371 303.505C132.006 303.505 126.861 305.637 123.067 309.43C119.274 313.224 117.143 318.369 117.143 323.734C117.143 324.807 117.569 325.836 118.327 326.595C119.086 327.353 120.115 327.78 121.188 327.78C122.261 327.78 123.29 327.353 124.049 326.595C124.808 325.836 125.234 324.807 125.234 323.734C125.234 317.026 130.663 311.597 137.371 311.597C144.079 311.597 149.508 317.026 149.508 323.734C149.508 327.035 148.703 328.969 147.736 330.324C146.676 331.801 145.208 332.905 143.173 334.309L142.703 334.625C140.895 335.863 138.564 337.453 136.76 339.67C134.628 342.291 133.325 345.605 133.325 350.031V352.054C133.325 353.127 133.752 354.156 134.51 354.914C135.269 355.673 136.298 356.099 137.371 356.099C138.444 356.099 139.473 355.673 140.232 354.914C140.99 354.156 141.417 353.127 141.417 352.054V350.031C141.417 347.377 142.137 345.888 143.035 344.776C144.075 343.505 145.475 342.542 147.542 341.122L147.756 340.973C149.763 339.597 152.34 337.793 154.31 335.034C156.386 332.153 157.6 328.52 157.6 323.734C157.6 318.369 155.468 313.224 151.675 309.43C147.881 305.637 142.736 303.505 137.371 303.505ZM137.371 373.294C138.712 373.294 139.999 372.761 140.947 371.812C141.895 370.864 142.428 369.578 142.428 368.237C142.428 366.895 141.895 365.609 140.947 364.661C139.999 363.712 138.712 363.179 137.371 363.179C136.03 363.179 134.743 363.712 133.795 364.661C132.847 365.609 132.314 366.895 132.314 368.237C132.314 369.578 132.847 370.864 133.795 371.812C134.743 372.761 136.03 373.294 137.371 373.294Z" fill="#0F90C7"/>
<defs>
<linearGradient id="paint0_linear_1075_11064" x1="108.5" y1="274.5" x2="163.5" y2="399.5" gradientUnits="userSpaceOnUse">
<stop stop-color="#B0FAFF"/>
<stop offset="1" stop-color="#17D5E1"/>
</linearGradient>
<clipPath id="clip0_1075_11064">
<rect width="250" height="281" fill="white"/>
</clipPath>
</defs>
</svg>
