<svg width="152" height="72" viewBox="0 0 152 72" fill="none" xmlns="http://www.w3.org/2000/svg">
<path fill-rule="evenodd" clip-rule="evenodd" d="M151 26.5C151 18.2157 144.284 11.5 136 11.5H16C7.71573 11.5 1 18.2157 1 26.5V54.8333C1 63.1176 7.71573 69.8333 16 69.8333H136C144.284 69.8333 151 63.1175 151 54.8333V26.5Z" fill="#E4BB0B"/>
<path fill-rule="evenodd" clip-rule="evenodd" d="M16 1H136C144.284 1 151 7.71573 151 16V19.5C151 11.2157 144.284 4.5 136 4.5H16C7.71573 4.5 1 11.2157 1 19.5V16C1 7.71573 7.71573 1 16 1Z" fill="#FFEC9D"/>
<path fill-rule="evenodd" clip-rule="evenodd" d="M151 19.5C151 11.2157 144.284 4.5 136 4.5H16C7.71573 4.5 1 11.2157 1 19.5V47.8333C1 56.1176 7.71573 62.8333 16 62.8333H136C144.284 62.8333 151 56.1175 151 47.8333V19.5Z" fill="#FCCC00"/>
<path d="M136 1H16C7.71573 1 1 7.71573 1 16V56C1 64.2843 7.71573 71 16 71H136C144.284 71 151 64.2843 151 56V16C151 7.71573 144.284 1 136 1Z" stroke="#382710" stroke-width="2"/>
</svg>
