<svg width="102" height="165" viewBox="0 0 102 165" fill="none" xmlns="http://www.w3.org/2000/svg">
<g clip-path="url(#clip0_1354_11137)">
<path d="M97.8931 49.659C101.411 32.8531 92.7582 16.8305 78.5674 13.8714C64.3766 10.9123 50.0212 22.1374 46.5038 38.9433C42.9863 55.7492 51.6387 71.7719 65.8294 74.7309C80.0202 77.69 94.3756 66.4649 97.8931 49.659Z" fill="#FF9900"/>
<path d="M52.6621 36.7591C52.4806 37.617 51.6425 38.1658 50.783 37.9847C49.9235 37.8035 49.3736 36.9669 49.5551 36.109C49.7367 35.2511 50.5748 34.7023 51.4343 34.8834C52.2938 35.0646 52.8437 35.9012 52.6621 36.7591Z" fill="white"/>
<path d="M68.0421 18.0613C68.0421 18.0613 58.9133 20.928 52.9502 32.2885" stroke="white" stroke-width="4.9" stroke-miterlimit="10" stroke-linecap="round"/>
<path d="M66.3712 76.7554C66.3712 76.7554 62.8585 99.2631 55.9932 108.609" stroke="white" stroke-width="1.32" stroke-miterlimit="10"/>
<path d="M67.5506 71.8796L70.4921 81.2632L60.8828 79.1158L67.5506 71.8796Z" fill="#FF9900"/>
<path d="M52.7653 42.1114C57.5486 58.9016 49.9305 75.7771 35.7568 79.8002C21.5831 83.8232 6.21359 73.4752 1.4303 56.685C-3.353 39.8947 4.2597 23.0192 18.4387 18.9962C32.6178 14.9731 47.9873 25.3212 52.7706 42.1114H52.7653Z" fill="#FF6588"/>
<path d="M5.95162 51.8146C6.1972 52.6725 5.69538 53.5624 4.84122 53.8022C3.98706 54.042 3.09019 53.5517 2.84996 52.6938C2.60973 51.8359 3.10087 50.9461 3.96037 50.7063C4.81986 50.4665 5.71139 50.9567 5.95162 51.8146Z" fill="white"/>
<path d="M10.9537 27.7297C10.9537 27.7297 4.08841 34.6142 4.09375 47.6478" stroke="white" stroke-width="4.98" stroke-miterlimit="10" stroke-linecap="round"/>
<path d="M35.1104 82.6936C35.1104 82.6936 36.6799 102.399 53.4961 109.299" stroke="white" stroke-width="1.32" stroke-miterlimit="10"/>
<path d="M32.9963 75.436L30.6367 85.15L40.246 82.3312L32.9963 75.436Z" fill="#FF6588"/>
<path d="M50.5461 69.288C66.688 68.2602 78.7831 51.9278 77.5612 32.8086C76.3393 13.6894 62.2631 -0.976655 46.1211 0.0511337C29.9792 1.07892 17.8841 17.4113 19.106 36.5306C20.3279 55.6498 34.4041 70.3158 50.5461 69.288Z" fill="#27FFF8"/>
<path d="M25.0907 32.3549C25.1547 33.33 24.4127 34.1666 23.4357 34.2306C22.4588 34.2945 21.6207 33.5538 21.5566 32.5787C21.4925 31.6036 22.2346 30.767 23.2115 30.7031C24.1885 30.6391 25.0266 31.3798 25.0907 32.3549Z" fill="white"/>
<path d="M36.0616 7.68359C36.0616 7.68359 27.0929 13.4757 24.0713 27.4578" stroke="white" stroke-width="5.47" stroke-miterlimit="10" stroke-linecap="round"/>
<path d="M51.1049 71.3438C51.1049 71.3438 49.4499 96.7076 54.6496 108.553" stroke="white" stroke-width="1.44" stroke-miterlimit="10"/>
<path d="M51.0089 65.7488L45.5156 75.2549L56.5076 75.2496L51.0089 65.7488Z" fill="#27FFF8"/>
</g>
<circle cx="56.1499" cy="136.622" r="25.8784" fill="#DAF8FF" fill-opacity="0.85" stroke="#17D5E1" stroke-width="5"/>
<path d="M55.692 123.043C53.517 123.043 51.4311 123.907 49.8932 125.445C48.3552 126.983 47.4912 129.068 47.4912 131.243C47.4912 131.678 47.664 132.096 47.9716 132.403C48.2792 132.711 48.6964 132.884 49.1314 132.884C49.5664 132.884 49.9835 132.711 50.2911 132.403C50.5987 132.096 50.7715 131.678 50.7715 131.243C50.7715 128.524 52.9726 126.323 55.692 126.323C58.4113 126.323 60.6124 128.524 60.6124 131.243C60.6124 132.582 60.286 133.366 59.894 133.915C59.4643 134.514 58.8689 134.962 58.0439 135.531L57.8537 135.659C57.1205 136.161 56.1758 136.805 55.4443 137.704C54.5799 138.767 54.0518 140.11 54.0518 141.904V142.725C54.0518 143.159 54.2246 143.577 54.5322 143.884C54.8398 144.192 55.257 144.365 55.692 144.365C56.1269 144.365 56.5441 144.192 56.8517 143.884C57.1593 143.577 57.3321 143.159 57.3321 142.725V141.904C57.3321 140.828 57.624 140.225 57.9882 139.774C58.4097 139.259 58.9772 138.869 59.8153 138.293L59.9022 138.232C60.7157 137.674 61.7605 136.943 62.5593 135.824C63.4006 134.657 63.8927 133.184 63.8927 131.243C63.8927 129.068 63.0287 126.983 61.4907 125.445C59.9528 123.907 57.8669 123.043 55.692 123.043ZM55.692 151.335C56.2357 151.335 56.7572 151.119 57.1417 150.735C57.5261 150.35 57.7421 149.829 57.7421 149.285C57.7421 148.741 57.5261 148.22 57.1417 147.835C56.7572 147.451 56.2357 147.235 55.692 147.235C55.1482 147.235 54.6267 147.451 54.2423 147.835C53.8578 148.22 53.6418 148.741 53.6418 149.285C53.6418 149.829 53.8578 150.35 54.2423 150.735C54.6267 151.119 55.1482 151.335 55.692 151.335Z" fill="#0F90C7"/>
<defs>
<clipPath id="clip0_1354_11137">
<rect width="101.351" height="113.919" fill="white"/>
</clipPath>
</defs>
</svg>
