<svg width="334" height="206" viewBox="0 0 334 206" fill="none" xmlns="http://www.w3.org/2000/svg">
<path d="M319.704 0H14.2963C6.40659 0 0 8.26879 0 18.4518V22.2671C0 12.0842 6.40659 3.81536 14.2963 3.81536H319.704C327.604 3.81536 334 12.0842 334 22.2671V18.4518C334 8.25577 327.593 0 319.704 0Z" fill="#CCA78B"/>
<path d="M319.704 3.81543H14.2963C6.40066 3.81543 0 12.0766 0 22.2672V187.548C0 197.739 6.40066 206 14.2963 206H319.704C327.599 206 334 197.739 334 187.548V22.2672C334 12.0766 327.599 3.81543 319.704 3.81543Z" fill="#B5865B"/>
<path d="M0.554688 45.0029C23.7193 44.9118 56.2163 43.7528 79.0278 45.0029V45.1331C56.408 46.253 23.3056 45.4717 0.554688 45.0029Z" fill="#A57853"/>
<path d="M0.554688 169.718C23.7193 169.627 56.2163 168.468 79.0278 169.718V169.848C56.408 170.968 23.3056 170.187 0.554688 169.718Z" fill="#A57853"/>
<path d="M11.1787 89.6936C34.3433 89.6024 66.8403 88.4435 89.6518 89.6936V89.8238C67.032 90.9437 33.9297 90.1624 11.1787 89.6936Z" fill="#A57853"/>
<path d="M188.848 91.2952C212.013 91.204 244.51 90.0451 267.321 91.2952V91.4254C244.701 92.5452 211.599 91.7639 188.848 91.2952Z" fill="#A57853"/>
<path d="M222.667 126.068C245.832 125.977 278.329 124.818 301.14 126.068V126.199C278.52 127.318 245.418 126.537 222.667 126.068Z" fill="#A57853"/>
<path d="M222.758 67.7127C253.903 67.6216 298.083 66.4757 328.774 67.7127V67.8429C298.325 68.9498 253.449 68.1815 222.758 67.7127Z" fill="#A57853"/>
<path d="M249.978 37.2161C273.142 37.1249 305.639 35.966 328.451 37.2161V37.3463C305.831 38.4661 272.728 37.6848 249.978 37.2161Z" fill="#A57853"/>
<path d="M249.978 161.931C273.142 161.84 305.639 160.681 328.451 161.931V162.061C305.831 163.181 272.728 162.4 249.978 161.931Z" fill="#A57853"/>
<path d="M78.917 22.0328C117.568 21.9416 172.403 20.7957 210.489 22.0328V22.163C172.675 23.2698 117.074 22.5016 78.917 22.0328Z" fill="#A57853"/>
<path d="M78.917 146.748C117.568 146.657 172.403 145.511 210.489 146.748V146.878C172.675 147.985 117.074 147.217 78.917 146.748Z" fill="#A57853"/>
<path d="M63.8135 120.552C90.3478 120.461 127.577 119.302 153.718 120.552V120.682C127.789 121.802 89.9241 121.021 63.8135 120.552Z" fill="#A57853"/>
<path d="M319.704 200.484H14.2963C6.3965 200.484 0 192.215 0 182.032V187.384C0 197.58 6.40659 205.836 14.2963 205.836H319.704C327.604 205.836 334 197.567 334 187.384V182.032C334 192.228 327.593 200.484 319.704 200.484Z" fill="#996E4A"/>
</svg>
