<svg width="62" height="62" viewBox="0 0 62 62" fill="none" xmlns="http://www.w3.org/2000/svg">
<circle cx="31" cy="31" r="28" fill="#AFF1FF" fill-opacity="0.5" stroke="url(#paint0_linear_391_1714)" stroke-width="6"/>
<path d="M30.5001 16.1667C28.1242 16.1667 25.8456 17.1106 24.1656 18.7906C22.4856 20.4706 21.5417 22.7492 21.5417 25.1251C21.5417 25.6003 21.7305 26.056 22.0665 26.392C22.4025 26.728 22.8582 26.9167 23.3334 26.9167C23.8086 26.9167 24.2643 26.728 24.6003 26.392C24.9363 26.056 25.1251 25.6003 25.1251 25.1251C25.1251 22.1545 27.5295 19.7501 30.5001 19.7501C33.4707 19.7501 35.8751 22.1545 35.8751 25.1251C35.8751 26.5871 35.5185 27.4435 35.0903 28.0437C34.6209 28.6977 33.9705 29.1868 33.0693 29.8085L32.8615 29.9482C32.0606 30.4965 31.0286 31.2006 30.2295 32.1825C29.2853 33.3435 28.7084 34.8108 28.7084 36.7709V37.6667C28.7084 38.1419 28.8972 38.5976 29.2332 38.9336C29.5692 39.2697 30.0249 39.4584 30.5001 39.4584C30.9753 39.4584 31.431 39.2697 31.767 38.9336C32.103 38.5976 32.2917 38.1419 32.2917 37.6667V36.7709C32.2917 35.5956 32.6107 34.9362 33.0084 34.4435C33.4689 33.881 34.0888 33.4545 35.0043 32.8257L35.0993 32.7594C35.988 32.1502 37.1292 31.3511 38.0018 30.1292C38.9209 28.8535 39.4584 27.2446 39.4584 25.1251C39.4584 22.7492 38.5146 20.4706 36.8346 18.7906C35.1546 17.1106 32.876 16.1667 30.5001 16.1667ZM30.5001 47.073C31.0941 47.073 31.6637 46.837 32.0837 46.417C32.5037 45.997 32.7397 45.4274 32.7397 44.8334C32.7397 44.2394 32.5037 43.6698 32.0837 43.2498C31.6637 42.8298 31.0941 42.5938 30.5001 42.5938C29.9061 42.5938 29.3365 42.8298 28.9165 43.2498C28.4965 43.6698 28.2605 44.2394 28.2605 44.8334C28.2605 45.4274 28.4965 45.997 28.9165 46.417C29.3365 46.837 29.9061 47.073 30.5001 47.073Z" fill="#1A7196"/>
<defs>
<linearGradient id="paint0_linear_391_1714" x1="17.7143" y1="3.32143" x2="42.0714" y2="58.6786" gradientUnits="userSpaceOnUse">
<stop stop-color="#78F2FA"/>
<stop offset="1" stop-color="#16A1AA"/>
</linearGradient>
</defs>
</svg>
