<svg width="352" height="350" viewBox="0 0 352 350" fill="none" xmlns="http://www.w3.org/2000/svg">
<g clip-path="url(#clip0_1400_6255)">
<path d="M332.816 17.8206H21.0117V328.967H332.816V17.8206Z" fill="white"/>
<path d="M25.0502 34.0476H15.3193V316.724H25.0502V34.0476Z" fill="#7A5538"/>
<path d="M337.965 34.0476H328.234V316.724H337.965V34.0476Z" fill="#7A5538"/>
<path opacity="0.1" d="M331.564 329.13C333.959 328.787 335.737 327.144 335.535 325.461C335.333 323.778 333.228 322.692 330.833 323.036C328.438 323.379 326.66 325.022 326.862 326.705C327.064 328.388 329.169 329.474 331.564 329.13Z" fill="white"/>
<path d="M352 0H0V42.8884H352V0Z" fill="#B4855B"/>
<path d="M352 0H0V4.52788H352V0Z" fill="#CBA68A"/>
<path d="M352 38.7146H0V43.2425H352V38.7146Z" fill="#916949"/>
<path d="M352 306.758H0V349.646H352V306.758Z" fill="#B4855B"/>
<path d="M352 306.758H0V311.285H352V306.758Z" fill="#CBA68A"/>
<path d="M352 345.459H0V349.987H352V345.459Z" fill="#916949"/>
<path d="M4.7666 30.658C31.3326 30.5695 68.6014 29.4438 94.7625 30.658V30.7845C68.8213 31.8722 30.8582 31.1133 4.7666 30.658Z" fill="#A47853"/>
<path d="M195.866 29.76C222.432 29.6715 259.701 28.5459 285.862 29.76V29.8865C259.921 30.9742 221.958 30.2154 195.866 29.76Z" fill="#A47853"/>
<path d="M66.2529 16.4927C96.6835 16.4042 139.379 15.2785 169.358 16.4927V16.6192C139.622 17.7069 96.1976 16.948 66.2529 16.4927Z" fill="#A47853"/>
<path d="M177.516 317.925C204.082 317.837 241.35 316.711 267.512 317.925V318.052C241.57 319.14 203.607 318.381 177.516 317.925Z" fill="#A47853"/>
<path d="M238.99 336.518C269.421 336.429 312.116 335.303 342.096 336.518V336.644C312.359 337.732 268.935 336.973 238.99 336.518Z" fill="#A47853"/>
<path d="M228.148 14.7347C263.867 14.6461 314.534 13.5331 349.732 14.7347V14.8611C314.812 15.9362 263.346 15.19 228.148 14.7347Z" fill="#A47853"/>
<path d="M102.932 339.11C129.498 339.022 166.766 337.896 192.928 339.11V339.237C166.986 340.325 129.023 339.566 102.932 339.11Z" fill="#A47853"/>
<path d="M5.35742 324.072C41.0758 323.984 91.7433 322.871 126.941 324.072V324.199C92.021 325.274 40.5551 324.528 5.35742 324.072Z" fill="#A47853"/>
</g>
<defs>
<clipPath id="clip0_1400_6255">
<rect width="352" height="350" fill="white"/>
</clipPath>
</defs>
</svg>
