<svg width="58" height="43" viewBox="0 0 58 43" fill="none" xmlns="http://www.w3.org/2000/svg">
<path d="M56.8391 39.1753L56.6224 4.85207C56.6143 3.86088 55.9807 3.06689 55.204 3.06689L28.5647 3.1136V3.12917L2.56705 3.37826C1.7863 3.38345 1.16089 4.19301 1.16089 5.17901L1.18541 39.5074C1.18541 40.5142 1.83535 41.3237 2.62836 41.3081L26.8846 40.7632C27.0686 41.194 27.4201 41.4898 27.833 41.495L30.0771 41.5365C30.5226 41.5469 30.911 41.2095 31.0827 40.7269L55.4125 40.9968C56.2055 41.0072 56.8514 40.1872 56.8432 39.1805L56.8391 39.1753Z" fill="#F4E4C3"/>
<path d="M2.62433 41.3029L26.8806 40.758C27.0645 41.1888 27.4161 41.4846 27.8289 41.4898L30.0731 41.5313C30.5186 41.5417 30.9069 41.2043 31.0786 40.7217L55.4085 40.9916C56.2015 41.0019 56.8473 40.182 56.8391 39.1753L56.7656 27.3848C43.4561 28.5835 11.1757 38.5577 2.48535 41.2978C2.53032 41.2978 2.57937 41.3029 2.62433 41.3029Z" fill="#EFE492"/>
<path d="M56.8391 39.1753L56.6224 4.85207C56.6143 3.86088 55.9807 3.06689 55.204 3.06689L28.5647 3.1136V3.12917L2.56705 3.37826C1.7863 3.38345 1.16089 4.19301 1.16089 5.17901L1.18541 39.5074C1.18541 40.5142 1.83535 41.3237 2.62836 41.3081L26.8846 40.7632C27.0686 41.194 27.4201 41.4898 27.833 41.495L30.0771 41.5365C30.5226 41.5469 30.911 41.2095 31.0827 40.7269L55.4125 40.9968C56.2055 41.0072 56.8514 40.1872 56.8432 39.1805L56.8391 39.1753Z" fill="#ED5F32"/>
<path d="M2.62433 41.3029L26.8806 40.758C27.0645 41.1888 27.4161 41.4846 27.8289 41.4898L30.0731 41.5313C30.5186 41.5417 30.9069 41.2043 31.0786 40.7217L55.4085 40.9916C56.2015 41.0019 56.8473 40.182 56.8391 39.1753L56.7656 27.3848C43.4561 28.5835 11.1757 38.5577 2.48535 41.2978C2.53032 41.2978 2.57937 41.3029 2.62433 41.3029Z" fill="#BF8F80"/>
<path d="M53.3646 1.6709L55.5761 4.64966L55.6987 39.881L30.302 40.2598L29.8769 40.7944L28.0947 40.8463L27.367 40.1768L2.3791 40.1612L1.80273 4.53549L4.01008 2.3092L7.19438 2.09644L28.4789 5.21012L35.6405 5.90551L42.7244 4.20336L50.1354 3.20179L53.3646 1.6709Z" fill="#DECCA3"/>
<path d="M53.3808 1.58275C53.3808 1.52604 53.3335 1.48068 53.2769 1.48283C45.5228 1.77626 38.2663 1.96014 33.1877 1.67631C33.185 1.67616 33.1846 1.67621 33.1818 1.67584C33.095 1.66409 29.8994 1.24468 29.0192 3.0547C29.0186 3.05586 29.0183 3.05687 29.0183 3.05816V3.05816C29.0183 3.06703 29.0061 3.07 29.0018 3.06222C28.0626 1.35233 24.9773 1.74249 24.8916 1.75369C24.8889 1.75404 24.8884 1.754 24.8857 1.75414C19.8071 2.0173 12.5505 1.79733 4.79643 1.47286C4.73979 1.47049 4.69233 1.5156 4.69205 1.57228L4.51318 38.6649C4.51291 38.7203 4.5577 38.7653 4.61308 38.7654L24.9429 38.786C27.4813 38.6719 28.491 39.9173 28.8384 40.5608C28.8875 40.6542 29.0019 40.6075 29.0019 40.4986C29.0019 40.4986 29.0019 40.4986 29.0019 40.4986V40.4986C29.0019 40.4986 29.0043 40.4956 29.0057 40.4969C29.0426 40.5293 29.0971 40.5226 29.1287 40.4674C29.4802 39.8239 30.4899 38.5836 33.0283 38.7134L53.3579 38.7857C53.4134 38.7859 53.4584 38.7409 53.4583 38.6854L53.3808 3.13702V1.58275Z" fill="#FAEAC6"/>
<path d="M29.3455 2.71387H29.2351C29.1533 2.81766 29.0798 2.93183 29.0184 3.05637C29.0184 3.06675 29.0184 3.07713 29.0184 3.0927C28.949 2.95777 28.8631 2.83841 28.765 2.72425L28.6138 40.2078C28.7078 40.3376 28.7814 40.4569 28.8386 40.5607C28.8876 40.6541 29.0021 40.6074 29.0021 40.4984C29.0021 40.4984 29.0021 40.4984 29.0021 40.4933C29.0389 40.5296 29.0961 40.5244 29.1288 40.4673C29.1493 40.431 29.1697 40.3947 29.1942 40.3531L29.3455 2.71387Z" fill="#DFCEA6"/>
<path d="M30.6757 20.2797L30.6757 20.2797L30.6723 20.2819L30.6438 20.3003C29.9948 20.7195 29.1002 21.2971 28.3988 22.1103L28.3987 22.1104C27.5416 23.1048 27.0255 24.3608 27.0255 26L27.0255 26.6957C27.0255 27.2069 27.241 27.691 27.6143 28.0431C27.9865 28.3943 28.4855 28.587 29.0001 28.587C29.5147 28.587 30.0137 28.3943 30.3859 28.0431C30.7591 27.691 30.9747 27.2069 30.9747 26.6957L30.9747 26C30.9747 25.2064 31.1947 24.81 31.4433 24.519C31.7661 24.1474 32.2077 23.8558 32.9791 23.3559L32.9791 23.3559L32.9822 23.3539L33.0586 23.3036C33.788 22.8318 34.7958 22.1705 35.5722 21.145C36.4018 20.0583 36.873 18.6996 36.873 16.9565C36.873 14.9692 36.036 13.0697 34.5566 11.6738C33.0782 10.2789 31.079 9.5 29.0001 9.5C26.9211 9.5 24.9219 10.2789 23.4435 11.6738C21.9642 13.0697 21.1272 14.9692 21.1272 16.9565C21.1272 17.4678 21.3427 17.9518 21.716 18.304C22.0882 18.6552 22.5872 18.8478 23.1018 18.8478C23.6164 18.8478 24.1154 18.6552 24.4876 18.304C24.8608 17.9518 25.0763 17.4678 25.0763 16.9565C25.0763 14.9529 26.8036 13.2826 29.0001 13.2826C31.1966 13.2826 32.9238 14.9529 32.9238 16.9565C32.9238 17.9922 32.6605 18.5491 32.3795 18.9208C32.0527 19.3502 31.5889 19.688 30.8443 20.1728L30.6757 20.2797ZM29.0001 34.5C29.6125 34.5 30.2052 34.2707 30.6466 33.8543C31.0889 33.4369 31.3433 32.8644 31.3433 32.2609C31.3433 31.6573 31.0889 31.0848 30.6466 30.6674C30.2052 30.251 29.6125 30.0217 29.0001 30.0217C28.3877 30.0217 27.795 30.251 27.3536 30.6674C26.9112 31.0848 26.6569 31.6573 26.6569 32.2609C26.6569 32.8644 26.9112 33.4369 27.3536 33.8543C27.795 34.2707 28.3877 34.5 29.0001 34.5Z" fill="#F0691D" stroke="white"/>
</svg>
