<svg width="34" height="34" viewBox="0 0 34 34" fill="none" xmlns="http://www.w3.org/2000/svg">
<path d="M31.5714 19.4286H19.4286V31.5714C19.4286 32.2155 19.1727 32.8332 18.7173 33.2887C18.2618 33.7441 17.6441 34 17 34C16.3559 34 15.7382 33.7441 15.2827 33.2887C14.8273 32.8332 14.5714 32.2155 14.5714 31.5714V19.4286H2.42857C1.78447 19.4286 1.16676 19.1727 0.711313 18.7173C0.255867 18.2618 0 17.6441 0 17C0 16.3559 0.255867 15.7382 0.711313 15.2827C1.16676 14.8273 1.78447 14.5714 2.42857 14.5714H14.5714V2.42857C14.5714 1.78447 14.8273 1.16676 15.2827 0.711311C15.7382 0.255866 16.3559 0 17 0C17.6441 0 18.2618 0.255866 18.7173 0.711311C19.1727 1.16676 19.4286 1.78447 19.4286 2.42857V14.5714H31.5714C32.2155 14.5714 32.8332 14.8273 33.2887 15.2827C33.7441 15.7382 34 16.3559 34 17C34 17.6441 33.7441 18.2618 33.2887 18.7173C32.8332 19.1727 32.2155 19.4286 31.5714 19.4286Z" fill="#90C659"/>
</svg>
