<svg width="76" height="76" viewBox="0 0 76 76" fill="none" xmlns="http://www.w3.org/2000/svg">
<path d="M35.702 42.2572C35.4527 42.5422 35.2805 42.9519 35.132 43.2725C35.0133 43.5278 34.9064 43.7772 34.7461 43.991C35.1677 43.4328 37.602 43.4625 38.2255 43.4922C39.7633 43.5635 41.307 44.0028 42.6311 44.8044C43.6998 45.4516 44.5964 46.3541 45.1842 47.4644C48.0817 52.9447 48.4083 58.9475 50.2845 64.7485C50.4745 65.3303 50.8605 66.1913 51.3652 66.6307C52.8258 67.9013 54.6367 66.1378 55.5867 65.1819C57.172 63.5966 59.452 57.9738 61.9339 58.0035C62.7473 58.0153 63.6261 58.4428 64.3505 58.7694C66.0011 59.5175 67.5211 60.5803 69.2192 61.2216C70.2642 61.6253 71.3627 60.61 71.3627 59.5888C71.3745 53.0932 67.628 46.8469 62.4148 42.8153C64.7661 42.9697 67.2005 42.9638 69.2786 42.1563C72.3542 40.9628 74.8302 38.8847 75.323 35.9991C77.2823 28.7078 73.6248 17.1891 66.6008 14.0244C64.8195 13.2228 62.9077 12.736 60.9602 12.5578C57.4511 12.2432 53.853 12.9438 50.7298 14.5766C49.167 15.3916 47.7407 16.4453 46.5023 17.6997C45.8848 18.3291 45.4336 18.9703 45.018 19.7422C43.8364 21.951 42.8448 21.6007 44.4955 23.9341C45.5998 25.5016 46.2945 27.5382 46.5855 29.4203C47.1733 33.2916 46.3598 37.8397 42.5123 39.7338C40.7558 40.5991 38.902 41.2509 36.9905 41.6753C36.5867 41.7644 36.1414 41.8416 35.8148 42.1207C35.7852 42.1622 35.7377 42.2097 35.702 42.2572Z" fill="#382710"/>
<path d="M47.4998 25.5847C46.0273 22.1706 44.0917 19.76 40.072 19.7541C37.6376 19.7481 34.2057 19.4513 31.7298 20.5675C27.1995 13.1338 17.177 10.5094 9.39294 14.0185C2.36887 17.1891 -1.28863 28.7019 0.670749 35.9931C1.16356 38.8788 3.6395 40.9628 6.71512 42.1563C8.79919 42.9638 11.2276 42.9697 13.5789 42.8153C8.36575 46.8469 4.62512 53.0991 4.63106 59.5888C4.63106 60.61 5.7295 61.6253 6.78044 61.2216C8.47856 60.5744 9.99856 59.5116 11.6492 58.7694C12.3736 58.4428 13.2523 58.0153 14.0657 58.0035C16.5476 57.9738 18.8276 63.5906 20.4129 65.1819C21.3689 66.1378 23.1798 67.9013 24.6345 66.6306C25.1392 66.1913 25.5251 65.3363 25.7151 64.7485C27.5914 58.9475 27.9179 52.9447 30.8154 47.4644C32.8342 43.6347 36.9132 43.6466 40.3748 42.6016C41.3367 42.4413 42.2332 42.186 43.0467 41.7763C48.4617 39.2944 49.7086 30.7088 47.4998 25.5847Z" fill="#382710"/>
<path d="M4.23948 32.965C4.55417 34.776 6.09792 36.8482 7.2023 37.5666C9.21511 38.8907 11.6495 38.7957 13.9592 38.7541C16.3995 38.7125 18.8517 38.8016 21.2682 38.4335C23.002 38.1663 24.6882 37.7804 26.416 37.531C27.746 37.335 28.0607 37.4835 27.5442 36.0822C27.2235 35.2213 27.0751 34.1882 26.7248 33.2916C26.0479 31.5638 23.3464 29.9963 21.8739 29.0463C21.3692 28.7197 20.817 28.4169 20.3539 28.0369C19.9976 27.74 19.7839 27.5144 19.3385 27.3363C18.1392 26.8613 16.9042 26.4279 15.6514 26.1072C14.6182 25.84 13.7573 25.8519 12.7064 25.8519C12.0354 25.8519 11.4298 25.6025 10.7529 25.6857C9.03105 25.8935 3.47948 28.6129 4.23948 32.965Z" fill="#382710"/>
<path d="M71.903 32.965C71.5883 34.776 70.0445 36.8482 68.9461 37.5666C66.9274 38.8907 64.493 38.7957 62.1892 38.7541C59.7489 38.7125 57.2967 38.8016 54.8742 38.4335C53.1405 38.1663 51.4542 37.7804 49.7264 37.531C48.3964 37.335 48.0817 37.4835 48.5983 36.0822C48.9189 35.2213 49.0674 34.1882 49.4177 33.2916C50.0886 31.5638 52.7902 29.9963 54.2627 29.0463C54.7674 28.7197 55.3195 28.4169 55.7827 28.0369C56.1389 27.74 56.3527 27.5144 56.798 27.3363C57.9974 26.8613 59.2324 26.4279 60.4852 26.1072C61.5183 25.84 62.3792 25.8519 63.4302 25.8519C64.1011 25.8519 64.7067 25.6025 65.3836 25.6857C67.1174 25.8935 72.663 28.6129 71.903 32.965Z" fill="#382710"/>
<path d="M9.52975 17.8839C14.7488 14.1967 21.7016 15.6336 26.4516 19.3564C27.1048 19.867 27.7579 20.4429 28.1676 21.1792C28.9394 22.5567 28.6366 23.0198 28.1498 24.3854C28.0013 24.8011 28.0073 25.7748 27.556 25.9232C26.8198 26.1607 25.8044 25.3414 25.1454 25.1217C24.0232 24.7476 22.8713 24.4745 21.7194 24.2192C20.6507 23.9876 20.2826 25.4482 21.2741 25.8342C22.6279 26.3626 23.9044 27.087 25.0741 27.942C25.6323 28.3517 26.1251 28.8386 26.6832 29.2423C27.1701 29.5926 27.3957 30.0617 27.2651 30.6495C27.1404 31.2373 27.1166 31.8192 27.1523 32.4129C27.1938 33.0364 27.4076 35.4767 27.4076 35.4767C27.4076 35.4767 22.4023 32.977 18.2698 31.5639C14.921 30.4179 10.5451 29.8598 8.15225 30.0439C4.45913 30.3229 4.2335 32.977 4.2335 32.977C4.2335 32.977 3.26569 30.4654 4.67882 25.1336C5.38538 22.4676 7.31506 19.4573 9.52975 17.8839Z" fill="#ED6C30"/>
<path d="M71.7012 27.1761C71.8912 28.1914 72.5444 30.5604 71.9031 31.4867C71.2678 32.407 70.6384 31.2254 70.0744 30.9286C69.0175 30.3645 67.8359 30.1329 66.6484 30.0854C64.2497 29.9904 61.839 30.5782 59.565 31.2848C58.4309 31.6351 57.285 31.9617 56.1747 32.3773C55.0347 32.8048 53.9006 33.2442 52.7665 33.6776C52.0006 33.9745 51.2584 34.2951 50.4925 34.5861C49.97 34.782 49.2812 35.3104 48.7528 35.3401C48.5925 35.0136 48.6459 34.6276 48.735 34.2832C48.8953 33.6657 48.8003 33.0364 48.8419 32.4129C48.8775 31.8251 48.8537 31.2432 48.729 30.6495C48.5984 30.0617 48.824 29.5926 49.3109 29.2423C49.869 28.8386 50.3678 28.3517 50.92 27.942C52.0897 27.0811 53.3662 26.3626 54.72 25.8342C55.7115 25.4482 55.3494 23.9876 54.2747 24.2192C53.1228 24.4745 51.9709 24.7476 50.8487 25.1217C50.1897 25.3414 49.1684 26.1667 48.4381 25.9232C47.9869 25.7748 47.9928 24.8011 47.8444 24.3854C47.3575 23.0257 47.0487 22.5626 47.8265 21.1792C48.2422 20.4489 48.8894 19.8729 49.5425 19.3564C54.2925 15.6336 61.2453 14.1967 66.4644 17.8839C69.4212 19.9739 71.06 23.7204 71.7012 27.1761Z" fill="#ED6C30"/>
<path d="M43.4331 36.8897C40.9927 39.2647 34.9721 40.6481 32.1696 38.2434C30.0499 36.4206 29.7471 32.3297 30.2696 29.7884C30.7446 27.4788 30.7446 25.0088 32.7752 23.3641C34.1943 22.9188 35.9993 23.0613 37.3056 23.0613C40.6899 23.0494 42.6612 23.1088 44.2227 26.3091C45.7427 29.4381 45.5527 34.0219 43.4331 36.8897Z" fill="#ED6C30"/>
<path d="M47.1675 44.8816C46.93 44.5669 46.6806 44.2582 46.4253 43.9553C44.9587 42.2275 50.2075 42.3107 50.9021 42.2275C53.6571 41.9069 57.1662 42.4828 59.47 44.1335C60.5565 44.9053 61.554 45.8078 62.4565 46.7875C64.2021 48.6816 65.645 50.8844 66.6365 53.2535C66.8859 53.8472 67.4143 54.821 67.1946 55.4919C66.785 56.7447 64.8671 55.3375 64.214 55.0644C62.8484 54.4885 61.1621 53.8947 59.6837 54.4172C57.0356 55.3553 56.8218 60.7644 53.7996 60.8119C52.5587 60.8297 52.0303 55.4682 51.7334 54.4766C51.1812 52.6597 50.5162 50.8785 49.7265 49.1447C49.0556 47.6307 48.1887 46.2116 47.1675 44.8816ZM28.1259 45.8435C27.4134 46.8647 26.8137 47.9275 26.2615 49.1328C25.4746 50.8635 24.8042 52.6447 24.2546 54.4647C23.9578 55.4563 23.4293 60.8178 22.1884 60.8C19.1662 60.7525 18.9525 55.3435 16.3043 54.4053C14.8259 53.8828 13.1456 54.4766 11.774 55.0525C11.1268 55.3257 9.20308 56.7328 8.79933 55.48C8.57964 54.8091 9.10808 53.8353 9.35745 53.2416C10.355 50.8666 11.7918 48.6638 13.5375 46.7757C14.4459 45.796 15.4434 44.8994 16.524 44.1216C18.8218 42.4769 22.3368 41.895 25.0918 42.2157C25.7865 42.2988 31.0353 42.2157 29.5687 43.9435C29.063 44.5576 28.5817 45.1914 28.1259 45.8435Z" fill="#ED6C30"/>
</svg>
