<svg width="282" height="62" viewBox="0 0 282 62" fill="none" xmlns="http://www.w3.org/2000/svg">
<path fill-rule="evenodd" clip-rule="evenodd" d="M281 25C281 16.7157 274.284 10 266 10H16C7.71573 10 1 16.7157 1 25V44.9998C1 53.284 7.71572 59.9998 16 59.9998H266C274.284 59.9998 281 53.2841 281 44.9998V25Z" fill="#F0DF99"/>
<path fill-rule="evenodd" clip-rule="evenodd" d="M16 1H266C274.284 1 281 7.71573 281 16V19C281 10.7158 274.284 4.00004 266 4.00004H16C7.71573 4.00004 1 10.7157 1 19V16C1 7.71573 7.71573 1 16 1Z" fill="white"/>
<path fill-rule="evenodd" clip-rule="evenodd" d="M281 19C281 10.7157 274.284 4 266 4H16C7.71573 4 1 10.7157 1 19V38.9998C1 47.2841 7.71572 53.9998 16 53.9998H266C274.284 53.9998 281 47.2841 281 38.9998V19Z" fill="#FFF8DC"/>
<path d="M266 1H16C7.71573 1 1 7.71573 1 16V46C1 54.2843 7.71572 61 16 61H266C274.284 61 281 54.2843 281 46V16C281 7.71573 274.284 1 266 1Z" stroke="#382710" stroke-width="2"/>
</svg>
