<svg width="118" height="83" viewBox="0 0 118 83" fill="none" xmlns="http://www.w3.org/2000/svg">
<g clip-path="url(#clip0_259_1609)">
<path d="M107.821 18.3156C107.13 17.1764 105.609 17.3302 105.127 18.557C102.89 24.1661 98.0711 28.1198 92.0705 28.9209L84.4988 29.9318C74.4663 31.2712 67.4381 40.6825 68.8079 50.943C68.8984 51.6206 69.0607 52.259 69.2148 52.9084C74.6626 47.6786 82.8782 42.7591 95.239 41.1088C96.0719 40.9976 96.8464 41.6036 96.9601 42.4554C97.0738 43.3072 96.4854 44.0951 95.6525 44.2063C71.8584 47.383 63.7605 63.6465 62.2751 69.5492C61.8611 71.2104 62.8397 72.9123 64.469 73.3549C66.1091 73.8059 67.7675 72.8061 68.2017 71.1521C68.2971 70.7847 69.5608 66.2514 73.8359 61.4737C77.4698 65.3137 83.8415 68.5912 91.3872 66.7365C106.099 63.6492 114.738 48.6238 112.51 31.936C111.862 27.0767 110.167 22.1797 107.821 18.3156Z" fill="#8BC02B"/>
</g>
<path d="M100 55.4999C97.5 58.3571 91.4508 62.7429 84 62.9999C69.5 63.4999 85 68.752 91.4508 66.7607C108.5 61.498 111.5 48.5 112.5 41.4999C107 49.4999 103.5 51.4998 100 55.4999Z" fill="#5B9821"/>
<g clip-path="url(#clip1_259_1609)">
<path d="M25.6864 2.45982C26.8879 1.36797 28.7618 2.06928 29.0149 3.66601C30.2165 10.9782 35.1524 17.2448 42.4901 20.2387L51.7491 24.0165C64.0172 29.0221 70.1633 42.4145 65.4705 53.9158C65.1606 54.6754 64.7714 55.3646 64.3894 56.0693C59.0285 48.0979 50.0869 39.5388 34.9716 33.3716C33.9532 32.956 32.8011 33.3972 32.4115 34.3521C32.0219 35.3069 32.5365 36.4281 33.555 36.8437C62.6512 48.7154 68.1666 70.4697 68.3347 77.8665C68.377 79.9468 66.6508 81.5966 64.4677 81.5538C62.2685 81.5172 60.4656 79.7817 60.3957 77.7028C60.3815 77.2414 60.0974 71.5186 56.0852 64.4771C50.3918 67.7104 41.4075 69.3478 32.4251 64.5944C14.7591 55.9435 8.2035 35.4482 15.8358 16.7422C18.0582 11.2953 21.6103 6.16314 25.6864 2.45982Z" fill="#8BC02B"/>
<path d="M25.6794 48.9946C28.1899 53.2669 34.8795 60.3632 44.3712 62.506C62.8431 66.6761 41.689 69.6386 33.9017 65.5152C13.32 54.6174 12.6364 37.2197 13.0577 28C18.1634 39.5971 22.1648 43.0135 25.6794 48.9946Z" fill="#5B9821"/>
</g>
<defs>
<clipPath id="clip0_259_1609">
<rect width="55" height="50" fill="white" transform="translate(56 24.2783) rotate(-7.60436)"/>
</clipPath>
<clipPath id="clip1_259_1609">
<rect width="72" height="60" fill="white" transform="matrix(-0.925896 -0.377779 -0.377779 0.925896 89.3313 27.2002)"/>
</clipPath>
</defs>
</svg>
