<svg width="34" height="34" viewBox="0 0 34 34" fill="none" xmlns="http://www.w3.org/2000/svg">
<path d="M26.775 14.7249H26.775C26.1716 14.7249 25.5929 14.9646 25.1663 15.3913C24.7396 15.8179 24.5 16.3966 24.5 16.9999V25.8976L24.4911 26.0602C24.4585 26.3294 24.3297 26.578 24.128 26.76C23.9215 26.9465 23.6532 27.0498 23.375 27.0499C23.3748 27.0499 23.3747 27.0499 23.3746 27.0499H10.6484L10.4857 27.0423C9.93144 26.9745 9.49995 26.4992 9.49995 25.9249V16.9999V16.9657L9.4976 16.9315L9.4857 16.7581L9.48337 16.724L9.47872 16.6902C9.40015 16.1192 9.10776 15.5993 8.66062 15.2355C8.21349 14.8718 7.64495 14.6913 7.06989 14.7306C6.49482 14.7699 5.95611 15.026 5.5626 15.4472C5.16909 15.8684 4.95013 16.4232 4.94995 16.9996V16.9999V25.9249V25.9398L4.95039 25.9547L4.95889 26.2403L4.95936 26.256L4.96032 26.2716C5.0486 27.7141 5.68385 29.0685 6.7365 30.0586C7.78913 31.0487 9.17983 31.6 10.625 31.5999C10.625 31.5999 10.625 31.5999 10.625 31.5999H23.375H23.3898L23.4047 31.5995L23.6903 31.591L23.706 31.5905L23.7216 31.5896C25.1641 31.5013 26.5185 30.866 27.5086 29.8134C28.4988 28.7608 29.05 27.3701 29.0499 25.9249C29.0499 25.9249 29.0499 25.9249 29.0499 25.9249V16.9999V16.9657L29.0476 16.9315L29.0357 16.7581L29.0334 16.7242L29.0288 16.6905C28.954 16.1459 28.6845 15.6467 28.2702 15.2854C27.8559 14.924 27.3247 14.725 26.775 14.7249ZM8.17883 10.2781L8.15404 10.3029L8.13105 10.3294L8.00695 10.4722L7.98126 10.5017L7.95796 10.5332C7.63343 10.9717 7.47726 11.5122 7.51791 12.0562C7.55856 12.6001 7.79331 13.1114 8.17939 13.4968L8.20383 13.5212L8.22989 13.5438L8.37269 13.6679L8.40226 13.6936L8.43374 13.7169C8.87221 14.0415 9.41269 14.1976 9.95668 14.157C10.5004 14.1164 11.0115 13.8818 11.3968 13.496C11.397 13.4958 11.3971 13.4957 11.3973 13.4955L14.725 10.1667V20.8249V20.8592L14.7273 20.8934L14.7392 21.0668L14.7415 21.1007L14.7461 21.1343C14.8209 21.679 15.0904 22.1781 15.5047 22.5395C15.919 22.9008 16.4502 23.0999 16.9999 23.0999L17.0342 23.0999L17.0684 23.0976L17.2418 23.0857L17.2757 23.0834L17.3094 23.0787C17.854 23.004 18.3531 22.7345 18.7145 22.3202C19.0758 21.9059 19.2749 21.3747 19.275 20.825V20.8249V10.1667L22.6031 13.496L22.6279 13.5208L22.6544 13.5438L22.7972 13.6679L22.8234 13.6907L22.8511 13.7116C23.3124 14.0594 23.8888 14.2187 24.4632 14.1572C25.0377 14.0956 25.5672 13.8178 25.9443 13.38L25.1867 12.7273L25.9443 13.38C26.3214 12.9423 26.5179 12.3775 26.4938 11.8003C26.4698 11.2248 26.2284 10.6798 25.8184 10.2754L18.608 3.06675L18.5833 3.04205L18.5569 3.01914L18.4141 2.89504L18.3842 2.86903L18.3523 2.84548C17.9141 2.52178 17.3742 2.36609 16.8309 2.40673C16.2877 2.44736 15.7771 2.68156 15.3919 3.06675C15.3919 3.0668 15.3918 3.06686 15.3918 3.06691L8.17883 10.2781Z" fill="white" stroke="#7D432A" stroke-width="2"/>
</svg>
