<svg width="30" height="30" viewBox="0 0 30 30" fill="none" xmlns="http://www.w3.org/2000/svg">
<path d="M23.0239 23.1484L23.0238 23.148L21.7858 17.8356L25.9169 14.256C27.4202 12.9547 26.6202 10.4764 24.6323 10.3158C24.6312 10.3158 24.6302 10.3157 24.6292 10.3156L19.1979 9.85454L17.072 4.83791C17.0717 4.83734 17.0715 4.83677 17.0712 4.8362C16.3026 3.00881 13.6976 3.0087 12.9287 4.83588C12.9284 4.83656 12.9281 4.83724 12.9278 4.83791L10.8025 9.84199L5.36756 10.3033C3.37977 10.4639 2.57976 12.9418 4.08256 14.2432C4.08267 14.2433 4.08279 14.2434 4.08291 14.2435L8.21406 17.8231L6.97601 23.1355L6.9759 23.1359C6.52654 25.0682 8.61889 26.603 10.3295 25.5684C10.3298 25.5682 10.33 25.5681 10.3302 25.568L14.9989 22.7555L19.6696 25.5805C19.6697 25.5805 19.6698 25.5806 19.6699 25.5806C21.3806 26.6157 23.4733 25.0809 23.0239 23.1484Z" fill="#FFC700" stroke="white" stroke-width="2"/>
</svg>
