<svg width="47" height="47" viewBox="0 0 47 47" fill="none" xmlns="http://www.w3.org/2000/svg">
<circle cx="23.5" cy="23.5" r="23.5" fill="#FF7A00"/>
<circle cx="23.5001" cy="23.4998" r="14.8421" fill="white"/>
<circle cx="23.5" cy="11.1316" r="1.23684" fill="#F4CC3C"/>
<circle cx="23.5" cy="35.8684" r="1.23684" fill="#F4CC3C"/>
<circle cx="11.1319" cy="23.5" r="1.23684" fill="#F4CC3C"/>
<circle cx="35.8687" cy="23.5" r="1.23684" fill="#F4CC3C"/>
<circle cx="23.5" cy="23.5" r="1.23684" fill="#00B3FF" stroke="#511C0B"/>
<path d="M24.15 14.5476C24.15 14.1886 23.859 13.8976 23.5 13.8976C23.141 13.8976 22.85 14.1886 22.85 14.5476H24.15ZM22.85 14.5476V21.9687H24.15V14.5476H22.85Z" fill="#511C0B"/>
<path d="M29.5665 24.15C29.9255 24.15 30.2165 23.859 30.2165 23.5C30.2165 23.141 29.9255 22.85 29.5665 22.85V24.15ZM24.6191 24.15H29.5665V22.85H24.6191V24.15Z" fill="#511C0B"/>
</svg>
