<svg width="44" height="48" viewBox="0 0 44 48" fill="none" xmlns="http://www.w3.org/2000/svg">
<path d="M15 5.88379L11.5 5.88379L10 11.8838L14 25.8838L8 24.3838L4.5 27.3838L11.5 35.3838L18 41.3838L26.5 42.3838L37.5 37.8838L41 28.8838L37.5 16.3838L34.5 14.8838L31.5 17.3838L28.5 13.8838L25 17.3838L22.5 13.8838L18 14.8838L15 5.88379Z" fill="white" fill-opacity="0.8"/>
<path d="M14.4198 26.61L9.8219 9.50903C9.6067 8.70866 9.71827 7.85558 10.1321 7.13746C10.5458 6.41934 11.2279 5.89501 12.0283 5.67981C12.8287 5.46461 13.6818 5.57618 14.3999 5.98996C15.118 6.40374 15.6423 7.08585 15.8575 7.88623L19.9146 22.9753M19.6441 21.9694L18.5622 17.9456C18.4557 17.5493 18.4282 17.1359 18.4814 16.729C18.5346 16.3221 18.6675 15.9296 18.8724 15.5741C19.0773 15.2185 19.3502 14.9067 19.6755 14.6566C20.0009 14.4065 20.3723 14.223 20.7686 14.1164C21.1649 14.0099 21.5784 13.9824 21.9853 14.0356C22.3922 14.0888 22.7846 14.2217 23.1402 14.4266C23.4958 14.6314 23.8075 14.9044 24.0576 15.2297C24.3077 15.5551 24.4913 15.9265 24.5979 16.3228L25.9502 21.3525M25.1388 18.3347C24.9236 17.5343 25.0352 16.6813 25.449 15.9631C25.8627 15.245 26.5448 14.7207 27.3452 14.5055C28.1456 14.2903 28.9987 14.4019 29.7168 14.8156C30.4349 15.2294 30.9592 15.9115 31.1744 16.7119L31.9858 19.7297" stroke="#3C3C3C" stroke-width="4" stroke-linecap="round" stroke-linejoin="round"/>
<path d="M31.7156 18.7238C31.5004 17.9234 31.6119 17.0703 32.0257 16.3522C32.4395 15.6341 33.1216 15.1098 33.922 14.8946C34.7224 14.6794 35.5754 14.7909 36.2936 15.2047C37.0117 15.6185 37.536 16.3006 37.7512 17.101L40.1854 26.1545C41.0462 29.356 40.6 32.7683 38.9448 35.6408C37.2897 38.5132 34.5612 40.6106 31.3597 41.4714L27.336 42.5532L27.7544 42.4407C25.7554 42.9786 23.6541 43.0115 21.6392 42.5366C19.6242 42.0617 17.7588 41.0938 16.2104 39.7198C16.0244 39.5544 15.8389 39.3886 15.6538 39.2223C14.767 38.4273 11.5313 35.179 5.94425 29.4757C5.3747 28.8943 5.05443 28.1137 5.05155 27.2999C5.04868 26.486 5.36342 25.7031 5.92885 25.1177C6.53101 24.4939 7.32436 24.0891 8.18288 23.9677C9.04141 23.8463 9.91588 24.0153 10.6674 24.4477L14.42 26.61" stroke="#3C3C3C" stroke-width="4" stroke-linecap="round" stroke-linejoin="round"/>
</svg>
