<svg width="88" height="80" viewBox="0 0 88 80" fill="none" xmlns="http://www.w3.org/2000/svg">
<g clip-path="url(#clip0_660_3150)">
<path d="M26.9125 36.8735C19.8282 48.079 16.0277 62.2605 19.492 75.3644L16.0914 76.1261C13.6225 62.2004 18.5735 47.8438 26.9125 36.8735Z" fill="#247607"/>
<path d="M87.3752 0.550893C87.3962 0.0489526 86.7739 -0.195691 86.4543 0.188146C84.5493 2.4532 79.6966 7.06346 71.0844 8.14327C59.5496 9.58582 31.4465 10.3071 21.5559 21.1136C11.6654 31.9158 8.48625 47.8176 16.6527 51.7151C18.6123 53.0775 19.5879 54.8954 19.9958 56.5742C20.5383 58.8097 22.0563 60.6994 24.1883 61.543C30.0083 63.8376 41.829 64.6137 57.2662 55.1612C57.2662 55.1612 70.0289 47.7206 80.6553 25.4623C86.2104 14.2256 87.207 4.33021 87.3794 0.550893H87.3752Z" fill="#1EAF2D"/>
<path d="M30.2227 30.0809C22.0016 36.3868 18.2884 45.5947 16.6526 51.7107C18.6122 53.0731 19.5878 54.8911 19.9957 56.5698C20.2396 57.5653 20.6727 58.489 21.2657 59.2862C22.9645 38.036 31.766 33.5481 40.9627 28.2039C48.1829 24.007 64.9742 21.8854 73.805 14.9932C63.4141 20.7254 43.5236 19.8818 30.2185 30.0809H30.2227Z" fill="#81DC61"/>
<path d="M45.9669 12.762C53.7171 11.1044 58.0274 10.2228 63.8431 8.87305C50.4244 10.1258 29.7476 12.1589 21.5559 21.1094C18.9656 23.9397 16.8419 27.1201 15.2566 30.3426C23.5113 22.2694 25.2565 17.1951 45.9669 12.762Z" fill="#DEE214"/>
<path d="M86.4543 0.183928C86.0842 0.622599 85.6048 1.14985 85.0119 1.71928C84.8563 7.1436 82.5981 20.038 67.4553 38.4158C54.1207 54.5959 44.8063 59.9401 37.9939 62.6354C43.4354 61.8256 49.9408 59.6449 57.2662 55.1612C57.2662 55.1612 70.0289 47.7206 80.6553 25.4623C86.2104 14.2256 87.207 4.33021 87.3794 0.550893C87.4004 0.0489526 86.778 -0.195691 86.4585 0.188146L86.4543 0.183928Z" fill="#DEE214"/>
</g>
<g clip-path="url(#clip1_660_3150)">
<path d="M0 79.27C0 79.27 5.06 72.41 9.39 72.05C13.72 71.69 13.44 73.49 15.97 73.49C18.5 73.49 18.76 72.88 20.21 72.92C21.66 72.96 21.46 73.19 23.8 73.19C25.64 73.19 26.51 72.41 27.61 72.43C28.92 72.45 30.06 73.8 31.02 74.69C33.08 76.59 34.74 79.68 34.74 79.68L0 79.27Z" fill="#451A0D"/>
</g>
<defs>
<clipPath id="clip0_660_3150">
<rect width="76" height="75" fill="white" transform="translate(12)"/>
</clipPath>
<clipPath id="clip1_660_3150">
<rect width="34.74" height="7.67" fill="white" transform="translate(0 72)"/>
</clipPath>
</defs>
</svg>
