<svg width="56" height="39" viewBox="0 0 56 39" fill="none" xmlns="http://www.w3.org/2000/svg">
<path d="M22.9375 27.605C22.9375 26.7766 22.2659 26.105 21.4375 26.105H17.5625C16.7341 26.105 16.0625 26.7766 16.0625 27.605V36.0869C16.0625 36.9153 16.7341 37.5869 17.5625 37.5869H21.4375C22.2659 37.5869 22.9375 36.9153 22.9375 36.0869V27.605Z" fill="#6D4534" stroke="white" stroke-width="2"/>
<path d="M35.125 23.5462C35.125 21.437 34.2035 19.5579 32.782 18.2386C33.1119 17.3712 33.2969 16.4278 33.2969 15.4416C33.2969 11.6753 30.6683 8.53471 27.1585 7.73154C26.7608 4.19159 23.7551 1.4375 20.1094 1.4375C16.4636 1.4375 13.4578 4.19167 13.0602 7.73169C12.1054 7.95015 11.197 8.34485 10.3827 8.89804C9.33304 9.61112 8.47056 10.5666 7.86828 11.6835C7.266 12.8005 6.94164 14.0461 6.92263 15.3149C6.90765 16.3157 7.08295 17.3076 7.43663 18.2387C6.01516 19.558 5.09375 21.4371 5.09375 23.5462C5.09375 27.5598 8.36897 30.835 12.3825 30.835H27.8363C31.8498 30.835 35.125 27.5598 35.125 23.5462Z" fill="#44911B" stroke="white" stroke-width="2"/>
<g clip-path="url(#clip0_291_533)">
<path d="M41 29.74C41 28.9116 40.3284 28.24 39.5 28.24H36.5C35.6716 28.24 35 28.9116 35 29.74V36.52C35 37.3484 35.6716 38.02 36.5 38.02H39.5C40.3284 38.02 41 37.3484 41 36.52V29.74Z" fill="#6D4534" stroke="white" stroke-width="2"/>
<path d="M51 26.32C51 24.5792 50.2581 23.0253 49.1075 21.9161C49.3595 21.216 49.5 20.4593 49.5 19.67C49.5 16.5383 47.3447 13.9198 44.4468 13.1982C44.0546 10.2646 41.5404 8 38.5 8C35.4595 8 32.9453 10.2647 32.5532 13.1983C31.793 13.3875 31.0699 13.7098 30.4183 14.1525C29.5332 14.7538 28.8059 15.5594 28.298 16.5013C27.7902 17.4432 27.5167 18.4935 27.5006 19.5634C27.4886 20.367 27.6221 21.1639 27.8924 21.9162C26.7419 23.0253 26 24.5792 26 26.32C26 29.7123 28.7677 32.48 32.16 32.48H44.84C48.2323 32.48 51 29.7123 51 26.32Z" fill="#44911B" stroke="white" stroke-width="2"/>
</g>
<defs>
<clipPath id="clip0_291_533">
<rect width="32" height="32" fill="white" transform="translate(24 7)"/>
</clipPath>
</defs>
</svg>
