<svg width="76" height="80" viewBox="0 0 76 80" fill="none" xmlns="http://www.w3.org/2000/svg">
<g filter="url(#filter0_d_259_1631)">
<path fill-rule="evenodd" clip-rule="evenodd" d="M42.1976 69.9523C42.354 69.7855 42.564 69.6778 42.7902 69.6439C58.191 67.3321 70 54.0451 70 38C70 20.3269 55.6731 6 38 6C20.3269 6 6 20.3269 6 38C6 54.3522 18.2653 67.8397 34.098 69.7645C34.3347 69.7933 34.5559 69.9027 34.7191 70.0766L37.6707 73.2227C38.0657 73.6437 38.7343 73.6437 39.1293 73.2227L42.1976 69.9523Z" fill="white" fill-opacity="0.5" shape-rendering="crispEdges"/>
<path d="M37.6707 73.2227L38.7646 72.1964L37.6707 73.2227ZM39.1293 73.2227L38.0354 72.1964L39.1293 73.2227ZM34.098 69.7645L34.279 68.2755L34.098 69.7645ZM34.7191 70.0766L35.813 69.0503L34.7191 70.0766ZM42.7902 69.6439L42.5675 68.1605L42.7902 69.6439ZM42.1976 69.9523L43.2915 70.9786L42.1976 69.9523ZM68.5 38C68.5 53.2917 57.2451 65.9573 42.5675 68.1605L43.0128 71.1273C59.1369 68.707 71.5 54.7986 71.5 38H68.5ZM38 7.5C54.8447 7.5 68.5 21.1553 68.5 38H71.5C71.5 19.4985 56.5015 4.5 38 4.5V7.5ZM7.5 38C7.5 21.1553 21.1553 7.5 38 7.5V4.5C19.4985 4.5 4.5 19.4985 4.5 38H7.5ZM34.279 68.2755C19.1901 66.4411 7.5 53.5846 7.5 38H4.5C4.5 55.1199 17.3406 69.2384 33.917 71.2535L34.279 68.2755ZM38.7646 72.1964L35.813 69.0503L33.6251 71.1029L36.5768 74.249L38.7646 72.1964ZM41.1036 68.9259L38.0354 72.1964L40.2232 74.249L43.2915 70.9786L41.1036 68.9259ZM36.5768 74.249C37.5644 75.3016 39.2356 75.3016 40.2232 74.249L38.0354 72.1964C38.2329 71.9858 38.5671 71.9858 38.7646 72.1964L36.5768 74.249ZM33.917 71.2535C33.8155 71.2412 33.7101 71.1934 33.6251 71.1029L35.813 69.0503C35.4018 68.6119 34.854 68.3454 34.279 68.2755L33.917 71.2535ZM42.5675 68.1605C42.0181 68.243 41.4979 68.5058 41.1036 68.9259L43.2915 70.9786C43.2102 71.0653 43.11 71.1127 43.0128 71.1273L42.5675 68.1605Z" fill="white"/>
</g>
<g clip-path="url(#clip0_259_1631)">
<g filter="url(#filter1_d_259_1631)">
<path d="M49.25 42C49.25 48.9039 44.9039 53.25 38 53.25C31.0961 53.25 26.75 48.9039 26.75 42C26.75 34.5914 34.8148 24.5898 37.2883 21.6969C37.3763 21.5941 37.4855 21.5116 37.6084 21.455C37.7314 21.3984 37.8651 21.3691 38.0004 21.3691C38.1357 21.3691 38.2694 21.3984 38.3923 21.455C38.5153 21.5116 38.6245 21.5941 38.7125 21.6969C41.1852 24.5898 49.25 34.5914 49.25 42Z" fill="#38D3F4"/>
<path d="M36.5287 21.0465L36.5282 21.047C35.2753 22.5124 32.6035 25.7808 30.2394 29.6319C27.9013 33.4406 25.75 37.9983 25.75 42C25.75 45.6647 26.9078 48.7499 29.0789 50.9211C31.2501 53.0922 34.3353 54.25 38 54.25C41.6647 54.25 44.7499 53.0922 46.9211 50.9211C49.0922 48.7499 50.25 45.6647 50.25 42C50.25 37.9983 48.0987 33.4406 45.7607 29.6319C43.3967 25.7808 40.7251 22.5125 39.4727 21.0472L39.4721 21.0465C39.2902 20.8341 39.0645 20.6635 38.8104 20.5466C38.5564 20.4297 38.28 20.3691 38.0004 20.3691C37.7207 20.3691 37.4444 20.4297 37.1904 20.5466C36.9363 20.6635 36.7106 20.8341 36.5287 21.0465Z" stroke="white" stroke-width="2" stroke-miterlimit="10"/>
</g>
<path d="M44.875 42.625C44.875 44.1168 44.2824 45.5476 43.2275 46.6025C42.1726 47.6574 40.7418 48.25 39.25 48.25" stroke="white" stroke-width="2" stroke-linecap="round" stroke-linejoin="round"/>
<ellipse cx="36.6498" cy="28.8774" rx="4.7369" ry="5.83851" transform="rotate(26.2669 36.6498 28.8774)" fill="white" fill-opacity="0.18"/>
</g>
<defs>
<filter id="filter0_d_259_1631" x="0.5" y="0.5" width="75" height="78.5386" filterUnits="userSpaceOnUse" color-interpolation-filters="sRGB">
<feFlood flood-opacity="0" result="BackgroundImageFix"/>
<feColorMatrix in="SourceAlpha" type="matrix" values="0 0 0 0 0 0 0 0 0 0 0 0 0 0 0 0 0 0 127 0" result="hardAlpha"/>
<feOffset/>
<feGaussianBlur stdDeviation="2"/>
<feComposite in2="hardAlpha" operator="out"/>
<feColorMatrix type="matrix" values="0 0 0 0 0.570993 0 0 0 0 0.570993 0 0 0 0 0.570993 0 0 0 0.25 0"/>
<feBlend mode="normal" in2="BackgroundImageFix" result="effect1_dropShadow_259_1631"/>
<feBlend mode="normal" in="SourceGraphic" in2="effect1_dropShadow_259_1631" result="shape"/>
</filter>
<filter id="filter1_d_259_1631" x="19.75" y="14.3691" width="36.5" height="45.8809" filterUnits="userSpaceOnUse" color-interpolation-filters="sRGB">
<feFlood flood-opacity="0" result="BackgroundImageFix"/>
<feColorMatrix in="SourceAlpha" type="matrix" values="0 0 0 0 0 0 0 0 0 0 0 0 0 0 0 0 0 0 127 0" result="hardAlpha"/>
<feOffset/>
<feGaussianBlur stdDeviation="2.5"/>
<feComposite in2="hardAlpha" operator="out"/>
<feColorMatrix type="matrix" values="0 0 0 0 0.269478 0 0 0 0 0.40016 0 0 0 0 0.223562 0 0 0 0.25 0"/>
<feBlend mode="normal" in2="BackgroundImageFix" result="effect1_dropShadow_259_1631"/>
<feBlend mode="normal" in="SourceGraphic" in2="effect1_dropShadow_259_1631" result="shape"/>
</filter>
<clipPath id="clip0_259_1631">
<rect width="40" height="40" fill="white" transform="translate(18 17)"/>
</clipPath>
</defs>
</svg>
