<svg width="78" height="92" viewBox="0 0 78 92" fill="none" xmlns="http://www.w3.org/2000/svg">
<g clip-path="url(#clip0_1597_8532)">
<path d="M40.2574 19.2037C39.8042 19.25 39.3279 19.1377 38.9196 18.8646C38.018 18.2431 37.8008 17.0132 38.4278 16.1168C39.3255 14.8359 44.0146 8.46734 48.3656 8.72269C49.4638 8.78546 50.292 9.72221 50.2266 10.8061C50.1618 11.897 49.2113 12.7285 48.1263 12.6574C46.7527 12.5878 43.6298 15.5997 41.6862 18.3653C41.3418 18.8552 40.8151 19.1468 40.2574 19.2037Z" fill="#511C0B"/>
<path d="M30.9406 88.8474C30.0971 88.9335 29.251 88.6491 28.6283 88.0691L24.1527 83.9022C23.3896 83.1897 23.0619 82.1179 23.2961 81.1007C23.5374 80.0827 24.306 79.2628 25.311 78.9643L31.1875 77.1893C31.3722 77.1354 31.5583 77.0954 31.7465 77.0762C32.6876 76.9802 33.6266 77.346 34.2558 78.0582C34.8842 78.7635 35.1317 79.7386 34.9084 80.6567L33.5068 86.5918C33.2226 87.81 32.1808 88.7138 30.926 88.8419L30.9406 88.8474Z" fill="#511C0B"/>
<path d="M40.6845 87.4888C39.4506 87.6147 38.263 86.9525 37.7281 85.8529L35.0621 80.368C34.6433 79.5084 34.6739 78.498 35.1455 77.6664C35.6171 76.8348 36.4683 76.2722 37.4164 76.1754C37.5837 76.1584 37.7594 76.1544 37.9372 76.1712L44.0546 76.617C45.1047 76.6917 46.0356 77.3242 46.4908 78.264C46.946 79.2039 46.8632 80.3245 46.2752 81.189L42.8239 86.2281C42.3333 86.9427 41.5496 87.4074 40.6852 87.4957L40.6845 87.4888Z" fill="#511C0B"/>
<path d="M34.5186 85.67C32.7131 85.8543 31.4951 85.3771 30.5261 84.9933C29.7699 84.6928 29.1686 84.4604 28.1988 84.4824C28.044 84.4842 27.9046 84.4985 27.7652 84.5127C26.8659 84.6045 26.2269 84.9006 25.4869 85.2419C24.6801 85.6181 23.7652 86.0402 22.5452 86.1648C22.3501 86.1847 22.1542 86.1977 21.9499 86.1976C20.3463 86.2214 19.2995 85.5588 18.4628 85.0216C17.5515 84.4431 16.6855 83.895 14.634 83.7406C9.18331 83.3387 7.77472 80.6495 7.5446 80.1204C7.25712 79.4432 7.37386 78.6548 7.84441 78.0891L14.1662 70.5326C14.398 70.2501 14.708 70.0436 15.055 69.9242C15.777 69.6826 32.8427 63.9393 42.693 62.9337C47.057 62.4882 49.5203 63.0202 50.6674 64.6659C51.7719 66.239 52.9611 67.6075 54.1099 68.9243C56.0652 71.173 57.7488 73.1066 58.3592 75.3597C58.5834 76.1762 58.2555 77.0351 57.5506 77.5128C56.3441 78.3215 55.1598 78.5194 54.379 78.5991C53.8841 78.6496 53.4204 78.6619 52.9638 78.6736C52.5706 78.6857 52.1975 78.6888 51.849 78.7244C51.3192 78.7785 50.9289 78.8883 50.5896 79.0838C49.5766 79.6489 49.2316 80.2018 48.8246 80.8379C48.3577 81.5781 47.7149 82.5951 46.2603 82.9744C45.9941 83.0575 45.7181 83.1137 45.4392 83.1421C44.4842 83.2396 43.636 83.0045 42.889 82.7939C42.142 82.5834 41.4968 82.4044 40.6882 82.4869C40.5418 82.5019 40.3961 82.5238 40.2379 82.5609C39.5144 82.7187 39.318 82.9346 38.837 83.4664C38.1916 84.1828 37.2101 85.2623 35.0206 85.6187C34.84 85.6442 34.6734 85.6682 34.5061 85.6853L34.5186 85.67Z" fill="#511C0B"/>
<path d="M55.7553 16.7339C49.9761 17.3239 47.1944 14.9147 46.4829 14.1549C45.6862 13.3199 45.3527 12.1228 45.5791 10.9594C44.9434 10.045 44.757 8.90985 45.065 7.71722C45.6288 5.51215 47.8924 3.25948 50.6922 2.12025C51.2601 1.8874 51.893 1.73885 52.5901 1.66768C55.776 1.34246 59.8414 2.80215 62.5326 3.77255C63.0879 3.9677 63.5783 4.14847 63.9863 4.2817C64.5471 4.46228 65.1036 4.53139 65.6404 4.47659C66.1214 4.42749 66.474 4.29356 66.6357 4.22109C66.8308 4.13123 67.0845 4.06336 67.3006 4.0413C68.0744 3.9623 68.8216 4.31273 69.2603 4.95347C69.6991 5.5942 69.7406 6.41539 69.3804 7.09571C68.9012 7.99104 67.5218 10.2794 64.901 12.3447C60.1582 16.1865 56.299 16.6784 55.8738 16.7218L55.7623 16.7332L55.7553 16.7339Z" fill="#511C0B"/>
<path d="M35.0486 80.2363C33.4313 80.4014 32.3542 79.9937 31.4892 79.6623C30.8369 79.4141 30.3605 79.2319 29.5671 79.2569C29.4409 79.2628 29.3147 79.2687 29.2032 79.2801C28.4642 79.3555 27.9521 79.5827 27.3124 79.8718C26.5989 80.1965 25.7906 80.5588 24.7101 80.6691C24.5358 80.6869 24.3539 80.6985 24.1712 80.7031C22.7224 80.7251 21.7839 80.1564 21.0323 79.6945C20.2731 79.2264 19.5523 78.7893 17.8355 78.6707C12.9761 78.3344 11.69 75.9474 11.4871 75.4785C11.1836 74.782 11.3059 73.979 11.8036 73.4036L14.6828 70.0738C10.5684 66.4786 7.78613 61.6491 6.77196 56.2685C6.64551 55.5819 6.53928 54.8862 6.4679 54.187C6.31444 52.6148 5.86811 47.9666 8.28317 42.2988C13.9955 30.0827 24.7149 20.6852 40.1663 14.3092C40.3489 14.2346 40.5343 14.1877 40.7225 14.1685C41.2314 14.1165 41.7531 14.2591 42.16 14.5883C42.7268 15.0341 42.9976 15.755 42.8794 16.4596C42.1199 20.8881 46.7064 29.1778 50.0572 35.2293C52.0688 38.8573 53.8057 42.0027 54.5026 44.2749C54.7328 44.874 55.6275 47.5667 55.67 52.6059C55.6735 52.6405 55.6771 52.6751 55.666 52.7042C55.4721 57.2219 54.0389 61.5373 51.5055 65.2865C53.0968 67.0057 55.0557 69.289 55.7843 70.8375C56.2059 71.7248 55.8992 72.7914 55.0668 73.3311C54.2413 73.8701 53.3423 74.1717 52.2339 74.2848C51.7947 74.3297 51.3875 74.3433 50.9867 74.3492C50.6708 74.3605 50.3543 74.3648 50.0336 74.3975C49.6014 74.4416 49.3066 74.5207 49.0335 74.6745C48.219 75.1144 47.9442 75.5272 47.6103 76.0509C47.2018 76.6732 46.5931 77.6098 45.2409 77.9577C45.0019 78.031 44.753 78.0774 44.5021 78.103C43.6376 78.1913 42.8844 77.9884 42.2183 77.8115C41.5885 77.645 41.0521 77.4969 40.3898 77.5645C40.2713 77.5766 40.1528 77.5887 40.0225 77.623C39.4704 77.7353 39.3375 77.8818 38.9371 78.3074C38.353 78.9336 37.4702 79.8771 35.4948 80.1907C35.3421 80.2133 35.1894 80.2359 35.043 80.2508L35.0486 80.2363Z" fill="#511C0B"/>
<path d="M40.0575 17.2448C40.0575 17.2448 44.7914 10.4869 48.243 10.6941" stroke="url(#paint0_linear_1597_8532)" stroke-width="1.04" stroke-miterlimit="10"/>
<path d="M31.5875 86.1449L32.9891 80.2098C33.1555 79.4933 32.4783 78.8629 31.7744 79.0747L25.8979 80.8498C25.187 81.0622 24.9756 81.9582 25.5201 82.4622L29.9957 86.6291C30.5402 87.1332 31.4219 86.8683 31.5945 86.1441L31.5875 86.1449Z" fill="#F7F4E7"/>
<path d="M41.1819 85.1159L44.6332 80.0768C45.05 79.4677 44.648 78.6343 43.9103 78.5837L37.7929 78.1379C37.0552 78.0873 36.534 78.8471 36.855 79.5068L39.521 84.9917C39.8426 85.6583 40.7721 85.7243 41.1889 85.1152L41.1819 85.1159Z" fill="#F7F4E7"/>
<path d="M49.0423 65.7906C52.0274 70.0537 55.6429 72.9024 56.446 75.8703C54.2371 77.3479 51.8969 76.0898 49.6174 77.3578C46.8982 78.8735 47.2814 80.6951 45.7138 81.072C44.1061 81.6069 42.6133 80.0245 39.828 80.6166C37.0427 81.2087 37.6311 83.1772 34.7138 83.6499C31.7966 84.1226 31.095 82.4245 28.1452 82.5087C25.1946 82.5861 24.2312 84.1884 21.9241 84.2211C19.6171 84.2537 19.299 82.1037 14.7847 81.7671C10.2634 81.4312 9.3737 79.3395 9.3737 79.3395L15.6955 71.783C15.6955 71.783 46.0488 61.5144 49.0409 65.7767L49.0423 65.7906Z" fill="#599812"/>
<path d="M67.6105 6.17774C67.6634 6.07441 67.56 5.95905 67.452 6.00505C66.8124 6.29419 65.3133 6.78998 63.3609 6.15687C60.7459 5.3116 54.6485 2.64632 51.4431 3.95286C48.2377 5.2594 45.9501 8.31197 47.3085 9.95707C47.5908 10.4459 47.6187 10.9257 47.5328 11.3262C47.4247 11.8549 47.5586 12.4078 47.9301 12.8036C48.9481 13.8749 51.3958 15.2199 55.6601 14.7636C55.6601 14.7636 59.1444 14.4638 63.6657 10.7985C65.9864 8.96672 67.1982 6.96832 67.6182 6.18395L67.6105 6.17774Z" fill="#78CE1D"/>
<path d="M52.3882 6.72512C49.9898 7.24277 48.2705 8.82431 47.3015 9.95851C47.5839 10.4473 47.6117 10.9271 47.5258 11.3276C47.4794 11.5632 47.4756 11.8014 47.5275 12.034C50.0357 7.69277 52.3741 7.62194 54.881 7.408C56.8504 7.24193 60.6596 8.46895 63.249 7.88983C60.4422 8.06443 56.2692 5.89524 52.3889 6.73204L52.3882 6.72512Z" fill="#B1EF6A"/>
<path d="M57.5064 4.62819C59.3316 5.05045 60.3429 5.29697 61.7252 5.58956C58.7271 4.51058 54.0869 2.87173 51.4362 3.95376C50.5979 4.29816 49.8204 4.75526 49.156 5.28477C51.7352 4.39891 52.6222 3.49692 57.5064 4.62819Z" fill="#9CD353"/>
<path d="M67.4458 6.01275C67.3246 6.0671 67.1692 6.13193 66.9852 6.19268C66.4039 7.32928 64.6246 9.84031 59.5284 12.2213C55.0446 14.3228 52.5077 14.5189 50.7785 14.4156C52.0277 14.7847 53.6392 14.9769 55.6595 14.7567C55.6595 14.7567 59.1438 14.457 63.6651 10.7917C65.9857 8.95987 67.1975 6.96146 67.6176 6.1771C67.6704 6.07377 67.5671 5.95841 67.4591 6.00441L67.4458 6.01275Z" fill="#9CD353"/>
<path d="M8.71271 55.8892C9.79919 61.6332 13.0459 66.5272 17.5154 69.8063L13.3004 74.6785C13.3004 74.6785 14.0635 76.4264 17.9718 76.6919C21.8738 76.9651 22.1412 78.7566 24.1387 78.7275C26.1355 78.6916 26.971 77.3541 29.5207 77.2827C32.0703 77.2113 32.6656 78.6265 35.1959 78.2283C37.7193 77.8308 37.22 76.182 39.6268 75.6775C42.0336 75.1729 43.3239 76.4962 44.7142 76.0395C46.0691 75.7193 45.7449 74.1995 48.0942 72.9244C50.0631 71.856 52.0858 72.9016 53.9952 71.6644C53.3665 70.3366 51.314 67.8949 48.9436 65.4438C51.7596 61.8406 53.4819 57.3908 53.6845 52.6134C53.6369 47.3859 52.6225 44.9012 52.6225 44.9012C50.8217 38.8524 39.5884 23.8963 40.9213 16.1145C19.3267 25.0344 12.563 37.7844 10.0937 43.059C7.85448 48.3101 8.28982 52.5747 8.42561 53.9739C8.49204 54.6246 8.58495 55.2587 8.70573 55.8899L8.71271 55.8892Z" fill="#7CC123"/>
<path d="M32.3833 65.5813C40.2067 64.7827 46.0679 59.4239 45.4747 53.6123C44.8814 47.8006 38.0583 43.7367 30.2349 44.5354C22.4115 45.334 16.5503 50.6927 17.1436 56.5044C17.7368 62.3161 24.5599 66.3799 32.3833 65.5813Z" fill="#F7F4E7"/>
<path d="M24.3569 57.4752C24.9614 57.4135 25.4017 56.8768 25.3405 56.2765C25.2792 55.6763 24.7395 55.2397 24.135 55.3014C23.5305 55.3631 23.0902 55.8997 23.1515 56.5C23.2128 57.1003 23.7525 57.5369 24.3569 57.4752Z" fill="#44311E"/>
<path d="M39.0315 55.9771C39.636 55.9154 40.0763 55.3788 40.015 54.7785C39.9537 54.1782 39.414 53.7416 38.8096 53.8033C38.2051 53.865 37.7648 54.4017 37.826 55.002C37.8873 55.6022 38.427 56.0388 39.0315 55.9771Z" fill="#44311E"/>
<path d="M28.3809 59.1484L29.0128 59.3358C31.113 59.9678 33.3786 59.7365 35.3078 58.6931L35.8889 58.382" stroke="#E26507" stroke-miterlimit="10" stroke-linecap="round"/>
</g>
<defs>
<linearGradient id="paint0_linear_1597_8532" x1="39.9668" y1="13.6365" x2="48.037" y2="14.1279" gradientUnits="userSpaceOnUse">
<stop stop-color="#7CC123"/>
<stop offset="1" stop-color="#B1EF6A"/>
</linearGradient>
<clipPath id="clip0_1597_8532">
<rect width="69.3529" height="84.5238" fill="white" transform="translate(0 7.04297) rotate(-5.82879)"/>
</clipPath>
</defs>
</svg>
