<svg width="164" height="62" viewBox="0 0 164 62" fill="none" xmlns="http://www.w3.org/2000/svg">
<path fill-rule="evenodd" clip-rule="evenodd" d="M7 2C4.23858 2 2 4.23858 2 7V51C2 53.7614 4.23858 56 7 56H77.239C77.5153 56 77.7793 56.1143 77.9683 56.3158L81.0707 59.6226C81.4657 60.0436 82.1343 60.0436 82.5293 59.6226L85.6317 56.3158C85.8207 56.1143 86.0847 56 86.361 56H157C159.761 56 162 53.7614 162 51V7C162 4.23858 159.761 2 157 2H7Z" fill="white" fill-opacity="0.7"/>
<path d="M85.6317 56.3158L86.7256 57.3421L85.6317 56.3158ZM81.0707 59.6226L79.9768 60.6489L81.0707 59.6226ZM82.5293 59.6226L81.4354 58.5963L82.5293 59.6226ZM77.9683 56.3158L76.8744 57.3421L77.9683 56.3158ZM3.5 7C3.5 5.067 5.067 3.5 7 3.5V0.5C3.41015 0.5 0.5 3.41015 0.5 7H3.5ZM3.5 51V7H0.5V51H3.5ZM7 54.5C5.067 54.5 3.5 52.933 3.5 51H0.5C0.5 54.5899 3.41015 57.5 7 57.5V54.5ZM77.239 54.5H7V57.5H77.239V54.5ZM82.1646 58.5963L79.0622 55.2895L76.8744 57.3421L79.9768 60.6489L82.1646 58.5963ZM84.5378 55.2895L81.4354 58.5963L83.6232 60.6489L86.7256 57.3421L84.5378 55.2895ZM157 54.5H86.361V57.5H157V54.5ZM160.5 51C160.5 52.933 158.933 54.5 157 54.5V57.5C160.59 57.5 163.5 54.5899 163.5 51H160.5ZM160.5 7V51H163.5V7H160.5ZM157 3.5C158.933 3.5 160.5 5.067 160.5 7H163.5C163.5 3.41015 160.59 0.5 157 0.5V3.5ZM7 3.5H157V0.5H7V3.5ZM86.7256 57.3421C86.6311 57.4429 86.4991 57.5 86.361 57.5V54.5C85.6703 54.5 85.0104 54.7858 84.5378 55.2895L86.7256 57.3421ZM79.9768 60.6489C80.9644 61.7015 82.6356 61.7015 83.6232 60.6489L81.4354 58.5963C81.6329 58.3857 81.9671 58.3857 82.1646 58.5963L79.9768 60.6489ZM77.239 57.5C77.1009 57.5 76.9689 57.4428 76.8744 57.3421L79.0622 55.2895C78.5896 54.7858 77.9297 54.5 77.239 54.5V57.5Z" fill="white"/>
</svg>
